<svg xmlns="http://www.w3.org/2000/svg" xmlns:xlink="http://www.w3.org/1999/xlink" viewBox="0 0 130 130">
  <defs>
    <style>
      .cls-1, .cls-3 {
        fill: none;
      }

      .cls-2 {
        opacity: 0.12;
        fill: url(#linear-gradient);
      }

      .cls-3 {
        stroke: #fff;
        stroke-linecap: round;
        stroke-linejoin: round;
        stroke-miterlimit: 10;
        stroke-width: 3px;
      }

      .cls-4 {
        fill: #fff;
      }
    </style>
    <linearGradient id="linear-gradient" x1="0.5" x2="0.5" y2="1" gradientUnits="objectBoundingBox">
      <stop offset="0" stop-color="#fff" stop-opacity="0"/>
      <stop offset="1" stop-color="#fff"/>
    </linearGradient>
  </defs>
  <g id="why-easy-pay" transform="translate(5553 -4418)">
    <rect id="Rectangle_4564" data-name="Rectangle 4564" class="cls-1" width="130" height="130" transform="translate(-5553 4418)"/>
    <circle id="Ellipse_2058" data-name="Ellipse 2058" class="cls-2" cx="46.5" cy="46.5" r="46.5" transform="translate(-5516 4437)"/>
    <g id="Group_3602" data-name="Group 3602" transform="translate(-6997.801 2402.743)">
      <path id="Path_1263" data-name="Path 1263" class="cls-3" d="M1499.757,2113.614a33.257,33.257,0,1,1,33.257-33.257A33.193,33.193,0,0,1,1499.757,2113.614Z" transform="translate(6.402 0)"/>
      <g id="Group_1011" data-name="Group 1011" transform="translate(1546.571 2065.782)">
        <g id="Group_1010" data-name="Group 1010" transform="translate(5.962)">
          <path id="Path_1264" data-name="Path 1264" class="cls-3" d="M1526.6,2097.637a33.336,33.336,0,0,0,2.385-36.437" transform="translate(-1526.6 -2061.2)"/>
        </g>
        <path id="Path_1265" data-name="Path 1265" class="cls-3" d="M1522.1,2080.8l5.962,10.467,12.852-1.06" transform="translate(-1522.1 -2054.83)"/>
      </g>
      <g id="Group_1013" data-name="Group 1013" transform="translate(1446.8 2066.842)">
        <g id="Group_1012" data-name="Group 1012" transform="translate(6.149)">
          <path id="Path_1266" data-name="Path 1266" class="cls-3" d="M1458.144,2062a33.336,33.336,0,0,0-2.385,36.437" transform="translate(-1451.441 -2062)"/>
        </g>
        <path id="Path_1267" data-name="Path 1267" class="cls-3" d="M1465.482,2072.467l-5.83-10.467-12.852.927" transform="translate(-1446.8 -2062)"/>
      </g>
      <g id="Group_1015" data-name="Group 1015" transform="translate(1496.885 2064.987)">
        <g id="Group_1014" data-name="Group 1014">
          <path id="Path_1268" data-name="Path 1268" class="cls-4" d="M1494.4,2073.575h-.265c-3.842-.662-6.095-1.192-6.095-3.18,0-3.312,5.3-3.445,5.962-3.445,2.252,0,4.637.4,5.962,2.385a.5.5,0,0,0,.8.133l1.325-.8c.132-.132.265-.265.265-.4a.486.486,0,0,0-.132-.4c-2.252-3.047-4.9-3.578-8.347-3.578-3.048,0-5.7.8-7.287,2.252a5.014,5.014,0,0,0-1.59,3.71c0,4.108,4.505,4.9,8.48,5.565s6.625,1.325,6.625,3.71c0,3.313-4.372,3.578-6.227,3.578-2.517,0-5.565-1.06-6.757-3.312a.637.637,0,0,0-.8-.265l-1.457.663c-.132.133-.265.133-.265.265v.4c1.855,3.313,6.095,4.637,9.407,4.637,5.7,0,9.142-2.252,9.142-6.095C1503.15,2075.165,1498.512,2074.37,1494.4,2073.575Z" transform="translate(-1484.6 -2059.397)"/>
          <line id="Line_690" data-name="Line 690" class="cls-3" y2="5.035" transform="translate(9.275)"/>
        </g>
        <line id="Line_691" data-name="Line 691" class="cls-3" y2="4.902" transform="translate(9.275 26.367)"/>
      </g>
    </g>
  </g>
</svg>
