<svg xmlns="http://www.w3.org/2000/svg" xmlns:xlink="http://www.w3.org/1999/xlink" viewBox="0 0 108 108">
  <defs>
    <style>
      .cls-1, .cls-3 {
        fill: none;
      }

      .cls-2 {
        opacity: 0.12;
        fill: url(#linear-gradient);
      }

      .cls-3 {
        stroke: #7d5ab5;
        stroke-linejoin: round;
        stroke-miterlimit: 10;
        stroke-width: 2.5px;
      }
    </style>
    <linearGradient id="linear-gradient" x1="0.5" x2="0.5" y2="1" gradientUnits="objectBoundingBox">
      <stop offset="0" stop-color="#004aff" stop-opacity="0"/>
      <stop offset="1" stop-color="#004aff"/>
    </linearGradient>
  </defs>
  <g id="why-fair" transform="translate(-5478 -592)">
    <rect id="Rectangle_1039" data-name="Rectangle 1039" class="cls-1" width="108" height="108" transform="translate(5478 592)"/>
    <path id="Path_3274" data-name="Path 3274" class="cls-2" d="M36,0A36,36,0,1,1,0,36,36,36,0,0,1,36,0Z" transform="translate(5514 610)"/>
    <g id="Group_2382" data-name="Group 2382" transform="translate(5479.872 611.081)">
      <g id="Group_2373" data-name="Group 2373" transform="translate(25.979 4.871)">
        <g id="Group_2372" data-name="Group 2372">
          <g id="Group_2371" data-name="Group 2371">
            <path id="Path_3167" data-name="Path 3167" class="cls-3" d="M4657.348,2456.061c0,9.9-7.307,17.86-16.074,17.86-8.93,0-16.074-7.956-16.074-17.86s7.307-17.861,16.074-17.861S4657.348,2446.157,4657.348,2456.061Z" transform="translate(-4621.79 -2438.2)"/>
            <g id="Group_2370" data-name="Group 2370" transform="translate(0 35.559)">
              <path id="Path_3168" data-name="Path 3168" class="cls-3" d="M4661.744,2465.3c0-2.923-1.623-5.2-3.572-5.2h-31.5c-1.949,0-3.573,2.273-3.573,5.2V2489h38.482V2465.3Z" transform="translate(-4623.099 -2460.1)"/>
            </g>
          </g>
        </g>
      </g>
      <g id="Group_2377" data-name="Group 2377" transform="translate(59.428)">
        <g id="Group_2376" data-name="Group 2376">
          <g id="Group_2375" data-name="Group 2375">
            <path id="Path_3169" data-name="Path 3169" class="cls-3" d="M4643.7,2440.558a15.524,15.524,0,0,1,11.529-5.358c8.93,0,16.074,7.956,16.074,17.861s-7.307,17.861-16.074,17.861" transform="translate(-4643.7 -2435.2)"/>
            <g id="Group_2374" data-name="Group 2374" transform="translate(2.273 35.559)">
              <path id="Path_3170" data-name="Path 3170" class="cls-3" d="M4653.868,2486h19.81V2462.3c0-2.923-1.625-5.2-3.573-5.2h-25" transform="translate(-4645.1 -2457.1)"/>
            </g>
          </g>
        </g>
      </g>
      <g id="Group_2381" data-name="Group 2381">
        <g id="Group_2380" data-name="Group 2380">
          <g id="Group_2379" data-name="Group 2379">
            <path id="Path_3171" data-name="Path 3171" class="cls-3" d="M4636.7,2440.558a15.524,15.524,0,0,0-11.529-5.358c-8.93,0-16.074,7.956-16.074,17.861s7.307,17.861,16.074,17.861" transform="translate(-4605.852 -2435.2)"/>
            <g id="Group_2378" data-name="Group 2378" transform="translate(0 35.721)">
              <path id="Path_3172" data-name="Path 3172" class="cls-3" d="M4626.909,2486.1H4607.1V2462.4c0-2.923,1.625-5.2,3.572-5.2h25.006" transform="translate(-4607.099 -2457.2)"/>
            </g>
          </g>
        </g>
      </g>
    </g>
  </g>
</svg>
