<svg xmlns="http://www.w3.org/2000/svg" xmlns:xlink="http://www.w3.org/1999/xlink" viewBox="0 0 130 130">
  <defs>
    <style>
      .cls-1, .cls-4, .cls-5 {
        fill: none;
      }

      .cls-2 {
        opacity: 0.12;
        fill: url(#linear-gradient);
      }

      .cls-3 {
        fill: #7d5ab5;
      }

      .cls-4, .cls-5 {
        stroke: #7d5ab5;
        stroke-miterlimit: 10;
      }

      .cls-4 {
        stroke-width: 3px;
      }

      .cls-5 {
        stroke-linecap: round;
        stroke-linejoin: round;
        stroke-width: 2.5px;
      }
    </style>
    <linearGradient id="linear-gradient" x1="0.5" x2="0.5" y2="1" gradientUnits="objectBoundingBox">
      <stop offset="0" stop-color="#004aff" stop-opacity="0"/>
      <stop offset="1" stop-color="#004aff"/>
    </linearGradient>
  </defs>
  <g id="why-international" transform="translate(5795 -4814)">
    <path id="Path_15822" data-name="Path 15822" class="cls-1" d="M0,0H130V130H0Z" transform="translate(-5795 4814)"/>
    <path id="Path_15818" data-name="Path 15818" class="cls-2" d="M46.5,0A46.5,46.5,0,1,1,0,46.5,46.5,46.5,0,0,1,46.5,0Z" transform="translate(-5758 4833)"/>
    <g id="Group_3500" data-name="Group 3500" transform="translate(250.133 106.373)">
      <path id="Path_15817" data-name="Path 15817" class="cls-3" d="M38.672,80.532a33.122,33.122,0,0,0,1.78,4.24c3.656,6.215,7.456,12.333,11.112,18.5.529.867,1.155,2.264.818,2.939s-1.876,1.06-2.838,1.012A51.235,51.235,0,0,1,20.1,95.707,51.678,51.678,0,0,1,.814,63.14C-1.832,46.953,1.872,32.114,12.5,19.3A51.018,51.018,0,0,1,47.716.366c28.911-2.987,52.579,15.9,58.351,41.914a79.609,79.609,0,0,1,1.058,8.286c.241,2.072-.722,2.842-2.79,2.842-8.9-.048-17.8-.048-26.7-.048H35.545c-3.127,0-3.512.1-2.983,3.18,1.058,6.215,2.5,12.333,3.848,18.5.337,1.445,1.4,1.734,2.742,1.734,3.752-.048,7.552,0,11.3,0,1.251,0,2.6.048,2.646,1.734.048,1.831-1.347,1.879-2.694,1.879h-8.9C40.741,80.339,39.875,80.484,38.672,80.532ZM32.515,49.41c1.106.1,2.117.241,3.127.241H71.672c.577,0,1.251.193,1.636-.1.625-.385,1.491-1.06,1.491-1.59a56.4,56.4,0,0,0-3.993-20.09,2.78,2.78,0,0,0-2.02-1.493c-10.1-.1-20.156-.1-30.258,0a2.534,2.534,0,0,0-1.972,1.253A55.451,55.451,0,0,0,32.515,49.41Zm.048,26.979c-.1-.674-.144-1.2-.241-1.734-1.251-6.552-2.5-13.152-3.848-19.7a2.492,2.492,0,0,0-1.78-1.542c-6.975-.1-13.95-.048-20.926-.1-1.636,0-2.117.723-2.02,2.216A54.2,54.2,0,0,0,8.414,74.751,2.9,2.9,0,0,0,11.3,76.726c6.494-.048,12.988,0,19.483-.048A6.217,6.217,0,0,0,32.563,76.389ZM75.04,26.381a7.92,7.92,0,0,0-.192.915c.1.482.192.915.337,1.4a65.461,65.461,0,0,1,3.464,18.982C78.7,49.6,79.8,49.7,81.149,49.7c6.494,0,12.94-.048,19.434.048,2.02.048,2.742-.723,2.453-2.7A49.669,49.669,0,0,0,96.11,27.826c-.385-.626-1.155-1.349-1.78-1.349C87.932,26.333,81.486,26.381,75.04,26.381Zm-42.477,0c-6.783,0-13.229-.048-19.723.048-.577,0-1.347.819-1.732,1.4A48.705,48.705,0,0,0,4.181,47.338c-.241,1.445.192,2.312,1.828,2.312,6.831-.048,13.614,0,20.445,0,1.491,0,1.924-.674,2.165-2.168.962-6.07,2.117-12.092,3.223-18.114C31.986,28.5,32.274,27.586,32.563,26.381ZM12.118,80.339c3.319,9.78,25.592,24.04,33.529,22.258-3.608-6.986-7.216-14.116-10.92-21.15a2.744,2.744,0,0,0-2.165-1.012c-3.031-.1-6.109-.048-9.14-.048C19.719,80.339,16.063,80.339,12.118,80.339Zm56.139-58.1a12.367,12.367,0,0,0-1.01-2.361c-3.175-4.721-6.254-9.491-9.621-14.019-2.357-3.131-5.628-3.131-7.985,0-3.367,4.48-6.4,9.154-9.525,13.827a17.153,17.153,0,0,0-1.155,2.6C48.871,22.238,58.4,22.238,68.257,22.238ZM62.484,4.605c3.464,5.878,6.639,11.418,9.958,16.862a2.822,2.822,0,0,0,2.165.915c5.051.1,10.1.048,15.153.048.673,0,1.3-.145,2.453-.241A50.292,50.292,0,0,0,62.484,4.605Zm-17.558.385C36.8,4.605,18.564,15.4,15.582,22.382c5.725,0,11.3-.048,16.885.048,1.539,0,2.165-.578,2.934-1.879,2.694-4.625,5.58-9.154,8.37-13.73C44.108,6.291,44.493,5.713,44.926,4.991Z" transform="translate(-6045.125 4718.753)"/>
      <g id="Group_3499" data-name="Group 3499" transform="translate(-5987.197 4778.137)">
        <g id="Group_1000" data-name="Group 1000" transform="translate(0 0)">
          <path id="Path_1245" data-name="Path 1245" class="cls-4" d="M1643.271,1919a22.138,22.138,0,0,0,.188-2.871,20.229,20.229,0,0,0-40.459,0c0,.752.063,1.5.125,2.255" transform="translate(-1603 -1895.9)"/>
          <path id="Path_1246" data-name="Path 1246" class="cls-4" d="M1603.2,1928.7a20.23,20.23,0,0,0,40.146.615" transform="translate(-1603.075 -1906.284)"/>
        </g>
        <g id="Group_1001" data-name="Group 1001" transform="translate(12.834 8.018)">
          <path id="Path_1247" data-name="Path 1247" class="cls-3" d="M1634.228,1922.421h-.159c-3.1-.557-4.933-.955-4.933-2.546,0-2.705,4.3-2.785,4.774-2.785,1.83,0,3.74.239,4.854,1.989a.52.52,0,0,0,.637.159l1.114-.557c.079-.08.239-.159.239-.318s0-.239-.08-.318c-1.75-2.467-3.979-2.944-6.843-2.944a9.122,9.122,0,0,0-5.888,1.83,3.914,3.914,0,0,0-1.273,3.024c0,3.342,3.66,3.979,6.923,4.536s5.411,1.114,5.331,3.024c0,2.626-3.581,2.944-5.093,2.944-1.99,0-4.536-.875-5.57-2.626a.533.533,0,0,0-.636-.239l-1.194.557c-.08.08-.239.159-.239.239-.079.08,0,.239,0,.318,1.512,2.785,4.933,3.74,7.639,3.74,4.615,0,7.4-1.83,7.4-4.933C1641.31,1923.694,1637.57,1923.057,1634.228,1922.421Z" transform="translate(-1626.156 -1911.36)"/>
          <line id="Line_666" data-name="Line 666" class="cls-5" y2="3.581" transform="translate(7.595 0)"/>
          <line id="Line_667" data-name="Line 667" class="cls-5" y2="3.103" transform="translate(7.595 21.007)"/>
        </g>
      </g>
    </g>
  </g>
</svg>
