<svg xmlns="http://www.w3.org/2000/svg" xmlns:xlink="http://www.w3.org/1999/xlink" viewBox="0 0 130 130">
  <defs>
    <style>
      .cls-1, .cls-5 {
        fill: none;
      }

      .cls-2 {
        opacity: 0.12;
        fill: url(#linear-gradient);
      }

      .cls-3, .cls-4 {
        fill: #7d5ab5;
      }

      .cls-4, .cls-5 {
        stroke: #7d5ab5;
      }

      .cls-4 {
        stroke-width: 0.5px;
      }

      .cls-5 {
        stroke-linecap: round;
        stroke-linejoin: round;
        stroke-miterlimit: 10;
        stroke-width: 2.5px;
      }
    </style>
    <linearGradient id="linear-gradient" x1="0.5" x2="0.5" y2="1" gradientUnits="objectBoundingBox">
      <stop offset="0" stop-color="#004aff" stop-opacity="0"/>
      <stop offset="1" stop-color="#004aff"/>
    </linearGradient>
  </defs>
  <g id="why-crowdfunding" transform="translate(5692 -4482)">
    <path id="Path_15819" data-name="Path 15819" class="cls-1" d="M0,0H130V130H0Z" transform="translate(-5692 4482)"/>
    <path id="Path_15815" data-name="Path 15815" class="cls-2" d="M46.5,0A46.5,46.5,0,1,1,0,46.5,46.5,46.5,0,0,1,46.5,0Z" transform="translate(-5655 4501)"/>
    <g id="Group_3200" data-name="Group 3200" transform="translate(-5704.278 1851.641)">
      <g id="Group_3198" data-name="Group 3198" transform="translate(12.278 2638.359)">
        <path id="Path_15670" data-name="Path 15670" class="cls-3" d="M92.941,279.2a24.818,24.818,0,0,1,19.233,8.648c2.727,3.014,4.844,6.279,5.562,10.334.359,2.081.825,4.162,1.184,6.244a2.542,2.542,0,0,1-2.009,2.691c-1.543-.036-1.9-.969-1.938-2.4a22.041,22.041,0,0,0-6.853-15.5,18.764,18.764,0,0,0-9.76-5.454c-2.8-.5-5.6-1.041-8.755-.431a22.871,22.871,0,0,0-13.563,7.715,17.673,17.673,0,0,0-4.521,9.832,27.338,27.338,0,0,1-.825,4.844c-.179.61-1.651,1.471-1.83,1.328-.789-.61-1.9-1.615-1.866-2.4.395-7.248,2.906-13.528,8.361-18.623a28.965,28.965,0,0,1,12.415-6.495C89.317,279.056,91.147,279.307,92.941,279.2Z" transform="translate(-43.02 -192.549)"/>
        <path id="Path_15671" data-name="Path 15671" class="cls-3" d="M127.976,210.677c.036,8.576-7.212,14.64-16.039,13.42-5.562-.789-12.7-5.992-11.482-16.039a12.222,12.222,0,0,1,4.629-8.361c3.158-2.4,6.71-3.911,10.729-3.265C122.988,197.652,128.047,202.137,127.976,210.677Zm-13.743-10.729c-5.741.825-9.868,3.768-9.9,10.3-.036,6.638,4.557,10.119,9.939,10.011,6.566-.144,9.9-4.126,9.9-10.19C124.208,204.542,119.938,200.272,114.233,199.949Z" transform="translate(-64.383 -139.384)"/>
        <g id="Group_3196" data-name="Group 3196" transform="translate(0 69.138)">
          <path id="Path_15672" data-name="Path 15672" class="cls-3" d="M37.541,252.392c-6.387.215-11.052-4.772-10.944-11.159A10.7,10.7,0,0,1,37.361,230.4c6.459-.108,11.2,4.593,11.375,11.052C48.879,246.9,44.107,252.751,37.541,252.392Zm-.072-3.516c4.916.251,7.679-3.516,7.607-7.464-.108-4.342-3.014-7.356-7.428-7.356-3.875,0-8,2.476-7.5,8.9C30.364,245.934,33.809,248.912,37.469,248.876Z" transform="translate(-17.114 -230.395)"/>
          <path id="Path_15673" data-name="Path 15673" class="cls-3" d="M27.131,295.6c-.789,1.041-1.543,2.009-2.189,2.835-2.942-.215-5.741-.574-8.612.251a17.7,17.7,0,0,0-7.858,4.629,16.428,16.428,0,0,0-4.736,11.159c-.072,1.328-.61,2.3-1.686,2.261a1.976,1.976,0,0,1-1.866-2.368A21.149,21.149,0,0,1,7.539,299.3a17.283,17.283,0,0,1,9.078-4.413C19.99,294.524,23.65,294.094,27.131,295.6Z" transform="translate(-0.174 -271.522)"/>
        </g>
        <g id="Group_3197" data-name="Group 3197" transform="translate(69.259 69.138)">
          <path id="Path_15674" data-name="Path 15674" class="cls-3" d="M204.39,252.392c6.387.215,11.052-4.772,10.944-11.159A10.7,10.7,0,0,0,204.569,230.4c-6.459-.108-11.2,4.593-11.375,11.052C193.051,246.9,197.787,252.751,204.39,252.392Zm.072-3.516c-4.916.251-7.679-3.516-7.607-7.464.108-4.342,3.014-7.356,7.428-7.356,3.875,0,8,2.476,7.5,8.9C211.53,245.934,208.121,248.912,204.461,248.876Z" transform="translate(-193.191 -230.395)"/>
          <path id="Path_15675" data-name="Path 15675" class="cls-3" d="M206.1,295.6c.789,1.041,1.543,2.009,2.189,2.835,2.942-.215,5.741-.574,8.612.251a17.7,17.7,0,0,1,7.858,4.629,16.428,16.428,0,0,1,4.736,11.159c.072,1.328.61,2.3,1.686,2.261a1.976,1.976,0,0,0,1.866-2.368,21.149,21.149,0,0,0-7.356-15.07,17.283,17.283,0,0,0-9.078-4.413C213.241,294.524,209.581,294.094,206.1,295.6Z" transform="translate(-201.468 -271.522)"/>
        </g>
        <path id="Path_15676" data-name="Path 15676" class="cls-3" d="M136.918,7.37c0,1.731.03,3.461,0,5.222-.03,1.164-.448,2.029-1.82,2.029-1.373-.03-1.7-.865-1.7-2.089.03-3.521.06-7.042,0-10.563C133.368.686,133.964,0,135.068,0a1.717,1.717,0,0,1,1.85,1.88V7.37Z" transform="translate(-85.247 0)"/>
        <path id="Path_15677" data-name="Path 15677" class="cls-3" d="M14.234,82.865c.03,1.731-1.223,2.626-2.268,2-3.133-1.82-6.3-3.67-9.429-5.52-1.462-.865-1.731-1.731-.985-2.715.537-.716,1.134-1.074,2.029-.537,3.163,1.82,6.326,3.64,9.459,5.52A5.049,5.049,0,0,1,14.234,82.865Z" transform="translate(7.539 -53.206)"/>
        <path id="Path_15678" data-name="Path 15678" class="cls-3" d="M233.4,83.292c.149-.209.388-.865.865-1.134,3.252-1.969,6.535-3.909,9.847-5.729a1.867,1.867,0,0,1,1.731.448,2.089,2.089,0,0,1,.179,1.91,5.927,5.927,0,0,1-1.969,1.492c-2.835,1.7-5.669,3.372-8.534,5.013C234.534,85.888,233.43,85.022,233.4,83.292Z" transform="translate(-155.411 -53.572)"/>
        <path id="Path_15679" data-name="Path 15679" class="cls-3" d="M190.6,43.647a14.153,14.153,0,0,1,.537-1.313c.835-1.462,1.7-2.894,2.536-4.356.537-.925,1.313-1.313,2.238-.806a1.6,1.6,0,0,1,.537,2.447c-1.014,1.641-1.969,3.342-3.073,4.894a1.789,1.789,0,0,1-1.641.448C191.256,44.781,190.958,44.095,190.6,43.647Z" transform="translate(-125.382 -25.923)"/>
        <path id="Path_15680" data-name="Path 15680" class="cls-3" d="M73.5,43.6c-.6.656-.955,1.313-1.492,1.552A1.609,1.609,0,0,1,70.49,44.7a63.213,63.213,0,0,1-3.252-5.49,1.955,1.955,0,0,1,.448-1.7c.3-.328,1.432-.448,1.581-.209C70.729,39.274,72.042,41.363,73.5,43.6Z" transform="translate(-38.781 -26.085)"/>
        <path id="Path_15681" data-name="Path 15681" class="cls-3" d="M4.413,152.948a10.944,10.944,0,0,1,2.8.06,2.446,2.446,0,0,1,1.522,1.4A1.156,1.156,0,0,1,7.516,155.9c-2.089.03-4.177.09-6.236,0a1.194,1.194,0,0,1-1.194-1.641,2.453,2.453,0,0,1,1.492-1.223,14.862,14.862,0,0,1,2.835-.09Z" transform="translate(8.349 -107.265)"/>
        <path id="Path_15682" data-name="Path 15682" class="cls-3" d="M253.036,156.072c-.985,0-2,.03-2.984,0-1.015-.03-1.373-.716-1.283-1.611.119-.925.627-1.343,1.641-1.313,1.85.06,3.67-.119,5.52.06a2.342,2.342,0,0,1,1.552,1.313c.328.925-.448,1.492-1.313,1.581-1.044.089-2.089.03-3.133.03Z" transform="translate(-166.185 -107.434)"/>
        <path id="Path_15683" data-name="Path 15683" class="cls-3" d="M24.6,213.015a46.548,46.548,0,0,1,4.058-2.387c.448-.209,1.581.06,1.731.418a2.059,2.059,0,0,1-.179,1.969,9.732,9.732,0,0,1-3.491,2.089c-.537.149-1.4-.9-2.119-1.373Z" transform="translate(-8.914 -147.728)"/>
        <path id="Path_15684" data-name="Path 15684" class="cls-3" d="M233.676,211.05c2.089-.686,3.849.119,5.819,2.656-.567.6-1.134,1.223-1.88,2C236.182,214.153,232.989,214.422,233.676,211.05Z" transform="translate(-155.537 -147.911)"/>
        <path id="Path_15685" data-name="Path 15685" class="cls-3" d="M92.771,85.9a25.917,25.917,0,0,0-11.052,49.338l.969-3.732a22.054,22.054,0,0,1-12.02-20.417A21.783,21.783,0,0,1,92.842,89.811c12.056-.431,22.749,10.37,22.032,23.216a22.471,22.471,0,0,1-11.949,18.479c.144.215.251.395.359.538.359.538,0,1.974,0,2.978a2.717,2.717,0,0,1-.036.538A25.924,25.924,0,0,0,92.771,85.9Z" transform="translate(-42.957 -68.609)"/>
      </g>
      <g id="Group_3199" data-name="Group 3199" transform="translate(56.206 2671.442)">
        <path id="Path_1247" data-name="Path 1247" class="cls-4" d="M1632.31,1920.681h-.121c-2.366-.425-3.761-.728-3.761-1.941,0-2.063,3.276-2.123,3.64-2.123,1.4,0,2.851.182,3.7,1.517a.4.4,0,0,0,.485.121l.849-.425c.061-.061.182-.121.182-.243s0-.182-.061-.242c-1.335-1.881-3.033-2.245-5.217-2.245a6.955,6.955,0,0,0-4.489,1.4,2.984,2.984,0,0,0-.971,2.3c0,2.548,2.791,3.033,5.278,3.458s4.125.849,4.065,2.305c0,2-2.73,2.245-3.882,2.245a5.125,5.125,0,0,1-4.247-2,.406.406,0,0,0-.485-.182l-.91.425c-.06.061-.182.121-.182.182-.061.061,0,.182,0,.243,1.153,2.123,3.761,2.851,5.824,2.851,3.519,0,5.642-1.4,5.642-3.761C1637.709,1921.652,1634.858,1921.166,1632.31,1920.681Z" transform="translate(-1626.156 -1912.249)"/>
        <line id="Line_666" data-name="Line 666" class="cls-5" y2="2.73" transform="translate(5.79 0)"/>
        <line id="Line_667" data-name="Line 667" class="cls-5" y2="2.366" transform="translate(5.79 16.015)"/>
      </g>
    </g>
  </g>
</svg>
