<svg xmlns="http://www.w3.org/2000/svg" xmlns:xlink="http://www.w3.org/1999/xlink" viewBox="0 0 130 130">
  <defs>
    <style>
      .cls-1 {
        fill: #fff;
      }

      .cls-2 {
        fill: none;
      }

      .cls-3 {
        opacity: 0.12;
        fill: url(#linear-gradient);
      }
    </style>
    <linearGradient id="linear-gradient" x1="0.5" x2="0.5" y2="1" gradientUnits="objectBoundingBox">
      <stop offset="0" stop-color="#fff" stop-opacity="0"/>
      <stop offset="1" stop-color="#fff"/>
    </linearGradient>
  </defs>
  <g id="why-pos-alliance" transform="translate(2980 -4983)">
    <g id="temp_1_" transform="translate(-282.3 1853.75)">
      <path id="Path_15828" data-name="Path 15828" class="cls-1" d="M-2649.335,3238.8c-21.96,0-45.7-2.756-45.965-2.756l-2.4-.267.978-2.223c.089-.178,9.6-21.071,18.137-36.63s28.984-45.431,29.25-45.787l1.511-2.134,1.423,2.134c.177.178,14.936,21.96,25.338,38.5s22.494,43.653,22.582,43.92l.978,2.223-2.4.267c-.267,0-25.6,2.667-47.92,2.756A8.5,8.5,0,0,0-2649.335,3238.8Zm-43.12-6.135c6.757.711,26.494,2.578,44.542,2.49,18.137-.089,38.23-1.867,45.076-2.49-3.112-6.846-12.8-27.65-21.338-41.164-8.446-13.425-19.737-30.317-23.738-36.185-4.89,7.113-20.448,30.317-27.561,43.3C-2682.319,3210.968-2689.787,3226.882-2692.454,3232.661Z" transform="translate(0 0)"/>
      <path id="Path_15829" data-name="Path 15829" class="cls-1" d="M-2691.477,3236.713l-3.023-1.867c.711-1.156,18.137-29.073,30.5-36.629,11.824-7.29,22.138-8.624,27.917-7.557l-.711,3.467c-4.8-.978-14.4.355-25.339,7.113C-2673.785,3208.263-2691.3,3236.358-2691.477,3236.713Z" transform="translate(-0.355 -4.586)"/>
      <path id="Path_15830" data-name="Path 15830" class="cls-1" d="M-2629.92,3226.737l-2.667-2.312c3.2-3.734,6.935-12.625,6.579-25.517-.356-13.6-15.914-42.853-16.092-43.12l3.112-1.689c.622,1.245,16.092,30.229,16.537,44.72C-2622.1,3212.689-2626.1,3222.292-2629.92,3226.737Z" transform="translate(-6.168 -0.566)"/>
      <path id="Path_15831" data-name="Path 15831" class="cls-1" d="M-2600.32,3243.406c-1.423-.089-34.229-1.156-47.031-8.091-12.18-6.579-18.581-14.847-20.448-20.36l3.378-1.156c1.6,4.623,7.468,12.269,18.848,18.4,12,6.49,45.076,7.646,45.432,7.646Z" transform="translate(-3.317 -7.188)"/>
    </g>
    <rect id="Rectangle_4435" data-name="Rectangle 4435" class="cls-2" width="130" height="130" transform="translate(-2980 4983)"/>
    <path id="Path_15812" data-name="Path 15812" class="cls-3" d="M46.5,0A46.5,46.5,0,1,1,0,46.5,46.5,46.5,0,0,1,46.5,0Z" transform="translate(-2943 5002)"/>
  </g>
</svg>
