<svg xmlns="http://www.w3.org/2000/svg" xmlns:xlink="http://www.w3.org/1999/xlink" viewBox="0 0 130 130">
  <defs>
    <style>
      .cls-1 {
        fill: none;
      }

      .cls-2 {
        opacity: 0.12;
        fill: url(#linear-gradient);
      }

      .cls-3 {
        fill: #fff;
        stroke: #fff;
        stroke-width: 1.75px;
      }
    </style>
    <linearGradient id="linear-gradient" x1="0.5" x2="0.5" y2="1" gradientUnits="objectBoundingBox">
      <stop offset="0" stop-color="#fff" stop-opacity="0"/>
      <stop offset="1" stop-color="#fff"/>
    </linearGradient>
  </defs>
  <g id="why-scalable" transform="translate(-14827 -1750)">
    <rect id="Rectangle_1044" data-name="Rectangle 1044" class="cls-1" width="130" height="130" transform="translate(14827 1750)"/>
    <circle id="Ellipse_215" data-name="Ellipse 215" class="cls-2" cx="46.5" cy="46.5" r="46.5" transform="translate(14864 1768.2)"/>
    <g id="Group_3097" data-name="Group 3097" transform="translate(14828.3 1765.827)">
      <path id="Path_15643" data-name="Path 15643" class="cls-3" d="M45.7,104.564c9.78-9.731,19.7-19.583,29.6-29.459-.024-.12-.024-.265-.048-.385a15.442,15.442,0,0,0-2.722-.506c-4.095-.048-8.19,0-12.285-.048a1.823,1.823,0,0,1-1.4-.723c-.385-.747.217-1.277,1.325-1.277,2.963-.024,5.95,0,8.912,0,1.277,0,2.577.024,3.854,0a6.874,6.874,0,0,1,6.769,6.817c-.024,4.336,0,8.672,0,13.007,0,.747-.145,1.469-.988,1.518-.964.048-1.084-.723-1.084-1.518,0-4.336.024-8.647-.048-12.983a12.847,12.847,0,0,0-.626-2.6L46.981,106.322c1.349,2.746.65,5.877.674,8.912.1,10.55.024,21.1.024,31.675a4.761,4.761,0,0,1-5.082,5.107H8.152c-1.084,0-2.168.024-3.252,0A4.941,4.941,0,0,1-.182,146.4c0-.12.024-.241.024-.361q0-17.054-.024-34.084c0-1.156-.048-2.312.048-3.469a4.826,4.826,0,0,1,4.986-4.36H34.7c2.457,0,4.89-.048,7.347.024A21.844,21.844,0,0,1,45.7,104.564Zm-21.871,1.662H4.852a2.745,2.745,0,0,0-2.891,2.842c0,8.5-.024,17.006,0,25.509,0,4.047.024,8.093.12,12.14.048,2.361.988,3.18,3.348,3.18H37.563c1.758,0,3.541.024,5.3-.024a2.626,2.626,0,0,0,2.746-2.457,9.713,9.713,0,0,0,.1-1.445V110.827a15.084,15.084,0,0,0-.048-1.807,2.729,2.729,0,0,0-3.059-2.794Z" transform="translate(0.208 -54.772)"/>
      <path id="Path_15644" data-name="Path 15644" class="cls-3" d="M.266,8.005c0-1.012-.024-2,0-3.011A4.676,4.676,0,0,1,4.795.08C7.083-.04,9.371.032,11.636.032c.7,0,1.2.313,1.2,1.036s-.458,1.012-1.2,1.012c-2-.024-4-.024-6.022,0A2.97,2.97,0,0,0,2.314,5.4c0,1.975-.024,3.926,0,5.9,0,.747-.169,1.325-.988,1.349-.795.024-1.084-.53-1.06-1.277C.266,10.245.266,9.113.266,8.005Z" transform="translate(-0.144 -0.005)"/>
      <path id="Path_15645" data-name="Path 15645" class="cls-3" d="M355.737,2.163a29.3,29.3,0,0,1-3.252-.048c-.385-.048-1.012-.626-.988-.843.1-.434.578-1.084.891-1.108,2.65-.048,5.3-.1,7.925.1a4.279,4.279,0,0,1,3.565,3.854c.145,2.457.1,4.938.1,7.419,0,.674-.337,1.3-1.06,1.132a1.676,1.676,0,0,1-.988-1.2c-.1-2.072-.048-4.167-.048-6.263a2.793,2.793,0,0,0-3.035-3.059c-1.012,0-2.047.024-3.107.024Z" transform="translate(-266.78 -0.089)"/>
      <path id="Path_15646" data-name="Path 15646" class="cls-3" d="M363.948,355.777c0,1.036.024,2.072,0,3.131a4.731,4.731,0,0,1-4.962,4.866c-2.047.024-4.095,0-6.118,0-.7,0-1.445,0-1.469-.964-.024-1.012.7-1.108,1.493-1.108,1.951,0,3.926.024,5.877,0,2.144-.024,3.107-1.06,3.107-3.228,0-1.927,0-3.854-.024-5.757,0-.771.12-1.518,1.108-1.518.939,0,1.012.747,1.012,1.469,0,1.036,0,2.072-.024,3.107Z" transform="translate(-266.704 -266.601)"/>
      <path id="Path_15647" data-name="Path 15647" class="cls-3" d="M103.6.014h15.271c.361,0,.795-.1,1.06.072.337.241.771.7.747,1.036a1.386,1.386,0,0,1-.867.891,10.834,10.834,0,0,1-2.168.048H106.322C104.034,2.061,104.034,2.061,103.6.014Z" transform="translate(-78.595 0.014)"/>
      <path id="Path_15648" data-name="Path 15648" class="cls-3" d="M233.982,2.147c-2.361,0-4.721-.024-7.082,0-.747,0-1.3-.193-1.3-1.012S226.2.1,226.925.1h14.428c.747,0,1.3.313,1.253,1.084-.048.7-.554.964-1.277.964C238.872,2.123,236.415,2.147,233.982,2.147Z" transform="translate(-171.208 -0.073)"/>
      <path id="Path_15649" data-name="Path 15649" class="cls-3" d="M396.9,115.8v6.961c0,.674.024,1.445-.988,1.469-1.036.024-1.108-.723-1.108-1.469V108.842c0-.771.072-1.542,1.06-1.542s1.06.795,1.06,1.566c0,2.288,0,4.625-.024,6.937Z" transform="translate(-299.652 -81.451)"/>
      <path id="Path_15650" data-name="Path 15650" class="cls-3" d="M396.886,237.1c0,2.312.048,4.649-.024,6.961a1.893,1.893,0,0,1-.747,1.421c-.723.409-1.325-.265-1.349-1.4-.024-3.806,0-7.612,0-11.417,0-.771-.024-1.518,0-2.288s-.145-1.758,1.036-1.782c1.228-.024,1.06.988,1.06,1.734C396.886,232.6,396.886,234.837,396.886,237.1Z" transform="translate(-299.619 -173.531)"/>
      <path id="Path_15651" data-name="Path 15651" class="cls-3" d="M2.423,115.727v7.106c0,.7-.12,1.3-.988,1.325-.915.024-1.036-.6-1.036-1.277V108.549c0-.7.145-1.349,1.012-1.349.915,0,1.06.65,1.036,1.421C2.4,110.982,2.423,113.366,2.423,115.727Z" transform="translate(-0.254 -81.375)"/>
      <path id="Path_15652" data-name="Path 15652" class="cls-3" d="M234.073,394.9h6.961c.747,0,1.469.169,1.469,1.012s-.674,1.06-1.445,1.06H226.9c-.747,0-1.421-.169-1.4-1.084.024-.843.674-.988,1.373-.988Z" transform="translate(-171.131 -299.775)"/>
    </g>
  </g>
</svg>
