<svg xmlns="http://www.w3.org/2000/svg" xmlns:xlink="http://www.w3.org/1999/xlink" viewBox="0 0 130 130">
  <defs>
    <style>
      .cls-1 {
        fill: none;
      }

      .cls-2 {
        opacity: 0.12;
        fill: url(#linear-gradient);
      }

      .cls-3 {
        fill: #fff;
      }
    </style>
    <linearGradient id="linear-gradient" x1="0.5" x2="0.5" y2="1" gradientUnits="objectBoundingBox">
      <stop offset="0" stop-color="#fff" stop-opacity="0"/>
      <stop offset="1" stop-color="#fff"/>
    </linearGradient>
  </defs>
  <g id="why-security" transform="translate(2755 -5493)">
    <rect id="Rectangle_1044" data-name="Rectangle 1044" class="cls-1" width="130" height="130" transform="translate(-2755 5493)"/>
    <circle id="Ellipse_215" data-name="Ellipse 215" class="cls-2" cx="46.5" cy="46.5" r="46.5" transform="translate(-2718 5512)"/>
    <path id="Path_15665" data-name="Path 15665" class="cls-3" d="M91.923,36.4c0,5.672-.018,11.345,0,17.034a56.449,56.449,0,0,1-1.508,12.62,60.953,60.953,0,0,1-8.44,20.021,61.9,61.9,0,0,1-20.7,19.736,62.3,62.3,0,0,1-14.312,6.193,3.6,3.6,0,0,1-1.886.034A62.606,62.606,0,0,1,16.449,94.42,60.863,60.863,0,0,1,3,71.411,67.047,67.047,0,0,1,.233,58.321a37.283,37.283,0,0,1-.215-4.011C.018,41.992.054,29.691,0,17.39c0-1.678.952-2.366,2.55-2.417,2.442-.067,4.9-.134,7.344-.336A65.04,65.04,0,0,0,34.388,7.875a38.533,38.533,0,0,0,10.02-7.1,2.029,2.029,0,0,1,3.178.034A38.468,38.468,0,0,0,56.78,7.421,59.393,59.393,0,0,0,72.26,13.111a74.589,74.589,0,0,0,16.485,1.846,10.313,10.313,0,0,1,1.437.084A1.792,1.792,0,0,1,91.923,17Q91.923,26.721,91.923,36.4ZM45.9,4.753c-1.006.789-2.011,1.594-3.035,2.349a57.131,57.131,0,0,1-14.851,7.585,64.926,64.926,0,0,1-14.1,3.273c-2.963.336-5.944.571-8.907.755-.9.05-1.059.352-1.059,1.108.018,9.146-.036,18.292.036,27.422.036,4.263.144,8.559.539,12.8A49.419,49.419,0,0,0,7.452,72.318a57.2,57.2,0,0,0,8.476,15.49A58.313,58.313,0,0,0,26.451,98.3a58.821,58.821,0,0,0,18.424,9.734,3.542,3.542,0,0,0,2.245-.017A59.851,59.851,0,0,0,76.551,87.086a56.5,56.5,0,0,0,10.056-22.3A64.286,64.286,0,0,0,87.954,52.23c.036-4.028,0-8.055,0-12.083q0-10.245.018-20.474c0-.655-.18-.94-.934-.957-1.455-.034-2.927-.168-4.382-.269a72.3,72.3,0,0,1-14.563-2.5A59.489,59.489,0,0,1,51.2,8.512C49.4,7.338,47.694,6.029,45.9,4.753Z" transform="translate(-2755 5501.959)"/>
    <g id="Group_3514" data-name="Group 3514" transform="translate(-68.977 -79.447)">
      <path id="Path_15832" data-name="Path 15832" class="cls-3" d="M89.744,279.2a21.759,21.759,0,0,1,16.863,7.582,18.162,18.162,0,0,1,4.876,9.06c.315,1.825.724,3.649,1.038,5.474a2.229,2.229,0,0,1-1.762,2.36c-1.353-.031-1.667-.849-1.7-2.108a19.325,19.325,0,0,0-6.009-13.591,16.452,16.452,0,0,0-8.557-4.782,19.184,19.184,0,0,0-19.568,6.386,15.5,15.5,0,0,0-3.964,8.62,23.969,23.969,0,0,1-.724,4.247c-.157.535-1.447,1.29-1.6,1.164-.692-.535-1.667-1.416-1.636-2.108a23.057,23.057,0,0,1,7.33-16.328,25.4,25.4,0,0,1,10.885-5.694A21,21,0,0,1,89.744,279.2Z" transform="translate(-2730.02 5359.785)"/>
      <path id="Path_15833" data-name="Path 15833" class="cls-3" d="M124.567,208.9c.031,7.519-6.324,12.836-14.063,11.766-4.876-.692-11.137-5.254-10.067-14.063a10.716,10.716,0,0,1,4.058-7.33c2.769-2.108,5.883-3.429,9.407-2.863C120.194,197.483,124.63,201.416,124.567,208.9ZM112.518,199.5c-5.034.724-8.652,3.3-8.683,9.029-.031,5.82,4,8.872,8.715,8.777,5.757-.126,8.683-3.618,8.683-8.935A8.866,8.866,0,0,0,112.518,199.5Z" transform="translate(-2752.856 5416.615)"/>
    </g>
  </g>
</svg>
