<svg xmlns="http://www.w3.org/2000/svg" xmlns:xlink="http://www.w3.org/1999/xlink" viewBox="0 0 130 130">
  <defs>
    <style>
      .cls-1 {
        fill: #7d5ab5;
      }

      .cls-2 {
        opacity: 0.12;
        fill: url(#linear-gradient);
      }

      .cls-3 {
        fill: none;
        stroke: #fff;
        stroke-linejoin: round;
        stroke-miterlimit: 10;
        stroke-width: 4px;
      }
    </style>
    <linearGradient id="linear-gradient" x1="0.5" x2="0.5" y2="1" gradientUnits="objectBoundingBox">
      <stop offset="0" stop-color="#fff" stop-opacity="0"/>
      <stop offset="1" stop-color="#fff"/>
    </linearGradient>
  </defs>
  <g id="mer-for-blog" transform="translate(1459 -925)">
    <rect id="Rectangle_282" data-name="Rectangle 282" class="cls-1" width="130" height="130" transform="translate(-1459 925)"/>
    <circle id="Ellipse_119" data-name="Ellipse 119" class="cls-2" cx="46.5" cy="46.5" r="46.5" transform="translate(-1422 944)"/>
    <g id="Group_529" data-name="Group 529" transform="translate(-1458.3 936.012)">
      <g id="Group_459" data-name="Group 459" transform="translate(1.3 1.3)">
        <rect id="Rectangle_258" data-name="Rectangle 258" class="cls-3" width="107.022" height="72.843"/>
        <rect id="Rectangle_259" data-name="Rectangle 259" class="cls-3" width="107.022" height="33.096" transform="translate(0 72.689)"/>
      </g>
      <line id="Line_223" data-name="Line 223" class="cls-3" x2="26.137" transform="translate(11.043 86.516)"/>
      <line id="Line_224" data-name="Line 224" class="cls-3" x2="51.191" transform="translate(11.043 94.094)"/>
      <g id="Group_460" data-name="Group 460" transform="translate(16.611 30.685)">
        <line id="Line_225" data-name="Line 225" class="cls-3" y2="27.838" transform="translate(10.362 15.466)"/>
        <path id="Path_754" data-name="Path 754" class="cls-3" d="M31.615,40.1c0,4.485-4.485,8.042-10.207,8.042h0C15.84,48.138,11.2,44.581,11.2,40.1V28.342c0-4.485,4.485-8.042,10.207-8.042h0c5.568,0,10.207,3.557,10.207,8.042Z" transform="translate(-11.2 -20.3)"/>
      </g>
      <g id="Group_461" data-name="Group 461" transform="translate(48.006 30.53)">
        <line id="Line_226" data-name="Line 226" class="cls-3" y2="27.993" transform="translate(10.362 15.466)"/>
        <path id="Path_755" data-name="Path 755" class="cls-3" d="M51.915,40c0,4.485-4.485,8.042-10.207,8.042h0C36.14,48.038,31.5,44.481,31.5,40V28.242c0-4.485,4.485-8.042,10.207-8.042h0c5.568,0,10.207,3.557,10.207,8.042Z" transform="translate(-31.5 -20.2)"/>
      </g>
      <circle id="Ellipse_118" data-name="Ellipse 118" class="cls-3" cx="8.506" cy="8.506" r="8.506" transform="translate(76.772 15.838)"/>
    </g>
  </g>
</svg>
