<svg xmlns="http://www.w3.org/2000/svg" xmlns:xlink="http://www.w3.org/1999/xlink" viewBox="0 0 423 299.195">
  <defs>
    <style>
      .cls-1, .cls-5 {
        fill: #fff;
      }

      .cls-10, .cls-2, .cls-3, .cls-6, .cls-7, .cls-8, .cls-9 {
        fill: none;
      }

      .cls-10, .cls-2, .cls-3, .cls-5, .cls-6, .cls-8, .cls-9 {
        stroke: #fff;
      }

      .cls-2, .cls-6, .cls-8 {
        stroke-linecap: round;
      }

      .cls-10, .cls-2, .cls-8 {
        stroke-linejoin: round;
        stroke-miterlimit: 10;
      }

      .cls-2 {
        stroke-width: 2px;
      }

      .cls-3 {
        stroke-width: 8px;
      }

      .cls-4 {
        opacity: 0.12;
        fill: url(#linear-gradient);
      }

      .cls-5, .cls-6 {
        opacity: 0.15;
      }

      .cls-6 {
        stroke-width: 6px;
      }

      .cls-10, .cls-8 {
        stroke-width: 3px;
      }

      .cls-9 {
        stroke-width: 4px;
      }

      .cls-11 {
        stroke: none;
      }
    </style>
    <linearGradient id="linear-gradient" x1="0.5" x2="0.5" y2="1" gradientUnits="objectBoundingBox">
      <stop offset="0" stop-color="#fff" stop-opacity="0"/>
      <stop offset="1" stop-color="#fff"/>
    </linearGradient>
  </defs>
  <g id="mer-hero" transform="translate(1824 3798)">
    <path id="Path_15699" data-name="Path 15699" class="cls-1" d="M14.708,1,11.713,7.11,8.253,1H4.277L0,10.906H3.993L6.541,4.985,9.35,10l.5.885h4L18.675,1Zm-3.52,7.126.568.645S11.2,8.143,11.188,8.126Z" transform="translate(-1473.046 -3623.376)"/>
    <path id="Path_15700" data-name="Path 15700" class="cls-2" d="M1481.461,2077.022a14.961,14.961,0,1,1,14.961-14.961A14.932,14.932,0,0,1,1481.461,2077.022Z" transform="translate(-2945.152 -5679.792)"/>
    <line id="Line_7880" data-name="Line 7880" class="cls-3" x2="10" transform="translate(-1488.5 -3619.5)"/>
    <circle id="Ellipse_2028" data-name="Ellipse 2028" class="cls-4" cx="105" cy="105" r="105" transform="translate(-1611 -3754)"/>
    <g id="Group_3263" data-name="Group 3263" transform="translate(-1204.725 -3913.17)">
      <g id="Ellipse_93" data-name="Ellipse 93" class="cls-5" transform="translate(-389.749 168.141)">
        <circle class="cls-11" cx="5.588" cy="5.588" r="5.588"/>
        <circle class="cls-7" cx="5.588" cy="5.588" r="5.088"/>
      </g>
      <g id="Ellipse_219" data-name="Ellipse 219" class="cls-5" transform="translate(-461.749 130.141)">
        <circle class="cls-11" cx="3.588" cy="3.588" r="3.588"/>
        <circle class="cls-7" cx="3.588" cy="3.588" r="3.088"/>
      </g>
      <g id="Ellipse_97" data-name="Ellipse 97" class="cls-5" transform="translate(-538.053 294.349)">
        <circle class="cls-11" cx="5.588" cy="5.588" r="5.588"/>
        <circle class="cls-7" cx="5.588" cy="5.588" r="5.088"/>
      </g>
      <g id="Ellipse_98" data-name="Ellipse 98" class="cls-5" transform="translate(-311.257 390.654)">
        <circle class="cls-11" cx="5.588" cy="5.588" r="5.588"/>
        <circle class="cls-7" cx="5.588" cy="5.588" r="5.088"/>
      </g>
      <g id="Ellipse_94" data-name="Ellipse 94" class="cls-5" transform="translate(-553.72 190.229)">
        <ellipse class="cls-11" cx="3.726" cy="3.726" rx="3.726" ry="3.726"/>
        <ellipse class="cls-7" cx="3.726" cy="3.726" rx="3.226" ry="3.226"/>
      </g>
      <g id="Ellipse_96" data-name="Ellipse 96" class="cls-5" transform="translate(-400.091 115.17)">
        <ellipse class="cls-11" cx="3.726" cy="3.726" rx="3.726" ry="3.726"/>
        <ellipse class="cls-7" cx="3.726" cy="3.726" rx="3.226" ry="3.226"/>
      </g>
      <line id="Line_161" data-name="Line 161" class="cls-6" x2="86.619" transform="translate(-526.862 387.011)"/>
      <line id="Line_2516" data-name="Line 2516" class="cls-6" x2="51.362" transform="translate(-510.862 155.011)"/>
      <line id="Line_174" data-name="Line 174" class="cls-6" x2="147.159" transform="translate(-616.275 356.276)"/>
      <line id="Line_164" data-name="Line 164" class="cls-6" x2="92.07" transform="translate(-558.775 251.647)"/>
      <line id="Line_165" data-name="Line 165" class="cls-6" x2="46.313" transform="translate(-596.088 226.019)"/>
      <line id="Line_169" data-name="Line 169" class="cls-6" x2="8.382" transform="translate(-401.125 411.364)"/>
      <line id="Line_162" data-name="Line 162" class="cls-6" x2="16.825" transform="translate(-496.126 182.107)"/>
      <line id="Line_173" data-name="Line 173" class="cls-6" x2="16.825" transform="translate(-405.341 373.188)"/>
      <line id="Line_166" data-name="Line 166" class="cls-6" x2="16.825" transform="translate(-502.459 287.723) rotate(-45)"/>
      <line id="Line_171" data-name="Line 171" class="cls-6" x2="16.825" transform="translate(-315.407 145.632) rotate(-45)"/>
      <line id="Line_163" data-name="Line 163" class="cls-6" x2="16.825" transform="translate(-487.744 173.724) rotate(90)"/>
      <line id="Line_172" data-name="Line 172" class="cls-6" x2="16.825" transform="translate(-396.959 364.805) rotate(90)"/>
      <line id="Line_167" data-name="Line 167" class="cls-6" x2="16.825" transform="translate(-502.459 275.867) rotate(45)"/>
      <line id="Line_170" data-name="Line 170" class="cls-6" x2="16.825" transform="translate(-315.407 133.777) rotate(45)"/>
    </g>
    <rect id="Rectangle_4332" data-name="Rectangle 4332" class="cls-7" width="241" height="241" transform="translate(-1642 -3770)"/>
    <g id="Group_3264" data-name="Group 3264" transform="translate(-1537 -3780.287)">
      <g id="Group_448" data-name="Group 448" transform="translate(-25.993 159.919)">
        <path id="Path_746" data-name="Path 746" class="cls-8" d="M98.561,56.094A5.811,5.811,0,0,0,92.767,50.3H49.894A5.811,5.811,0,0,0,44.1,56.094v59.386H98.561V56.094Z" transform="translate(-44.1 -50.3)"/>
        <path id="Path_15182" data-name="Path 15182" class="cls-9" d="M45.153,23.138v4.5" transform="translate(-34 10)"/>
      </g>
      <g id="Group_449" data-name="Group 449" transform="translate(-79.693 88.056)">
        <rect id="Rectangle_252" data-name="Rectangle 252" class="cls-10" width="22.768" height="20.2"/>
        <rect id="Rectangle_253" data-name="Rectangle 253" class="cls-10" width="22.768" height="20.2" transform="translate(22.768)"/>
        <rect id="Rectangle_254" data-name="Rectangle 254" class="cls-10" width="22.768" height="20.2" transform="translate(22.768 20.371)"/>
        <rect id="Rectangle_255" data-name="Rectangle 255" class="cls-10" width="22.768" height="20.2" transform="translate(0 20.371)"/>
      </g>
      <rect id="Rectangle_256" data-name="Rectangle 256" class="cls-10" width="29.433" height="18.726" transform="translate(-73.461 160.335)"/>
      <g id="Group_3003" data-name="Group 3003" transform="translate(-107.577 35.237)">
        <path id="Path_3405" data-name="Path 3405" class="cls-1" d="M83.239,597.4v13.023c0,1.455-.577,2.108-1.832,2.158-1.2.05-1.756-.477-1.832-1.982-.1-2.033-.1-4.065-.125-6.1-.075-5.621-.151-11.266-.151-16.887,0-1.38.176-2.735.3-4.115a1.516,1.516,0,0,1,1.857-1.531c1.054.075,1.756.527,1.756,1.681v13.776A.025.025,0,0,1,83.239,597.4Z" transform="translate(-59.41 -435.865)"/>
        <path id="Path_3406" data-name="Path 3406" class="cls-1" d="M584.313,704.755a1.581,1.581,0,0,1-1.706,1.706,1.606,1.606,0,0,1-1.706-1.581,1.971,1.971,0,0,1,1.882-1.782A1.668,1.668,0,0,1,584.313,704.755Z" transform="translate(-435.147 -526.613)"/>
        <path id="Path_3407" data-name="Path 3407" class="cls-1" d="M584.307,674.267a1.65,1.65,0,0,1-1.581,1.38,1.894,1.894,0,0,1-1.832-1.706c.05-1.1.778-1.505,1.756-1.556C583.58,672.309,584.307,673.062,584.307,674.267Z" transform="translate(-435.142 -503.602)"/>
        <path id="Path_3408" data-name="Path 3408" class="cls-1" d="M84.385,720.481a1.656,1.656,0,0,1-1.606,1.706,1.644,1.644,0,1,1,1.606-1.706Z" transform="translate(-60.757 -538.45)"/>
        <path id="Path_3409" data-name="Path 3409" class="cls-1" d="M173.013,178.65a9.151,9.151,0,0,0-6.725-2.434c-2.208.176-4.416,0-6.624,0-1.179,0-1.631-.677-1.706-1.731-.125-1.731.427-2.409,2.158-2.384a7.55,7.55,0,0,0,6.072-3.061,7.419,7.419,0,0,0-2.208-11.317,12.682,12.682,0,0,0-4.165-1.179,1.93,1.93,0,0,1-1.832-2.208c.025-1,.125-2.007.125-3.011q.038-15.131.05-30.236c0-2.735-.125-5.5-.151-8.23,0-.953.3-1.731,1.43-1.857.652-.075,1.33-.1,1.982-.151,1.782-.075,2.585-.878,2.61-2.635.025-2.083-.025-4.19-.025-6.273a2.858,2.858,0,0,0-3.212-3.111c-2.384.176-3.011-.678-2.785-3.086.151-1.506.3-3.036.3-4.567-.05-7.979-.151-15.959-.2-23.938,0-1.079.075-2.183.05-3.262-.05-5.044-.151-10.112-.125-15.156,0-1.782,0-3.638,2.108-4.542a16.5,16.5,0,0,0,2.961-1.706,10.515,10.515,0,0,0,4.667-9.811,69.129,69.129,0,0,0-1.731-9.209Q164.569,16.4,163,9.252c-.552-2.61-1.154-5.219-1.832-7.779a2.152,2.152,0,0,0-1.3-1.255,12.264,12.264,0,0,0-3.312-.452c-6.725-.025-13.424,0-20.149,0q-23.486,0-47,.025H24.943c-3.112.075-6.248.025-9.36.05-2.459.025-4.918.151-7.377.276A1.649,1.649,0,0,0,6.575,1.573c-.226,1.1-.527,2.183-.753,3.287-.9,4.391-1.782,8.807-2.71,13.224C2.259,22.2,1.406,26.34.427,30.43a11.1,11.1,0,0,0,1.054,8.481,15.885,15.885,0,0,0,5.144,4.943c2.058,1.28,3.613,2.434,3.162,5.119a8.933,8.933,0,0,0,.05,1.631c-.1,6.825-.226,13.65-.3,20.475-.025,2.911-.05,5.8,0,8.707.05,2.635.151,5.244.251,7.879.05,1.656.176,3.337.2,4.993,0,.677-.2,1.355-.226,2.032-.125,4.065.677,3.99-3.939,4.617-1.129.151-1.782.7-1.807,1.832-.075,2.585-.151,5.169-.151,7.754,0,1.179.928,1.907,2.258,2.007a10.612,10.612,0,0,1,2.359.251c.452.151,1.054.677,1.1,1.079.151,2.032.176,4.09.176,6.148,0,1.029-.652,1.48-1.631,1.531-.8.05-1.606-.025-2.384.1-1.957.326-3.965.753-4.893,2.735a8.733,8.733,0,0,0-.778,3.488C0,130.924.051,135.592.051,140.284V154.21a7.835,7.835,0,0,0,.125,1.882c.4,1.48,1.054,3.011,2.534,3.513,1.556.552,3.086,1.3,4.918,1.1s2.71,1.3,1.957,3.036a1.682,1.682,0,0,1-1.1.8c-1.029.276-2.108.4-3.162.627a6.516,6.516,0,0,0-4.943,5.069c-1.33,5.119,2.158,9.56,7.427,9.886,1.48.1,1.932.5,1.957,1.982.025,2.585,0,5.169.151,7.754a2.273,2.273,0,0,0,1.129,1.556,4.884,4.884,0,0,0,2.183.351c2.258.05,4.517.025,6.75.025H52.193v.2h66.244v-.125l36.986-.075c1.832,0,2.559-.678,2.585-2.559.05-2.308.176-4.592.151-6.9-.025-2.334,1.33-2.66,3.086-2.434,1.1.151,2.233.176,3.362.226a21.267,21.267,0,0,1,3.111.1c1.33.276,2.936.552,3.262,2.133.678,3.187.075,5.018-3.162,5.6-.075.025-.176.025-.251.05-1.23.3-2.158,1.43-1.957,2.384a2.188,2.188,0,0,0,2.509,1.355,8.076,8.076,0,0,0,5.42-3.011C175.7,186.077,175.547,180.808,173.013,178.65Zm-13.751-18.317a3.946,3.946,0,0,1,4.642,3.889,4.022,4.022,0,0,1-3.563,4.14,1.891,1.891,0,0,1-2.108-1.556c-.075-1.731-.05-3.488-.1-5.219A1.13,1.13,0,0,1,159.262,160.333ZM9.712,140.209h0v14.4c0,1.882-.652,2.459-2.534,2.283-.577-.05-1.154-.2-1.731-.276a1.733,1.733,0,0,1-1.731-1.907c0-1.907.075-3.839.075-5.746V129.544c0-1.079-.125-2.158-.151-3.237a2.01,2.01,0,0,1,2.007-2.359c.4-.075.828-.176,1.23-.226,2.158-.251,2.835.3,2.861,2.434C9.712,130.849,9.712,135.516,9.712,140.209Zm-.025,34.527c-.075,1.23-.677,1.782-1.857,1.656-2.133-.226-3.965-1.48-4.015-4.115a4.114,4.114,0,0,1,3.99-3.839c1.43-.025,1.832.351,1.882,1.807.025.627,0,1.255,0,1.882h.025C9.712,172.979,9.762,173.857,9.687,174.736ZM162.9,37.28a13.477,13.477,0,0,1-4.065,3.764,9.985,9.985,0,0,1-13.1-3.488,2.715,2.715,0,0,1-.351-1.957c.075-.3,1.054-.5,1.631-.5,2.283-.05,4.592-.025,6.875-.025V35h6.75a8.5,8.5,0,0,1,1.129.05C163.352,35.222,163.879,36.05,162.9,37.28ZM142.3,3.756c3.588-.025,7.176-.025,10.79-.05a18.649,18.649,0,0,0,2.359-.176,2.42,2.42,0,0,1,2.886,1.957c.7,3.463,1.3,6.976,2.032,10.438.678,3.262,1.48,6.5,2.208,9.736.3,1.38.527,2.785.7,4.19.1.853-.452,1.154-1.255,1.154h-8.406v.075c-2.585,0-5.194.025-7.779,0-1.455-.025-1.982-.6-2.183-2.032-.5-4.015-1.029-8-1.581-12.019-.5-3.714-1.079-7.427-1.606-11.141C140.242,4.183,140.568,3.781,142.3,3.756Zm-22.157-.05c2.334.075,4.692.025,7.026.025V3.656h7.026c1.656,0,2.133.552,2.334,2.208.477,3.588,1.054,7.176,1.606,10.765.376,2.559.728,5.119,1.129,7.678.226,1.531.6,3.011.778,4.542.251,1.907-.677,2.66-2.61,2.559-2.911-.151-5.847-.2-8.757-.226-1.907-.025-3.839.075-5.746.025-1.882-.05-2.183-.452-2.334-2.334-.527-6.373-1.129-12.722-1.681-19.1-.125-1.506-.226-3.011-.3-4.492C118.537,4.183,118.964,3.656,120.143,3.706Zm19.923,31.867c-1.43,5.244-7.176,7.277-11.643,6.323-2.409-.527-4.065-2.032-5.721-3.638a3.113,3.113,0,0,1-.5-.728c-.979-1.731-.7-2.409,1.28-2.434,4.968-.1,9.937-.075,14.9-.05A6.8,6.8,0,0,1,140.066,35.573ZM98.94,3.631h6.75c2.083,0,4.165.025,6.273,0,2.183-.025,2.559.376,2.76,2.534.627,6.7,1.3,13.374,1.957,20.049.1,1.029.176,2.083.251,3.111.075,1.43-.326,1.882-1.807,1.857-1.907-.025-3.839-.1-5.746-.1-3.137,0-6.273.075-9.385.075-2.158,0-2.509-.3-2.559-2.409-.151-6.1-.276-12.195-.427-18.292-.05-1.581-.176-3.162-.2-4.742C96.732,4.133,97.284,3.631,98.94,3.631ZM115.15,35.1c1.28,0,1.531.6,1.1,1.807-1.3,3.563-6.1,5.5-9.61,5.169-3.212-.3-5.972-1.531-7.754-4.391-1.154-1.832-.8-2.509,1.355-2.685.251-.025.5-.025.753-.05V35.1C105.715,35.072,110.432,35.047,115.15,35.1ZM74.2,28.623c.125-4.416.351-8.833.527-13.274.125-3.212.2-6.424.326-9.635.05-1.656.376-1.982,2.032-1.982h13.9c1.506,0,1.932.527,1.957,2.058.176,6.273.376,12.521.577,18.794.05,1.631.025,3.262.125,4.893.05,1.029-.427,1.531-1.33,1.581-2.334.075-4.667.075-7,.1a5.282,5.282,0,0,1-.627-.05v.151c-2.559,0-5.094-.075-7.653.025C74.776,31.358,74.124,30.931,74.2,28.623Zm18.744,7.227a3.89,3.89,0,0,1-.753,2.283A10.077,10.077,0,0,1,82.479,42a9.51,9.51,0,0,1-6.9-4.04,3.728,3.728,0,0,1-.552-2.308c.025-.276,1.2-.577,1.882-.577,2.208-.075,4.416-.025,6.624-.025v-.075H89.4a7.936,7.936,0,0,1,1.731.125C91.814,35.272,92.943,35.6,92.943,35.849ZM51.064,29.476q.866-9.447,1.681-18.945c.125-1.581.3-3.162.3-4.742a1.769,1.769,0,0,1,1.581-2.007,8.662,8.662,0,0,1,1.606-.125c4.14,0,8.28.025,12.4.05,2.258,0,2.61.4,2.534,2.66q-.339,9.748-.627,19.522c-.025,1.029,0,2.058.05,3.086.05,1.43-.427,2.058-1.857,2.083-2.71.05-5.42.025-8.155.025h0c-2.685,0-5.345-.025-8.03,0C51.415,31.107,50.963,30.605,51.064,29.476Zm18.142,7.653c-3.463,6.273-12.872,6.725-16.962.828a3.829,3.829,0,0,1-.276-.4c-1.029-2.032-.652-2.585,1.656-2.534s4.592,0,6.9,0h0c2.509,0,5.018-.025,7.5.025C69.707,35.1,70.008,35.674,69.206,37.129Zm-.176,5.847a17.343,17.343,0,0,0,1.957-1.882,1.421,1.421,0,0,1,2.108-.151,8.518,8.518,0,0,1,1.1,1.029c3.137,3.312,7.2,4.165,11.467,3.839A12.805,12.805,0,0,0,93.821,41.8c1.631-1.631,1.982-1.581,3.689.05a13.528,13.528,0,0,0,14.8,3.111,18.1,18.1,0,0,0,4.968-3.262c1.656-1.355,1.782-1.43,3.362-.025,3.287,2.861,6.9,4.818,11.467,4.216a13.7,13.7,0,0,0,8.958-4.466c.9-1.029,1.857-1.129,2.685-.2a14.67,14.67,0,0,0,8.531,4.567c1.631.326,2.108.954,2.133,2.635,0,1.33-.1,2.66-.1,4.015-.025,4.692.025,9.359-.025,14.052-.025,2.81-.251,5.621-.251,8.431,0,3.663.2,7.327.251,10.99.025,2.534-.1,5.044-.125,7.578-.025,1.054.1,2.133,0,3.187-.176,2.133-.226,2.158-2.308,2.183-3.764.025-7.528.025-11.292.025H83.759v.05H17.566c-.753,0-1.506,0-2.258.025-1.255.025-1.857-.452-1.857-1.656-.025-2.484.05-4.968.075-7.452,0-.7-.025-1.405,0-2.083.075-2.208.251-4.416.226-6.624,0-2.911-.176-5.821-.226-8.732-.025-1.029.251-2.058.226-3.086-.075-6.85-.2-13.675-.3-20.5,0-.552.05-1.079.1-1.631a1.323,1.323,0,0,1,1.28-1.3,15.154,15.154,0,0,0,9.033-4.366c1.28-1.255,1.807-1.179,3.137.2a14.481,14.481,0,0,0,6.373,3.764c2.559.8,5.018.376,7.528-.151A12.364,12.364,0,0,0,46.949,41.8c1.631-1.581,1.882-1.556,3.438.025A14.2,14.2,0,0,0,69.03,42.976Zm-41-6.574a1.259,1.259,0,0,1,.627-1.029,9.979,9.979,0,0,1,2.71-.4q6.511,0,13.023.075c1.832.025,2.233.7,1.3,2.334-1.506,2.71-3.99,4.015-6.951,4.592a19.837,19.837,0,0,1-2.108.151c-3.438.1-5.922-1.681-8-4.14A2.91,2.91,0,0,1,28.029,36.4Zm-.05-8.556c.728-5.169,1.581-10.288,2.359-15.457.326-2.133.577-4.291.9-6.424.276-1.932.477-2.158,2.459-2.233,2.208-.075,4.416-.025,6.649-.025v-.05h6.775c1.832,0,2.283.376,2.133,2.183-.376,4.391-.828,8.807-1.23,13.2-.276,3.162-.552,6.323-.753,9.485-.125,2.233-.527,2.66-2.66,2.66-4.517-.025-9.033,0-13.525,0C27.753,31.182,27.527,31.032,27.979,27.845ZM4.492,29.15C5.521,24.407,6.6,19.64,7.6,14.9c.652-3.111,1.255-6.223,1.857-9.334a1.816,1.816,0,0,1,1.681-1.731c1.029-.1,2.058-.151,3.111-.151q5.269,0,10.539.075a10.068,10.068,0,0,1,1.506.05c1.054.151,1.455.878,1.28,2.032-.7,4.542-1.355,9.083-2.058,13.625-.376,2.509-.828,5.018-1.23,7.528a19.955,19.955,0,0,0-.2,2.108c-.05,1.506-.627,2.083-2.183,2.083H14.881v.151c-2.76,0-5.52-.025-8.255,0C5.12,31.333,4.191,30.48,4.492,29.15ZM4.919,37c-.627-1.33-.3-1.907,1.129-1.932,2.409-.05,4.843-.025,7.252-.025v-.1c2.334,0,4.667-.05,7,.025.728.025,2.058.326,2.083.627a3.932,3.932,0,0,1-.627,2.484C19.247,41.47,15.734,42.5,11.694,41.9A8.454,8.454,0,0,1,4.919,37ZM154.294,176.141c0,3.337,0,6.675-.125,10.012-.075,1.832-.2,1.832-2.058,1.832-7.327,0-14.629.025-21.956,0-2.283,0-4.592-.176-6.875-.2-1.631-.025-3.262-.05-4.893-.025v-.025H52.143v.05H45.819q-15.093.075-30.186.2c-1.932,0-2.083-.125-2.108-2.058-.05-6.9-.05-13.8-.05-20.7V113.084c0-1.656.326-2.007,1.782-2.007H83.734v-.05H143.68c2.886,0,5.771.075,8.632.025,1.255-.025,1.832.452,1.857,1.731,0,2.459.1,4.918.1,7.377q.038,17.54.025,35.1C154.319,162.214,154.294,169.19,154.294,176.141Zm-6.951-68.954H13.9c-1.43,0-2.835.025-4.266,0-1.531-.05-1.982-.577-1.982-2.233,0-1.706.376-2.208,1.957-2.233,2.585-.05,5.169-.025,7.779-.025H151.584c2.308,0,4.592.025,6.9.1,1.48.05,1.832.5,1.857,2.183.025,1.531-.351,2.032-1.832,2.083C154.77,107.162,151.057,107.137,147.343,107.187Z" transform="translate(-0.035 0.244)"/>
      </g>
    </g>
  </g>
</svg>
