<svg xmlns="http://www.w3.org/2000/svg" xmlns:xlink="http://www.w3.org/1999/xlink" viewBox="0 0 424 299.194">
  <defs>
    <style>
      .cls-1, .cls-4 {
        fill: #fff;
      }

      .cls-1, .cls-2 {
        stroke: #fff;
        opacity: 0.15;
      }

      .cls-2, .cls-6 {
        fill: none;
      }

      .cls-2 {
        stroke-linecap: round;
        stroke-width: 6px;
      }

      .cls-3 {
        opacity: 0.12;
        fill: url(#linear-gradient);
      }

      .cls-5 {
        stroke: none;
      }
    </style>
    <linearGradient id="linear-gradient" x1="0.5" x2="0.5" y2="1" gradientUnits="objectBoundingBox">
      <stop offset="0" stop-color="#fff" stop-opacity="0"/>
      <stop offset="1" stop-color="#fff"/>
    </linearGradient>
  </defs>
  <g id="lin-hero" transform="translate(-596 -1716)">
    <g id="Group_3173" data-name="Group 3173" transform="translate(1215.275 1600.83)">
      <g id="Ellipse_93" data-name="Ellipse 93" class="cls-1" transform="translate(-389.749 168.141)">
        <circle class="cls-5" cx="5.588" cy="5.588" r="5.588"/>
        <circle class="cls-6" cx="5.588" cy="5.588" r="5.088"/>
      </g>
      <g id="Ellipse_219" data-name="Ellipse 219" class="cls-1" transform="translate(-461.749 130.141)">
        <circle class="cls-5" cx="3.588" cy="3.588" r="3.588"/>
        <circle class="cls-6" cx="3.588" cy="3.588" r="3.088"/>
      </g>
      <g id="Ellipse_97" data-name="Ellipse 97" class="cls-1" transform="translate(-538.053 294.349)">
        <circle class="cls-5" cx="5.588" cy="5.588" r="5.588"/>
        <circle class="cls-6" cx="5.588" cy="5.588" r="5.088"/>
      </g>
      <g id="Ellipse_98" data-name="Ellipse 98" class="cls-1" transform="translate(-311.257 390.654)">
        <circle class="cls-5" cx="5.588" cy="5.588" r="5.588"/>
        <circle class="cls-6" cx="5.588" cy="5.588" r="5.088"/>
      </g>
      <g id="Ellipse_94" data-name="Ellipse 94" class="cls-1" transform="translate(-553.72 190.229)">
        <circle class="cls-5" cx="3.726" cy="3.726" r="3.726"/>
        <circle class="cls-6" cx="3.726" cy="3.726" r="3.226"/>
      </g>
      <g id="Ellipse_96" data-name="Ellipse 96" class="cls-1" transform="translate(-400.091 115.17)">
        <circle class="cls-5" cx="3.726" cy="3.726" r="3.726"/>
        <circle class="cls-6" cx="3.726" cy="3.726" r="3.226"/>
      </g>
      <line id="Line_161" data-name="Line 161" class="cls-2" x2="86.619" transform="translate(-526.862 387.011)"/>
      <line id="Line_2516" data-name="Line 2516" class="cls-2" x2="51.362" transform="translate(-510.862 155.011)"/>
      <line id="Line_174" data-name="Line 174" class="cls-2" x2="147.159" transform="translate(-616.275 356.276)"/>
      <line id="Line_164" data-name="Line 164" class="cls-2" x2="92.07" transform="translate(-558.775 251.647)"/>
      <line id="Line_165" data-name="Line 165" class="cls-2" x2="46.313" transform="translate(-596.088 226.019)"/>
      <line id="Line_169" data-name="Line 169" class="cls-2" x2="8.382" transform="translate(-401.125 411.364)"/>
      <line id="Line_162" data-name="Line 162" class="cls-2" x2="16.825" transform="translate(-496.126 182.107)"/>
      <line id="Line_173" data-name="Line 173" class="cls-2" x2="16.825" transform="translate(-405.341 373.188)"/>
      <line id="Line_166" data-name="Line 166" class="cls-2" x2="16.825" transform="translate(-502.459 287.723) rotate(-45)"/>
      <line id="Line_171" data-name="Line 171" class="cls-2" x2="16.825" transform="translate(-315.407 145.632) rotate(-45)"/>
      <line id="Line_163" data-name="Line 163" class="cls-2" x2="16.825" transform="translate(-487.744 173.724) rotate(90)"/>
      <line id="Line_172" data-name="Line 172" class="cls-2" x2="16.825" transform="translate(-396.959 364.805) rotate(90)"/>
      <line id="Line_167" data-name="Line 167" class="cls-2" x2="16.825" transform="translate(-502.459 275.867) rotate(45)"/>
      <line id="Line_170" data-name="Line 170" class="cls-2" x2="16.825" transform="translate(-315.407 133.777) rotate(45)"/>
    </g>
    <circle id="Ellipse_2024" data-name="Ellipse 2024" class="cls-3" cx="105" cy="105" r="105" transform="translate(810 1759)"/>
    <g id="Group_2" data-name="Group 2" transform="translate(6 -260.734)">
      <g id="Group_1" data-name="Group 1" transform="translate(742.799 2053.202)">
        <path id="Path_1" data-name="Path 1" class="cls-4" d="M.007,87.146C.373,74.622,6.8,60.808,19.974,50.379c3.739-2.961,6.5-6.742,9.6-10.236C34.921,34.131,40.018,27.9,45.5,22.02c2.366-2.543,5.437-4.429,8.173-6.628A3.314,3.314,0,0,0,54.7,14.311,22.452,22.452,0,0,1,71.4.7c8.623-1.885,16.363.157,22.787,6.252a19.894,19.894,0,0,1,6.382,14.279,1.848,1.848,0,0,0,1.133,1.791,82.857,82.857,0,0,0,16.78,7.082,27.4,27.4,0,0,0,17.438-.277c4.612-1.645,9.087-3.677,13.626-5.526a1.5,1.5,0,0,0,1.092-1.661c-.6-10.973,8.012-20.149,18.666-22.1,8.1-1.488,15.428.3,21.559,5.891,1.859,1.692,3.16,3.99,4.732,6a4.055,4.055,0,0,0,1.2,1.269,42.146,42.146,0,0,1,13.918,10.994q9.268,10.764,18.551,21.544a6.008,6.008,0,0,0,1.306,1.065,51.515,51.515,0,0,1,21.5,27.362,50.881,50.881,0,0,1,1.447,28.166,51.8,51.8,0,0,1-6.805,16.4,52.18,52.18,0,0,1-82.456,7.3,47.612,47.612,0,0,1-10.5-17.381,1.976,1.976,0,0,0-2.335-1.614,41.03,41.03,0,0,1-5.609-.01,3.161,3.161,0,0,1-1.964-.919c-2.3-2.554-4.523-5.17-6.706-7.818-.632-.768-1.128-.778-1.964-.334a16.905,16.905,0,0,1-16.827-.052c-.731-.392-1.17-.407-1.75.292q-3.416,4.113-6.983,8.106a2.409,2.409,0,0,1-1.515.731c-1.734.089-3.484.089-5.217.01a1.482,1.482,0,0,0-1.687,1.2,48.471,48.471,0,0,1-6.319,12.383,52.032,52.032,0,0,1-17.574,15.846,52.075,52.075,0,0,1-43.239,3.269A52.035,52.035,0,0,1,18.8,131.382a50.731,50.731,0,0,1-12.059-14.4C2.316,109.008-.092,100.49.007,87.146ZM33.746,42.284c3.222-.789,6.257-1.708,9.354-2.251A52.011,52.011,0,0,1,89.211,54.714a3.586,3.586,0,0,0,1.99,1.018q12.386,1.293,24.792,2.434a97.18,97.18,0,0,0,10.931.684c5.123-.1,10.252-.538,15.36-1.008,7.1-.653,14.19-1.452,21.277-2.256a3.818,3.818,0,0,0,2.11-1,52.139,52.139,0,0,1,52.013-13.14c.465.136.94.24,1.781.449-.533-.679-.789-1.018-1.065-1.342-2.768-3.238-5.458-6.544-8.335-9.683-2.93-3.2-5.714-6.664-9.14-9.249-11.2-8.456-23.131-8.847-35.295-2.058-2.836,1.582-5.416,3.619-8.168,5.364a79.789,79.789,0,0,1-22.729,9.934,30.533,30.533,0,0,1-14.973.209c-11.171-2.664-21.058-8-30.333-14.608A28.563,28.563,0,0,0,77.862,15.57c-11.365-2.053-21.1,1.2-29.08,9.474-3.645,3.781-6.962,7.886-10.419,11.85C36.832,38.649,35.328,40.43,33.746,42.284ZM52.009,138.94A47.613,47.613,0,1,0,4.441,91.283,47.5,47.5,0,0,0,52.009,138.94Zm150.705,0a47.613,47.613,0,1,0-47.657-47.187A47.523,47.523,0,0,0,202.715,138.94Zm-62.98-44.027c2.251,2.617,4.455,5.186,6.675,7.74a1.235,1.235,0,0,0,.752.428c1.5.042,3.008.021,4.638.021-3.05-15.48-.371-29.628,8.821-42.648-1.1.131-1.87.225-2.637.308-5.583.58-11.166,1.107-16.744,1.744a115.578,115.578,0,0,1-23.7.507c-7.056-.642-14.1-1.457-21.152-2.178-.606-.063-1.227-.01-2-.01,9.009,12.916,11.589,26.991,8.565,42.293a11.766,11.766,0,0,1,1.629.01,3.616,3.616,0,0,0,3.745-1.692c1.515-2.011,3.233-3.87,4.925-5.74.559-.616.538-.987.005-1.624a17.377,17.377,0,0,1,.151-21.6A17.17,17.17,0,0,1,136.549,69.1,17.426,17.426,0,0,1,143.9,85.872,18.552,18.552,0,0,1,139.735,94.912ZM126.856,96.14a12.8,12.8,0,1,0-.219-25.6c-6.779-.021-12.608,5.928-12.613,12.869A12.827,12.827,0,0,0,126.856,96.14Zm28.448-74.8c9.913-8.325,20.776-12.675,33.749-10.189-3.865-5.421-13.908-8.012-20.849-5.771C159.111,8.31,154.974,15.961,155.3,21.335ZM95.775,19.487c-.731-6.758-7.233-13.427-15.626-14.723C71.882,3.49,63.922,7.694,61.656,11.8,74.216,8.592,85.5,11.193,95.775,19.487Z" transform="translate(-0.004 -0.024)"/>
        <path id="Path_2" data-name="Path 2" class="cls-4" d="M64.774,99.982A39.13,39.13,0,1,1,24.831,138.3,38.974,38.974,0,0,1,64.774,99.982Zm-1.018,73.744a34.646,34.646,0,1,0-34.47-34.9A34.6,34.6,0,0,0,63.756,173.726Z" transform="translate(-11.86 -47.773)"/>
        <path id="Path_3" data-name="Path 3" class="cls-4" d="M352.276,99.97a39.136,39.136,0,1,1-39.2,38.992A39.066,39.066,0,0,1,352.276,99.97Zm-.12,73.755A34.648,34.648,0,1,0,317.6,138.67,34.712,34.712,0,0,0,352.156,173.725Z" transform="translate(-149.571 -47.771)"/>
        <path id="Path_6" data-name="Path 6" class="cls-4" d="M72.6,202.239c-.4,1.478-.757,2.81-1.118,4.136-5.531-.893-13.307-6.842-16.049-14.127,1.285-.548,2.585-1.1,4.027-1.708A21.3,21.3,0,0,0,72.6,202.239Z" transform="translate(-26.483 -91.039)"/>
        <path id="Path_10" data-name="Path 10" class="cls-4" d="M347.972,190.58a22.261,22.261,0,0,0,7.453,8.957c-.825,1.243-1.609,2.413-2.564,3.854a39.851,39.851,0,0,1-4.256-3.86c-1.546-1.849-2.789-3.954-4.157-5.954-.585-.857-.318-1.447.606-1.818S346.891,191.019,347.972,190.58Z" transform="translate(-164.408 -91.059)"/>
      </g>
      <g id="Group_3175" data-name="Group 3175" transform="translate(860.636 2132.505)">
        <path id="Path_15180" data-name="Path 15180" class="cls-4" d="M14.041,1l-2.86,5.833L7.879,1h-3.8L0,10.456H3.812L6.243,4.8,8.925,9.595l.473.845h3.821L17.827,1ZM10.68,7.8l.543.616S10.688,7.819,10.68,7.8Z" transform="translate(0 -1)"/>
      </g>
    </g>
  </g>
</svg>
