<svg xmlns="http://www.w3.org/2000/svg" xmlns:xlink="http://www.w3.org/1999/xlink" viewBox="0 0 108 108">
  <defs>
    <style>
      .cls-1, .cls-3 {
        fill: none;
      }

      .cls-2 {
        opacity: 0.12;
        fill: url(#linear-gradient);
      }

      .cls-3 {
        stroke: #fff;
        stroke-miterlimit: 10;
        stroke-width: 3px;
      }
    </style>
    <linearGradient id="linear-gradient" x1="0.5" x2="0.5" y2="1" gradientUnits="objectBoundingBox">
      <stop offset="0" stop-color="#fff" stop-opacity="0"/>
      <stop offset="1" stop-color="#fff"/>
    </linearGradient>
  </defs>
  <g id="beg-fb" transform="translate(7286 -145)">
    <rect id="Rectangle_1055" data-name="Rectangle 1055" class="cls-1" width="108" height="108" transform="translate(-7286 145)"/>
    <path id="Path_3289" data-name="Path 3289" class="cls-2" d="M36,0A36,36,0,1,1,0,36,36,36,0,0,1,36,0Z" transform="translate(-7250 163)"/>
    <g id="Group_3609" data-name="Group 3609" transform="translate(-7289 158.827)">
      <path id="Path_15956" data-name="Path 15956" class="cls-3" d="M55.389,78.753V48.57h3.936c1.461,0,2.923.019,4.384-.019.273,0,.74-.253.779-.448.487-3.137.935-6.274,1.383-9.528H55.331c.1-2.572-.331-5.086.468-7.5a3.391,3.391,0,0,1,3.1-2.455c1.91-.136,3.819-.117,5.729-.156h1.286V18.835c-4.365-.37-8.71-.994-12.958.487-4.54,1.6-6.761,5.144-7.346,9.7a76.324,76.324,0,0,0-.331,8.457c-.019.857-.234,1.091-1.091,1.072-2.942-.058-5.9-.019-8.924-.019V48.57H45.2c.019.448.058.8.058,1.13q0,13.942.039,27.864c0,.916-.214,1.228-1.169,1.208-10.717-.039-21.434,0-32.151-.019A6.7,6.7,0,0,1,5,71.738Q5,41.867,5,12.015A6.722,6.722,0,0,1,11.976,5h59.8a6.7,6.7,0,0,1,7.034,7.054V71.66A6.7,6.7,0,0,1,71.8,78.733c-5.125.019-10.269,0-15.394,0C56.091,78.753,55.779,78.753,55.389,78.753Z" transform="translate(0 0)"/>
    </g>
  </g>
</svg>
