<svg xmlns="http://www.w3.org/2000/svg" xmlns:xlink="http://www.w3.org/1999/xlink" viewBox="0 0 108 108">
  <defs>
    <style>
      .cls-1 {
        fill: none;
      }

      .cls-2 {
        opacity: 0.12;
        fill: url(#linear-gradient);
      }

      .cls-3 {
        fill: #fff;
      }
    </style>
    <linearGradient id="linear-gradient" x1="0.5" x2="0.5" y2="1" gradientUnits="objectBoundingBox">
      <stop offset="0" stop-color="#fff" stop-opacity="0"/>
      <stop offset="1" stop-color="#fff"/>
    </linearGradient>
  </defs>
  <g id="beg-twitter" transform="translate(-767 -428)">
    <rect id="Rectangle_1050" data-name="Rectangle 1050" class="cls-1" width="108" height="108" transform="translate(767 428)"/>
    <path id="Path_3304" data-name="Path 3304" class="cls-2" d="M36,0A36,36,0,1,1,0,36,36,36,0,0,1,36,0Z" transform="translate(803 446)"/>
    <path id="Path_3303" data-name="Path 3303" class="cls-3" d="M92.673,10.937c-.182.365-.383.73-.547,1.113a15.311,15.311,0,0,1-6.64,7.735,1.488,1.488,0,0,0-.511,1.095,61.1,61.1,0,0,1-2.682,17.4C78.48,50.378,71.621,60.3,61.113,67.544a45.978,45.978,0,0,1-26.069,8.373,94.533,94.533,0,0,1-22.986-2.244,34.385,34.385,0,0,1-9.121-3.32C1.915,69.806.985,69.058,0,68.4V65.665a2.986,2.986,0,0,1,2.153-.8A41.684,41.684,0,0,0,18.626,61.4c.894-.42,1.77-.894,2.773-1.4-1.624-.383-3.1-.657-4.524-1.076-6.385-1.861-10.307-6.221-12.5-12.35a1.836,1.836,0,0,1,.566-2.226,1.919,1.919,0,0,1,2.372-.055,12.35,12.35,0,0,0,7.169,1.678c-.4-.292-.657-.493-.912-.675A30.28,30.28,0,0,1,1.4,29.909c-.073-.2-.128-.4-.182-.6a1.973,1.973,0,0,1,.638-2.445,1.928,1.928,0,0,1,2.5.274,12.56,12.56,0,0,0,6.166,2.59C2.682,21.317,1.113,12.214,7.078,1.943c9.6,11.566,22.147,17.477,36.54,19.757.237-1.806.383-3.612.748-5.382C46.282,7.161,54.692.137,63.813-.009c3.12-.055,5.947,1.058,8.738,2.28,1.277.566,2.536,1.186,3.758,1.861a2.025,2.025,0,0,0,1.879.182c3.43-1.368,6.9-2.7,10.344-4.05,1.2-.474,2.08-.237,2.518.8a2.065,2.065,0,0,1,.018,1.478c-.857,1.77-1.824,3.484-2.773,5.2a14.77,14.77,0,0,1-.93,1.3c.894-.31,1.605-.493,2.244-.784a2.469,2.469,0,0,1,3.065.493Q92.673,9.842,92.673,10.937ZM19.9,33.047c-4.816.128-9.632.566-14.248-1.3A28.921,28.921,0,0,0,22.074,46.036c-.164,1.04-.31,2.025-.474,3.01-4.324,0-8.592.657-12.952-.6.2.383.292.529.383.693a15.022,15.022,0,0,0,10.563,7.224,47.8,47.8,0,0,0,9.815.584h1.605C23.533,63.44,15.142,67.344,5.309,68A43.713,43.713,0,0,0,10.8,70.062a85.7,85.7,0,0,0,26.014,2.663,39.748,39.748,0,0,0,14.394-3.32A48.44,48.44,0,0,0,75.014,47.477a55.178,55.178,0,0,0,6.732-28.386,1.4,1.4,0,0,1,1.113-1.605,10.682,10.682,0,0,0,5.783-5.455c-.31.091-.438.128-.566.164-1.715.584-3.448,1.186-5.163,1.77a2.034,2.034,0,0,1-1.988-.128c-.985-.711-.894-1.97.109-2.974C82.64,9.259,84.19,7.58,85.741,5.92a9.87,9.87,0,0,0,.894-1.332c-2.718,1-5.236,1.934-7.771,2.864a4.3,4.3,0,0,1-3.685-.31c-1.824-.949-3.685-1.843-5.6-2.645A13.023,13.023,0,0,0,63.85,3.2C57.374,3.53,52.594,6.668,49.328,12.2a20.091,20.091,0,0,0-2.39,11.256c.018.693,0,1.386,0,2.116a4.729,4.729,0,0,1-.8-.055c-3.612-.784-7.261-1.459-10.854-2.372A56.006,56.006,0,0,1,11.165,10.609C10.07,9.624,8.994,8.62,7.863,7.58a4.024,4.024,0,0,0-.2.4,16.236,16.236,0,0,0-.274,10.909c1.642,4.962,4.926,8.665,9.085,11.675C17.623,31.369,18.754,32.208,19.9,33.047Z" transform="translate(767 444.011)"/>
  </g>
</svg>
