<svg xmlns="http://www.w3.org/2000/svg" xmlns:xlink="http://www.w3.org/1999/xlink" viewBox="0 0 108.017 108">
  <defs>
    <style>
      .cls-1, .cls-3, .cls-4 {
        fill: none;
      }

      .cls-2 {
        opacity: 0.12;
        fill: url(#linear-gradient);
      }

      .cls-3, .cls-4 {
        stroke: #fff;
        stroke-miterlimit: 10;
      }

      .cls-3 {
        stroke-width: 2.5px;
      }

      .cls-4 {
        stroke-width: 2.2px;
      }

      .cls-5 {
        fill: #fff;
      }
    </style>
    <linearGradient id="linear-gradient" x1="0.5" x2="0.5" y2="1" gradientUnits="objectBoundingBox">
      <stop offset="0" stop-color="#fff" stop-opacity="0"/>
      <stop offset="1" stop-color="#fff"/>
    </linearGradient>
  </defs>
  <g id="beg-bitcointalk" transform="translate(-487.983 -2795)">
    <rect id="Rectangle_4323" data-name="Rectangle 4323" class="cls-1" width="108" height="108" transform="translate(488 2795)"/>
    <path id="Path_15689" data-name="Path 15689" class="cls-2" d="M36,0A36,36,0,1,1,0,36,36,36,0,0,1,36,0Z" transform="translate(524 2813)"/>
    <g id="Group_3226" data-name="Group 3226" transform="translate(489.1 2805)">
      <g id="Group_1000" data-name="Group 1000" transform="translate(0.133 0)">
        <path id="Path_1245" data-name="Path 1245" class="cls-3" d="M1688.792,1940.858a39.477,39.477,0,0,0,.4-5.586c0-21.814-19.287-39.371-43.1-39.371s-43.1,17.691-43.1,39.371c0,1.463.133,2.926.266,4.389" transform="translate(-1603 -1895.9)"/>
        <path id="Path_1246" data-name="Path 1246" class="cls-3" d="M1603.2,1928.7c2.394,19.686,20.617,35.115,42.829,35.115,21.681,0,39.771-14.764,42.7-33.918" transform="translate(-1602.934 -1885.072)"/>
      </g>
      <g id="Group_1002" data-name="Group 1002" transform="translate(0 43.628)">
        <path id="Path_1248" data-name="Path 1248" class="cls-4" d="M1603.3,1928.7a39.441,39.441,0,0,0-.4,5.586c0,10.641,4.656,20.218,12.1,27.4v-9.976A38.462,38.462,0,0,1,1603.3,1928.7Z" transform="translate(-1602.9 -1928.7)"/>
        <path id="Path_1249" data-name="Path 1249" class="cls-4" d="M1660.608,1956.41v-9.71a43.593,43.593,0,0,1-10.508,6.917v9.843A44.056,44.056,0,0,0,1660.608,1956.41Z" transform="translate(-1587.318 -1922.758)"/>
        <path id="Path_1250" data-name="Path 1250" class="cls-4" d="M1652.576,1961.643V1951.8a48.816,48.816,0,0,1-9.976,3.325v9.843A41.887,41.887,0,0,0,1652.576,1961.643Z" transform="translate(-1589.794 -1921.074)"/>
        <path id="Path_1251" data-name="Path 1251" class="cls-4" d="M1670.9,1933.956c0-1.463-.133-2.926-.266-4.256A38.358,38.358,0,0,1,1658,1952.312v9.71A37.549,37.549,0,0,0,1670.9,1933.956Z" transform="translate(-1584.711 -1928.37)"/>
        <path id="Path_1252" data-name="Path 1252" class="cls-4" d="M1628.576,1964.733v-9.843a47.361,47.361,0,0,1-9.976-3.99v9.976A53.4,53.4,0,0,0,1628.576,1964.733Z" transform="translate(-1597.717 -1921.372)"/>
        <path id="Path_1253" data-name="Path 1253" class="cls-4" d="M1635.729,1965.207a46.207,46.207,0,0,0,9.71-1.064V1954.3a44.933,44.933,0,0,1-9.577,1.064H1634v9.843Z" transform="translate(-1592.633 -1920.249)"/>
        <path id="Path_1254" data-name="Path 1254" class="cls-4" d="M1620.812,1962.393v-9.976a43.866,43.866,0,0,1-8.912-6.518v9.976A42.563,42.563,0,0,0,1620.812,1962.393Z" transform="translate(-1599.929 -1923.022)"/>
        <path id="Path_1255" data-name="Path 1255" class="cls-4" d="M1636.708,1965.339V1955.5a45.577,45.577,0,0,1-10.508-1.6v9.843A44.51,44.51,0,0,0,1636.708,1965.339Z" transform="translate(-1595.208 -1920.381)"/>
      </g>
      <path id="Path_3301" data-name="Path 3301" class="cls-5" d="M4.822,38.28H2.493c-1.356,0-2.329-.591-2.4-1.947-.07-1.425.939-2.017,2.26-2.086.417-.035.8-.07,1.356-.1V8.344c-.591,0-1.113.035-1.6,0C.928,8.205.094,7.579.094,6.363A1.987,1.987,0,0,1,2.075,4.346c.9-.07,1.843,0,2.747,0C5.552,2.781,4.162-.07,7.186.07c2.538.1,1.53,2.469,1.912,4.1H11.15c.035-.765.07-1.565.139-2.329A1.836,1.836,0,0,1,13.236,0a1.834,1.834,0,0,1,1.982,1.947,9.617,9.617,0,0,0,.035,1.738c.1.487.417,1.147.8,1.286A9.259,9.259,0,0,1,19.7,19.435c-.209.278-.382.591-.7,1.078a9.95,9.95,0,0,1,3.755,9.944c-.765,4.068-3.477,6.536-7.371,7.614-.556,1.634.834,4.346-2.086,4.45-2.816.1-1.7-2.573-2.225-4.172H9.168c-.591,1.46.765,4.276-2.26,4.172C4.2,42.487,5.483,39.879,4.822,38.28Zm2.886-4.1c2.329,0,4.52.139,6.675-.035,2.295-.209,4.137-2.295,4.589-4.8.313-1.773-.939-4.763-2.4-5.6-2.816-1.669-5.841-.9-8.866-.9Zm.07-25.763v10.5c1.877,0,3.616.1,5.32-.035a5.351,5.351,0,0,0,4.763-5.146c.07-2.608-1.808-5.111-4.276-5.32C11.706,8.275,9.794,8.414,7.777,8.414Z" transform="translate(31.844 17.782)"/>
    </g>
  </g>
</svg>
