<svg xmlns="http://www.w3.org/2000/svg" xmlns:xlink="http://www.w3.org/1999/xlink" viewBox="0 0 108.511 108">
  <defs>
    <style>
      .cls-1 {
        fill: none;
      }

      .cls-2 {
        opacity: 0.12;
        fill: url(#linear-gradient);
      }

      .cls-3 {
        fill: #fff;
        stroke: #fff;
      }
    </style>
    <linearGradient id="linear-gradient" x1="0.5" x2="0.5" y2="1" gradientUnits="objectBoundingBox">
      <stop offset="0" stop-color="#fff" stop-opacity="0"/>
      <stop offset="1" stop-color="#fff"/>
    </linearGradient>
  </defs>
  <g id="beg-reddit" transform="translate(-1045.489 -207)">
    <rect id="Rectangle_1046" data-name="Rectangle 1046" class="cls-1" width="108" height="108" transform="translate(1046 207)"/>
    <path id="Path_3297" data-name="Path 3297" class="cls-2" d="M36,0A36,36,0,1,1,0,36,36,36,0,0,1,36,0Z" transform="translate(1082 225)"/>
    <g id="Group_2537" data-name="Group 2537" transform="translate(1046 222.405)">
      <path id="Path_3293" data-name="Path 3293" class="cls-3" d="M53.88,4.074c-1.926,5.611-3.851,11.155-5.71,16.533,4.648.8,9.3,1.228,13.711,2.424a91.385,91.385,0,0,1,11.487,4.482,2.431,2.431,0,0,0,2.424.033A10.888,10.888,0,0,1,90.1,30.666a11.084,11.084,0,0,1-1.228,14.508,2.98,2.98,0,0,0-.83,1.959c.5,7.3-2.59,13.047-7.735,17.861C73.966,70.9,66.23,74.057,57.831,75.518c-12.715,2.224-25.1,1.062-36.785-4.714C15.1,67.849,10.124,63.732,7.036,57.657A20.375,20.375,0,0,1,4.878,47.564a2.487,2.487,0,0,0-.73-1.76C.629,42.651-.832,38.767.463,34.185c1.295-4.515,4.548-7.2,9.163-8.034A10.139,10.139,0,0,1,16.9,27.745a1.843,1.843,0,0,0,2.224,0,52.22,52.22,0,0,1,25.464-6.739,1.718,1.718,0,0,0,1.959-1.394c1.793-5.378,3.718-10.69,5.544-16.068.4-1.228.863-1.693,2.258-1.262,4.15,1.228,8.4,2.258,12.582,3.453,1.262.365,1.859.232,2.523-1.062,1.76-3.519,4.98-5.046,9.1-4.615a8.589,8.589,0,0,1,6.939,6.109,8.374,8.374,0,0,1-2.556,9.03A8.255,8.255,0,0,1,73.7,16.689a8.259,8.259,0,0,1-5.245-7.4c-.066-1-.332-1.394-1.328-1.66C62.744,6.53,58.4,5.3,53.88,4.074Zm-7.3,70.847c3.951-.5,7.9-.83,11.819-1.527,8.632-1.527,16.3-5.046,22.376-11.553,7.3-7.735,7.37-18.326.1-26.094-8.3-8.864-19.056-11.952-30.676-12.782a57.3,57.3,0,0,0-17.762,1.56C24.4,26.45,17.328,30,11.717,36.177c-6.341,7.038-6.673,16.4-.9,23.937A33.565,33.565,0,0,0,24.765,70.439C31.7,73.46,39.04,74.555,46.576,74.92Zm23.7-66.2a6.856,6.856,0,0,0,13.711,0,6.857,6.857,0,1,0-13.711,0ZM16.232,29.5A9.3,9.3,0,0,0,3.285,32.359C.861,36.277,1.824,41.887,5.409,44.145,7.069,37.9,10.954,33.256,16.232,29.5Zm60.323-.033c5.046,3.652,9.163,8.034,10.956,14.242a9.01,9.01,0,0,0,.764-12.284C85.22,27.745,80.074,26.848,76.555,29.471Z" transform="translate(0.003 0.015)"/>
      <path id="Path_3294" data-name="Path 3294" class="cls-3" d="M78.9,119.006a6.683,6.683,0,0,1,6.773-6.806,6.872,6.872,0,0,1,6.839,6.839,6.981,6.981,0,0,1-6.773,6.773A6.8,6.8,0,0,1,78.9,119.006Zm6.54,4.847a4.8,4.8,0,0,0,5.113-4.681,4.745,4.745,0,0,0-4.581-5.046,4.872,4.872,0,1,0-.531,9.727Z" transform="translate(-52.705 -74.946)"/>
      <path id="Path_3295" data-name="Path 3295" class="cls-3" d="M167.2,112.2a6.624,6.624,0,0,1,6.839,6.739,6.742,6.742,0,0,1-6.573,6.872A6.807,6.807,0,1,1,167.2,112.2Zm-.166,11.653a4.873,4.873,0,1,0-4.714-4.98A4.9,4.9,0,0,0,167.038,123.853Z" transform="translate(-107.212 -74.946)"/>
      <path id="Path_3296" data-name="Path 3296" class="cls-3" d="M108.937,186.107A29.5,29.5,0,0,1,94.23,182.09c-.4-.232-.564-.9-.83-1.361.631-.066,1.394-.4,1.826-.133a27.019,27.019,0,0,0,15.371,3.486,34.678,34.678,0,0,0,11.221-3.121c.3-.133.6-.432.863-.432a15.278,15.278,0,0,1,1.726.2c-.3.465-.465,1.162-.9,1.328-3.021,1.162-6.009,2.39-9.13,3.253A37.751,37.751,0,0,1,108.937,186.107Z" transform="translate(-62.391 -120.567)"/>
    </g>
  </g>
</svg>
