<svg xmlns="http://www.w3.org/2000/svg" xmlns:xlink="http://www.w3.org/1999/xlink" viewBox="0 0 108 108">
  <defs>
    <style>
      .cls-1, .cls-3 {
        fill: none;
      }

      .cls-2 {
        opacity: 0.12;
        fill: url(#linear-gradient);
      }

      .cls-3 {
        stroke-linejoin: bevel;
      }

      .cls-4, .cls-6 {
        fill: #fff;
      }

      .cls-5, .cls-6 {
        stroke: none;
      }
    </style>
    <linearGradient id="linear-gradient" x1="0.5" x2="0.5" y2="1" gradientUnits="objectBoundingBox">
      <stop offset="0" stop-color="#fff" stop-opacity="0"/>
      <stop offset="1" stop-color="#fff"/>
    </linearGradient>
  </defs>
  <g id="beg-collab" transform="translate(-986 -2795)">
    <rect id="Rectangle_4350" data-name="Rectangle 4350" class="cls-1" width="108" height="108" transform="translate(986 2795)"/>
    <path id="Path_15710" data-name="Path 15710" class="cls-2" d="M36,0A36,36,0,1,1,0,36,36,36,0,0,1,36,0Z" transform="translate(1022 2813)"/>
    <g id="Group_3121" data-name="Group 3121" transform="translate(-11534 -1776.098)">
      <g id="Path_15668" data-name="Path 15668" class="cls-3" transform="translate(12523.045 4582.105)">
        <path class="cls-5" d="M34.13,86.537c-5.686-.151-9.837-2.742-12.755-7.6-2.164-3.623-4.6-7.094-6.893-10.642C10.407,62.084,6.407,55.769,2.23,49.606A14.256,14.256,0,0,1,.268,38.662a13.058,13.058,0,0,1,2.767-5.409C6.558,28.8,10.331,24.5,14,20.146c4.176-4.956,8.327-9.962,12.529-14.893A14.363,14.363,0,0,1,36.973.02c3.673-.252,6.767,1.308,9.988,2.516Q59.452,7.215,71.917,12.02a53.537,53.537,0,0,1,8.579,3.8A12.19,12.19,0,0,1,86.433,26.41a38.858,38.858,0,0,1-.478,6.616,4.688,4.688,0,0,1-5.359,3.8,8.113,8.113,0,0,1-5.912-3.572A9.057,9.057,0,0,0,67.313,29.1a7.877,7.877,0,0,0-6.39,3.2A20.475,20.475,0,0,0,56.6,41.605a17.833,17.833,0,0,0,1.761,11.9c2.994,6.214,13.132,7.874,17.535,1.132,1.761-2.667,4.579-3.4,6.893-1.962a4,4,0,0,1,1.862,3.748c-.1,2.918-.151,5.862-.5,8.78a13.227,13.227,0,0,1-9.937,11.673c-4.679,1.233-9.359,2.491-14.063,3.673-4.226,1.057-8.453,2.038-12.679,3.094-3.271.83-6.516,1.786-9.786,2.566A23.237,23.237,0,0,1,34.13,86.537Z"/>
        <path class="cls-6" d="M 34.13040924072266 86.53701782226563 C 35.31280899047852 86.43639373779297 36.57069396972656 86.48670959472656 37.67765426635742 86.20997619628906 C 40.94815444946289 85.43009185791016 44.19349670410156 84.47409057617188 47.46399688720703 83.64390563964844 C 51.69046783447266 82.5872802734375 55.91696548461914 81.60611724853516 60.14346694946289 80.54950714111328 C 64.84793853759766 79.36708068847656 69.52728271484375 78.10920715332031 74.20661163330078 76.87648010253906 C 80.26960754394531 75.26638793945313 83.51495361328125 70.48643493652344 84.14389801025391 65.20332336425781 C 84.49609375 62.28500747680664 84.54640960693359 59.3415641784668 84.64704132080078 56.42327880859375 C 84.69736480712891 54.88866424560547 84.1690673828125 53.55529022216797 82.78538513183594 52.67477798461914 C 82.00446319580078 52.19094848632813 81.16664886474609 51.9534912109375 80.33108520507813 51.9534912109375 C 78.69017791748047 51.9534912109375 77.05903625488281 52.8701171875 75.89218139648438 54.63707733154297 C 73.92439270019531 57.65060424804688 70.81088256835938 58.98545074462891 67.70144653320313 58.98545074462891 C 63.85403060913086 58.98545074462891 60.012939453125 56.9415397644043 58.35726547241211 53.50497817993164 C 56.5459098815918 49.75649261474609 55.66539764404297 45.85704803466797 56.59622573852539 41.60540771484375 C 57.35096740722656 38.13363265991211 58.60883712768555 34.98892211914063 60.9233512878418 32.29705047607422 C 62.53895950317383 30.41216468811035 64.46408843994141 29.09897232055664 67.09297180175781 29.09897232055664 C 67.16586303710938 29.09897232055664 67.23941802978516 29.09998512268066 67.31339263916016 29.10202026367188 C 70.53358459472656 29.17750549316406 72.87325286865234 30.7624340057373 74.68459320068359 33.25304794311523 C 76.14373779296875 35.26566314697266 78.03057098388672 36.54869079589844 80.59666442871094 36.82543563842773 C 80.79815673828125 36.84695434570313 80.99821472167969 36.85751724243164 81.19641876220703 36.85750961303711 C 83.54719543457031 36.85741806030273 85.60722351074219 35.36996841430664 85.95523834228516 33.02661895751953 C 86.28229522705078 30.83790588378906 86.48355102539063 28.6240348815918 86.43323516845703 26.41014862060547 C 86.30744934082031 21.88176345825195 84.34515380859375 18.15843391418457 80.49602508544922 15.81876277923584 C 77.85446929931641 14.20867729187012 74.83554077148438 13.15204906463623 71.917236328125 12.01994895935059 C 63.61521148681641 8.799777030944824 55.28802490234375 5.655063152313232 46.96082305908203 2.535506010055542 C 43.97433090209961 1.415568947792053 41.09624862670898 -0.007244120351970196 37.76422500610352 -0.007244120351970196 C 37.50349807739258 -0.007244120351970196 37.23978042602539 0.001477822428569198 36.97322463989258 0.01973456330597401 C 32.6964225769043 0.3216345608234406 29.24980926513672 2.032348871231079 26.53278160095215 5.25253438949585 C 22.3314380645752 10.18344879150391 18.18042373657227 15.18982028961182 14.00425338745117 20.14587783813477 C 10.33123874664307 24.4981632232666 6.557581424713135 28.80013465881348 3.035495758056641 33.25304794311523 C 1.802767276763916 34.83797836303711 0.595210075378418 36.74996185302734 0.2681529223918915 38.66194915771484 C -0.4111042022705078 42.43559265136719 -0.08404706418514252 46.1840934753418 2.230453014373779 49.60553359985352 C 6.406638622283936 55.7691650390625 10.40670967102051 62.08374786376953 14.482253074646 68.29770660400391 C 16.7715950012207 71.84493255615234 19.21189498901367 75.31668853759766 21.37545204162598 78.93940734863281 C 24.29375267028809 83.79483795166016 28.44476699829102 86.38607788085938 34.13040924072266 86.53701782226563 M 34.05079650878906 89.53596496582031 C 27.4381103515625 89.36040496826172 22.30839538574219 86.31517791748047 18.80415344238281 80.48486328125 L 18.79982376098633 80.47762298583984 C 17.42618179321289 78.17756652832031 15.89288139343262 75.87224578857422 14.41005325317383 73.642822265625 C 13.60542106628418 72.43304443359375 12.7734317779541 71.18214416503906 11.96782302856445 69.93409729003906 C 10.58243560791016 67.82173919677734 9.184480667114258 65.66501617431641 7.832481384277344 63.57919311523438 C 5.205395698547363 59.52620697021484 2.488852977752686 55.33523559570313 -0.2531470656394958 51.28830718994141 C -1.600361347198486 49.2967643737793 -2.469475746154785 47.09009170532227 -2.837589979171753 44.72770690917969 C -3.155469179153442 42.6876220703125 -3.104658126831055 40.47209930419922 -2.686589956283569 38.14273452758789 C -2.325703382492065 36.05092620849609 -1.228459715843201 33.84880065917969 0.6674386262893677 31.41122055053711 L 0.6825529336929321 31.39196395874023 C 3.273924350738525 28.1157341003418 6.025652885437012 24.8896484375 8.686796188354492 21.7697925567627 C 9.681538581848145 20.60357666015625 10.71013832092285 19.39766311645508 11.71158123016357 18.21101951599121 C 13.26150989532471 16.37164878845215 14.83698177337646 14.49067783355713 16.360595703125 12.67163467407227 C 18.93682289123535 9.595851898193359 21.6009407043457 6.415158748626709 24.24559593200684 3.311185836791992 C 27.46367263793945 -0.4993279874324799 31.67487335205078 -2.613713264465332 36.76198196411133 -2.972822666168213 L 36.76822280883789 -2.973251104354858 C 37.09759521484375 -2.995808362960815 37.43269729614258 -3.007251262664795 37.76422500610352 -3.007251262664795 C 41.07665252685547 -3.007251262664795 43.94793701171875 -1.871508240699768 46.48123931884766 -0.8694654107093811 C 47.00991058349609 -0.6603511571884155 47.50928115844727 -0.4628225862979889 48.01419448852539 -0.2734797298908234 C 54.89099502563477 2.302720308303833 63.94682312011719 5.710634708404541 73.00212097167969 9.222977638244629 C 73.40749359130859 9.380234718322754 73.81471252441406 9.53596305847168 74.22257995605469 9.691948890686035 C 76.84307861328125 10.69416332244873 79.55279541015625 11.73049163818359 82.05741119384766 13.25710582733154 C 84.39963531494141 14.68080615997314 86.22762298583984 16.56123542785645 87.48748016357422 18.84420585632324 C 88.70099639892578 21.04320526123047 89.35525512695313 23.56073379516602 89.43208312988281 26.32684898376465 L 89.43246459960938 26.34199142456055 C 89.48176574707031 28.51113510131836 89.31488037109375 30.84272003173828 88.92229461669922 33.46997833251953 C 88.64393615722656 35.34430694580078 87.66700744628906 37.02022171020508 86.17188262939453 38.18634796142578 C 84.79026794433594 39.26395034790039 83.02330780029297 39.8574333190918 81.19654083251953 39.85750579833984 C 80.89205169677734 39.85753631591797 80.58302307128906 39.84103393554688 80.27813720703125 39.80847930908203 C 77.00447082519531 39.45542144775391 74.30641174316406 37.84243392944336 72.25576782226563 35.01395034790039 C 70.82625579833984 33.04836273193359 69.27947998046875 32.14893341064453 67.24309539794922 32.10119247436523 L 67.23058319091797 32.10087585449219 C 67.18439483642578 32.09960556030273 67.13848114013672 32.09897613525391 67.09297943115234 32.09897613525391 C 65.65702056884766 32.09897613525391 64.49309539794922 32.74209213256836 63.20113754272461 34.24940490722656 C 61.43266677856445 36.30620574951172 60.26639556884766 38.84500503540039 59.52775192260742 42.24270629882813 C 58.82955169677734 45.43180465698242 59.31623840332031 48.5943489074707 61.05842590332031 52.19970703125 C 62.14998245239258 54.46534729003906 64.81898498535156 55.98545074462891 67.70143890380859 55.98545074462891 C 69.09348297119141 55.98545074462891 71.68231201171875 55.59717559814453 73.38027954101563 52.99684906005859 L 73.38877868652344 52.98389053344727 C 75.08026885986328 50.42251968383789 77.61062622070313 48.9534912109375 80.33108520507813 48.9534912109375 C 81.73379516601563 48.9534912109375 83.12885284423828 49.35844802856445 84.36539459228516 50.12457656860352 L 84.39599609375 50.14377593994141 C 86.58071136474609 51.53403472900391 87.73471069335938 53.79906463623047 87.64542388916016 56.5216064453125 L 87.64525604248047 56.52666473388672 C 87.63081359863281 56.94577789306641 87.61739349365234 57.36540603637695 87.60398101806641 57.78540420532227 C 87.52309417724609 60.31696319580078 87.439453125 62.93471908569336 87.12228393554688 65.56277465820313 C 86.73125457763672 68.84750366210938 85.49723815917969 71.86808013916016 83.55423736572266 74.29312133789063 C 81.42022705078125 76.95655059814453 78.45413970947266 78.85249328613281 74.97659301757813 79.77597808837891 L 74.97085571289063 79.77748870849609 C 73.87500762939453 80.06619262695313 72.77915191650391 80.35626220703125 71.6829833984375 80.64642333984375 C 68.14892578125 81.58189392089844 64.49455261230469 82.54920959472656 60.87475204467773 83.45900726318359 C 58.74586868286133 83.99123382568359 56.59130859375 84.51063537597656 54.50768280029297 85.01293182373047 C 52.43745040893555 85.51200866699219 50.29691696166992 86.02803039550781 48.19749450683594 86.55286407470703 C 46.84757614135742 86.89558410644531 45.46817398071289 87.26924133300781 44.13420867919922 87.63059234619141 C 42.26071166992188 88.13809204101563 40.32358551025391 88.66282653808594 38.38808822631836 89.12467193603516 C 37.34323883056641 89.38357543945313 36.31053161621094 89.42886352539063 35.39878082275391 89.46884918212891 C 35.03800964355469 89.48468017578125 34.69723892211914 89.49961853027344 34.38481140136719 89.52622222900391 L 34.05079650878906 89.53596496582031 Z"/>
      </g>
      <path id="Path_15669" data-name="Path 15669" class="cls-4" d="M23.423,1l-4.77,9.731L13.144,1H6.812L0,16.775H6.359l4.057-9.429,4.474,7.992.789,1.41h6.373L29.741,1ZM17.817,12.348l.9,1.028S17.831,12.376,17.817,12.348Z" transform="translate(12540.143 4615.8)"/>
    </g>
  </g>
</svg>
