<svg xmlns="http://www.w3.org/2000/svg" xmlns:xlink="http://www.w3.org/1999/xlink" viewBox="0 0 108 108">
  <defs>
    <style>
      .cls-1 {
        fill: none;
      }

      .cls-2 {
        opacity: 0.12;
        fill: url(#linear-gradient);
      }

      .cls-3 {
        fill: #fff;
      }
    </style>
    <linearGradient id="linear-gradient" x1="0.5" x2="0.5" y2="1" gradientUnits="objectBoundingBox">
      <stop offset="0" stop-color="#fff" stop-opacity="0"/>
      <stop offset="1" stop-color="#fff"/>
    </linearGradient>
  </defs>
  <g id="beg-discord" transform="translate(-488 -207)">
    <rect id="Rectangle_1042" data-name="Rectangle 1042" class="cls-1" width="108" height="108" transform="translate(488 207)"/>
    <path id="Path_3289" data-name="Path 3289" class="cls-2" d="M36,0A36,36,0,1,1,0,36,36,36,0,0,1,36,0Z" transform="translate(524 225)"/>
    <g id="Group_2533" data-name="Group 2533" transform="translate(488 227.234)">
      <path id="Path_3286" data-name="Path 3286" class="cls-3" d="M36.219,4.894a53.95,53.95,0,0,1,19.116,0c.43-1.34.784-2.554,1.188-3.742A1.5,1.5,0,0,1,58.268.039C65.1.848,71.644,2.517,77.511,6.31a11.008,11.008,0,0,1,3.869,4.4,88.568,88.568,0,0,1,6.7,18.054,100.307,100.307,0,0,1,3.565,23.389,4.985,4.985,0,0,1-.961,3.161,24.515,24.515,0,0,1-10.342,7.839,45.951,45.951,0,0,1-12.719,3.54A2.7,2.7,0,0,1,64.64,65.4c-1.239-1.9-2.706-3.666-4.02-5.512a1.255,1.255,0,0,0-1.568-.556,62.661,62.661,0,0,1-26.55,0,1.369,1.369,0,0,0-1.669.632c-1.391,1.947-2.781,3.919-4.3,5.79a2.376,2.376,0,0,1-1.719.936c-8.268-.91-15.955-3.312-22.175-9.229a9.369,9.369,0,0,1-.683-.733,7.248,7.248,0,0,1-2.1-5.689A108.117,108.117,0,0,1,9.29,12.3,15.349,15.349,0,0,1,16.6,4.767,48.94,48.94,0,0,1,33.109.039a1.67,1.67,0,0,1,2,1.29C35.486,2.466,35.815,3.579,36.219,4.894ZM28.608,58.373c-.607-.2-1.011-.329-1.416-.455a38.3,38.3,0,0,1-11.328-5.74c-.784-.607-1.113-1.365-.43-2.175.632-.759,1.391-.582,2.124-.025a34.438,34.438,0,0,0,9.963,5.108,57.788,57.788,0,0,0,27.688,2.149C62.061,56.2,68.534,54.049,74.2,49.851a1.292,1.292,0,0,1,2,.2,1.267,1.267,0,0,1-.379,1.972c-2.25,1.391-4.476,2.832-6.827,4.02-1.846.936-3.869,1.568-5.942,2.377,1.138,1.568,2.3,3.06,3.363,4.6a1.529,1.529,0,0,0,1.694.708,35.641,35.641,0,0,0,15.93-5.892,24.919,24.919,0,0,0,4.02-3.818,3.787,3.787,0,0,0,.759-2.276,94.342,94.342,0,0,0-3.464-22.656A80.862,80.862,0,0,0,78.977,12,9.6,9.6,0,0,0,75.21,8.054a40.487,40.487,0,0,0-15.5-5.007,1.249,1.249,0,0,0-.986.632,6.152,6.152,0,0,0-.455,1.467c.152.152.2.228.278.253.48.126.986.253,1.467.379a46.932,46.932,0,0,1,12.592,5.057c.809.48,1.34,1.113.784,2.048-.531.91-1.315.86-2.175.354A49.522,49.522,0,0,0,47.32,6.866a50.089,50.089,0,0,0-27.03,6.473c-.809.48-1.568.48-2.073-.354-.531-.86-.152-1.517.632-2a5.889,5.889,0,0,1,.86-.506c3.287-1.391,6.574-2.781,9.887-4.1,1.188-.455,2.478-.683,3.869-1.062-.632-.885-.025-2.478-1.8-2.2A50.887,50.887,0,0,0,20.112,6.158a15.325,15.325,0,0,0-9,8.774,108.708,108.708,0,0,0-8.395,35.8,5.465,5.465,0,0,0,1.719,4.5c5.411,5.361,12.188,7.56,19.52,8.547a1.056,1.056,0,0,0,.86-.329C26.08,61.837,27.294,60.168,28.608,58.373Z" transform="translate(0.155 -0.018)"/>
      <path id="Path_3287" data-name="Path 3287" class="cls-3" d="M110.152,119.074c-.025,5.942-5.285,10.266-10.569,8.673a9.1,9.1,0,0,1-6.018-10.064c.733-4.577,4.248-7.763,8.445-7.687C106.511,110.1,110.178,114.168,110.152,119.074Zm-2.68.076c-.051-3.338-2.276-6.094-5.184-6.347-2.883-.253-5.436,1.972-5.942,5.184a6.919,6.919,0,0,0-.051,1.77,5.9,5.9,0,0,0,5.007,5.512,5.523,5.523,0,0,0,5.715-4.02A20.752,20.752,0,0,0,107.472,119.149Z" transform="translate(-69.783 -82.187)"/>
      <path id="Path_3288" data-name="Path 3288" class="cls-3" d="M220.152,119.048c0,5.942-5.285,10.266-10.569,8.673a9.091,9.091,0,0,1-6.018-10.038c.733-4.577,4.248-7.763,8.445-7.687C216.511,110.072,220.178,114.143,220.152,119.048Zm-2.68,0c-.076-3.161-2.124-5.816-4.905-6.22a5.483,5.483,0,0,0-5.917,4.046,7.826,7.826,0,0,0-.3,2.857,5.853,5.853,0,0,0,4.981,5.538,5.536,5.536,0,0,0,5.765-4.1C217.27,120.464,217.32,119.756,217.472,119.048Z" transform="translate(-151.968 -82.187)"/>
    </g>
  </g>
</svg>
