<svg xmlns="http://www.w3.org/2000/svg" xmlns:xlink="http://www.w3.org/1999/xlink" viewBox="0 0 108.014 108">
  <defs>
    <style>
      .cls-1 {
        fill: none;
      }

      .cls-2 {
        opacity: 0.12;
        fill: url(#linear-gradient);
      }

      .cls-3 {
        fill: #fff;
        stroke: #fff;
      }
    </style>
    <linearGradient id="linear-gradient" x1="0.5" x2="0.5" y2="1" gradientUnits="objectBoundingBox">
      <stop offset="0" stop-color="#fff" stop-opacity="0"/>
      <stop offset="1" stop-color="#fff"/>
    </linearGradient>
  </defs>
  <g id="beg-telegram" transform="translate(-1324.986 -2574)">
    <rect id="Rectangle_4322" data-name="Rectangle 4322" class="cls-1" width="108" height="108" transform="translate(1325 2574)"/>
    <path id="Path_15687" data-name="Path 15687" class="cls-2" d="M36,0A36,36,0,1,1,0,36,36,36,0,0,1,36,0Z" transform="translate(1361 2592)"/>
    <path id="Path_15688" data-name="Path 15688" class="cls-3" d="M83.432,5.945c-.5,1.665-1.295,4.493-2.167,7.294-1.982,6.263-3.991,12.553-6.025,18.79q-4.876,15.024-9.8,30.022A17.222,17.222,0,0,1,63.664,65.7a3.752,3.752,0,0,1-4.836,1.533,9.6,9.6,0,0,1-2.881-1.8Q48.614,58.655,41.412,51.8c-.608-.581-1-.634-1.665-.106-2.511,2.061-5.074,4.1-7.638,6.1a12.377,12.377,0,0,1-2.59,1.586c-3.224,1.374-5.418.132-5.814-3.3q-1.07-9.435-1.929-18.869a3.005,3.005,0,0,0-2.114-2.881c-5.153-2.061-10.28-4.2-15.407-6.343A19.623,19.623,0,0,1,1.877,26.85C-.5,25.4-.66,22.7,1.639,21.221A14.2,14.2,0,0,1,5.5,19.608Q25,14.3,44.5,9.064q16.412-4.4,32.8-8.8L77.935.1C81.212-.609,83.591,1.373,83.432,5.945ZM32.321,39.826a7.436,7.436,0,0,0,.687.766Q45.258,52.326,57.56,64.033A6,6,0,0,0,59.2,65.09a2.066,2.066,0,0,0,2.933-.925,14.686,14.686,0,0,0,1.321-2.854q5.748-17.68,11.47-35.386C77.01,19.45,79.125,13,81.08,6.5c1.11-3.647-.211-4.968-3.885-4.017q-16.332,4.361-32.638,8.8-13.8,3.726-27.538,7.505c-4.2,1.136-8.4,2.193-12.58,3.409-.846.238-1.506,1.163-2.246,1.771a10.035,10.035,0,0,0,2.061,1.639q8.761,3.766,17.574,7.4a1.674,1.674,0,0,0,1.189-.026c2.828-1.374,5.655-2.8,8.457-4.228,6.052-3.039,12.1-6.052,18.156-9.091,5.5-2.775,10.967-5.576,16.464-8.3a1.869,1.869,0,0,1,1.718.159c.687.661.106,1.242-.5,1.691-5.048,3.832-10.069,7.69-15.117,11.522-4.651,3.541-9.329,7.03-13.98,10.571C36.233,36.76,34.33,38.293,32.321,39.826ZM55.763,19.318a2.324,2.324,0,0,1-.159-.264,5.362,5.362,0,0,0-.687.291c-4.334,2.193-8.695,4.413-13.029,6.633-5.074,2.59-10.1,5.365-15.275,7.717-2.193,1-3.145,1.9-2.748,4.493.793,5.471,1.189,10.994,1.8,16.491a20.1,20.1,0,0,0,.449,2.114c1.084-4.334,1.85-8.589,2.59-12.844.423-2.458.423-5.127,3.118-6.528a12.481,12.481,0,0,0,1.824-1.269c4.2-3.171,8.378-6.369,12.58-9.54C49.394,24.128,52.565,21.723,55.763,19.318ZM28.41,57.611c4.017-2.4,7.03-5.5,10.2-7.77C36.1,47.225,33.7,44.715,31.159,42.1,30.26,47.172,29.388,52.194,28.41,57.611Z" transform="translate(1325.486 2600.14)"/>
  </g>
</svg>
