<svg xmlns="http://www.w3.org/2000/svg" xmlns:xlink="http://www.w3.org/1999/xlink" viewBox="0 0 108.098 108">
  <defs>
    <style>
      .cls-1, .cls-3 {
        fill: none;
      }

      .cls-2 {
        opacity: 0.12;
        fill: url(#linear-gradient);
      }

      .cls-3 {
        stroke: #7d5ab5;
        stroke-linecap: round;
        stroke-linejoin: round;
        stroke-miterlimit: 10;
        stroke-width: 2.5px;
      }
    </style>
    <linearGradient id="linear-gradient" x1="0.5" x2="0.5" y2="1" gradientUnits="objectBoundingBox">
      <stop offset="0" stop-color="#004aff" stop-opacity="0"/>
      <stop offset="1" stop-color="#004aff"/>
    </linearGradient>
  </defs>
  <g id="beg-spend" transform="translate(6595.098 -2241)">
    <rect id="Rectangle_1039" data-name="Rectangle 1039" class="cls-1" width="108" height="108" transform="translate(-6595 2241)"/>
    <path id="Path_3274" data-name="Path 3274" class="cls-2" d="M36,0A36,36,0,1,1,0,36,36,36,0,0,1,36,0Z" transform="translate(-6559 2259.72)"/>
    <g id="Group_2527" data-name="Group 2527" transform="translate(-6593.848 2255.4)">
      <g id="Group_1063" data-name="Group 1063" transform="translate(0)">
        <rect id="Rectangle_512" data-name="Rectangle 512" class="cls-3" width="88.472" height="45.276"/>
        <g id="Group_1061" data-name="Group 1061" transform="translate(8.076 8.076)">
          <path id="Path_1298" data-name="Path 1298" class="cls-3" d="M1606.2,2339.519V2333.4h7.22" transform="translate(-1606.2 -2333.4)"/>
          <path id="Path_1299" data-name="Path 1299" class="cls-3" d="M1665.92,2339.519V2333.4h-7.22" transform="translate(-1594.457 -2333.4)"/>
        </g>
        <g id="Group_1062" data-name="Group 1062" transform="translate(8.076 30.959)">
          <path id="Path_1300" data-name="Path 1300" class="cls-3" d="M1665.92,2352.1v6.118h-7.22" transform="translate(-1594.457 -2352.1)"/>
          <path id="Path_1301" data-name="Path 1301" class="cls-3" d="M1606.2,2352.1v6.118h7.22" transform="translate(-1606.2 -2352.1)"/>
        </g>
        <path id="Path_1302" data-name="Path 1302" class="cls-3" d="M1649.261,2347.38a11.38,11.38,0,1,1-11.38-11.38A11.359,11.359,0,0,1,1649.261,2347.38Z" transform="translate(-1593.583 -2324.742)"/>
      </g>
      <line id="Line_747" data-name="Line 747" class="cls-3" x2="87.249" transform="translate(0 55.8)"/>
      <line id="Line_748" data-name="Line 748" class="cls-3" x2="87.249" transform="translate(0.612 66.935)"/>
      <line id="Line_749" data-name="Line 749" class="cls-3" x2="87.249" transform="translate(0.612 78.071)"/>
    </g>
  </g>
</svg>
