<svg xmlns="http://www.w3.org/2000/svg" xmlns:xlink="http://www.w3.org/1999/xlink" viewBox="0 0 130 130">
  <defs>
    <style>
      .cls-1, .cls-3, .cls-4 {
        fill: none;
      }

      .cls-2 {
        opacity: 0.12;
        fill: url(#linear-gradient);
      }

      .cls-3, .cls-4 {
        stroke: #7d5ab5;
        stroke-linejoin: round;
        stroke-miterlimit: 10;
        stroke-width: 3px;
      }

      .cls-3 {
        stroke-linecap: round;
      }
    </style>
    <linearGradient id="linear-gradient" x1="0.5" x2="0.5" y2="1" gradientUnits="objectBoundingBox">
      <stop offset="0" stop-color="#004aff" stop-opacity="0"/>
      <stop offset="1" stop-color="#004aff"/>
    </linearGradient>
  </defs>
  <g id="bus-eco" transform="translate(-358 -1078)">
    <rect id="Rectangle_1044" data-name="Rectangle 1044" class="cls-1" width="130" height="130" transform="translate(358 1078)"/>
    <circle id="Ellipse_215" data-name="Ellipse 215" class="cls-2" cx="46.5" cy="46.5" r="46.5" transform="translate(395 1097)"/>
    <g id="Group_2526" data-name="Group 2526" transform="translate(358.7 1082.782)">
      <g id="Group_430" data-name="Group 430" transform="translate(1.3 1.218)">
        <path id="Path_698" data-name="Path 698" class="cls-3" d="M1.3,1.843s19.813,40.771,32.421,17.52C46.165-3.888,1.3,1.843,1.3,1.843Z" transform="translate(-1.3 -1.218)"/>
        <path id="Path_699" data-name="Path 699" class="cls-3" d="M64.152,4.673S18.96,1.234,32.714,23.831C46.632,46.427,64.152,4.673,64.152,4.673Z" transform="translate(17.063 0.864)"/>
        <path id="Path_700" data-name="Path 700" class="cls-3" d="M8.7,5.4S40.138,15.552,40.138,49.774" transform="translate(3.417 1.447)"/>
        <path id="Path_701" data-name="Path 701" class="cls-3" d="M54.572,9S30.011,21.608,26.9,34.544" transform="translate(15.018 3.742)"/>
      </g>
      <g id="Group_431" data-name="Group 431" transform="translate(11.787 39.504)">
        <path id="Path_702" data-name="Path 702" class="cls-4" d="M28.684,28.2A39.692,39.692,0,0,0,11,44.085c.819.982,1.474,2.129,2.292,3.111,1.965,2.784,3.111,3.6,6.55,3.766,1.965,0,5.567-1.8,7.2-.491,1.8,1.31.164,5.4,2.456,7.041,2.456,1.637,4.912-.819,7.368-1.146,7.532-.819,3.6,9.006,10.316,9.988,4.912.655,11.953-4.585,9.988-9.5-1.31-3.111-8.515-4.585-6.222-9.169,1.31-2.784,4.585-1.474,7.041-1.474,7.2-.327,8.187-6.386,7.532-12.117a13.255,13.255,0,0,1,0-3.6,37.744,37.744,0,0,0-20.3-5.895" transform="translate(-5.604 -24.6)"/>
        <path id="Path_703" data-name="Path 703" class="cls-4" d="M86.293,56.527A39.725,39.725,0,0,0,67.954,28.2a13.271,13.271,0,0,0,0,3.6c.655,5.731-.327,11.789-7.532,12.117-2.456.164-5.731-1.146-7.041,1.474-2.292,4.421,4.912,6.058,6.222,9.169,1.965,4.912-5.076,10.152-9.988,9.5C42.9,63.077,46.831,53.252,39.3,54.071c-2.456.327-4.912,2.784-7.368,1.146-2.292-1.637-.819-5.731-2.456-7.041s-5.24.491-7.2.491c-3.439-.164-4.585-.982-6.55-3.766a37.774,37.774,0,0,0-2.292-3.111,38.388,38.388,0,0,0-5.4,25.216A39.614,39.614,0,0,0,26.691,95.5c1.965-.655,3.93-1.146,6.058-1.8,9.169-2.62.982-3.93,2.129-10.479.327-1.965,3.6-6.877,5.4-7.86,3.6-1.8,7.86,1.965,11.134,2.292,9.169.819,9.006-8.678,15.555-11.134s5.4,4.094,4.094,8.187c-1.474,5.4-6.55,9.661-1.474,14.9a12.259,12.259,0,0,0,2.947,2.129A39.038,39.038,0,0,0,86.293,56.527Z" transform="translate(-7.705 -22.305)"/>
        <path id="Path_704" data-name="Path 704" class="cls-4" d="M62.3,75c-5.076-5.076-.164-9.5,1.474-14.9C64.92,56,66.066,49.453,59.68,51.909c-6.55,2.456-6.55,11.953-15.555,11.134-3.275-.327-7.532-4.094-11.134-2.292-1.965.982-5.076,5.895-5.4,7.86-.982,6.55,7.041,7.86-2.129,10.479-2.129.655-4.094,1.146-6.058,1.8a39.459,39.459,0,0,0,46.011-3.6A25.6,25.6,0,0,1,62.3,75Z" transform="translate(-0.25 -7.535)"/>
      </g>
    </g>
  </g>
</svg>
