<svg xmlns="http://www.w3.org/2000/svg" xmlns:xlink="http://www.w3.org/1999/xlink" viewBox="0 0 234 234">
  <defs>
    <style>
      .cls-1, .cls-3 {
        fill: none;
      }

      .cls-2 {
        opacity: 0.12;
        fill: url(#linear-gradient);
      }

      .cls-3 {
        stroke: #7d5ab5;
        stroke-linecap: round;
        stroke-linejoin: round;
        stroke-miterlimit: 10;
        stroke-width: 6px;
      }
    </style>
    <linearGradient id="linear-gradient" x1="0.5" x2="0.5" y2="1" gradientUnits="objectBoundingBox">
      <stop offset="0" stop-color="#004aff" stop-opacity="0"/>
      <stop offset="1" stop-color="#002580"/>
    </linearGradient>
  </defs>
  <g id="bus-for-bus" transform="translate(10 -1584)">
    <rect id="Rectangle_1047" data-name="Rectangle 1047" class="cls-1" width="234" height="234" transform="translate(-10 1584)"/>
    <circle id="Ellipse_217" data-name="Ellipse 217" class="cls-2" cx="88.335" cy="88.335" r="88.335" transform="translate(47 1613)"/>
    <g id="Group_2530" data-name="Group 2530" transform="translate(-8.3 1603.438)">
      <path id="Path_747" data-name="Path 747" class="cls-3" d="M52,51.5a9,9,0,1,1-9-9A8.928,8.928,0,0,1,52,51.5Z" transform="translate(53.877 67.882)"/>
      <g id="Group_454" data-name="Group 454" transform="translate(1.3 1.3)">
        <path id="Path_748" data-name="Path 748" class="cls-3" d="M187.428,1.3H6.6A5.311,5.311,0,0,0,1.3,6.6V97.409H192.724V6.6A5.148,5.148,0,0,0,187.428,1.3Z" transform="translate(-1.3 -1.3)"/>
        <path id="Path_749" data-name="Path 749" class="cls-3" d="M1.3,76.255a5.311,5.311,0,0,0,5.3,5.3H187.164a5.311,5.311,0,0,0,5.3-5.3V37.6H1.3Z" transform="translate(-1.3 58.509)"/>
        <path id="Path_750" data-name="Path 750" class="cls-3" d="M28.7,69.5a5.311,5.311,0,0,0-5.3,5.3V81.15H97.534V74.8a5.311,5.311,0,0,0-5.3-5.3H28.7Z" transform="translate(35.113 111.068)"/>
        <rect id="Rectangle_257" data-name="Rectangle 257" class="cls-3" width="51.099" height="40.244" transform="translate(70.162 140.06)"/>
      </g>
      <g id="Group_456" data-name="Group 456" transform="translate(52.664 18.774)">
        <g id="Group_455" data-name="Group 455">
          <path id="Path_751" data-name="Path 751" class="cls-3" d="M99.763,12.3H25.1l7.943,39.185H90.232Z" transform="translate(-13.45 -0.65)"/>
          <path id="Path_752" data-name="Path 752" class="cls-3" d="M28.1,27.1s.794,9.531,8.472,9.531H78.4" transform="translate(-8.508 23.734)"/>
          <path id="Path_753" data-name="Path 753" class="cls-3" d="M32.35,19.55,29.967,7.9H20.7" transform="translate(-20.7 -7.9)"/>
        </g>
      </g>
    </g>
  </g>
</svg>
