<svg xmlns="http://www.w3.org/2000/svg" xmlns:xlink="http://www.w3.org/1999/xlink" viewBox="0 0 441.667 313.5">
  <defs>
    <style>
      .cls-1 {
        opacity: 0.12;
        fill: url(#linear-gradient);
      }

      .cls-2 {
        fill: #fff;
      }

      .cls-2, .cls-3, .cls-4, .cls-5 {
        stroke: #fff;
      }

      .cls-2, .cls-3 {
        opacity: 0.15;
      }

      .cls-3, .cls-4, .cls-5, .cls-7 {
        fill: none;
      }

      .cls-3, .cls-5 {
        stroke-linecap: round;
      }

      .cls-3, .cls-4, .cls-5 {
        stroke-width: 6px;
      }

      .cls-4, .cls-5 {
        stroke-linejoin: round;
        stroke-miterlimit: 10;
      }

      .cls-6 {
        stroke: none;
      }
    </style>
    <linearGradient id="linear-gradient" x1="0.5" x2="0.5" y2="1" gradientUnits="objectBoundingBox">
      <stop offset="0" stop-color="#fff" stop-opacity="0"/>
      <stop offset="1" stop-color="#fff"/>
    </linearGradient>
  </defs>
  <g id="bus-hero" transform="translate(-327.5 -83)">
    <circle id="Ellipse_106" data-name="Ellipse 106" class="cls-1" cx="107.333" cy="107.333" r="107.333" transform="translate(554.5 136.447)"/>
    <g id="Ellipse_93" data-name="Ellipse 93" class="cls-2" transform="translate(505 98)">
      <circle class="cls-6" cx="6" cy="6" r="6"/>
      <circle class="cls-7" cx="6" cy="6" r="5.5"/>
    </g>
    <g id="Ellipse_97" data-name="Ellipse 97" class="cls-2" transform="translate(422 299)">
      <circle class="cls-6" cx="6" cy="6" r="6"/>
      <circle class="cls-7" cx="6" cy="6" r="5.5"/>
    </g>
    <g id="Ellipse_98" data-name="Ellipse 98" class="cls-2" transform="translate(629 382)">
      <circle class="cls-6" cx="6" cy="6" r="6"/>
      <circle class="cls-7" cx="6" cy="6" r="5.5"/>
    </g>
    <g id="Ellipse_94" data-name="Ellipse 94" class="cls-2" transform="translate(388 155)">
      <circle class="cls-6" cx="4" cy="4" r="4"/>
      <circle class="cls-7" cx="4" cy="4" r="3.5"/>
    </g>
    <g id="Ellipse_96" data-name="Ellipse 96" class="cls-2" transform="translate(612 83)">
      <circle class="cls-6" cx="4" cy="4" r="4"/>
      <circle class="cls-7" cx="4" cy="4" r="3.5"/>
    </g>
    <line id="Line_161" data-name="Line 161" class="cls-3" x2="93" transform="translate(426.5 369.5)"/>
    <line id="Line_174" data-name="Line 174" class="cls-3" x2="158" transform="translate(330.5 336.5)"/>
    <line id="Line_164" data-name="Line 164" class="cls-3" x2="77" transform="translate(405.5 214.5)"/>
    <line id="Line_165" data-name="Line 165" class="cls-3" x2="9" transform="translate(371.5 194.5)"/>
    <line id="Line_169" data-name="Line 169" class="cls-3" x2="9" transform="translate(561.5 393.5)"/>
    <line id="Line_162" data-name="Line 162" class="cls-3" x2="18.064" transform="translate(459.5 149.5)"/>
    <line id="Line_173" data-name="Line 173" class="cls-3" x2="18.064" transform="translate(535.5 381.5)"/>
    <line id="Line_166" data-name="Line 166" class="cls-3" x2="18.064" transform="translate(415.123 262.896) rotate(-45)"/>
    <line id="Line_171" data-name="Line 171" class="cls-3" x2="18.064" transform="translate(662.123 103.896) rotate(-45)"/>
    <line id="Line_163" data-name="Line 163" class="cls-3" x2="18.064" transform="translate(468.5 140.5) rotate(90)"/>
    <line id="Line_172" data-name="Line 172" class="cls-3" x2="18.064" transform="translate(544.5 372.5) rotate(90)"/>
    <line id="Line_167" data-name="Line 167" class="cls-3" x2="18.064" transform="translate(415.123 250.168) rotate(45)"/>
    <line id="Line_170" data-name="Line 170" class="cls-3" x2="18.064" transform="translate(662.123 91.168) rotate(45)"/>
    <g id="Group_440" data-name="Group 440" transform="translate(513.427 161.396)">
      <g id="Group_439" data-name="Group 439">
        <path id="Path_734" data-name="Path 734" class="cls-4" d="M98.79,25.051V16.8H1.3v93.364H98.79V90.623" transform="translate(-1.083 16.855)"/>
        <path id="Path_735" data-name="Path 735" class="cls-5" d="M98.907,7.814A6.4,6.4,0,0,0,92.393,1.3H7.714A6.4,6.4,0,0,0,1.2,7.814V34.955H98.907Z" transform="translate(-1.2 -1.3)"/>
        <path id="Path_736" data-name="Path 736" class="cls-5" d="M1.3,59.8V83.684A6.4,6.4,0,0,0,7.814,90.2H92.493a6.4,6.4,0,0,0,6.514-6.514V59.8H1.3Z" transform="translate(-1.083 67.219)"/>
      </g>
      <line id="Line_216" data-name="Line 216" class="cls-5" x2="23.232" transform="translate(38.431 16.719)"/>
      <line id="Line_217" data-name="Line 217" class="cls-5" x2="18.021" transform="translate(43.642 142.217)"/>
      <line id="Line_218" data-name="Line 218" class="cls-5" y2="35.609" transform="translate(18.239 51.025)"/>
      <line id="Line_219" data-name="Line 219" class="cls-5" y2="8.034" transform="translate(18.239 99.444)"/>
    </g>
    <g id="Group_442" data-name="Group 442" transform="translate(601.58 217.849)">
      <g id="Group_441" data-name="Group 441">
        <path id="Path_737" data-name="Path 737" class="cls-5" d="M151.149,34.7H49.1L59.956,88.113h78.165Z" transform="translate(-33.25 -18.633)"/>
        <path id="Path_738" data-name="Path 738" class="cls-5" d="M54.1,59.3s1.086,13.028,11.725,13.028h56.887" transform="translate(-27.394 10.18)"/>
        <path id="Path_739" data-name="Path 739" class="cls-5" d="M57.65,43.367,54.176,27.3H41.8" transform="translate(-41.8 -27.3)"/>
      </g>
      <path id="Path_740" data-name="Path 740" class="cls-4" d="M72.991,71.052a5.645,5.645,0,1,1-5.645-5.645A5.474,5.474,0,0,1,72.991,71.052Z" transform="translate(-18.492 17.318)"/>
      <path id="Path_741" data-name="Path 741" class="cls-4" d="M89.291,71.045a5.606,5.606,0,0,1-5.645,5.645A5.748,5.748,0,0,1,78,71.045a5.645,5.645,0,0,1,11.291,0Z" transform="translate(0.6 17.325)"/>
    </g>
    <g id="Group_443" data-name="Group 443" transform="translate(660.204 195.051)">
      <path id="Path_742" data-name="Path 742" class="cls-5" d="M76.7,16.8,89.728,28.959,76.7,42.2" transform="translate(-59.547 -16.8)"/>
      <line id="Line_220" data-name="Line 220" class="cls-5" x1="30.181" transform="translate(0 12.159)"/>
    </g>
    <g id="Group_444" data-name="Group 444" transform="translate(635.018 169.43)">
      <path id="Path_743" data-name="Path 743" class="cls-5" d="M70.228,30.621,57.2,18.462,70.228,5" transform="translate(-57.2 -5)"/>
      <line id="Line_221" data-name="Line 221" class="cls-5" x2="30.181" transform="translate(0 13.462)"/>
    </g>
  </g>
</svg>
