<svg xmlns="http://www.w3.org/2000/svg" xmlns:xlink="http://www.w3.org/1999/xlink" viewBox="0 0 130 130">
  <defs>
    <style>
      .cls-1 {
        fill: none;
      }

      .cls-2 {
        opacity: 0.12;
        fill: url(#linear-gradient);
      }

      .cls-3 {
        fill: #7d5ab5;
      }
    </style>
    <linearGradient id="linear-gradient" x1="0.5" x2="0.5" y2="1" gradientUnits="objectBoundingBox">
      <stop offset="0" stop-color="#004aff" stop-opacity="0"/>
      <stop offset="1" stop-color="#004aff"/>
    </linearGradient>
  </defs>
  <g id="bus-fast-payment" transform="translate(290 -1078)">
    <rect id="Rectangle_1040" data-name="Rectangle 1040" class="cls-1" width="130" height="130" transform="translate(-290 1078)"/>
    <circle id="Ellipse_210" data-name="Ellipse 210" class="cls-2" cx="46.5" cy="46.5" r="46.5" transform="translate(-253 1097)"/>
    <g id="Group_2520" data-name="Group 2520" transform="translate(-290.06 1087.46)">
      <path id="Path_670" data-name="Path 670" class="cls-3" d="M608.3,0c.2.049.406.091.609.147a4.661,4.661,0,0,1-.574,9.15c-.946.1-1.913.035-2.872.042h-.476V11.56a50.5,50.5,0,0,1,28.3,13.08l3.993-3.993c-.82-.813-1.7-1.681-2.55-2.522,2.662-2.676,5.289-5.31,7.9-7.938,2.62,2.627,5.24,5.261,7.846,7.875q-3.9,3.9-7.861,7.861c-.827-.855-1.688-1.737-2.515-2.592-1.4,1.4-2.725,2.725-4.049,4.042.792.939,1.625,1.885,2.417,2.865a50.331,50.331,0,0,1,8.694,16.324,49.79,49.79,0,0,1,1.976,9.318,50.667,50.667,0,0,1,.189,9.612A49.587,49.587,0,0,1,643.922,84.6a50.285,50.285,0,0,1-18.117,19.75,49.528,49.528,0,0,1-17.676,6.887,50.131,50.131,0,0,1-7.3.792,1.568,1.568,0,0,0-.308.049H597.3c-.553-.042-1.114-.091-1.667-.126a50.614,50.614,0,0,1-7.812-1.149,1.865,1.865,0,1,1,.792-3.643,49.327,49.327,0,0,0,8.351,1.114c.161.007.322,0,.54,0v-.371c0-1.065-.007-2.123,0-3.188a1.867,1.867,0,1,1,3.727.021v3.552a46.376,46.376,0,0,0,19.532-5.318c-.617-1.065-1.219-2.1-1.815-3.139a1.842,1.842,0,0,1,.238-2.263,1.811,1.811,0,0,1,2.852.2c.6.918,1.114,1.885,1.667,2.83.091.147.175.3.287.49a47.258,47.258,0,0,0,14.516-14.509c-.133-.077-.245-.147-.364-.217-.932-.539-1.864-1.058-2.788-1.611a1.866,1.866,0,0,1,.5-3.454,1.879,1.879,0,0,1,1.408.245c.925.539,1.856,1.072,2.788,1.611.1.056.2.105.329.175A46.5,46.5,0,0,0,645.7,63.523h-.392c-1.072,0-2.151.007-3.223,0a1.875,1.875,0,1,1-.007-3.748c1.065-.007,2.123,0,3.188,0h.427a46.439,46.439,0,0,0-5.325-19.813c-.553.315-1.072.617-1.6.918-.5.294-1,.589-1.513.876a1.893,1.893,0,0,1-2.627-.631,1.86,1.86,0,0,1,.736-2.592c.883-.525,1.772-1.03,2.662-1.541.14-.084.28-.161.448-.266a47.085,47.085,0,0,0-14.509-14.509c-.14.238-.273.455-.4.673-.469.82-.932,1.639-1.415,2.452a1.869,1.869,0,1,1-3.23-1.878c.589-1.037,1.184-2.06,1.8-3.132a46.384,46.384,0,0,0-19.525-5.31v3.615a1.868,1.868,0,1,1-3.734.042c-.014-1.086-.007-2.172-.007-3.258v-.413c-.539.028-1.037.056-1.534.091a46.685,46.685,0,0,0-7.433,1.065,1.855,1.855,0,0,1-2.186-1.387,1.815,1.815,0,0,1,1.3-2.207c1.324-.308,2.676-.532,4.014-.771.687-.119,1.38-.189,2.088-.28V9.36h-.462a27.656,27.656,0,0,1-3.146-.1,4.617,4.617,0,0,1-3.832-4.232,4.708,4.708,0,0,1,3.51-4.862l.568-.147Q599.347-.011,608.3,0Zm-7.076,5.6h6.459a.926.926,0,0,0,.988-.757.888.888,0,0,0-.554-1.016,1.846,1.846,0,0,0-.616-.084q-8.123-.011-16.247,0a3.311,3.311,0,0,0-.455.028.908.908,0,0,0-.133,1.765,1.814,1.814,0,0,0,.518.063c1.976.007,3.944,0,5.92,0h.406v5.612h3.72C601.221,9.346,601.221,7.5,601.221,5.6ZM645.2,18.047c-.848-.848-1.709-1.716-2.557-2.564-.848.862-1.709,1.73-2.55,2.585.834.834,1.7,1.7,2.522,2.529C643.48,19.757,644.349,18.888,645.2,18.047Z" transform="translate(-545.125)"/>
      <path id="Path_671" data-name="Path 671" class="cls-3" d="M699.986,616.5a6.611,6.611,0,0,1-6.607-5.7,6.437,6.437,0,0,1,2.781-6.431q10.551-7.661,21.123-15.287c.974-.708,1.941-1.422,2.929-2.109a1.872,1.872,0,0,1,2.886.932,1.941,1.941,0,0,1-.364,1.808c-.827,1.128-1.646,2.27-2.466,3.4q-7.367,10.183-14.726,20.366a6.766,6.766,0,0,1-4.715,2.95A5.69,5.69,0,0,1,699.986,616.5Zm12.856-19.49c-.014-.014-.028-.035-.042-.049-.105.07-.21.14-.308.217q-4.624,3.342-9.241,6.691c-1.709,1.24-3.447,2.445-5.121,3.727a2.9,2.9,0,0,0,.5,4.855,2.925,2.925,0,0,0,3.79-1.03q3.625-5,7.237-10.011Q711.258,599.2,712.842,597.009Z" transform="translate(-644.675 -545.516)"/>
      <path id="Path_672" data-name="Path 672" class="cls-3" d="M19.637,936.762H2.129a1.937,1.937,0,0,1-1.99-1.345,1.874,1.874,0,0,1,1.822-2.4c.806-.021,1.611-.007,2.417-.007q16.4,0,32.816-.007a1.955,1.955,0,0,1,1.815.9,1.864,1.864,0,0,1-1.541,2.844c-.14.007-.28,0-.42,0Q28.335,936.769,19.637,936.762Z" transform="translate(0 -867.635)"/>
      <path id="Path_673" data-name="Path 673" class="cls-3" d="M122.658,746.6h13.83a1.873,1.873,0,1,1,.294,3.734,1.471,1.471,0,0,1-.175,0H108.7a1.864,1.864,0,0,1-.294-3.713c.182-.014.371-.014.56-.021Z" transform="translate(-99.237 -694.294)"/>
      <path id="Path_674" data-name="Path 674" class="cls-3" d="M174.078,1123.627H162.07a1.864,1.864,0,1,1-.252-3.72c.105-.007.21-.007.315-.007h23.911a1.9,1.9,0,0,1,2,1.5,1.857,1.857,0,0,1-1.681,2.214c-.561.028-1.121.014-1.681.014Z" transform="translate(-148.801 -1041.44)"/>
      <path id="Path_675" data-name="Path 675" class="cls-3" d="M251.2,563.627h-9.248A1.856,1.856,0,0,1,240,561.771a1.882,1.882,0,0,1,1.73-1.864,2.085,2.085,0,0,1,.21-.007h18.524a1.894,1.894,0,0,1,1.878,1.345,1.85,1.85,0,0,1-1.765,2.375c-2.046.021-4.084.007-6.13.007Z" transform="translate(-223.13 -520.674)"/>
      <path id="Path_676" data-name="Path 676" class="cls-3" d="M328.27,1306.407c2.158,0,4.316-.007,6.48,0a1.864,1.864,0,1,1,.042,3.727c-2.368.007-4.736,0-7.111,0-1.983,0-3.965.007-5.955,0a1.865,1.865,0,0,1-.49-3.664,2.88,2.88,0,0,1,.694-.07Q325.1,1306.411,328.27,1306.407Z" transform="translate(-297.395 -1214.875)"/>
      <path id="Path_677" data-name="Path 677" class="cls-3" d="M379.864,376.821c-1.52,0-3.034.007-4.554,0a1.879,1.879,0,1,1-.035-3.755c1.317-.014,2.641-.007,3.958-.007,1.751,0,3.5-.007,5.254,0a1.879,1.879,0,1,1,0,3.755C382.946,376.828,381.4,376.821,379.864,376.821Z" transform="translate(-347.14 -346.92)"/>
    </g>
  </g>
</svg>
