<svg xmlns="http://www.w3.org/2000/svg" xmlns:xlink="http://www.w3.org/1999/xlink" viewBox="0 0 234 234">
  <defs>
    <style>
      .cls-1, .cls-3 {
        fill: none;
      }

      .cls-2 {
        opacity: 0.12;
        fill: url(#linear-gradient);
      }

      .cls-3 {
        stroke: #fff;
        stroke-linejoin: round;
        stroke-miterlimit: 10;
        stroke-width: 6px;
      }
    </style>
    <linearGradient id="linear-gradient" x1="0.5" x2="0.5" y2="1" gradientUnits="objectBoundingBox">
      <stop offset="0" stop-color="#fff" stop-opacity="0"/>
      <stop offset="1" stop-color="#fff"/>
    </linearGradient>
  </defs>
  <g id="bus-for-blog" transform="translate(-288 -1584)">
    <rect id="Rectangle_1048" data-name="Rectangle 1048" class="cls-1" width="234" height="234" transform="translate(288 1584)"/>
    <circle id="Ellipse_218" data-name="Ellipse 218" class="cls-2" cx="88.335" cy="88.335" r="88.335" transform="translate(345 1613)"/>
    <g id="Group_2531" data-name="Group 2531" transform="translate(289.7 1606.7)">
      <g id="Group_459" data-name="Group 459" transform="translate(1.3 1.3)">
        <rect id="Rectangle_258" data-name="Rectangle 258" class="cls-3" width="188.549" height="128.333"/>
        <rect id="Rectangle_259" data-name="Rectangle 259" class="cls-3" width="188.549" height="58.309" transform="translate(0 128.061)"/>
      </g>
      <line id="Line_223" data-name="Line 223" class="cls-3" x2="46.047" transform="translate(18.466 151.431)"/>
      <line id="Line_224" data-name="Line 224" class="cls-3" x2="90.187" transform="translate(18.466 164.782)"/>
      <g id="Group_460" data-name="Group 460" transform="translate(28.274 53.069)">
        <line id="Line_225" data-name="Line 225" class="cls-3" y2="49.045" transform="translate(18.255 27.247)"/>
        <path id="Path_754" data-name="Path 754" class="cls-3" d="M47.166,55.176c0,7.9-7.9,14.168-17.983,14.168h0c-9.809,0-17.983-6.267-17.983-14.168V34.468c0-7.9,7.9-14.168,17.983-14.168h0c9.809,0,17.983,6.267,17.983,14.168Z" transform="translate(-11.2 -20.3)"/>
      </g>
      <g id="Group_461" data-name="Group 461" transform="translate(83.586 52.797)">
        <line id="Line_226" data-name="Line 226" class="cls-3" y2="49.317" transform="translate(18.255 27.247)"/>
        <path id="Path_755" data-name="Path 755" class="cls-3" d="M67.466,55.076c0,7.9-7.9,14.168-17.983,14.168h0c-9.809,0-17.983-6.267-17.983-14.168V34.368c0-7.9,7.9-14.168,17.983-14.168h0c9.809,0,17.983,6.267,17.983,14.168Z" transform="translate(-31.5 -20.2)"/>
      </g>
      <circle id="Ellipse_118" data-name="Ellipse 118" class="cls-3" cx="14.986" cy="14.986" r="14.986" transform="translate(134.265 26.912)"/>
    </g>
  </g>
</svg>
