<svg xmlns="http://www.w3.org/2000/svg" xmlns:xlink="http://www.w3.org/1999/xlink" viewBox="0 0 130 130">
  <defs>
    <style>
      .cls-1, .cls-3 {
        fill: none;
      }

      .cls-2 {
        opacity: 0.12;
        fill: url(#linear-gradient);
      }

      .cls-3 {
        stroke: #7d5ab5;
        stroke-linecap: round;
        stroke-linejoin: round;
        stroke-miterlimit: 10;
        stroke-width: 3px;
      }
    </style>
    <linearGradient id="linear-gradient" x1="0.5" x2="0.5" y2="1" gradientUnits="objectBoundingBox">
      <stop offset="0" stop-color="#004aff" stop-opacity="0"/>
      <stop offset="1" stop-color="#004aff"/>
    </linearGradient>
  </defs>
  <g id="bus-secure" transform="translate(131 -1078)">
    <rect id="Rectangle_1041" data-name="Rectangle 1041" class="cls-1" width="130" height="130" transform="translate(-131 1078)"/>
    <circle id="Ellipse_212" data-name="Ellipse 212" class="cls-2" cx="46.5" cy="46.5" r="46.5" transform="translate(-94 1097)"/>
    <g id="Group_2522" data-name="Group 2522" transform="translate(-724 493.48)">
      <path id="Path_678" data-name="Path 678" class="cls-3" d="M1.3,82c0,7.528,5.581,13.55,12.556,13.55H89.613c6.976,0,12.556-6.022,12.556-13.55V14.85c0-7.528-5.581-13.55-12.556-13.55H13.856C6.881,1.3,1.3,7.322,1.3,14.85V82Z" transform="translate(593.533 596.22)"/>
      <path id="Path_679" data-name="Path 679" class="cls-3" d="M33.524,66.911c0-1.656-1.054-3.011-2.258-3.011H15.758c-1.2,0-2.258,1.355-2.258,3.011v6.624H33.524Z" transform="translate(598.681 627.867)"/>
      <path id="Path_680" data-name="Path 680" class="cls-3" d="M69.224,66.911c0-1.656-1.054-3.011-2.258-3.011H51.458c-1.2,0-2.258,1.355-2.258,3.011v6.624H69.224Z" transform="translate(609.597 627.867)"/>
      <ellipse id="Ellipse_107" data-name="Ellipse 107" class="cls-3" cx="13.7" cy="13.7" rx="13.7" ry="13.7" transform="translate(640.268 629.438)"/>
      <line id="Line_204" data-name="Line 204" class="cls-3" x2="4.818" transform="translate(652.162 643.138)"/>
      <path id="Path_681" data-name="Path 681" class="cls-3" d="M21.153,46.818C21.153,44.258,19.2,42,16.938,42H10.915C8.507,42,6.7,44.108,6.7,46.818c0,2.559,1.957,4.818,4.215,4.818h6.173C19.2,51.635,21.153,49.528,21.153,46.818Z" transform="translate(596.263 616.796)"/>
      <path id="Path_682" data-name="Path 682" class="cls-3" d="M21.153,24.118c0-2.559-1.957-4.818-4.215-4.818H10.915C8.507,19.3,6.7,21.408,6.7,24.118c0,2.559,1.957,4.818,4.215,4.818h6.022A4.769,4.769,0,0,0,21.153,24.118Z" transform="translate(596.263 605.32)"/>
      <path id="Path_683" data-name="Path 683" class="cls-3" d="M72.531,9.8H22.8c-6.613,0-11.9,6.022-11.9,13.55V24.1h3.439c2.116,0,3.7,2.108,3.7,4.818,0,2.559-1.719,4.818-3.7,4.818H10.9V58.579h3.439c2.116,0,3.7,2.108,3.7,4.818,0,2.559-1.719,4.818-3.7,4.818H11.165c1.19,6.022,5.951,10.539,11.638,10.539H72.531c6.613,0,11.9-6.022,11.9-13.55V23.35C84.434,15.822,79.144,9.8,72.531,9.8Z" transform="translate(598.386 600.518)"/>
    </g>
  </g>
</svg>
