<svg height="100" viewBox="0 0 100 100" width="100" xmlns="http://www.w3.org/2000/svg"><g fill="#2395ff"><path d="m25.5346037 73.5494151h-13.2685128l19.5285167-38.6748823h-22.7946076v-9.8744429h34.9743924v9.1887218z"/><path d="m91 56.3377699c0 2.3770716-.3629661 4.6628602-1.0887434 6.8572112s-1.7917773 4.1371321-3.198 5.8286528c-1.3608905 1.6457246-3.0392603 2.9714944-5.0352642 3.9771548-1.995849 1.005815-4.264 1.5086452-6.804298 1.5086452-2.268151 0-4.4227396-.4571887-6.4640755-1.3714112-1.9960038-.960019-3.5383774-2.3086868-4.6269661-4.0458492h-.1361508v4.4572416h-10.2746v-42.0387234l11.1592715-6.5106917v18.0345849h.1359963c.9525925-1.1427397 2.2907396-2.1941962 4.0145963-3.1542615 1.7237018-.9600189 3.8331132-1.4400283 6.3280791-1.4400283 2.4494793 0 4.6495548.4800094 6.6002265 1.4400283 1.995849.9600653 3.6742189 2.262937 5.0351094 3.9086615 1.4062226 1.6457245 2.4722226 3.5657623 3.1981548 5.7601131.7711093 2.1485548 1.1566641 4.4114454 1.1566641 6.7886719zm-10.7508189 0c0-1.097253-.1814831-2.171453-.544449-3.2229095-.3174793-1.0514567-.8164415-1.9658339-1.4968869-2.7429773-.6804452-.8227851-1.5196301-1.4857472-2.5175546-1.9885775-.9980793-.5028301-2.1547434-.7542452-3.4703019-.7542452-1.2700718 0-2.4041472.2514151-3.4022264.7542452-.9979246.5028303-1.8598529 1.1657924-2.5856302 1.9885775-.6804453.8229396-1.2247397 1.7600603-1.6330377 2.8115169-.3628113 1.0514566-.5442944 2.1256566-.5442944 3.2229094 0 1.0970982.1814831 2.1714529.5442944 3.2229095.408298 1.0514566.9525924 1.9885774 1.6330377 2.811517.7257773.8227848 1.5877056 1.4857472 2.5856302 1.9885773.9980792.5028302 2.1321546.7542453 3.4022264.7542453 1.3155585 0 2.4722226-.2514151 3.4703019-.7542453.9979245-.5028301 1.8371094-1.1657925 2.5175546-1.9885773.6804454-.8229396 1.1794076-1.7600604 1.4968869-2.811517.3629659-1.0972528.544449-2.194351.544449-3.291449z"/></g></svg>