<svg height="119" viewBox="0 0 100 119" width="100" xmlns="http://www.w3.org/2000/svg"><path d="m83.2740214 113.76038c-6.4294188 6.23962-13.5231317 5.266904-20.2846976 2.325029-7.1886121-3.001186-13.7603796-3.190984-21.3523131 0-9.4543298 4.080665-14.4721234 2.894425-20.1660736-2.325029-32.1470937-33.0960858-27.4021352-83.5112697 9.1340451-85.4092531 8.86121.4744959 15.0652432 4.8991697 20.2846975 5.2669039 7.7580071-1.5776987 15.1838672-6.0972716 23.4875445-5.5041518 9.9762752.8066429 17.4377224 4.7449585 22.4199288 11.826809-20.5219454 12.3368921-15.658363 39.3831554 3.1909846 46.975089-3.772242 9.9051008-8.6120996 19.691578-16.7259786 26.927639zm-33.0960855-85.765125c-.960854-14.7093713 10.9608541-26.80901538 24.6737841-27.995255 1.886121 16.9632266-15.421115 29.6559905-24.6737841 27.995255z"/></svg>