<svg height="101" viewBox="0 0 100 101" width="100" xmlns="http://www.w3.org/2000/svg" xmlns:xlink="http://www.w3.org/1999/xlink"><linearGradient id="a" x1="15.116272%" x2="86.0465%" y1="86.079529%" y2="16.761353%"><stop offset="0" stop-color="#1b456e"/><stop offset=".62909842" stop-color="#08bbb5"/><stop offset="1" stop-color="#00edd3"/></linearGradient><g fill="none" opacity=".99" transform="translate(0 .082691)"><circle cx="49.973348" cy="50.103876" fill="url(#a)" r="49.973348"/><path d="m16.1023815 31.5090681c0-1.8666643 1.5132304-3.3798947 3.3798947-3.3798947s3.3798947 1.5132304 3.3798947 3.3798947c0 1.8666642-1.5132304 3.3798946-3.3798947 3.3798946s-3.3798947-1.5132304-3.3798947-3.3798946zm-1.1604305 20.0343256c-2.6698139-2.1906732-5.11278843-4.6440273-7.29212273-7.3231051 2.23379583-2.4799947 4.65983003-4.7798299 7.25550723-6.8780857.3795374-.2859503.571606-.7570678.5001796-1.2268704s-.3948327-.8625499-.8422053-1.022781c-.4473725-.1602312-.946587-.0621141-1.3000398.2555136-2.5514711 2.0678557-4.94646616 4.3216364-7.1653767 6.7428899-2.22509732-3.3798947-2.97430731-6.2837876-1.89555759-8.1511794 1.04495076-1.8082436 3.90659492-2.6701167 8.06104879-2.4222578.6997248.022641 1.2903346-.5158156 1.332295-1.214648.0419605-.6988324-.4799765-1.3040903-1.1773832-1.3653383-5.25855276-.3041905-8.87222348.9801695-10.44669108 3.7347836-.9998855 1.7321961-1.58855049 4.8276163 1.28717656 9.745363.33235631.5633158.7069613 1.1491642 1.12663155 1.7350126-4.01925807 5.0191436-5.37121594 9.3623082-3.6559194 12.3394321 1.29280971 2.2532631 4.08685597 3.3798947 8.16807879 3.3798947 1.52492638-.0125095 3.04662408-.1424565 4.55159148-.3886879.455891-.070885.8393248-.3796214 1.0058422-.8098925s.0908156-.9166958-.1985848-1.2760128c-.2894003-.359317-.7485238-.536927-1.204395-.4659152-5.30361807.8280742-8.9820701.194344-10.09461876-1.732196-.96326998-1.6674147-.16617816-4.7881841 3.00247309-8.9370048 2.20829025 2.6451968 4.66008707 5.0771907 7.32310517 7.2639569.3457251.3437781.8554516.4638173 1.3182542.3104451.4628026-.1533721.7999586-.5540668.8719526-1.0362765.0719941-.4822096-.1334201-.9639102-.5312419-1.2457738zm3.7488665-14.1166934c-.7129006 0-1.2912565.5770942-1.2928097 1.2899931v.2450424c0 3.5122739.1661782 6.9935654.4900847 10.3481108.0650039.6613489.6198293 1.1662886 1.28436 1.1688803.0422023.0027989.0845437.0027989.1267461 0 .7097697-.0683082 1.2302193-.6983925 1.163247-1.4082895-.3182734-3.270048-.4816349-6.6696588-.4816349-10.0974353v-.2394092c.0022474-.344109-.13249-.6749765-.3744925-.9196209s-.5713875-.3829663-.9155007-.3844551zm19.403412 9.9397069c-3.6904401 2.068592-7.5025958 3.9121215-11.4155942 5.5204946-.6610507.2699266-.9781459 1.0246105-.7082728 1.685683s1.0245313.9782287 1.6856256.7084091c4.0090101-1.6488694 7.9151551-3.5375135 11.6972522-5.6556904.5768492-.3684281.7665676-1.1226217.4327038-1.7201409-.3338639-.5975193-1.075594-.831266-1.6917146-.5331222zm29.596611-29.5346462c-1.9434394-3.3798947-7.1794596-4.2502176-15.1419281-2.534921-2.9664731.6540654-5.8839534 1.5133104-8.7313946 2.5715365-.5011234-2.2198079-1.135055-4.4075305-1.8983742-6.5513625-2.6644836-7.4076025-6.1964735-11.317014-10.2100984-11.317014-7.1822762 0-11.564873 12.4351958-13.2717198 24.0732998-.0834936.6959.4027471 1.3315865 1.096238 1.4331661s1.3416188-.3679494 1.4612157-1.0585611c1.8899244-12.8745821 6.2950538-21.86228538 10.7029997-21.86228538 2.7433479 0 5.5824594 3.49819099 7.7850241 9.59608428.7682955 2.1606318 1.3995238 4.3675792 1.8899244 6.6076941-4.772017 1.9311616-9.4009577 4.1985707-13.851935 6.7851385-.7632928.4393863-1.5434852.9013053-2.3293107 1.3801237-.5896814.3795326-.7692645 1.1599825-.4047663 1.7590737.3644981.5990912 1.1401566.7983546 1.7482744.4491241.7661095-.4647355 1.532219-.9210213 2.2786124-1.3491412 4.212736-2.4493869 8.5898133-4.6045164 13.0999084-6.4499657.9406457 5.2264367 1.4456099 10.5219665 1.5096863 15.8319899.0107725.7062877.5864399 1.2731758 1.2928097 1.2730937h.019716c.7129279-.0123431 1.2812581-.5995756 1.2702771-1.3125258-.0677983-5.6173917-.6181162-11.218572-1.6448821-16.7417449 11.0860546-4.0981223 19.2935654-4.3854133 21.0933594-1.2899931.9801694 1.6899473.1182963 4.588207-2.4278911 8.139913-2.7602473 3.8530799-7.2160751 8.1230135-12.8830318 12.3422487-.4469765.3332028-.6300076.9154108-.4540928 1.4444346.1759148.5290237.6711473.8856906 1.228652.8848848.2774537.0010196.54758-.0890225.768926-.2563174 5.8782002-4.3769636 10.5255554-8.8412411 13.4407145-12.908381 2.2419968-3.1404855 4.5093428-7.5709641 2.5630868-10.9395924zm-15.9502863 29.436066c-.3521933-.3018801-.8386845-.3929358-1.2762169-.2388674s-.7596346.5298542-.8449737.9858026.0790499.92279.4312433 1.22467c7.9117701 6.8104877 11.9282116 13.6153423 10.0016716 16.9501717-1.3350584 2.3095947-5.5261277 3.0447218-11.5029082 2.013854-2.2353106-.3979521-4.4403446-.950387-6.5992443-1.6533319 1.4815205-4.1178383 2.6109686-9.1313487 3.303847-14.747607.0569069-.4578778-.1348016-.9113307-.5029017-1.1895263-.3681002-.2781955-.8566605-.3388629-1.2816222-.1591464-.4249617.1797164-.7217535.5725094-.7785628 1.0303993-.6731624 5.4528967-1.7631784 10.2945958-3.1855508 14.2293565-4.4440466-1.6469253-8.7382471-3.6729361-12.83515-6.0556446-.6179573-.352985-1.4049953-.1401536-1.7608325.4761658-.3558373.6163194-.1466455 1.4043326.4680228 1.7630144 4.2053885 2.4427444 8.6114653 4.5223448 13.1703229 6.2161896-.1408289.3154569-.2816579.6252805-.4253034.9238379-1.9716052 4.0643233-4.2248683 6.3035036-6.4133501 6.3035036-3.1489352 0-6.3851844-4.5853905-8.655347-12.260568-.1201374-.4553326-.4783593-.8093249-.9350868-.9240457s-.9397083.0279781-1.2607519.3724949c-.3210437.3445168-.4293625.8363506-.2827507 1.2838614 2.6926494 9.1003664 6.6471262 14.1110602 11.1339364 14.1110602 3.2700481 0 6.2922372-2.6841997 8.7313945-7.7624914.1887108-.3886879.3689719-.7914587.5464163-1.2026792 2.3264223.7638914 4.7038984 1.3624958 7.1146783 1.7913442 1.7142419.3098866 3.4518046.4729009 5.1937715.4872681 4.4361117 0 7.5568811-1.2815434 8.9848866-3.7573162 2.6982826-4.6501718-1.2449278-12.2070529-10.5396382-20.2117701zm-11.9873597-8.514518-.8168079-.4788184c-3.8653017-2.24421-7.898478-4.1859353-12.0634074-5.8077857-.4349048-.1858751-.9365974-.1194261-1.3081171.1732595-.3715197.2926855-.5535593.7648852-.4746514 1.2312169s.4061668.8523531.8532975 1.0065151c4.0405102 1.572845 7.9531665 3.4561935 11.7028853 5.6331578l.7914586.4647355c.3981386.2491015.9000524.2626962 1.3110916.035512.4110391-.2271842.6665448-.6594101.6674302-1.1290536.0008808-.4696436-.2529976-.9028273-.6631794-1.1315557zm-16.0939318 17.6064346c0-1.8666643-1.5132304-3.3798947-3.3798947-3.3798947s-3.3798947 1.5132304-3.3798947 3.3798947 1.5132304 3.3798947 3.3798947 3.3798947 3.3798947-1.5132304 3.3798947-3.3798947zm24.4535379-11.9282116c0-1.8666643-1.5132304-3.3798947-3.3798946-3.3798947-1.8666643 0-3.3798947 1.5132304-3.3798947 3.3798947s1.5132304 3.3798947 3.3798947 3.3798947c1.8655642-.0015547 3.3770787-1.5143298 3.377078-3.3798947z" fill="#fff" transform="translate(17.899864 9.999893)"/></g></svg>