<?xml version="1.0" encoding="UTF-8"?>
<svg width="107px" height="70px" viewBox="0 0 107 70" version="1.1" xmlns="http://www.w3.org/2000/svg" xmlns:xlink="http://www.w3.org/1999/xlink">
    <!-- Generator: Sketch 63.1 (92452) - https://sketch.com -->
    <title>why-buy</title>
    <desc>Created with Sketch.</desc>
    <g id="Page-1" stroke="none" stroke-width="1" fill="none" fill-rule="evenodd" stroke-linecap="round" stroke-linejoin="round">
        <g id="why-buy" stroke="#686868" stroke-width="2">
            <g id="Group_2976" transform="translate(0.699000, 0.801000)">
                <g id="Group_2969" transform="translate(0.300000, 0.300000)">
                    <g id="Group_1162" transform="translate(5.677000, 2.647000)">
                        <g id="Group_1158" transform="translate(7.178000, 7.711000)">
                            <g id="Group_1156">
                                <polyline id="Path_1411" points="0 5.754 0 0 6.213 0"></polyline>
                                <polyline id="Path_1412" points="62.453 5.754 62.453 0 56.24 0"></polyline>
                            </g>
                            <g id="Group_1157" transform="translate(0.000000, 21.521000)">
                                <polyline id="Path_1413" points="62.453 0 62.453 5.754 56.24 5.754"></polyline>
                                <polyline id="Path_1414" points="0 0 0 5.754 6.213 5.754"></polyline>
                            </g>
                            <path d="M41.564,13.054 C41.4469564,18.5285216 36.9345802,22.8829711 31.4593629,22.8049894 C25.9841455,22.7270077 21.5976125,18.245814 21.6365283,12.7701796 C21.6754442,7.29454527 26.1252274,2.876 31.601,2.876 C34.2734696,2.89945159 36.8265824,3.98619216 38.696097,5.89605058 C40.5656116,7.80590901 41.5976031,10.3816387 41.564,13.054 Z" id="Path_1415"></path>
                        </g>
                        <g id="Group_1159">
                            <polygon id="Path_1416" points="77.558 21.291 77.558 0 0 0 0 42.581 77.558 42.581"></polygon>
                            <polygon id="Path_1417" points="77.558 21.29 77.558 42.581 18.747 42.581 18.747 63.871 96.198 63.871 96.198 21.29"></polygon>
                        </g>
                        <g id="Group_1160" transform="translate(26.245000, 50.522000)">
                            <polyline id="Path_1418" points="62.453 0 62.453 5.754 56.24 5.754"></polyline>
                            <polyline id="Path_1419" points="0 0 0 5.754 6.213 5.754"></polyline>
                        </g>
                        <g id="Group_1161" transform="translate(47.885000, 42.581000)">
                            <path d="M0,0 C0,4.9 4.5,8.757 9.962,8.757 C15.533,8.757 19.925,4.802 19.925,0 L0,0 Z" id="Path_1420"></path>
                        </g>
                        <polyline id="Path_1421" points="88.699 34.18 88.699 28.426 82.486 28.426"></polyline>
                    </g>
                    <g id="Group_1163" transform="translate(0.000000, 53.169000)">
                        <line x1="0" y1="0" x2="13.819" y2="14.731" id="Line_847"></line>
                        <polyline id="Path_1422" points="0 11.278 0 0 10.07 0"></polyline>
                    </g>
                    <g id="Group_1164" transform="translate(91.270000, 0.000000)">
                        <line x1="13.712" y1="14.846" x2="0" y2="0" id="Line_848"></line>
                        <polyline id="Path_1423" points="13.712 3.567 13.712 14.845 3.749 14.845"></polyline>
                    </g>
                </g>
            </g>
        </g>
    </g>
</svg>