<svg height="70" viewBox="0 0 107 70" width="107" xmlns="http://www.w3.org/2000/svg"><g style="stroke:#686868;stroke-width:2;fill:none;fill-rule:evenodd;stroke-linecap:round;stroke-linejoin:round"><g transform="translate(6.676 3.748)"><g transform="translate(7.178 7.711)"><path d="m0 5.754v-5.754h6.213"/><path d="m62.453 5.754v-5.754h-6.213"/><g transform="translate(0 21.521)"><path d="m62.453 0v5.754h-6.213"/><path d="m0 0v5.754h6.213"/></g><path d="m41.564 13.054c-.1170436 5.4745216-4.6294198 9.8289711-10.1046371 9.7509894-5.4752174-.0779817-9.8617504-4.5591754-9.8228346-10.0348098.0389159-5.47563433 4.4886991-9.8941796 9.9644717-9.8941796 2.6724696.02345159 5.2255824 1.11019216 7.095097 3.02005058 1.8695146 1.90985843 2.9015061 4.48558812 2.867903 7.15794942z"/></g><path d="m77.558 21.291v-21.291h-77.558v42.581h77.558z"/><path d="m77.558 21.29v21.291h-58.811v21.29h77.451v-42.581z"/><g transform="translate(26.245 50.522)"><path d="m62.453 0v5.754h-6.213"/><path d="m0 0v5.754h6.213"/></g><path d="m0 0c0 4.9 4.5 8.757 9.962 8.757 5.571 0 9.963-3.955 9.963-8.757z" transform="translate(47.885 42.581)"/><path d="m88.699 34.18v-5.754h-6.213"/></g><g transform="translate(.999 54.27)"><path d="m0 0 13.819 14.731"/><path d="m0 11.278v-11.278h10.07"/></g><g transform="translate(92.269 1.101)"><path d="m13.712 14.846-13.712-14.846"/><path d="m13.712 3.567v11.278h-9.963"/></g></g></svg>