<svg height="100" viewBox="0 0 100 100" width="100" xmlns="http://www.w3.org/2000/svg"><g fill="#f3ba2f"><path d="m30.5792 42.0208 19.4208-19.4208 19.43 19.4292 11.3-11.3-30.73-30.7292-30.72 30.72 11.2996 11.3m-30.5796 7.98 11.3004-11.302 11.2996 11.2996-11.3004 11.3004zm30.5792 7.9804 19.4208 19.4196 19.4296-19.4288 11.306 11.294-.0056.006-30.73 30.7288-30.72-30.72-.016-.016 11.3164-11.2848m46.8196-7.9744 11.3004-11.3004 11.2996 11.2996-11.3 11.3004z"/><path d="m61.4608 49.994h.0048l-11.4656-11.4664-8.4748 8.4724-.9736.974-2.008 2.0084-.016.0156.016.0164 11.4564 11.458 11.4664-11.4664.0056-.0064-.0104-.0056"/></g></svg>