<svg height="112" viewBox="0 0 100 112" width="100" xmlns="http://www.w3.org/2000/svg"><path d="m90.6841537 26.3650415c3.7664345 8.2571833 4.6356117 9.8506748 7.532869 18.252721 1.5934915 5.2150632-1.7383544 13.0376579-15.3554637 6.3739661-9.8506749-4.6356117-16.9489553-7.9674576-11.0095778-15.7900523 2.8972573-3.7664345 6.0842403-7.2431433 9.5609491-10.5749892 3.6215716-3.186983 5.9393775-5.2150631 9.2712234 1.7383544zm-3.3318459 52.730083c7.2431432-7.0982804 17.2386812.8691772 10.2852634 10.2852634-14.1965608 19.2667611-38.678385 26.9444931-60.6975405 19.1218981-22.0191556-7.822595-36.9400307-28.8277101-36.9400307-53.0198086 0-14.4862865 4.78047456-26.6547672 13.9068351-37.5194821 8.8366348-9.85067484 22.0191555-17.81813243 35.0568134-17.9629953 18.252721 0 26.3650415 15.9349152 19.9910754 24.9164128-7.2431433 9.8506749-15.5003266 9.1263605-21.7294298 4.7804746 0 0-8.5469091-6.0842404-11.0095778-8.1123205-3.9112973-3.0421201-8.1123204-3.0421201-9.7058119 1.8832173-2.7523945 8.6917719-4.0561603 14.1965608-6.2291033 22.8883327-1.01404 4.345886-1.4486286 8.8366348-1.5934915 13.3273836 0 8.2571833 3.6215717 16.0797781 9.8506749 21.1499783 4.3458859 4.0561603 8.8366347 7.6777319 13.7619722 10.8647149 3.9112973 2.7523945 8.546909 4.2010231 13.1825207 4.2010231h.4345886c4.6356117-.1448628 9.2712234-1.5934915 13.1825208-4.2010231 6.373966-3.7664345 12.4582064-7.9674576 18.252721-12.6030692zm-51.2814543-10.1404006c-2.6075316-1.0140401-8.4020462-6.0842404-6.6636918-9.8506749.7243143-2.0280801 5.6496517-2.6075315 7.2431432-2.6075315 8.9814977-.1448629 9.4160863 16.079778-.5794514 12.4582064zm16.079778 17.3835438c-1.1589029-1.01404-3.3318459-3.186983-5.2150631-4.9253374-.5794515-.5794515-.5794515-1.4486286-.2897258-2.0280801.4345886-.7243143 1.158903-1.1589029 2.0280801-1.0140401 3.4767088-.1448628 6.9534176-.1448628 10.2852635 0 .8691772 0 1.4486286.5794515 1.7383544 1.158903.2897257.7243143.1448628 1.4486286-.4345886 1.8832172-1.8832173 1.7383544-4.0561603 3.9112974-5.0702003 4.9253374-.4345886.4345886-1.0140401.5794515-1.5934915.5794515-.5794515 0-1.0140401-.1448629-1.4486287-.5794515zm20.425664-17.3835438c-9.9955377 3.6215716-9.705812-12.7479322-.5794514-12.4582064 1.5934915 0 6.373966.5794514 7.2431432 2.6075315 1.8832173 3.9112974-4.0561602 8.9814977-6.6636918 9.8506749z" fill="#25b135"/></svg>