<svg height="100" viewBox="0 0 100 100" width="100" xmlns="http://www.w3.org/2000/svg" xmlns:xlink="http://www.w3.org/1999/xlink"><radialGradient id="a" cx="50%" cy="50%" r="100%"><stop offset="0" stop-color="#1a1546"/><stop offset="1" stop-color="#0d0a2a"/></radialGradient><linearGradient id="b" x1="50%" x2="50%" y1="0%" y2="100%"><stop offset="0" stop-color="#00ffb9"/><stop offset="1" stop-color="#004734"/></linearGradient><g fill="none"><circle cx="50" cy="50" fill="url(#a)" r="50"/><path d="m50 0c27.614 0 50 22.386 50 50s-22.386 50-50 50-50-22.386-50-50 22.386-50 50-50zm0 3.572c-25.64 0-46.428 20.786-46.428 46.428 0 25.64 20.786 46.428 46.428 46.428 25.64 0 46.428-20.786 46.428-46.428 0-25.64-20.786-46.428-46.428-46.428z" fill="url(#b)"/><g transform="translate(24 32)"><path d="m52.64 35.156v-6.492h-14.652v-28.522h-8.416v35.014z" fill="#00ffb9"/><path d="m14.28 35.156c4.252-.032 7.46-.91 9.626-2.632 2.166-1.724 3.25-4.3 3.25-7.732 0-1.892-.488-3.496-1.464-4.81-.974-1.314-2.374-2.212-4.196-2.694 1.614-.608 2.838-1.554 3.67-2.838.83-1.28 1.246-2.828 1.246-4.64 0-3.142-1.17-5.54-3.512-7.192-2.342-1.65-5.76-2.476-10.252-2.476h-12.54v35.014zm-1.368-20.414h-4.388v-8.08h4.124c1.886 0 3.254.324 4.1.974.848.648 1.272 1.71 1.272 3.186 0 1.282-.392 2.252-1.176 2.91-.782.656-2.094.994-3.932 1.01zm1.128 13.924h-5.516v-8.394h5.9c2.892.016 4.34 1.484 4.34 4.4 0 1.268-.408 2.25-1.224 2.948-.816.696-1.982 1.046-3.5 1.046z" fill="#fff" transform="matrix(-1 0 0 1 27.264 0)"/></g></g></svg>