<svg height="109" viewBox="0 0 112 109" width="112" xmlns="http://www.w3.org/2000/svg"><g fill="none" fill-rule="evenodd" stroke="#686868" stroke-width="3" transform="translate(0 2)"><path d="m32.758 93.154v12.138h38.461v-22.667h12.139c9.68003-.0280081 17.52044-7.8679716 17.549-17.548v-5.85h8.043l-8.043-16.379v-25.3c-.02856-9.68002835-7.86897-17.51999193-17.549-17.548h-32.9c-9.6804189.02801081-17.5209892 7.86858112-17.549 17.549"/><g transform="translate(15.648 24.714)"><path d="m18.133 7.897c-5.1069987 1.59658695-9.26919189 5.3318699-11.407 10.237"/><path d="m18.133-.0000005c-4.8095879-.00079547-9.42240141 1.90952179-12.82319986 5.3105078-3.40079846 3.400986-5.31086134 8.0139049-5.30980102 12.8234927.06231912 6.4086458 3.43709766 12.3285068 8.92000088 15.647v10.968h18.426v-10.968c7.0418539-4.1595814 10.4323665-12.5146805 8.2804292-20.4051171-2.1519372-7.89043655-9.3148138-13.36733857-17.4934292-13.3758834z" stroke-linecap="round"/><path d="m8.92 53.669h18.426v-8.92h-18.426z" stroke-linecap="round"/><path d="m14.185 53.669h8.043v7.312h-8.043z"/></g><path d="m47.527 21.935 7.019-7.019"/><path d="m19.011 21.935-7.019-7.019"/><path d="m58.057 40.069h9.798"/><path d="m0 40.069h8.921"/></g></svg>