<svg height="100" viewBox="0 0 100 100" width="100" xmlns="http://www.w3.org/2000/svg"><g fill="none"><path d="m0 18.57142c0-10.2567 8.31472-18.57142 18.57142-18.57142h62.85718c10.2566 0 18.5714 8.31472 18.5714 18.57142v62.85718c0 10.2566-8.3148 18.5714-18.5714 18.5714h-62.85718c-10.2567 0-18.57142-8.3148-18.57142-18.5714z" fill="#2b2b36"/><path d="m24.811 37.79c-.3944-.477-.8916-.8584-1.4538-1.1154-.5338-.241-1.1104-.3718-1.6956-.3848-.647-.021-1.2916.0888-1.89514.3232-.54232.2132-1.03472.5366-1.44624.9502-.40242.4094-.71362.8996-.913 1.4386-.4176 1.177-.4176 2.4622 0 3.6392.19794.543.5092 1.0374.913 1.4502.41108.414.90362.7376 1.44624.9502.60354.2342 1.24814.344 1.89514.323.5852-.013 1.1618-.1438 1.6956-.3846.5624-.257 1.0594-.6384 1.4538-1.1156l-.9936-.7694c-.2248.335-.5242.6128-.8746.8118-.3892.225-.8322.3394-1.2812.3308-.4634.0202-.9256-.0612-1.3542-.2386-.38728-.1542-.73764-.389-1.02814-.6886-.28848-.318-.50794-.6926-.64448-1.1002-.2944-.893-.2944-1.8574 0-2.7504.13712-.4062.35656-.7794.64448-1.0964.28544-.3096.63328-.5548 1.02034-.7194.4288-.1772.891-.2584 1.3542-.2384.4492-.0086.8922.1058 1.2814.3308.3502.199.6496.477.8746.8118l.9936-.7694zm2.9078 7.3668h1.2162v-4.4316c-.027-.6378.1048-1.2724.3836-1.8464.2008-.3908.4866-.7312.8362-.9964.2588-.2026.5586-.3456.8784-.4194.1728-.0302.3468-.0506.5218-.0614.8952 0 1.509.2564 1.8414.7694.372.6736.5448 1.4394.4986 2.208v4.7778h1.2162v-5.4856c.059-.9034-.223-1.796-.7904-2.5004-.5344-.5746-1.354-.8618-2.4588-.8618-.2894.0008-.577.041-.8556.1194-.2854.078-.5608.189-.8208.3308-.2534.1388-.488.3094-.6982.5078-.202.189-.3752.4068-.5142.6462h-.0382v-6.7166h-1.2162zm17.071-4.3008v.627c.002.3662-.051.7306-.1572 1.081-.0972.328-.2646.631-.4904.8874-.226.2564-.5052.4604-.8178.5974-.3634.156-.7558.232-1.1508.2232-.2454-.0004-.49-.0288-.729-.0846-.232-.0528-.4528-.1466-.652-.277-.1936-.127-.354-.2984-.468-.5002-.1226-.2234-.1836-.4758-.1766-.7308-.0086-.193.0276-.3852.1062-.5616s.1974-.3318.3466-.454c.3196-.2562.6896-.4424 1.0856-.5462.4338-.1192.8784-.194 1.3272-.2232.4604-.0308.844-.0462 1.151-.0462zm-.6062-.9964c-.5114 0-1.0792.0244-1.7032.0732-.5976.0494-1.1858.1788-1.7492.3846-.5212.1808-.9892.4888-1.362.8964-.3846.4618-.5794 1.0532-.5446 1.654-.009.3818.0768.7598.2494 1.1002.162.3088.3884.579.6636.7926.2824.219.604.3822.9476.4808.3588.1052.7308.1584 1.1048.1576.6142.0164 1.2232-.1156 1.776-.3846.5264-.2922.9628-.7232 1.2622-1.2464h.0384c0 .2334.0088.4732.0268.7194.0178.2462.0472.4694.0882.6694h1.1508c-.0358-.2334-.069-.5322-.0996-.8964-.0308-.3642-.041-.7066-.0308-1.027v-3.8468c.0118-.4684-.0758-.934-.257-1.3658-.1582-.3614-.391-.6852-.6828-.95-.2914-.2568-.6342-.4482-1.0052-.5618-.3896-.1232-.7958-.1856-1.2044-.1846118-1.6214 0-2.8362.4180118-3.6444 1.2542118l.7366.8692c.715-.6638 1.657-1.0274 2.6316-1.0154 1.473 0 2.2096.745 2.2096 2.235v.223zm5.854-3.3428c.0256.3206.0474.659.0654 1.0156.0178.3564.0268.6514.0268.8848v6.7396h1.216v-4.4316c-.0268-.6378.105-1.2724.3836-1.8464.2008-.3908.4866-.7312.8364-.9964.2586-.2026.5586-.3456.8784-.4194.1698-.0338.3414-.0582.514-.073.8952 0 1.509.2564 1.8414.7694.372.6736.545 1.4394.4988 2.208v4.7894h1.216v-5.4856c.059-.9034-.223-1.796-.7902-2.5004-.5294-.5746-1.3466-.8618-2.4514-.8618-.2892.0008-.577.041-.8554.1194-.2854.078-.561.189-.821.3308-.2566.1344-.4952.3012-.7096.4962-.202.189-.3752.4068-.5142.6462h-.0382c0-.2334 0-.4642 0-.6924s-.0154-.459-.0462-.6924zm12.7708 2.9274c.1598-.391.3914-.7486.6828-1.054.2892-.3018.6328-.546 1.0126-.7194.3962-.181.827-.273 1.2622-.2692.4676-.0064.9316.0854 1.3618.2692.3892.167.7402.4118 1.032.7194.2836.304.503.6626.6444 1.054.15.4116.2252.8466.2226 1.2848.0186.4664-.0598.9314-.2302 1.3656-.1586.395-.4006.7508-.7098 1.0426-.6238.5864-1.4464.9136-2.3016.9154-.4354.004-.8662-.088-1.2622-.2692-.3798-.1732-.7236-.4174-1.0126-.7194-.2916-.3052-.5232-.6628-.683-1.054-.3312-.823-.3312-1.7428 0-2.5658zm-1.3734 8.4054c.5136.5636 1.1414 1.0108 1.8414 1.3116.7314.2934 1.514.4372 2.3016.4232.8084.0324 1.6136-.1188 2.3554-.4424.549-.2542 1.0312-.6336 1.408-1.1078.3316-.4298.5648-.9276.6828-1.458.1126-.491.1718-.9926.1764-1.4964v-8.563h-1.216v1.4386h-.0384c-.4202-.5846-.9902-1.0444-1.6496-1.331-.278-.1194-.5689997-.2058-.867-.2576-.271-.0474-.5456-.0718-.8208-.0732-.6028-.0064-1.2006.1102-1.757.3424-.5206.2184-.9906.5418-1.381.9502-.3912.4124-.701.8954-.913 1.4234-.2234.5574-.3356 1.1534-.33 1.754-.0054.6026.1134 1.1998.349 1.7542.2224.5246.5486.9984.9592 1.3926.413.3936.8974.7044 1.427.9156.5588.2232 1.1554.3356 1.757.3308.616-.0022 1.2248-.1332 1.7876-.3848.5902-.2686 1.0888-.7044 1.4348-1.254h.0384v1.5388c.0022.4458-.0572.8898-.1766 1.3194-.1068.4004-.3008.7722-.5678 1.0886-.284.3226-.6402.573-1.0396.731-.499.1912-1.0308.2828-1.565.2692-.6648.0106-1.3226-.1384-1.9182-.4346-.5468-.2702-1.0226-.6654-1.3886-1.1542zm13.6798-7.6938c.0006-.3598.086-.7142.2492-1.0348.1666-.3324.3914-.632.6638-.8846.2826-.263.61-.4726.9666-.6194.3644-.1536.7558-.2322 1.151-.2308.3784-.0224.7572.0344 1.1126.1668.3554.1326.6792.3376.9512.6026.2466.2688.4376.584.562.9274.1246.3432.1798.708.163 1.0728zm7.1428795.9964v-.5386c.0031205-.5682-.0902795-1.1328-.2762795-1.6694-.1734-.5044-.4462-.9688-.8016-1.3656-.3608-.3976-.7996-.7158-1.289-.9348-.5516-.2404-1.148-.3598-1.7494-.3502-.5876-.0046-1.17.1118-1.7108.3424-.519.221-.9886.5442-1.381.9502-.3982.4142-.7112.9032-.9208 1.4388-.2244.5758-.3364 1.1896-.3298 1.808-.006.6192.11 1.2336.3414 1.808.2146.5346.5298 1.0232.9284 1.4386.399.4104.8784.7338 1.4078.9502.5636.2308 1.1674.3472 1.7762.3424.6888.0054 1.3708-.139 1.9986-.4232.6714-.325 1.2554-.8064 1.7032-1.404l-.9398-.7694c-.2768.424-.6452.7804-1.078 1.0424-.5058.3114-1.0908.4692-1.684.454-.4112.0042-.8186-.077-1.197-.2386-.74-.3172-1.3322-.9042-1.6572-1.6426-.1736-.3854-.28-.7978-.3146-1.2194z" fill="#fff"/><path d="m18.15152 68.2376h3.09188v-13.3676h.05l8.593 13.3676h3.9282v-17.4298h-3.0958v12.9484h-.046l-8.4396-12.9484h-4.08168zm20.60028-4.9238c.4268 1.0786 1.0746 2.0558 1.901 2.868.8266.8124 1.8138 1.442 2.898 1.8482 1.1802.446 2.433.6678 3.6942.654 1.2766-.0008 2.542-.2382 3.7326-.7002 1.0904-.426 2.0844-1.0668 2.9232-1.885.8292-.8186 1.4822-1.7992 1.918-2.8812.4656-1.1836.6936-2.4478.6714-3.7198.0186-1.297-.2146-2.5854-.6866-3.793-.4316-1.091-1.0848-2.0802-1.9182-2.9044-.833-.8134-1.8296-1.439-2.9232-1.835-1.1964-.4296-2.4618-.6344-3.7326-.6038-1.2612-.0138-2.5138.2078-3.6942.6538-1.0836.411-2.07 1.0438-2.8962 1.858-.8332.829-1.4862 1.8218-1.9182 2.916-.4572 1.216-.676 2.5092-.6444 3.8084-.017 1.2718.2162 2.5346.6866 3.716zm2.9844-6.3512c.2734-.7332.6864-1.406 1.2162-1.981.5276-.5698 1.1678-1.023 1.8796-1.331.7748-.3304 1.6098-.4942 2.4514-.4808.8426-.0112 1.6786.1524 2.4552.4808.7164.306 1.3606.7594 1.8912 1.331.5294.5752.9424 1.248 1.216 1.981.2842.7772.4246 1.5998.4144 2.4274.0092.8804-.1364 1.7554-.4296 2.585-.2672.7546-.6806 1.4488-1.2162 2.0428-.5294.5784-1.1736 1.0398-1.8912 1.354-.7746.3362-1.6112.504-2.4552.4924-.8402.0126-1.6734-.1552-2.4436-.4924-.713-.3164-1.353-.7774-1.8798-1.354-.5358-.5938-.9492-1.288-1.216-2.0428-.2922-.8298-.4364-1.705-.4258-2.585-.007-.8324.1388-1.6592.4296-2.4388zm22.2 11.275h2.8464l4.028-13.2714h.05l4.0432 13.2714h2.9462l5.056-17.4298h-3.1418l-3.4142 12.556h-.0498l-3.8362-12.556h-3.0458l-3.9092 12.556h-.0498l-3.2646-12.556h-3.4026z" fill="#00c26f"/></g></svg>