<?xml version="1.0" encoding="UTF-8"?>
<svg width="89px" height="92px" viewBox="0 0 89 92" version="1.1" xmlns="http://www.w3.org/2000/svg" xmlns:xlink="http://www.w3.org/1999/xlink">
    <!-- Generator: Sketch 63.1 (92452) - https://sketch.com -->
    <title>dev-protocol</title>
    <desc>Created with Sketch.</desc>
    <g id="Page-1" stroke="none" stroke-width="1" fill="none" fill-rule="evenodd">
        <g id="dev-protocol">
            <g id="Group_3475" transform="translate(0.000000, 0.120000)">
                <path d="M56.314,52.099 L56.314,52.099 C55.7045575,51.4654781 55.5966821,50.5015725 56.051,49.749 C56.6701987,48.6885462 57.1412423,47.5482842 57.451,46.36 L57.451,46.315 C57.801,44.959 57.845,44.869 59.157,44.688 C59.4534678,44.6538008 59.7462946,44.5932275 60.032,44.507 L60.251,44.462 C61.1977851,44.2470575 61.8241496,43.3452488 61.695,42.383 C61.7303928,41.9542367 61.585288,41.5301498 61.2946541,41.2129393 C61.0040201,40.8957288 60.5942161,40.714164 60.164,40.712 C59.5991461,40.6733759 59.0481739,40.5195529 58.545,40.26 C58.1419216,40.0394732 57.8084056,39.7108059 57.582,39.311 C57.3511481,38.8099855 57.1465378,38.2972916 56.969,37.775 L56.838,37.368 C56.7013731,36.9020646 56.5257526,36.448462 56.313,36.012 C55.525,34.385 55.613,33.712 56.794,32.533 C57.2085011,32.2052737 57.4502707,31.7059087 57.4502707,31.1775 C57.4502707,30.6490913 57.2085011,30.1497263 56.794,29.822 C56.4972802,29.4427384 56.0500098,29.2116183 55.569,29.189 C55.1193509,29.2072273 54.6950117,29.4019706 54.388,29.731 C53.513,30.59 52.988,30.861 52.55,30.861 C51.8881165,30.7712744 51.2576296,30.5232646 50.712,30.138 L50.493,30.002 L50.493,30.002 C49.8815008,29.6122852 49.2188365,29.3093914 48.524,29.102 L48.48,29.102 C47.9457896,29.0516514 47.4334432,28.8650305 46.992,28.56 C46.7460505,28.0467405 46.5836712,27.4974868 46.511,26.933 C46.511,26.843 46.467,26.752 46.467,26.662 L46.467,26.662 C46.4745318,26.3547599 46.3822518,26.0533587 46.204,25.803 C45.8815776,25.314148 45.4039002,24.94814 44.848,24.764 C44.677448,24.7121813 44.5010731,24.6819456 44.323,24.674 C43.5828281,24.6473173 42.9499393,25.2017524 42.879,25.939 C42.8282243,26.1616965 42.7987581,26.3887201 42.791,26.617 C42.79648,26.9127125 42.73673,27.2059997 42.616,27.476 C42.348817,28.0738944 41.9256959,28.5888932 41.391,28.967 C40.8576258,29.2535975 40.3013828,29.4954278 39.728,29.69 C39.2217064,29.8584948 38.7249701,30.0544519 38.24,30.277 C37.7287133,30.5780907 37.1640039,30.7774199 36.577,30.864 C36.052,30.864 35.614,30.593 34.827,29.78 C34.5350086,29.388535 34.0887643,29.1415524 33.602,29.102 C33.2565649,29.1109551 32.9342146,29.2774721 32.727,29.554 L32.596,29.69 L32.465,29.826 L32.465,29.826 C32.0415239,30.1044433 31.7726514,30.5649254 31.7383002,31.0705761 C31.7039489,31.5762268 31.9080729,32.0688418 32.29,32.402 C33.515,33.667 33.646,34.661 32.815,35.791 C32.382667,36.3656542 32.0837626,37.0293926 31.94,37.734 C31.765,39.587 30.802,40.445 28.615,40.807 C28.046,40.897 27.521,41.62 27.346,42.117 C27.199857,42.5327901 27.2316942,42.9904498 27.434,43.382 C27.6453819,43.7420978 27.9922211,44.0024974 28.397,44.105 C28.497151,44.140962 28.5993267,44.1710137 28.703,44.195 C28.8066709,44.2189952 28.9088462,44.2490467 29.009,44.285 C29.097,44.33 29.228,44.33 29.315,44.375 C29.6600182,44.4718593 30.0106845,44.547336 30.365,44.601 C31.153,44.737 31.371,44.962 31.459,45.55 C31.6089518,46.3091126 31.8747232,47.0406583 32.247,47.719 L30.147,48.758 C30.103,48.713 30.103,48.668 30.059,48.577 C30.059,48.532 30.015,48.487 30.015,48.441 L29.971,48.351 C29.8756889,48.0639751 29.7432313,47.7906552 29.577,47.538 C29.2167541,47.0968811 28.7500832,46.7547935 28.221,46.544 C28.0133561,46.4546463 27.7900405,46.4073999 27.564,46.405 L27.433,46.405 C27.3429474,46.4122789 27.2525098,46.3968048 27.17,46.36 C25.376,46.134 25.245,45.999 25.245,44.191 C25.2378285,43.8291103 25.252522,43.4671179 25.289,43.107 C25.319888,42.3084795 25.3051974,41.5088471 25.245,40.712 C25.157,39.537 25.508,38.995 26.47,38.812 C26.5986625,38.8074205 26.7220016,38.7594944 26.82,38.676 C26.831932,38.6762907 26.8434481,38.6716088 26.8517924,38.6630748 C26.8601368,38.6545408 26.8645587,38.6429225 26.864,38.631 C26.864,38.586 26.908,38.631 26.908,38.586 C27.083,38.586 27.214,38.631 27.389,38.631 C29.314,38.631 29.927,37.004 30.364,35.831 C30.412804,35.7481915 30.4428437,35.655683 30.452,35.56 C30.452,35.47 30.539,35.379 30.539,35.289 C30.6792967,34.6397139 30.5700537,33.9614076 30.233,33.389 L29.708,32.576 L29.62,32.44 L29.489,32.304 L29.095,31.762 C28.6853424,31.2028015 28.76065,30.4251967 29.27,29.955 L29.533,29.729 C30.583,28.645 31.765,27.47 32.946,26.385 C33.1212438,26.2926229 33.3169243,26.2458522 33.515,26.249 C33.6191546,26.2383401 33.7243239,26.2538062 33.821,26.294 C34.2584954,26.5707827 34.6686755,26.8885467 35.046,27.243 C35.134,27.333 35.221,27.379 35.309,27.469 C35.44,27.559 35.572,27.695 35.703,27.785 C35.9343756,27.9614686 36.183762,28.1129775 36.447,28.237 C36.6014618,28.2926287 36.7638746,28.3230178 36.928,28.327 C37.7789435,28.2310031 38.5918004,27.9214088 39.291,27.427 C40.0355744,27.0247192 40.5872439,26.340087 40.822,25.527 C40.866,25.301 40.866,25.12 40.91,24.894 L40.91,24.804 L40.954,24.623 C41.042,23.674 41.085,23.177 41.348,22.906 C41.611,22.635 42.092,22.635 43.054,22.635 L46.864,22.635 C47.1534555,22.5913596 47.4481595,22.6680995 47.6795695,22.8473714 C47.9109794,23.0266432 48.0589261,23.2928221 48.089,23.584 L48.089,23.629 C48.1124579,23.7358819 48.1418365,23.8413779 48.177,23.945 C48.221,23.99 48.221,24.035 48.221,24.126 C48.09,26.611 49.84,27.56 51.153,28.012 L51.197,28.057 C51.5300571,28.1964755 51.8860534,28.2730995 52.247,28.283 C52.7898804,28.277639 53.29601,28.0077779 53.603,27.56 C54.136691,26.9714292 54.794095,26.5083436 55.528,26.204 C55.572,26.204 55.616,26.159 55.659,26.159 C55.8292544,26.1557708 55.9966431,26.203099 56.14,26.295 C57.496,27.605 58.809,28.916 60.078,30.271 C60.474542,30.6222325 60.5138193,31.2274609 60.166,31.627 L60.078,31.717 C60.034,31.762 59.99,31.853 59.947,31.898 C59.8927661,31.9499316 59.8483835,32.0112541 59.816,32.079 C59.3727195,32.5736764 58.9906345,33.1199437 58.678,33.706 C58.4531911,34.2199207 58.4219336,34.7978297 58.59,35.333 L58.59,35.378 C58.7676556,36.1003073 59.032254,36.7984037 59.378,37.457 C59.5940918,37.8525761 59.9317294,38.1681253 60.341,38.357 C60.6233637,38.4494753 60.9188887,38.4954083 61.216,38.493 L61.564,38.493 C62.2506709,38.4956487 62.9154023,38.7351215 63.446,39.171 C63.8176711,39.7630075 63.9724706,40.4656132 63.884,41.159 L63.884,44.774 C63.928,45.632 63.534,46.084 62.615,46.265 L62.44,46.265 C62.2530282,46.2257979 62.0618096,46.2106752 61.871,46.22 C59.683,46.22 59.027,48.163 58.589,49.564 L58.501,49.835 C58.3795299,50.4167551 58.5063951,51.0228084 58.851,51.507 C58.8845971,51.5877372 58.9286395,51.6637186 58.982,51.733 C58.1099529,51.9595419 57.2138949,52.0807396 56.313,52.094 L56.314,52.099 Z" id="Subtraction_8_1_" fill="#686868" fill-rule="nonzero"></path>
                <path d="M44.5,51.737 C39.38,51.692 35.836,48.077 35.749,42.745 C35.6823578,40.3307174 36.5797886,37.989265 38.243,36.238 C39.7328501,34.6283031 41.8256545,33.7116142 44.019,33.708 C44.1806458,33.700561 44.3425391,33.7157069 44.5,33.753 L44.544,33.753 C44.719,33.753 44.894,33.708 45.113,33.708 C47.2834313,33.7160323 49.3554876,34.614333 50.845,36.193 C52.4822638,37.942053 53.3764319,40.2585005 53.339,42.654 C53.252,48.076 49.707,51.736 44.539,51.736 L44.5,51.737 Z M37.851,42.7 C37.7904911,44.3659554 38.387846,45.9888353 39.514,47.218 C40.7294548,48.6868293 42.5093763,49.5731575 44.414,49.658 L44.545,49.658 C48.2807879,49.5232524 51.229852,46.438064 51.196,42.7 C51.3335314,39.029779 48.4776429,35.9391783 44.808,35.787 L44.458,35.787 C42.6083419,35.8337525 40.8628044,36.6530272 39.645,38.046 C38.4363548,39.287132 37.7881393,40.9687345 37.851,42.7 L37.851,42.7 Z" id="Path_15756_1_" fill="#686868" fill-rule="nonzero"></path>
                <g id="Rectangle_4427_1_" transform="translate(14.845000, 14.932000)">
                    <path d="M11.376,0 L47.738,0 C50.8062797,0.0441678015 53.7307182,1.30813427 55.865268,3.5126724 C57.9998178,5.71721052 59.1688105,8.68089194 59.114,11.749 L59.114,49.297 C59.1688097,52.3650137 57.9997858,55.328591 55.8652079,57.5329705 C53.73063,59.73735 50.8061891,61.0010955 47.738,61.045 L11.376,61.045 C8.30842582,61.0008235 5.38460355,59.737408 3.25016937,57.5337398 C1.11573518,55.3300716 -0.0537351212,52.3674216 0,49.3 L0,11.752 C-0.0847739259,5.37292807 4.9975435,0.122629684 11.376,0 L11.376,0 Z" id="Path_15779"></path>
                    <path d="M47.783,61.091 L11.421,61.091 C5.04491614,60.9689158 -0.0368843359,55.7227396 0.044,49.346 L0.044,11.797 C-0.0385541514,5.41947942 5.0431241,0.171628148 11.42,0.049 L47.782,0.049 C54.1588759,0.171628148 59.2405542,5.41947942 59.158,11.797 L59.158,49.346 C59.2388958,55.7219744 54.1582979,60.9678313 47.783,61.091 Z M11.377,2.712 C6.47180738,2.80670442 2.56296236,6.84329824 2.626,11.749 L2.626,49.298 C2.56296236,54.2037018 6.47180738,58.2402956 11.377,58.335 L47.738,58.335 C52.6435856,58.2408379 56.553032,54.2040843 56.49,49.298 L56.49,11.746 C56.553032,6.83991566 52.6435856,2.80316214 47.738,2.709 L11.377,2.712 Z" id="Path_15780" fill="#686868" fill-rule="nonzero"></path>
                </g>
                <path d="M21.835,18.39 C21.539031,18.3884958 21.2561557,18.2677851 21.0502859,18.0551409 C20.8444162,17.8424966 20.7329242,17.5558626 20.741,17.26 L20.741,6.507 C20.741,5.90280048 21.2308005,5.413 21.835,5.413 C22.4391995,5.413 22.929,5.90280048 22.929,6.507 L22.929,17.261 C22.9368021,17.5566918 22.8251884,17.8430654 22.6193486,18.0554906 C22.4135088,18.2679158 22.1307908,18.3884895 21.835,18.39 L21.835,18.39 Z" id="Path_15781" fill="#686868" fill-rule="nonzero"></path>
                <path d="M82.044,23.27 L71.761,23.27 C71.1502766,23.251826 70.6646118,22.7514937 70.6646118,22.1405 C70.6646118,21.5295063 71.1502766,21.029174 71.761,21.011 L82.087,21.011 C82.382969,21.0125042 82.6658443,21.1332149 82.8717141,21.3458591 C83.0775838,21.5585034 83.1890758,21.8451374 83.181,22.141 C83.1760604,22.7655928 82.6686121,23.2694707 82.044,23.27 L82.044,23.27 Z" id="Path_15782" fill="#686868" fill-rule="nonzero"></path>
                <path d="M17.108,69.946 L6.432,69.946 C5.82127665,69.927826 5.33561175,69.4274937 5.33561175,68.8165 C5.33561175,68.2055063 5.82127665,67.705174 6.432,67.687 L17.108,67.687 C17.7187234,67.705174 18.2043882,68.2055063 18.2043882,68.8165 C18.2043882,69.4274937 17.7187234,69.927826 17.108,69.946 L17.108,69.946 Z" id="Path_15783" fill="#686868" fill-rule="nonzero"></path>
                <path d="M66.554,86.164 C66.258031,86.1624958 65.9751557,86.0417851 65.7692859,85.8291409 C65.5634162,85.6164966 65.4519242,85.3298626 65.46,85.034 L65.46,74.194 C65.4599999,73.8031514 65.6685151,73.4419924 66.0069999,73.2465681 C66.3454848,73.0511437 66.7625152,73.0511437 67.1010001,73.2465681 C67.4394849,73.4419924 67.6480001,73.8031514 67.648,74.194 L67.648,85.038 C67.6549829,85.3331787 67.5430054,85.6187721 67.3372549,85.8305408 C67.1315045,86.0423095 66.8492573,86.1624721 66.554,86.164 Z" id="Path_15784" fill="#686868" fill-rule="nonzero"></path>
                <path d="M32.905,0 C33.200969,0.00150419985 33.4838443,0.122214913 33.6897141,0.334859138 C33.8955838,0.547503363 34.0070758,0.834137382 33.999,1.13 L33.999,16.041 C33.999,16.6451995 33.5091995,17.135 32.905,17.135 C32.3008005,17.135 31.811,16.6451995 31.811,16.041 L31.811,1.13 C31.8029242,0.834137382 31.9144162,0.547503363 32.1202859,0.334859138 C32.3261557,0.122214913 32.609031,0.00150419985 32.905,0" id="Path_15785" fill="#686868" fill-rule="nonzero"></path>
                <path d="M87.207,34.702 L72.942,34.702 C72.3312766,34.683826 71.8456118,34.1834937 71.8456118,33.5725 C71.8456118,32.9615063 72.3312766,32.461174 72.942,32.443 L87.207,32.443 C87.8177234,32.461174 88.3033882,32.9615063 88.3033882,33.5725 C88.3033882,34.1834937 87.8177234,34.683826 87.207,34.702 L87.207,34.702 Z" id="Path_15786" fill="#686868" fill-rule="nonzero"></path>
                <path d="M15.884,58.514 L1.094,58.514 C0.483276648,58.495826 -0.0023882461,57.9954937 -0.0023882461,57.3845 C-0.0023882461,56.7735063 0.483276648,56.273174 1.094,56.255 L15.884,56.255 C16.179969,56.2565042 16.4628443,56.3772149 16.6687141,56.5898591 C16.8745838,56.8025034 16.9860758,57.0891374 16.978,57.385 C16.9777699,57.994901 16.4935915,58.4945696 15.884,58.514 Z" id="Path_15787" fill="#686868" fill-rule="nonzero"></path>
                <path d="M55.483,91.5900043 C55.187031,91.5884958 54.9041557,91.4677851 54.6982859,91.2551409 C54.4924162,91.0424966 54.3809242,90.7558626 54.389,90.46 L54.389,75.46 C54.389,74.8558005 54.8788005,74.366 55.483,74.366 C56.0871995,74.366 56.577,74.8558005 56.577,75.46 L56.577,90.507 C56.5725983,91.1075879 56.0836017,91.5916677 55.483,91.5900043 L55.483,91.5900043 Z" id="Path_15788" fill="#686868" fill-rule="nonzero"></path>
                <path d="M55.483,0 C55.778969,0.00150419985 56.0618443,0.122214913 56.2677141,0.334859138 C56.4735838,0.547503363 56.5850758,0.834137382 56.577,1.13 L56.577,16.041 C56.577,16.6451995 56.0871995,17.135 55.483,17.135 C54.8788005,17.135 54.389,16.6451995 54.389,16.041 L54.389,1.13 C54.3809242,0.834137382 54.4924162,0.547503363 54.6982859,0.334859138 C54.9041557,0.122214913 55.187031,0.00150419985 55.483,0" id="Path_15789" fill="#686868" fill-rule="nonzero"></path>
                <path d="M87.207,58.017 L72.942,58.017 C72.3312766,57.998826 71.8456118,57.4984937 71.8456118,56.8875 C71.8456118,56.2765063 72.3312766,55.776174 72.942,55.758 L87.207,55.758 C87.8177234,55.776174 88.3033882,56.2765063 88.3033882,56.8875 C88.3033882,57.4984937 87.8177234,57.998826 87.207,58.017 L87.207,58.017 Z" id="Path_15790" fill="#686868" fill-rule="nonzero"></path>
                <path d="M15.884,35.199 L1.094,35.199 C0.483276648,35.180826 -0.0023882461,34.6804937 -0.0023882461,34.0695 C-0.0023882461,33.4585063 0.483276648,32.958174 1.094,32.94 L15.884,32.94 C16.179969,32.9415042 16.4628443,33.0622149 16.6687141,33.2748591 C16.8745838,33.4875034 16.9860758,33.7741374 16.978,34.07 C16.9777699,34.679901 16.4935915,35.1795696 15.884,35.199 Z" id="Path_15791" fill="#686868" fill-rule="nonzero"></path>
                <path d="M32.905,91.5900043 C32.609031,91.5884958 32.3261557,91.4677851 32.1202859,91.2551409 C31.9144162,91.0424966 31.8029242,90.7558626 31.811,90.46 L31.811,75.46 C31.811,74.8558005 32.3008005,74.366 32.905,74.366 C33.5091995,74.366 33.999,74.8558005 33.999,75.46 L33.999,90.507 C33.9945983,91.1075879 33.5056017,91.5916677 32.905,91.5900043 L32.905,91.5900043 Z" id="Path_15792" fill="#686868" fill-rule="nonzero"></path>
                <path d="M44.413,17.17 C44.1172092,17.1684895 43.8344912,17.0479158 43.6286514,16.8354906 C43.4228116,16.6230654 43.3111979,16.3366918 43.319,16.041 L43.319,6.507 C43.319,5.90280048 43.8088005,5.413 44.413,5.413 C45.0171995,5.413 45.507,5.90280048 45.507,6.507 L45.507,16.041 C45.5067699,16.650901 45.0225915,17.1505696 44.413,17.17 Z" id="Path_15793" fill="#686868" fill-rule="nonzero"></path>
                <path d="M82.048,46.585 L72.948,46.585 C72.3372766,46.566826 71.8516118,46.0664937 71.8516118,45.4555 C71.8516118,44.8445063 72.3372766,44.344174 72.948,44.326 L82.048,44.326 C82.6587234,44.344174 83.1443882,44.8445063 83.1443882,45.4555 C83.1443882,46.0664937 82.6587234,46.566826 82.048,46.585 L82.048,46.585 Z" id="Path_15794" fill="#686868" fill-rule="nonzero"></path>
                <path d="M15.883,46.585 L6.432,46.585 C5.82127665,46.566826 5.33561175,46.0664937 5.33561175,45.4555 C5.33561175,44.8445063 5.82127665,44.344174 6.432,44.326 L15.883,44.326 C16.178969,44.3275042 16.4618443,44.4482149 16.6677141,44.6608591 C16.8735838,44.8735034 16.9850758,45.1601374 16.977,45.456 C16.9767699,46.065901 16.4925915,46.5655696 15.883,46.585 L15.883,46.585 Z" id="Path_15795" fill="#686868" fill-rule="nonzero"></path>
                <path d="M43.932,86.1670043 C43.636031,86.1654958 43.3531557,86.0447851 43.1472859,85.8321409 C42.9414162,85.6194966 42.8299242,85.3328626 42.838,85.037 L42.838,75.459 C42.838,74.8548005 43.3278005,74.365 43.932,74.365 C44.5361995,74.365 45.026,74.8548005 45.026,75.459 L45.026,85.083 C45.0221463,85.6839792 44.5329892,86.1686649 43.932,86.1670043 Z" id="Path_15796" fill="#686868" fill-rule="nonzero"></path>
                <path d="M67.035,18.797 C66.739031,18.7954958 66.4561557,18.6747851 66.2502859,18.4621409 C66.0444162,18.2494966 65.9329242,17.9628626 65.941,17.667 L65.941,6.507 C65.941,5.90280048 66.4308005,5.413 67.035,5.413 C67.6391995,5.413 68.129,5.90280048 68.129,6.507 L68.129,17.667 C68.1370758,17.9628626 68.0255838,18.2494966 67.8197141,18.4621409 C67.6138443,18.6747851 67.330969,18.7954958 67.035,18.797 L67.035,18.797 Z" id="Path_15797" fill="#686868" fill-rule="nonzero"></path>
                <path d="M82.043,69.946 L71.323,69.946 C70.7122766,69.927826 70.2266118,69.4274937 70.2266118,68.8165 C70.2266118,68.2055063 70.7122766,67.705174 71.323,67.687 L82.043,67.687 C82.6537234,67.705174 83.1393882,68.2055063 83.1393882,68.8165 C83.1393882,69.4274937 82.6537234,69.927826 82.043,69.946 Z" id="Path_15798" fill="#686868" fill-rule="nonzero"></path>
                <path d="M17.502,23.27 L6.432,23.27 C5.82127665,23.251826 5.33561175,22.7514937 5.33561175,22.1405 C5.33561175,21.5295063 5.82127665,21.029174 6.432,21.011 L17.502,21.011 C18.1127234,21.029174 18.5983882,21.5295063 18.5983882,22.1405 C18.5983882,22.7514937 18.1127234,23.251826 17.502,23.27 Z" id="Path_15799" fill="#686868" fill-rule="nonzero"></path>
                <path d="M21.353,86.167 C21.057031,86.1654958 20.7741557,86.0447851 20.5682859,85.8321409 C20.3624162,85.6194966 20.2509242,85.3328626 20.259,85.037 L20.259,73.737 C20.259,73.1328005 20.7488005,72.643 21.353,72.643 C21.9571995,72.643 22.447,73.1328005 22.447,73.737 L22.447,85.037 C22.4550758,85.3328626 22.3435838,85.6194966 22.1377141,85.8321409 C21.9318443,86.0447851 21.648969,86.1654958 21.353,86.167 L21.353,86.167 Z" id="Path_15800" fill="#686868" fill-rule="nonzero"></path>
                <g id="Group_3466_1_" transform="translate(25.018000, 50.951000)" fill="#686868" fill-rule="nonzero">
                    <g id="Group_3474">
                        <path d="M0.234,7.482 C0.236422552,6.59720702 0.394848242,5.71977243 0.702,4.89 C1.01652445,4.02489673 1.49150459,3.22693008 2.102,2.538 C2.74025266,1.8280438 3.51500028,1.25395514 4.38,0.85 C5.33593612,0.423354873 6.36923794,0.197362643 7.416,0.186 C8.64740313,0.119500131 9.86942246,0.433733672 10.916,1.086 C11.8487812,1.6166353 12.6011421,2.41462549 13.076,3.377 L11.558,4.342 C11.3547616,3.91517227 11.0782393,3.52729654 10.741,3.196 C10.4271842,2.88926105 10.0737104,2.62592137 9.69,2.413 C9.31447032,2.23671939 8.92348063,2.09545428 8.522,1.991 C8.1366054,1.92131318 7.74649356,1.88086457 7.355,1.87 C6.59036774,1.87911956 5.8355123,2.04308545 5.136,2.352 C4.50317965,2.67356264 3.94588149,3.12587742 3.501,3.679 C3.05767393,4.21316258 2.72061729,4.82719628 2.508,5.488 C2.27393958,6.14602407 2.15552556,6.83959193 2.158,7.538 C2.14646753,8.28142933 2.28524339,9.01952641 2.566,9.708 C2.80706409,10.3809065 3.18501751,10.9965279 3.676,11.516 C4.14451367,12.0531665 4.72151485,12.4849801 5.369,12.783 C6.02673673,13.0912395 6.74268039,13.2555656 7.469,13.265 C7.88005784,13.2544127 8.28980321,13.2139729 8.695,13.144 C9.12264572,13.0365738 9.53469436,12.8745775 9.921,12.662 C10.3142636,12.4352656 10.6858299,12.1728259 11.031,11.878 C11.385864,11.5623544 11.6648112,11.1705976 11.847,10.732 L13.482,11.576 C13.2417526,12.1150048 12.9052511,12.6056939 12.489,13.024 C12.0432459,13.4372577 11.5540626,13.8010438 11.03,14.109 C10.467189,14.3823826 9.88079901,14.6042871 9.278,14.772 C8.68475722,14.9155682 8.07812188,14.9966763 7.468,15.014 C6.47678815,15.0084613 5.4993274,14.7816056 4.607,14.35 C3.75497102,13.9250747 2.98424865,13.3537179 2.33,12.662 C1.7005061,11.9538042 1.2060176,11.1363222 0.871,10.25 C0.440593649,9.39146836 0.222162676,8.4423052 0.234,7.482 L0.234,7.482 Z" id="Path_15779_2_"></path>
                        <path d="M7.299,15.261 C6.29003366,15.2491565 5.29508607,15.0231715 4.38,14.598 C3.49507787,14.1728161 2.70185567,13.5786638 2.045,12.849 C1.39684726,12.1212148 0.88289021,11.2842571 0.527,10.377 C0.179001163,9.47306355 0.00101363833,8.51260896 0.002,7.544 L0.002,7.544 C-0.00460896231,6.61380272 0.17385288,5.6915799 0.527,4.831 C0.848750914,3.93806465 1.34506537,3.11812597 1.987,2.419 C2.6650321,1.68765301 3.47791362,1.09412048 4.381,0.671 C5.38724376,0.209373611 6.48519524,-0.0176708563 7.592,0.007 C8.85770069,-0.0244997416 10.108411,0.286450347 11.212,0.907 C12.197161,1.46260808 12.9909924,2.3035046 13.489,3.319 L13.606,3.561 L11.562,4.827 L11.446,4.527 C11.2625448,4.12135407 11.0051578,3.75341616 10.687,3.442 C10.3967646,3.1492129 10.0615213,2.90478575 9.694,2.718 C9.34744577,2.53572843 8.97244366,2.41365831 8.585,2.357 C8.17981271,2.28695706 7.77006222,2.24651676 7.359,2.236 C6.65065738,2.24558795 5.95299808,2.41010448 5.315,2.718 C4.73584068,3.018588 4.22035552,3.42846322 3.797,3.925 C3.36117168,4.43207141 3.04229465,5.02885625 2.863,5.673 C2.64772318,6.29253585 2.5487293,6.94650568 2.571,7.602 C2.56846515,8.30041308 2.68688093,8.99399125 2.921,9.652 C3.15585863,10.297039 3.51268317,10.8908412 3.972,11.401 C4.42909813,11.8855156 4.96166176,12.29279 5.549,12.607 C6.16041538,12.9243461 6.84636496,13.0701752 7.534,13.029 C7.92580613,13.0185696 8.316258,12.9784546 8.702,12.909 C9.0926714,12.8313641 9.4675441,12.6887164 9.811,12.487 C10.1805532,12.2790349 10.515272,12.014499 10.803,11.703 C11.1216076,11.3919654 11.3790575,11.0239376 11.562,10.618 L11.679,10.318 L13.779,11.403 L13.662,11.644 C13.4023485,12.2360923 13.0250418,12.7692209 12.553,13.211 C12.087147,13.6257739 11.5782503,13.989511 11.035,14.296 C10.4677462,14.6054551 9.85779899,14.8292147 9.225,14.96 C8.61776343,15.1326866 7.98818158,15.2139121 7.357,15.201 C7.3575426,15.2167261 7.35167229,15.2319977 7.34073582,15.2433113 C7.32979934,15.2546249 7.31473543,15.261 7.299,15.261 L7.299,15.261 Z M0.526,7.484 C0.525519207,8.39396045 0.704253455,9.29510727 1.052,10.136 C1.39067921,10.9708677 1.86358428,11.744743 2.452,12.427 C3.06141171,13.1028086 3.79505731,13.6551646 4.613,14.054 C5.46073736,14.4869585 6.4059264,14.6936325 7.357,14.654 C7.94945569,14.6631841 8.53986558,14.5822598 9.108,14.414 C9.69292764,14.276613 10.2609992,14.075407 10.802,13.814 C11.3279872,13.5621994 11.8026881,13.2149896 12.202,12.79 C12.5382525,12.4808254 12.815139,12.1127731 13.019,11.704 L11.91,11.162 C11.7093248,11.5215815 11.4531759,11.8472517 11.151,12.127 C10.8130532,12.4733544 10.4179358,12.7588673 9.983,12.971 C9.58068373,13.1931804 9.14813981,13.3555528 8.699,13.453 C8.27532557,13.5427375 7.84597806,13.6032137 7.414,13.634 C6.6495983,13.6247624 5.89502759,13.4604442 5.196,13.151 C4.52774109,12.8330091 3.93153718,12.3817726 3.444,11.825 C2.93266977,11.2642664 2.5358949,10.6089764 2.276,9.896 C1.99465659,9.1654757 1.85615079,8.38773844 1.868,7.605 C1.86548439,6.88701332 1.98380293,6.17372154 2.218,5.495 C2.4504301,4.79423759 2.80674543,4.14087991 3.27,3.566 C3.74269164,2.97822678 4.3414473,2.50421189 5.022,2.179 C5.7695237,1.82185668 6.58754184,1.63665792 7.416,1.637 L7.416,1.637 C7.82707346,1.64733531 8.23683716,1.68777691 8.642,1.758 C9.06762733,1.84347368 9.47993688,1.98539426 9.868,2.18 C10.282716,2.37101686 10.6589266,2.63639785 10.978,2.963 C11.2627679,3.25835893 11.5170521,3.58165835 11.737,3.928 L12.73,3.328 C12.26145,2.53214002 11.5983735,1.86837532 10.803,1.399 C9.8030749,0.791081726 8.64378571,0.497079301 7.475,0.555 C6.45133168,0.544907749 5.43689434,0.749294049 4.497,1.155 C3.65835423,1.5191591 2.91807956,2.07710686 2.337,2.783 C1.74665965,3.43087767 1.29024122,4.18908283 0.994,5.014 C0.665272202,5.79470822 0.505439088,6.63613244 0.525,7.483 L0.526,7.484 Z" id="Path_15801"></path>
                    </g>
                    <path d="M25.105,8.508 L17.224,8.508 C16.7390408,8.4888792 16.3540092,8.09329876 16.348,7.608 C16.354511,7.12290889 16.739262,6.72761675 17.224,6.708 L25.105,6.708 C25.5899098,6.72759481 25.9749622,7.12274549 25.982,7.608 C25.9754628,8.09346219 25.5901304,8.48890029 25.105,8.508 L25.105,8.508 Z" id="Path_15802"></path>
                    <path d="M37.542,8.508 L29.661,8.508 C29.176262,8.48838325 28.791511,8.09309111 28.785,7.608 C28.7920107,7.12311602 29.1764825,6.72811072 29.661,6.708 L37.542,6.708 C38.0265175,6.72811072 38.4109893,7.12311602 38.418,7.608 C38.411489,8.09309111 38.026738,8.48838325 37.542,8.508 L37.542,8.508 Z" id="Path_15803"></path>
                    <path d="M21.369,12.789 C20.8825754,12.7687788 20.4973737,12.370825 20.493,11.884 L20.493,3.746 C20.5000107,3.26111602 20.8844825,2.86611072 21.369,2.846 C21.853738,2.86561675 22.238489,3.26090889 22.245,3.746 L22.245,11.884 C22.2411318,12.3710321 21.855648,12.7692774 21.369,12.789 L21.369,12.789 Z" id="Path_15804"></path>
                    <path d="M33.805,12.789 C33.3185754,12.7687788 32.9333737,12.370825 32.929,11.884 L32.929,3.746 C32.9360107,3.26111602 33.3204825,2.86611072 33.805,2.846 C34.2891251,2.86662584 34.673017,3.26148606 34.68,3.746 L34.68,11.884 C34.675652,12.3704546 34.2910318,12.7682618 33.805,12.789 L33.805,12.789 Z" id="Path_15805"></path>
                </g>
            </g>
        </g>
    </g>
</svg>