<svg height="92" viewBox="0 0 89 92" width="89" xmlns="http://www.w3.org/2000/svg"><g fill="none" fill-rule="evenodd" transform="translate(0 .12)"><path d="m56.314 52.099c-.6094425-.6335219-.7173179-1.5974275-.263-2.35.6191987-1.0604538 1.0902423-2.2007158 1.4-3.389v-.045c.35-1.356.394-1.446 1.706-1.627.2964678-.0341992.5892946-.0947725.875-.181l.219-.045c.9467851-.2149425 1.5731496-1.1167512 1.444-2.079.0353928-.4287633-.109712-.8528502-.4003459-1.1700607-.290634-.3172105-.700438-.4987753-1.1306541-.5009393-.5648539-.0386241-1.1158261-.1924471-1.619-.452-.4030784-.2205268-.7365944-.5491941-.963-.949-.2308519-.5010145-.4354622-1.0137084-.613-1.536l-.131-.407c-.1366269-.4659354-.3122474-.919538-.525-1.356-.788-1.627-.7-2.3.481-3.479.4145011-.3277263.6562707-.8270913.6562707-1.3555s-.2417696-1.0277737-.6562707-1.3555c-.2967198-.3792616-.7439902-.6103817-1.225-.633-.4496491.0182273-.8739883.2129706-1.181.542-.875.859-1.4 1.13-1.838 1.13-.6618835-.0897256-1.2923704-.3377354-1.838-.723l-.219-.136c-.6114992-.3897148-1.2741635-.6926086-1.969-.9h-.044c-.5342104-.0503486-1.0465568-.2369695-1.488-.542-.2459495-.5132595-.4083288-1.0625132-.481-1.627 0-.09-.044-.181-.044-.271.0075318-.3072401-.0847482-.6086413-.263-.859-.3224224-.488852-.8000998-.85486-1.356-1.039-.170552-.0518187-.3469269-.0820544-.525-.09-.7401719-.0266827-1.3730607.5277524-1.444 1.265-.0507757.2226965-.0802419.4497201-.088.678.00548.2957125-.05427.5889997-.175.859-.267183.5978944-.6903041 1.1128932-1.225 1.491-.5333742.2865975-1.0896172.5284278-1.663.723-.5062936.1684948-1.0030299.3644519-1.488.587-.5112867.3010907-1.0759961.5004199-1.663.587-.525 0-.963-.271-1.75-1.084-.2919914-.391465-.7382357-.6384476-1.225-.678-.3454351.0089551-.6677854.1754721-.875.452l-.131.136-.131.136c-.4234761.2784433-.6923486.7389254-.7266998 1.2445761-.0343513.5056507.1697727.9982657.5516998 1.3314239 1.225 1.265 1.356 2.259.525 3.389-.432333.5746542-.7312374 1.2383926-.875 1.943-.175 1.853-1.138 2.711-3.325 3.073-.569.09-1.094.813-1.269 1.31-.146143.4157901-.1143058.8734498.088 1.265.2113819.3600978.5582211.6204974.963.723.100151.035962.2023267.0660137.306.09.1036709.0239952.2058462.0540467.306.09.088.045.219.045.306.09.3450182.0968593.6956845.172336 1.05.226.788.136 1.006.361 1.094.949.1499518.7591126.4157232 1.4906583.788 2.169l-2.1 1.039c-.044-.045-.044-.09-.088-.181 0-.045-.044-.09-.044-.136l-.044-.09c-.0953111-.2870249-.2277687-.5603448-.394-.813-.3602459-.4411189-.8269168-.7832065-1.356-.994-.2076439-.0893537-.4309595-.1366001-.657-.139h-.131c-.0900526.0072789-.1804902-.0081952-.263-.045-1.794-.226-1.925-.361-1.925-2.169-.0071715-.3618897.007522-.7238821.044-1.084.030888-.7985205.0161974-1.5981529-.044-2.395-.088-1.175.263-1.717 1.225-1.9.1286625-.0045795.2520016-.0525056.35-.136.011932.0002907.0234481-.0043912.0317924-.0129252.0083444-.008534.0127663-.0201523.0122076-.0320748 0-.045.044 0 .044-.045.175 0 .306.045.481.045 1.925 0 2.538-1.627 2.975-2.8.048804-.0828085.0788437-.175317.088-.271 0-.09.087-.181.087-.271.1402967-.6492861.0310537-1.3275924-.306-1.9l-.525-.813-.088-.136-.131-.136-.394-.542c-.4096576-.5591985-.33435-1.3368033.175-1.807l.263-.226c1.05-1.084 2.232-2.259 3.413-3.344.1752438-.0923771.3709243-.1391478.569-.136.1041546-.0106599.2093239.0048062.306.045.4374954.2767827.8476755.5945467 1.225.949.088.09.175.136.263.226.131.09.263.226.394.316.2313756.1764686.480762.3279775.744.452.1544618.0556287.3168746.0860178.481.09.8509435-.0959969 1.6638004-.4055912 2.363-.9.7445744-.4022808 1.2962439-1.086913 1.531-1.9.044-.226.044-.407.088-.633v-.09l.044-.181c.088-.949.131-1.446.394-1.717s.744-.271 1.706-.271h3.81c.2894555-.0436404.5841595.0330995.8155695.2123714.2314099.1792718.3793566.4454507.4094305.7366286v.045c.0234579.1068819.0528365.2123779.088.316.044.045.044.09.044.181-.131 2.485 1.619 3.434 2.932 3.886l.044.045c.3330571.1394755.6890534.2160995 1.05.226.5428804-.005361 1.04901-.2752221 1.356-.723.533691-.5885708 1.191095-1.0516564 1.925-1.356.044 0 .088-.045.131-.045.1702544-.0032292.3376431.044099.481.136 1.356 1.31 2.669 2.621 3.938 3.976.396542.3512325.4358193.9564609.088 1.356l-.088.09c-.044.045-.088.136-.131.181-.0542339.0519316-.0986165.1132541-.131.181-.4432805.4946764-.8253655 1.0409437-1.138 1.627-.2248089.5139207-.2560664 1.0918297-.088 1.627v.045c.1776556.7223073.442254 1.4204037.788 2.079.2160918.3955761.5537294.7111253.963.9.2823637.0924753.5778887.1384083.875.136h.348c.6866709.0026487 1.3514023.2421215 1.882.678.3716711.5920075.5264706 1.2946132.438 1.988v3.615c.044.858-.35 1.31-1.269 1.491h-.175c-.1869718-.0392021-.3781904-.0543248-.569-.045-2.188 0-2.844 1.943-3.282 3.344l-.088.271c-.1214701.5817551.0053951 1.1878084.35 1.672.0335971.0807372.0776395.1567186.131.226-.8720471.2265419-1.7681051.3477396-2.669.361z" fill="#686868" fill-rule="nonzero"/><path d="m44.5 51.737c-5.12-.045-8.664-3.66-8.751-8.992-.0666422-2.4142826.8307886-4.755735 2.494-6.507 1.4898501-1.6096969 3.5826545-2.5263858 5.776-2.53.1616458-.007439.3235391.0077069.481.045h.044c.175 0 .35-.045.569-.045 2.1704313.0080323 4.2424876.906333 5.732 2.485 1.6372638 1.749053 2.5314319 4.0655005 2.494 6.461-.087 5.422-3.632 9.082-8.8 9.082zm-6.649-9.037c-.0605089 1.6659554.536846 3.2888353 1.663 4.518 1.2154548 1.4688293 2.9953763 2.3551575 4.9 2.44h.131c3.7357879-.1347476 6.684852-3.219936 6.651-6.958.1375314-3.670221-2.7183571-6.7608217-6.388-6.913h-.35c-1.8496581.0467525-3.5951956.8660272-4.813 2.259-1.2086452 1.241132-1.8568607 2.9227345-1.794 4.654z" fill="#686868" fill-rule="nonzero"/><g transform="translate(14.845 14.932)"><path d="m11.376 0h36.362c3.0682797.0441678 5.9927182 1.30813427 8.127268 3.5126724 2.1345498 2.20453812 3.3035425 5.16821954 3.248732 8.2363276v37.548c.0548097 3.0680137-1.1142142 6.031591-3.2487921 8.2359705s-5.0590188 3.468125-8.1272079 3.5120295h-36.362c-3.06757418-.0441765-5.99139645-1.307592-8.12583063-3.5112602-2.13443419-2.2036682-3.30390449-5.1663182-3.25016937-8.2337398v-37.548c-.08477393-6.37907193 4.9975435-11.62937032 11.376-11.752z"/><path d="m47.783 61.091h-36.362c-6.37608386-.1220842-11.45788434-5.3682604-11.377-11.745v-37.549c-.08255415-6.37752058 4.9991241-11.62537185 11.376-11.748h36.362c6.3768759.12262815 11.4585542 5.37047942 11.376 11.748v37.549c.0808958 6.3759744-4.9997021 11.6218313-11.375 11.745zm-36.406-58.379c-4.90519262.09470442-8.81403764 4.13129824-8.751 9.037v37.549c-.06303764 4.9057018 3.84580738 8.9422956 8.751 9.037h36.361c4.9055856-.0941621 8.815032-4.1309157 8.752-9.037v-37.552c.063032-4.90608434-3.8464144-8.94283786-8.752-9.037z" fill="#686868" fill-rule="nonzero"/></g><g fill="#686868" fill-rule="nonzero"><path d="m21.835 18.39c-.295969-.0015042-.5788443-.1222149-.7847141-.3348591-.2058697-.2126443-.3173617-.4992783-.3092859-.7951409v-10.753c0-.60419952.4898005-1.094 1.094-1.094s1.094.48980048 1.094 1.094v10.754c.0078021.2956918-.1038116.5820654-.3096514.7944906s-.4885578.3329989-.7843486.3345094z"/><path d="m82.044 23.27h-10.283c-.6107234-.018174-1.0963882-.5185063-1.0963882-1.1295s.4856648-1.111326 1.0963882-1.1295h10.326c.295969.0015042.5788443.1222149.7847141.3348591.2058697.2126443.3173617.4992783.3092859.7951409-.0049396.6245928-.5123879 1.1284707-1.137 1.129z"/><path d="m17.108 69.946h-10.676c-.61072335-.018174-1.09638825-.5185063-1.09638825-1.1295s.4856649-1.111326 1.09638825-1.1295h10.676c.6107234.018174 1.0963882.5185063 1.0963882 1.1295s-.4856648 1.111326-1.0963882 1.1295z"/><path d="m66.554 86.164c-.295969-.0015042-.5788443-.1222149-.7847141-.3348591-.2058697-.2126443-.3173617-.4992783-.3092859-.7951409v-10.84c-.0000001-.3908486.2085151-.7520076.5469999-.9474319.3384849-.1954244.7555153-.1954244 1.0940002 0 .3384848.1954243.547.5565833.5469999.9474319v10.844c.0069829.2951787-.1049946.5807721-.3107451.7925408-.2057504.2117687-.4879976.3319313-.7832549.3334592z"/><path d="m32.905 0c.295969.0015042.5788443.12221491.7847141.33485914.2058697.21264422.3173617.49927824.3092859.79514086v14.911c0 .6041995-.4898005 1.094-1.094 1.094s-1.094-.4898005-1.094-1.094v-14.911c-.0080758-.29586262.1034162-.58249664.3092859-.79514086.2058698-.21264423.4887451-.33335494.7847141-.33485914"/><path d="m87.207 34.702h-14.265c-.6107234-.018174-1.0963882-.5185063-1.0963882-1.1295s.4856648-1.111326 1.0963882-1.1295h14.265c.6107234.018174 1.0963882.5185063 1.0963882 1.1295s-.4856648 1.111326-1.0963882 1.1295z"/><path d="m15.884 58.514h-14.79c-.61072335-.018174-1.09638825-.5185063-1.09638825-1.1295s.4856649-1.111326 1.09638825-1.1295h14.79c.295969.0015042.5788443.1222149.7847141.3348591.2058697.2126443.3173617.4992783.3092859.7951409-.0002301.609901-.4844085 1.1095696-1.094 1.129z"/><path d="m55.483 91.5900043c-.295969-.0015085-.5788443-.1222192-.7847141-.3348634-.2058697-.2126443-.3173617-.4992783-.3092859-.7951409v-15c0-.6041995.4898005-1.094 1.094-1.094s1.094.4898005 1.094 1.094v15.047c-.0044017.6005879-.4933983 1.0846677-1.094 1.0830043z"/><path d="m55.483 0c.295969.0015042.5788443.12221491.7847141.33485914.2058697.21264422.3173617.49927824.3092859.79514086v14.911c0 .6041995-.4898005 1.094-1.094 1.094s-1.094-.4898005-1.094-1.094v-14.911c-.0080758-.29586262.1034162-.58249664.3092859-.79514086.2058698-.21264423.4887451-.33335494.7847141-.33485914"/><path d="m87.207 58.017h-14.265c-.6107234-.018174-1.0963882-.5185063-1.0963882-1.1295s.4856648-1.111326 1.0963882-1.1295h14.265c.6107234.018174 1.0963882.5185063 1.0963882 1.1295s-.4856648 1.111326-1.0963882 1.1295z"/><path d="m15.884 35.199h-14.79c-.61072335-.018174-1.09638825-.5185063-1.09638825-1.1295s.4856649-1.111326 1.09638825-1.1295h14.79c.295969.0015042.5788443.1222149.7847141.3348591.2058697.2126443.3173617.4992783.3092859.7951409-.0002301.609901-.4844085 1.1095696-1.094 1.129z"/><path d="m32.905 91.5900043c-.295969-.0015085-.5788443-.1222192-.7847141-.3348634-.2058697-.2126443-.3173617-.4992783-.3092859-.7951409v-15c0-.6041995.4898005-1.094 1.094-1.094s1.094.4898005 1.094 1.094v15.047c-.0044017.6005879-.4933983 1.0846677-1.094 1.0830043z"/><path d="m44.413 17.17c-.2957908-.0015105-.5785088-.1220842-.7843486-.3345094s-.3174535-.4987988-.3096514-.7944906v-9.534c0-.60419952.4898005-1.094 1.094-1.094s1.094.48980048 1.094 1.094v9.534c-.0002301.609901-.4844085 1.1095696-1.094 1.129z"/><path d="m82.048 46.585h-9.1c-.6107234-.018174-1.0963882-.5185063-1.0963882-1.1295s.4856648-1.111326 1.0963882-1.1295h9.1c.6107234.018174 1.0963882.5185063 1.0963882 1.1295s-.4856648 1.111326-1.0963882 1.1295z"/><path d="m15.883 46.585h-9.451c-.61072335-.018174-1.09638825-.5185063-1.09638825-1.1295s.4856649-1.111326 1.09638825-1.1295h9.451c.295969.0015042.5788443.1222149.7847141.3348591.2058697.2126443.3173617.4992783.3092859.7951409-.0002301.609901-.4844085 1.1095696-1.094 1.129z"/><path d="m43.932 86.1670043c-.295969-.0015085-.5788443-.1222192-.7847141-.3348634-.2058697-.2126443-.3173617-.4992783-.3092859-.7951409v-9.578c0-.6041995.4898005-1.094 1.094-1.094s1.094.4898005 1.094 1.094v9.624c-.0038537.6009792-.4930108 1.0856649-1.094 1.0840043z"/><path d="m67.035 18.797c-.295969-.0015042-.5788443-.1222149-.7847141-.3348591-.2058697-.2126443-.3173617-.4992783-.3092859-.7951409v-11.16c0-.60419952.4898005-1.094 1.094-1.094s1.094.48980048 1.094 1.094v11.16c.0080758.2958626-.1034162.5824966-.3092859.7951409-.2058698.2126442-.4887451.3333549-.7847141.3348591z"/><path d="m82.043 69.946h-10.72c-.6107234-.018174-1.0963882-.5185063-1.0963882-1.1295s.4856648-1.111326 1.0963882-1.1295h10.72c.6107234.018174 1.0963882.5185063 1.0963882 1.1295s-.4856648 1.111326-1.0963882 1.1295z"/><path d="m17.502 23.27h-11.07c-.61072335-.018174-1.09638825-.5185063-1.09638825-1.1295s.4856649-1.111326 1.09638825-1.1295h11.07c.6107234.018174 1.0963882.5185063 1.0963882 1.1295s-.4856648 1.111326-1.0963882 1.1295z"/><path d="m21.353 86.167c-.295969-.0015042-.5788443-.1222149-.7847141-.3348591-.2058697-.2126443-.3173617-.4992783-.3092859-.7951409v-11.3c0-.6041995.4898005-1.094 1.094-1.094s1.094.4898005 1.094 1.094v11.3c.0080758.2958626-.1034162.5824966-.3092859.7951409-.2058698.2126442-.4887451.3333549-.7847141.3348591z"/><g transform="translate(25.018 50.951)"><path d="m.234 7.482c.00242255-.88479298.16084824-1.76222757.468-2.592.31452445-.86510327.78950459-1.66306992 1.4-2.352.63825266-.7099562 1.41300028-1.28404486 2.278-1.688.95593612-.42664513 1.98923794-.65263736 3.036-.664 1.23140313-.06649987 2.45342246.24773367 3.5.9.9327812.5306353 1.6851421 1.32862549 2.16 2.291l-1.518.965c-.2032384-.42682773-.4797607-.81470346-.817-1.146-.3138158-.30673895-.6672896-.57007863-1.051-.783-.37552968-.17628061-.76651937-.31754572-1.168-.422-.3853946-.06968682-.77550644-.11013543-1.167-.121-.76463226.00911956-1.5194877.17308545-2.219.482-.63282035.32156264-1.19011851.77387742-1.635 1.327-.44332607.53416258-.78038271 1.14819628-.993 1.809-.23406042.65802407-.35247444 1.35159193-.35 2.05-.01153247.74342933.12724339 1.48152641.408 2.17.24106409.6729065.61901751 1.2885279 1.11 1.808.46851367.5371665 1.04551485.9689801 1.693 1.267.65773673.3082395 1.37368039.4725656 2.1.482.41105784-.0105873.82080321-.0510271 1.226-.121.42764572-.1074262.83969436-.2694225 1.226-.482.3932636-.2267344.7648299-.4891741 1.11-.784.354864-.3156456.6338112-.7074024.816-1.146l1.635.844c-.2402474.5390048-.5767489 1.0296939-.993 1.448-.4457541.4132577-.9349374.7770438-1.459 1.085-.562811.2733826-1.14920099.4952871-1.752.663-.59324278.1435682-1.19987812.2246763-1.81.242-.99121185-.0055387-1.9686726-.2323944-2.861-.664-.85202898-.4249253-1.62275135-.9962821-2.277-1.688-.6294939-.7081958-1.1239824-1.5256778-1.459-2.412-.43040635-.85853164-.64883732-1.8076948-.637-2.768z"/><path d="m7.299 15.261c-1.00896634-.0118435-2.00391393-.2378285-2.919-.663-.88492213-.4251839-1.67814433-1.0193362-2.335-1.749-.64815274-.7277852-1.16210979-1.5647429-1.518-2.472-.34799884-.90393645-.52598636-1.86439104-.525-2.833-.00660896-.93019728.17185288-1.8524201.525-2.713.32175091-.89293535.81806537-1.71287403 1.46-2.412.6780321-.73134699 1.49091362-1.32487952 2.394-1.748 1.00624376-.46162639 2.10419524-.68867086 3.211-.664 1.26570069-.03149974 2.516411.27945035 3.62.9.985161.55560808 1.7789924 1.3965046 2.277 2.412l.117.242-2.044 1.266-.116-.3c-.1834552-.40564593-.4408422-.77358384-.759-1.085-.2902354-.2927871-.6254787-.53721425-.993-.724-.34655423-.18227157-.72155634-.30434169-1.109-.361-.40518729-.07004294-.81493778-.11048324-1.226-.121-.70834262.00958795-1.40600192.17410448-2.044.482-.57915932.300588-1.09464448.71046322-1.518 1.207-.43582832.50707141-.75470535 1.10385625-.934 1.748-.21527682.61953585-.3142707 1.27350568-.292 1.929-.00253485.69841308.11588093 1.39199125.35 2.05.23485863.645039.59168317 1.2388412 1.051 1.749.45709813.4845156.98966176.89179 1.577 1.206.61141538.3173461 1.29736496.4631752 1.985.422.39180613-.0104304.782258-.0505454 1.168-.12.3906714-.0776359.7655441-.2202836 1.109-.422.3695532-.2079651.704272-.472501.992-.784.3186076-.3110346.5760575-.6790624.759-1.085l.117-.3 2.1 1.085-.117.241c-.2596515.5920923-.6369582 1.1252209-1.109 1.567-.465853.4147739-.9747497.778511-1.518 1.085-.5672538.3094551-1.17720101.5332147-1.81.664-.60723657.1726866-1.23681842.2539121-1.868.241.0005426.0157261-.00532771.0309977-.01626418.0423113-.01093648.0113136-.02600039.0176887-.04173582.0176887zm-6.773-7.777c-.00048079.90996045.17825346 1.81110727.526 2.652.33867921.8348677.81158428 1.608743 1.4 2.291.60941171.6758086 1.34305731 1.2281646 2.161 1.627.84773736.4329585 1.7929264.6396325 2.744.6.59245569.0091841 1.18286558-.0717402 1.751-.24.58492764-.137387 1.1529992-.338593 1.694-.6.5259872-.2518006 1.0006881-.5990104 1.4-1.024.3362525-.3091746.613139-.6772269.817-1.086l-1.109-.542c-.2006752.3595815-.4568241.6852517-.759.965-.3379468.3463544-.7330642.6318673-1.168.844-.40231627.2221804-.83486019.3845528-1.284.482-.42367443.0897375-.85302194.1502137-1.285.181-.7644017-.0092376-1.51897241-.1735558-2.218-.483-.66825891-.3179909-1.26446282-.7692274-1.752-1.326-.51133023-.5607336-.9081051-1.2160236-1.168-1.929-.28134341-.7305243-.41984921-1.50826156-.408-2.291-.00251561-.71798668.11580293-1.43127846.35-2.11.2324301-.70076241.58874543-1.35412009 1.052-1.929.47269164-.58777322 1.0714473-1.06178811 1.752-1.387.7475237-.35714332 1.56554184-.54234208 2.394-.542.41107346.01033531.82083716.05077691 1.226.121.42562733.08547368.83793688.22739426 1.226.422.414716.19101686.7909266.45639785 1.11.783.2847679.29535893.5390521.61865835.759.965l.993-.6c-.46855-.79585998-1.1316265-1.45962468-1.927-1.929-.9999251-.60791827-2.15921429-.9019207-3.328-.844-1.02366832-.01009225-2.03810566.19429405-2.978.6-.83864577.3641591-1.57892044.92210686-2.16 1.628-.59034035.64787767-1.04675878 1.40608283-1.343 2.231-.3287278.78070822-.48856091 1.62213244-.469 2.469z"/><path d="m25.105 8.508h-7.881c-.4849592-.0191208-.8699908-.41470124-.876-.9.006511-.48509111.391262-.88038325.876-.9h7.881c.4849098.01959481.8699622.41474549.877.9-.0065372.48546219-.3918696.88090029-.877.9z"/><path d="m37.542 8.508h-7.881c-.484738-.01961675-.869489-.41490889-.876-.9.0070107-.48488398.3914825-.87988928.876-.9h7.881c.4845175.02011072.8689893.41511602.876.9-.006511.48509111-.391262.88038325-.876.9z"/><path d="m21.369 12.789c-.4864246-.0202212-.8716263-.418175-.876-.905v-8.138c.0070107-.48488398.3914825-.87988928.876-.9.484738.01961675.869489.41490889.876.9v8.138c-.0038682.4870321-.389352.8852774-.876.905z"/><path d="m33.805 12.789c-.4864246-.0202212-.8716263-.418175-.876-.905v-8.138c.0070107-.48488398.3914825-.87988928.876-.9.4841251.02062584.868017.41548606.875.9v8.138c-.004348.4864546-.3889682.8842618-.875.905z"/></g></g></g></svg>