<svg height="1024" viewBox="0 0 1024 1024" width="1024" xmlns="http://www.w3.org/2000/svg" xmlns:xlink="http://www.w3.org/1999/xlink"><linearGradient id="a" x1="33.939224%" x2="66.167046%" y1="6.067337%" y2="94.223116%"><stop offset="0" stop-color="#f89200"/><stop offset="1" stop-color="#00bef2"/></linearGradient><linearGradient id="b" x1="50%" x2="50%" y1="99.622449%" y2="-.147959%"><stop offset="0" stop-color="#f89200"/><stop offset="1" stop-color="#cc1f25"/></linearGradient><linearGradient id="c" x1="9.2%" x2="91.275862%" y1="90.8%" y2="8.717241%"><stop offset="0" stop-color="#f89200"/><stop offset="1" stop-color="#aaa"/></linearGradient><linearGradient id="d" x1="0%" x2="100.18%" y1="50%" y2="50%"><stop offset="0" stop-color="#f89200"/><stop offset="1" stop-color="#3273e2"/></linearGradient><linearGradient id="e" x1="3.845819%" x2="96.079933%" y1="33.617186%" y2="66.386931%"><stop offset="0" stop-color="#f89200"/><stop offset="1" stop-color="#a680d0"/></linearGradient><linearGradient id="f" x1="6.286301%" x2="94.108219%" y1="57.67591%" y2="42.254818%"><stop offset="0" stop-color="#00bef2"/><stop offset="1" stop-color="#a680d0"/></linearGradient><linearGradient id="g" x1="96.857143%" x2="3.266234%" y1="47.21039%" y2="52.782324%"><stop offset="0" stop-color="#ff4c9f"/><stop offset="1" stop-color="#a680d0"/></linearGradient><linearGradient id="h" x1="95.094737%" x2="5.026316%" y1="41.870676%" y2="58.107629%"><stop offset="0" stop-color="#5cd551"/><stop offset="1" stop-color="#ce0003"/></linearGradient><linearGradient id="i" x1="48.9335%" x2="51.0665%" y1="97.617%" y2="2.377%"><stop offset="0" stop-color="#aaa"/><stop offset=".184" stop-color="#a2aea1"/><stop offset=".484" stop-color="#8dba89"/><stop offset=".861" stop-color="#6acd61"/><stop offset="1" stop-color="#5cd551"/></linearGradient><linearGradient id="j" x1="96.65322%" x2="3.287119%" y1="60.230227%" y2="39.877742%"><stop offset="0" stop-color="#f8bf00"/><stop offset="1" stop-color="#5cd551"/></linearGradient><linearGradient id="k" x1="99.581071%" x2=".498929%" y1="49.726824%" y2="50.272755%"><stop offset="0" stop-color="#f8bf00"/><stop offset=".6" stop-color="#b6ad91"/><stop offset="1" stop-color="#aaa"/></linearGradient><linearGradient id="l" x1="48.897655%" x2="51.182212%" y1="1.671257%" y2="98.491617%"><stop offset="0" stop-color="#3273e2"/><stop offset=".99" stop-color="#a680d0"/></linearGradient><linearGradient id="m" x1="31.946518%" x2="68.072004%" y1="7.311834%" y2="92.731953%"><stop offset="0" stop-color="#aaa"/><stop offset="1" stop-color="#3273e2"/></linearGradient><linearGradient id="n" x1="52.030758%" x2="47.971772%" y1="3.194118%" y2="96.752941%"><stop offset="0" stop-color="#f8bf00"/><stop offset="1" stop-color="#00bc9b"/></linearGradient><linearGradient id="o" x1="98.195122%" x2="1.99187%" y1="49.275616%" y2="50.808038%"><stop offset="0" stop-color="#00bc9b"/><stop offset=".99" stop-color="#3273e2"/></linearGradient><linearGradient id="p" x1="47.455219%" x2="52.550069%" y1="3.881301%" y2="96.214634%"><stop offset="0" stop-color="#00bc9b"/><stop offset="1" stop-color="#ff4c9f"/></linearGradient><g fill="none"><path d="m511.609184 0c-282.543748 0-511.609184 229.065436-511.609184 511.609184 0 282.543747 229.065436 511.609186 511.609184 511.609186 282.543747 0 511.609186-229.065439 511.609186-511.609186-.89131-282.543748-229.956744-511.609184-511.609186-511.609184zm0 974.196581c-255.804592 0-463.4787033-207.674111-463.4787033-463.478703 0-255.804591 207.6741113-463.4787025 463.4787033-463.4787025 255.804591 0 463.478702 207.6741115 463.478702 463.4787025-.891305 256.695897-207.674111 463.478703-463.478702 463.478703z" fill="#d8d8d8"/><path d="m511.609184 39.2174287c130.130558 0 247.782845 52.5870067 333.348144 138.1523053 85.565299 85.565299 138.152305 203.217585 138.152305 333.348144s-52.587006 247.782845-138.152305 333.348144-203.217586 139.043611-333.348144 139.043611c-130.130559 0-247.782845-52.587006-333.348144-138.152305-85.5652994-85.565299-139.0436113-203.217586-139.0436113-333.348144 0-130.130559 52.5870067-247.782845 138.1523053-333.348144 85.565299-85.5652994 203.217585-139.0436113 334.23945-139.0436113z" fill="#aaa"/><path d="m832.479055 189.848007c-82.000078-82.891383-195.195839-133.6957795-320.869871-133.6957795-125.674033 0-238.869793 50.8043965-321.761177 132.8044745-82.891383 82.891383-133.6957795 196.978449-133.6957795 322.652482 0 125.674032 50.8043965 238.869793 133.6957795 320.869871 82.000078 82.000078 196.087144 132.804474 321.761177 132.804474 125.674032 0 238.869793-50.804396 321.761176-132.804474 82.000078-82.000078 132.804474-196.087144 132.804474-321.761177s-50.804396-238.869793-133.695779-320.869871z" fill="#fff"/><path d="m288.782884 616.783197 15.152188-8.913052 97.152267 168.456682-15.152188 8.913052z" fill="url(#a)"/><path d="m250.456761 298.587241h16.934798v174.695819h-16.934798z" fill="url(#b)"/><path d="m318.195956 500.913521-12.478273-12.478273 117.652286-116.760981 11.586968 11.586968z" fill="url(#c)"/><path d="m334.239449 539.239645h222.8263v16.934798h-222.8263z" fill="url(#d)"/><path d="m319.978566 592.717957 8.021747-15.152189 258.478507 148.847968-8.913052 15.152189z" fill="url(#e)"/><path d="m459.022177 811.08773-6.239136-16.043494 124.782727-45.456565 5.347831 16.043494z" fill="url(#f)"/><path d="m765.631165 708.587632 2.673916 16.934799-134.587085 25.847851-2.673916-16.934799z" fill="url(#g)"/><path d="m444.761294 189.848007 6.239136 16.043494-163.108851 63.282669-6.239136-16.043494z" fill="url(#h)"/><path d="m472.391755 303.935072-16.934799-1.78261 7.130442-87.347909 16.934798 1.78261z" fill="url(#i)"/><path d="m758.500723 305.717683-6.239136 15.152188-256.695897-113.19576 6.239136-16.043493z" fill="url(#j)"/><path d="m751.370282 324.435092.891305 17.826104-248.67415 11.586968-.891305-17.826104z" fill="url(#k)"/><path d="m578.457073 575.783158 17.826104-1.782611 15.152189 147.065358-16.934799 1.78261z" fill="url(#l)"/><path d="m475.06567 388.609066 15.152189-9.804357 87.347909 140.826221-15.152188 9.804358z" fill="url(#m)"/><path d="m779.892048 372.565573 16.934799 2.673915-17.826104 118.543592-16.934799-2.673916z" fill="url(#n)"/><path d="m719.283295 529.435288 1.78261 17.826103-107.847929 7.130442-1.78261-16.934799z" fill="url(#o)"/><path d="m762.065944 579.348379 16.934799-2.673916 18.717409 106.956624-16.934799 2.673915z" fill="url(#p)"/><path d="m266.500254 469.717839c42.78265 4.456526 74.869637 41.891345 70.413111 85.565299-4.456526 42.78265-41.891345 74.869637-85.565299 70.413111-42.78265-4.456526-74.869637-41.891344-70.413111-85.565299 4.456526-42.78265 42.78265-74.869637 85.565299-70.413111z" fill="#f89200"/><path d="m768.305081 488.435248c25.84785 2.673916 44.565259 24.956546 42.782649 50.804397-2.673916 25.84785-24.956546 44.56526-50.804396 42.782649-25.847851-2.673915-44.56526-24.956545-42.78265-50.804396 1.782611-25.847851 24.956546-44.56526 50.804397-42.78265z" fill="#00bc9b"/><path d="m799.500762 284.326358c25.847851 2.673916 44.56526 24.956546 42.78265 50.804396-2.673916 25.847851-24.956546 44.56526-50.804396 42.78265-25.847851-2.673916-44.56526-24.956546-42.78265-50.804396 1.782611-25.847851 24.956546-45.456565 50.804396-42.78265z" fill="#f8bf00"/><path d="m475.956976 156.869715c16.934798 1.78261 30.304376 16.934799 28.521766 33.869597-1.78261 16.934799-16.934799 30.304377-33.869598 28.521767-16.934798-1.782611-30.304376-16.934799-28.521766-33.869598 1.782611-16.934799 16.934799-29.413071 33.869598-28.521766z" fill="#5cd551"/><path d="m795.935542 680.957171c16.934798 1.782611 30.304376 16.934799 28.521766 33.869598-1.78261 16.934798-16.934799 30.304376-33.869598 28.521766-16.934798-1.78261-30.304376-16.934799-28.521766-33.869598 1.782611-17.826103 16.934799-30.304376 33.869598-28.521766z" fill="#ff4c9f"/><path d="m369.000352 826.239918c-4.456526-25.84785 13.369578-49.913091 38.326123-54.369617 25.847851-4.456526 49.913091 13.369578 54.369617 38.326124 4.456526 25.847851-13.369577 49.913091-38.326123 54.369617-25.847851 4.456526-49.913091-12.478273-54.369617-38.326124z" fill="#00bef2"/><path d="m288.782884 281.652443c-6.239136 16.043493-24.06524 24.06524-40.108734 18.717409-16.934799-6.239137-24.956545-24.065241-18.717409-40.108734 6.239136-16.043494 24.06524-24.065241 40.108734-18.717409 16.043494 6.239136 24.06524 24.06524 18.717409 40.108734z" fill="#ce0003"/><path d="m479.522196 389.500371c-23.173935 10.695663-51.695701 0-62.391363-23.173935-10.695663-23.173935 0-51.695701 23.173935-62.391364 23.173935-10.695662 51.695701 0 62.391364 23.173936 10.695662 24.06524 0 51.695701-23.173936 62.391363z" fill="#aaa"/><path d="m574.000547 576.674463c-16.043493-6.239136-24.06524-24.06524-18.717409-40.108734 6.239137-16.043493 24.065241-24.06524 40.108734-18.717409 16.043494 6.239136 24.06524 24.06524 18.717409 40.108734-6.239136 16.934799-24.06524 24.956545-40.108734 18.717409z" fill="#3273e2"/><path d="m582.022294 767.413775c-10.695662-13.369578-8.913052-32.978292 4.456526-43.673954 13.369578-10.695663 32.978292-8.913052 43.673955 4.456526 10.695662 13.369578 8.913052 32.978292-4.456526 43.673954-13.369578 10.695663-32.978292 8.913052-43.673955-4.456526z" fill="#a680d0"/></g></svg>