<?xml version="1.0" encoding="UTF-8"?>
<svg width="1024px" height="1024px" viewBox="0 0 1024 1024" version="1.1" xmlns="http://www.w3.org/2000/svg" xmlns:xlink="http://www.w3.org/1999/xlink">
    <!-- Generator: Sketch 63.1 (92452) - https://sketch.com -->
    <title>coinomi-logo</title>
    <desc>Created with Sketch.</desc>
    <defs>
        <linearGradient x1="33.9392238%" y1="6.06733668%" x2="66.1670463%" y2="94.2231156%" id="linearGradient-1">
            <stop stop-color="#F89200" offset="0%"></stop>
            <stop stop-color="#00BEF2" offset="100%"></stop>
        </linearGradient>
        <linearGradient x1="50%" y1="99.622449%" x2="50%" y2="-0.147959184%" id="linearGradient-2">
            <stop stop-color="#F89200" offset="0%"></stop>
            <stop stop-color="#CC1F25" offset="100%"></stop>
        </linearGradient>
        <linearGradient x1="9.2%" y1="90.8%" x2="91.2758621%" y2="8.71724138%" id="linearGradient-3">
            <stop stop-color="#F89200" offset="0%"></stop>
            <stop stop-color="#AAAAAA" offset="100%"></stop>
        </linearGradient>
        <linearGradient x1="0%" y1="50%" x2="100.18%" y2="50%" id="linearGradient-4">
            <stop stop-color="#F89200" offset="0%"></stop>
            <stop stop-color="#3273E2" offset="100%"></stop>
        </linearGradient>
        <linearGradient x1="3.8458194%" y1="33.6171855%" x2="96.0799331%" y2="66.3869308%" id="linearGradient-5">
            <stop stop-color="#F89200" offset="0%"></stop>
            <stop stop-color="#A680D0" offset="100%"></stop>
        </linearGradient>
        <linearGradient x1="6.28630137%" y1="57.6759101%" x2="94.1082192%" y2="42.254818%" id="linearGradient-6">
            <stop stop-color="#00BEF2" offset="0%"></stop>
            <stop stop-color="#A680D0" offset="100%"></stop>
        </linearGradient>
        <linearGradient x1="96.8571429%" y1="47.2103896%" x2="3.26623377%" y2="52.7823242%" id="linearGradient-7">
            <stop stop-color="#FF4C9F" offset="0%"></stop>
            <stop stop-color="#A680D0" offset="100%"></stop>
        </linearGradient>
        <linearGradient x1="95.0947368%" y1="41.8706759%" x2="5.02631579%" y2="58.1076288%" id="linearGradient-8">
            <stop stop-color="#5CD551" offset="0%"></stop>
            <stop stop-color="#CE0003" offset="100%"></stop>
        </linearGradient>
        <linearGradient x1="48.9335%" y1="97.617%" x2="51.0665%" y2="2.377%" id="linearGradient-9">
            <stop stop-color="#AAAAAA" offset="0%"></stop>
            <stop stop-color="#A2AEA1" offset="18.4%"></stop>
            <stop stop-color="#8DBA89" offset="48.4%"></stop>
            <stop stop-color="#6ACD61" offset="86.1%"></stop>
            <stop stop-color="#5CD551" offset="100%"></stop>
        </linearGradient>
        <linearGradient x1="96.6532203%" y1="60.2302269%" x2="3.28711864%" y2="39.877742%" id="linearGradient-10">
            <stop stop-color="#F8BF00" offset="0%"></stop>
            <stop stop-color="#5CD551" offset="100%"></stop>
        </linearGradient>
        <linearGradient x1="99.5810714%" y1="49.726824%" x2="0.498928571%" y2="50.2727551%" id="linearGradient-11">
            <stop stop-color="#F8BF00" offset="0%"></stop>
            <stop stop-color="#B6AD91" offset="60%"></stop>
            <stop stop-color="#AAAAAA" offset="100%"></stop>
        </linearGradient>
        <linearGradient x1="48.897655%" y1="1.67125749%" x2="51.1822116%" y2="98.4916168%" id="linearGradient-12">
            <stop stop-color="#3273E2" offset="0%"></stop>
            <stop stop-color="#A680D0" offset="99%"></stop>
        </linearGradient>
        <linearGradient x1="31.946518%" y1="7.31183432%" x2="68.0720038%" y2="92.7319527%" id="linearGradient-13">
            <stop stop-color="#AAAAAA" offset="0%"></stop>
            <stop stop-color="#3273E2" offset="100%"></stop>
        </linearGradient>
        <linearGradient x1="52.030758%" y1="3.19411765%" x2="47.9717723%" y2="96.7529412%" id="linearGradient-14">
            <stop stop-color="#F8BF00" offset="0%"></stop>
            <stop stop-color="#00BC9B" offset="100%"></stop>
        </linearGradient>
        <linearGradient x1="98.195122%" y1="49.2756164%" x2="1.99186992%" y2="50.8080375%" id="linearGradient-15">
            <stop stop-color="#00BC9B" offset="0%"></stop>
            <stop stop-color="#3273E2" offset="99%"></stop>
        </linearGradient>
        <linearGradient x1="47.4552185%" y1="3.88130081%" x2="52.5500694%" y2="96.2146341%" id="linearGradient-16">
            <stop stop-color="#00BC9B" offset="0%"></stop>
            <stop stop-color="#FF4C9F" offset="100%"></stop>
        </linearGradient>
    </defs>
    <g id="Page-1" stroke="none" stroke-width="1" fill="none" fill-rule="evenodd">
        <g id="coinomi-logo" fill-rule="nonzero">
            <path d="M511.609184,0 C229.065436,0 0,229.065436 0,511.609184 C0,794.152931 229.065436,1023.21837 511.609184,1023.21837 C794.152931,1023.21837 1023.21837,794.152931 1023.21837,511.609184 C1022.32706,229.065436 793.261626,0 511.609184,0 Z M511.609184,974.196581 C255.804592,974.196581 48.1304807,766.52247 48.1304807,510.717878 C48.1304807,254.913287 255.804592,47.2391755 511.609184,47.2391755 C767.413775,47.2391755 975.087886,254.913287 975.087886,510.717878 C974.196581,767.413775 767.413775,974.196581 511.609184,974.196581 Z" id="Shape" fill="#D8D8D8"></path>
            <path d="M511.609184,39.2174287 C641.739742,39.2174287 759.392029,91.8044354 844.957328,177.369734 C930.522627,262.935033 983.109633,380.587319 983.109633,510.717878 C983.109633,640.848437 930.522627,758.500723 844.957328,844.066022 C759.392029,929.631321 641.739742,983.109633 511.609184,983.109633 C381.478625,983.109633 263.826339,930.522627 178.26104,844.957328 C92.6957406,759.392029 39.2174287,641.739742 39.2174287,511.609184 C39.2174287,381.478625 91.8044354,263.826339 177.369734,178.26104 C262.935033,92.6957406 380.587319,39.2174287 511.609184,39.2174287 Z" id="Path" fill="#AAAAAA"></path>
            <path d="M832.479055,189.848007 C750.478977,106.956624 637.283216,56.1522275 511.609184,56.1522275 C385.935151,56.1522275 272.739391,106.956624 189.848007,188.956702 C106.956624,271.848085 56.1522275,385.935151 56.1522275,511.609184 C56.1522275,637.283216 106.956624,750.478977 189.848007,832.479055 C271.848085,914.479133 385.935151,965.283529 511.609184,965.283529 C637.283216,965.283529 750.478977,914.479133 833.37036,832.479055 C915.370438,750.478977 966.174834,636.391911 966.174834,510.717878 C966.174834,385.043845 915.370438,271.848085 832.479055,189.848007 Z" id="Path" fill="#FFFFFF"></path>
            <polygon id="Path" fill="url(#linearGradient-1)" points="288.782884 616.783197 303.935072 607.870145 401.087339 776.326827 385.935151 785.239879"></polygon>
            <polygon id="Path" fill="url(#linearGradient-2)" points="250.456761 298.587241 267.391559 298.587241 267.391559 473.28306 250.456761 473.28306"></polygon>
            <polygon id="Path" fill="url(#linearGradient-3)" points="318.195956 500.913521 305.717683 488.435248 423.369969 371.674267 434.956937 383.261235"></polygon>
            <polygon id="Path" fill="url(#linearGradient-4)" points="334.239449 539.239645 557.065749 539.239645 557.065749 556.174443 334.239449 556.174443"></polygon>
            <polygon id="Path" fill="url(#linearGradient-5)" points="319.978566 592.717957 328.000313 577.565768 586.47882 726.413736 577.565768 741.565925"></polygon>
            <polygon id="Path" fill="url(#linearGradient-6)" points="459.022177 811.08773 452.783041 795.044236 577.565768 749.587671 582.913599 765.631165"></polygon>
            <polygon id="Path" fill="url(#linearGradient-7)" points="765.631165 708.587632 768.305081 725.522431 633.717996 751.370282 631.04408 734.435483"></polygon>
            <polygon id="Path" fill="url(#linearGradient-8)" points="444.761294 189.848007 451.00043 205.891501 287.891579 269.17417 281.652443 253.130676"></polygon>
            <polygon id="Path" fill="url(#linearGradient-9)" points="472.391755 303.935072 455.456956 302.152462 462.587398 214.804553 479.522196 216.587163"></polygon>
            <polygon id="Path" fill="url(#linearGradient-10)" points="758.500723 305.717683 752.261587 320.869871 495.56569 207.674111 501.804826 191.630618"></polygon>
            <polygon id="Path" fill="url(#linearGradient-11)" points="751.370282 324.435092 752.261587 342.261196 503.587437 353.848164 502.696132 336.02206"></polygon>
            <polygon id="Path" fill="url(#linearGradient-12)" points="578.457073 575.783158 596.283177 574.000547 611.435366 721.065905 594.500567 722.848515"></polygon>
            <polygon id="Path" fill="url(#linearGradient-13)" points="475.06567 388.609066 490.217859 378.804709 577.565768 519.63093 562.41358 529.435288"></polygon>
            <polygon id="Path" fill="url(#linearGradient-14)" points="779.892048 372.565573 796.826847 375.239488 779.000743 493.78308 762.065944 491.109164"></polygon>
            <polygon id="Path" fill="url(#linearGradient-15)" points="719.283295 529.435288 721.065905 547.261391 613.217976 554.391833 611.435366 537.457034"></polygon>
            <polygon id="Path" fill="url(#linearGradient-16)" points="762.065944 579.348379 779.000743 576.674463 797.718152 683.631087 780.783353 686.305002"></polygon>
            <path d="M266.500254,469.717839 C309.282904,474.174365 341.369891,511.609184 336.913365,555.283138 C332.456839,598.065788 295.02202,630.152775 251.348066,625.696249 C208.565416,621.239723 176.478429,583.804905 180.934955,540.13095 C185.391481,497.3483 223.717605,465.261313 266.500254,469.717839 Z" id="Path" fill="#F89200"></path>
            <path d="M768.305081,488.435248 C794.152931,491.109164 812.87034,513.391794 811.08773,539.239645 C808.413814,565.087495 786.131184,583.804905 760.283334,582.022294 C734.435483,579.348379 715.718074,557.065749 717.500684,531.217898 C719.283295,505.370047 742.45723,486.652638 768.305081,488.435248 Z" id="Path" fill="#00BC9B"></path>
            <path d="M799.500762,284.326358 C825.348613,287.000274 844.066022,309.282904 842.283412,335.130754 C839.609496,360.978605 817.326866,379.696014 791.479016,377.913404 C765.631165,375.239488 746.913756,352.956858 748.696366,327.109008 C750.478977,301.261157 773.652912,281.652443 799.500762,284.326358 Z" id="Path" fill="#F8BF00"></path>
            <path d="M475.956976,156.869715 C492.891774,158.652325 506.261352,173.804514 504.478742,190.739312 C502.696132,207.674111 487.543943,221.043689 470.609144,219.261079 C453.674346,217.478468 440.304768,202.32628 442.087378,185.391481 C443.869989,168.456682 459.022177,155.97841 475.956976,156.869715 Z" id="Path" fill="#5CD551"></path>
            <path d="M795.935542,680.957171 C812.87034,682.739782 826.239918,697.89197 824.457308,714.826769 C822.674698,731.761567 807.522509,745.131145 790.58771,743.348535 C773.652912,741.565925 760.283334,726.413736 762.065944,709.478937 C763.848555,691.652834 779.000743,679.174561 795.935542,680.957171 Z" id="Path" fill="#FF4C9F"></path>
            <path d="M369.000352,826.239918 C364.543826,800.392068 382.36993,776.326827 407.326475,771.870301 C433.174326,767.413775 457.239566,785.239879 461.696092,810.196425 C466.152618,836.044276 448.326515,860.109516 423.369969,864.566042 C397.522118,869.022568 373.456878,852.087769 369.000352,826.239918 Z" id="Path" fill="#00BEF2"></path>
            <path d="M288.782884,281.652443 C282.543748,297.695936 264.717644,305.717683 248.67415,300.369852 C231.739351,294.130715 223.717605,276.304611 229.956741,260.261118 C236.195877,244.217624 254.021981,236.195877 270.065475,241.543709 C286.108969,247.782845 294.130715,265.608949 288.782884,281.652443 Z" id="Path" fill="#CE0003"></path>
            <path d="M479.522196,389.500371 C456.348261,400.196034 427.826495,389.500371 417.130833,366.326436 C406.43517,343.152501 417.130833,314.630735 440.304768,303.935072 C463.478703,293.23941 492.000469,303.935072 502.696132,327.109008 C513.391794,351.174248 502.696132,378.804709 479.522196,389.500371 Z" id="Path" fill="#AAAAAA"></path>
            <path d="M574.000547,576.674463 C557.957054,570.435327 549.935307,552.609223 555.283138,536.565729 C561.522275,520.522236 579.348379,512.500489 595.391872,517.84832 C611.435366,524.087456 619.457112,541.91356 614.109281,557.957054 C607.870145,574.891853 590.044041,582.913599 574.000547,576.674463 Z" id="Path" fill="#3273E2"></path>
            <path d="M582.022294,767.413775 C571.326632,754.044197 573.109242,734.435483 586.47882,723.739821 C599.848398,713.044158 619.457112,714.826769 630.152775,728.196347 C640.848437,741.565925 639.065827,761.174639 625.696249,771.870301 C612.326671,782.565964 592.717957,780.783353 582.022294,767.413775 Z" id="Path" fill="#A680D0"></path>
        </g>
    </g>
</svg>