<svg width="1080" height="1080" viewBox="0 0 1080 1080" fill="none" xmlns="http://www.w3.org/2000/svg">
<rect width="1080" height="1080" rx="540" fill="#1C2951"/>
<path d="M233.337 574.43L255.13 593.326C250.992 599.119 245.888 604.36 240.233 608.636C233.061 614.291 225.199 618.705 216.647 622.015C207.268 625.74 197.199 627.671 187.13 627.533C170.716 627.533 156.234 623.808 143.544 616.36C130.993 609.05 120.648 598.429 113.751 585.74C106.579 572.774 102.993 558.016 102.993 541.74C102.855 530.154 105.062 518.568 109.2 507.671C113.2 497.327 119.131 487.809 126.717 479.81C134.303 471.672 143.406 465.327 153.613 460.913C164.51 456.223 176.234 454.017 188.096 454.155C204.509 454.155 218.026 457.327 228.923 463.81C239.268 469.741 248.095 477.741 255.13 487.396L233.061 506.982C228.095 499.671 221.889 493.465 214.578 488.637C207.544 484.085 198.716 481.741 188.096 481.741C178.165 481.465 168.372 484.361 160.234 489.878C152.372 495.396 146.165 502.844 142.165 511.533C137.889 520.775 135.682 530.844 135.82 540.913C135.682 550.843 137.889 560.774 142.165 569.74C146.165 578.016 152.234 585.188 159.958 590.291C167.958 595.533 177.199 598.153 186.716 598.016C196.371 598.016 204.096 596.636 209.889 593.74C215.13 591.395 219.957 587.947 223.957 583.947C227.544 580.223 230.716 577.05 233.337 574.43Z" fill="white"/>
<path d="M263.545 565.183C263.407 554.287 266.166 543.666 271.545 534.149C276.786 524.77 284.372 517.046 293.476 511.528C302.855 505.873 313.752 503.115 326.165 503.115C338.579 503.115 349.475 505.873 358.855 511.528C368.096 517.046 375.682 524.77 380.786 534.149C391.406 553.459 391.406 576.907 380.786 596.218C375.544 605.597 367.958 613.459 358.855 618.976C349.475 624.631 338.579 627.528 326.165 627.528C313.752 627.528 302.855 624.631 293.476 618.976C284.234 613.459 276.786 605.597 271.545 596.218C266.166 586.7 263.407 576.08 263.545 565.183ZM326.165 602.149C333.613 602.149 339.82 600.218 344.648 596.493C349.475 592.769 353.199 587.804 355.544 582.149C357.889 576.769 359.13 570.976 359.13 565.183C359.13 559.39 357.889 553.597 355.544 548.356C353.199 542.839 349.475 537.873 344.648 534.149C339.82 530.425 333.613 528.494 326.165 528.494C318.717 528.494 312.51 530.425 307.683 534.149C302.855 537.873 299.131 542.701 296.786 548.356C294.441 553.735 293.2 559.39 293.2 565.183C293.2 570.976 294.441 576.769 296.786 582.149C299.131 587.804 302.855 592.631 307.683 596.493C312.51 600.218 318.717 602.149 326.165 602.149Z" fill="white"/>
<path d="M394.559 488.767V458.009H423.938V488.767H394.559ZM394.559 623.525V507.112H423.938V623.525H394.559Z" fill="white"/>
<path d="M435.292 623.534V507.121H463.292L463.982 520.224C467.844 516.224 472.12 512.776 476.947 509.88C482.602 506.293 489.913 504.5 499.016 504.5C513.361 504.5 524.395 508.776 532.119 517.604C539.843 526.293 543.705 538.017 543.705 552.776V623.534H514.464V553.052C514.464 545.741 512.395 540.086 508.395 535.948C504.257 531.81 498.464 529.466 492.671 529.741C484.947 529.603 477.637 532.776 472.533 538.707C467.154 544.776 464.396 552.5 464.534 560.5V623.534H435.292Z" fill="white"/>
<path d="M904.664 534.703L955.974 458.014H907.146L880.526 500.91L852.94 458.014H798.871L801.354 461.462C800.802 461.186 800.113 460.91 799.561 460.773C786.871 455.945 773.354 453.462 759.699 453.6C742.596 453.6 727.699 457.462 714.734 465.048C704.941 470.704 696.527 478.428 689.907 487.669C682.734 478.703 673.493 471.531 663.01 466.979C649.631 461.048 634.459 458.152 617.493 458.152H553.907V623.668H617.217C634.045 623.668 649.217 620.634 662.734 614.565C673.217 610.013 682.458 602.979 689.631 594.151C696.389 603.392 704.941 611.116 714.872 616.772C727.837 624.22 742.734 627.944 759.699 627.944C774.458 628.22 789.078 624.909 802.32 618.565L798.871 623.806H847.009L879.147 572.91L912.112 623.806H967.008L904.664 534.703ZM649.079 572.496C641.079 580.634 630.045 584.772 615.838 584.772H597.907V496.359H615.838C631.424 496.359 642.734 500.359 650.045 508.496C657.355 516.634 660.941 527.255 660.941 540.496C660.941 553.737 656.941 564.358 649.079 572.496ZM824.802 584.634L803.837 564.91C799.009 571.255 792.94 576.634 786.182 580.772C780.251 584.22 772.389 586.013 762.596 586.013C754.458 586.151 746.458 584.082 739.561 580.082C732.941 576.22 727.699 570.427 724.251 563.531C720.665 556.22 718.734 548.082 718.872 539.807C718.734 531.807 720.527 523.807 724.113 516.634C727.424 509.876 732.665 504.221 739.148 500.221C745.63 496.221 753.63 494.152 762.872 494.152C770.596 494.014 778.182 495.945 784.94 499.807C791.423 503.669 797.078 508.91 801.63 514.979L823.423 493.048L855.285 538.841L824.802 584.634Z" fill="#F94A29"/>
</svg>
