<svg height="109" viewBox="0 0 106 109" width="106" xmlns="http://www.w3.org/2000/svg"><g fill="none" fill-rule="evenodd" transform="translate(1 2)"><path d="m102.568 53.19c.314829-2.1956487.474-4.410895.474-6.629 0-25.727-22.886-46.561-51.138-46.561-28.095 0-50.981 20.834-50.981 46.719 0 1.736.158 3.472.316 5.209" stroke="#686868" stroke-width="3"/><path d="m1.081 51.769c2.841 23.517 24.622 41.668 50.823 41.668 25.885 0 47.193-17.52 50.665-40.248" stroke="#686868" stroke-width="3"/><path d="m53.324 44.825h-.316c-6.156-1.1-9.786-1.894-9.786-5.051 0-5.366 8.523-5.524 9.47-5.524 3.63 0 7.418.474 9.628 3.946.2928401.3914453.8203248.5234209 1.263.316l2.21-1.1c.158-.158.473-.316.473-.631s0-.474-.158-.631c-3.472-4.893-7.892-5.84-13.574-5.84-4.893 0-9.154 1.421-11.68 3.63-1.6801784 1.5333974-2.6031651 3.7266331-2.525 6 0 6.629 7.26 7.892 13.732 9s10.733 2.21 10.575 6c0 5.209-7.1 5.84-10.1 5.84-3.946 0-9-1.736-11.048-5.209-.2529312-.4403379-.7830419-.6388671-1.263-.473l-2.368 1.1c-.158.158-.474.316-.474.474-.158.158 0 .473 0 .631 3 5.524 9.786 7.418 15.152 7.418 9.154 0 14.679-3.63 14.679-9.786.315-7.585-7.257-9.005-13.89-10.11z" fill="#686868" fill-rule="nonzero"/><g stroke="#686868" stroke-width="3"><path d="m52.535 22.886v7.103" stroke-linecap="round" stroke-linejoin="round"/><path d="m52.535 64.554v6.156" stroke-linecap="round" stroke-linejoin="round"/><path d="m1.081 51.769c-.31483221 2.1956484-.47323119 4.4108948-.474 6.629 0 12.627 5.524 23.991 14.363 32.514v-11.838c-7.63696352-7.2298781-12.54311278-16.8750941-13.889-27.305z"/><path d="m87.732 91.702v-11.522c-3.7376277 3.3241997-7.9376916 6.0886495-12.469 8.207v11.68c4.5152724-2.2120087 8.7098059-5.0259691 12.469-8.365z"/><path d="m75.106 99.909v-11.68c-3.7924071 1.7377427-7.7614287 3.0607499-11.838 3.946v11.68c4.1024866-.788535 8.0828895-2.115336 11.838-3.946z"/><path d="m102.884 58.399c0-1.736-.158-3.472-.316-5.051-1.735545 10.4120326-7.0359401 19.8971732-14.994 26.832v11.522c9.47-8.523 15.31-20.361 15.31-33.303z"/><path d="m37.383 103.224v-11.68c-4.1128774-1.1240533-8.0844414-2.7126118-11.838-4.735v11.838c3.759352 1.970336 7.7309678 3.505907 11.838 4.577z"/><path d="m51.746 105.117c3.8744675-.012399 7.7367084-.435429 11.522-1.262v-11.68c-3.7318039.8269624-7.5416881 1.2503946-11.364 1.263h-2.21v11.68z"/><path d="m25.545 98.488v-11.837c-3.8365027-2.1225762-7.3896098-4.7211323-10.575-7.734v11.838c3.1444379 3.0613961 6.7044063 5.6646335 10.575 7.733z"/><path d="m49.852 105.118v-11.68c-4.2159779-.1428544-8.4007624-.7785093-12.469-1.894v11.68c4.0682414 1.115473 8.2530238 1.751127 12.469 1.894z"/></g></g></svg>