<svg width="120" height="24" viewBox="0 0 120 24" fill="none" xmlns="http://www.w3.org/2000/svg">
<path d="M18.0853 16.6601L21.1169 19.2601C20.5369 20.0702 19.8362 20.7881 19.0387 21.3891C18.047 22.1654 16.9449 22.7918 15.7684 23.2481C14.4663 23.7531 13.0786 24.0057 11.6807 23.9921C9.5549 24.0291 7.45904 23.4916 5.61762 22.4371C3.88217 21.4266 2.45711 19.966 1.49564 18.2121C0.477651 16.3468 -0.0368692 14.252 0.0020554 12.1311C-0.0118484 10.5375 0.275648 8.95548 0.849631 7.46708C1.40866 6.03751 2.2417 4.72904 3.30266 3.61408C4.34833 2.50492 5.6119 1.62007 7.01546 1.01408C8.53236 0.370257 10.168 0.0477117 11.8177 0.0670826C13.7875 -0.00565914 15.7406 0.449637 17.4716 1.38508C18.9046 2.21208 20.1462 3.32893 21.1159 4.66308L18.0511 7.36708C17.3707 6.36776 16.5034 5.50721 15.4963 4.83208C14.3915 4.16242 13.1112 3.83319 11.8177 3.88608C10.4379 3.84586 9.07993 4.23542 7.9346 5.00008C6.83697 5.75921 5.96645 6.7985 5.41505 8.00808C4.81908 9.27887 4.51611 10.6655 4.52817 12.0671C4.51285 13.4352 4.81601 14.7883 5.41404 16.0211C5.96197 17.1655 6.80729 18.1444 7.86304 18.8571C8.96528 19.5711 10.2599 19.9365 11.5758 19.9051C12.6841 19.9523 13.7891 19.756 14.8119 19.3301C15.5473 19.0015 16.2165 18.5434 16.7873 17.9781L18.0813 16.6601" fill="#1C2951"/>
<path d="M22.3105 15.3761C22.2954 13.8866 22.6712 12.4189 23.401 11.1171C24.1281 9.83019 25.1859 8.75744 26.4667 8.00812C27.8558 7.25425 29.4136 6.85913 30.9969 6.85913C32.5801 6.85913 34.138 7.25425 35.527 8.00812C36.8079 8.75744 37.8657 9.83019 38.5928 11.1171C39.3081 12.4243 39.6827 13.8882 39.6827 15.3756C39.6827 16.8631 39.3081 18.3269 38.5928 19.6341C37.8173 20.9481 36.7095 22.0384 35.3789 22.7971C34.0484 23.5559 32.5413 23.9568 31.0067 23.9602C29.4721 23.9637 27.9631 23.5695 26.6292 22.8167C25.2952 22.0639 24.1825 20.9786 23.401 19.6681C22.6714 18.3667 22.2956 16.8993 22.3105 15.4101V15.3761ZM30.9626 20.4801C31.8783 20.5151 32.7788 20.2412 33.5174 19.7031C34.1916 19.1933 34.7199 18.5177 35.0503 17.7431C35.3759 17.0074 35.5496 16.2145 35.5613 15.4111C35.5534 14.6073 35.3795 13.8136 35.0503 13.0791C34.7186 12.3054 34.1905 11.6301 33.5174 11.1191C32.7633 10.6125 31.8734 10.3418 30.9626 10.3418C30.0519 10.3418 29.162 10.6125 28.4078 11.1191C27.7509 11.6238 27.235 12.2868 26.9092 13.0451C26.58 13.7796 26.4061 14.5733 26.3982 15.3771C26.4043 16.1921 26.5782 16.9972 26.9092 17.7431C27.2382 18.5185 27.7668 19.1944 28.4421 19.7031C29.1807 20.2412 30.0813 20.5151 30.9969 20.4801" fill="#1C2951"/>
<path d="M40.498 0.606079H44.5515V4.86508H40.498V0.606079ZM40.498 7.36608H44.5515V23.4201H40.498V7.36608Z" fill="#1C2951"/>
<path d="M46.1523 23.4201V7.40007H50.0355L50.1363 9.22506C50.6714 8.67402 51.2785 8.19646 51.9413 7.80506C52.8713 7.27333 53.9346 7.01528 55.007 7.06107C55.859 7.00679 56.7126 7.13909 57.5073 7.4486C58.302 7.75811 59.0184 8.23725 59.6057 8.85207C60.7297 10.2078 61.301 11.9321 61.2071 13.6851V23.4191H57.1194V13.7191C57.1451 13.2881 57.0828 12.8565 56.9365 12.45C56.7902 12.0435 56.5628 11.6704 56.2678 11.3531C55.9825 11.0711 55.6417 10.8506 55.2666 10.7052C54.8915 10.5598 54.4903 10.4927 54.0879 10.5081C53.5608 10.4941 53.0371 10.596 52.5543 10.8064C52.0715 11.0168 51.6415 11.3305 51.2952 11.7251C50.5611 12.5546 50.1714 13.6296 50.2048 14.7331V23.4191L46.1523 23.4201Z" fill="#1C2951"/>
<path d="M111.282 11.1851L118.438 0.602083H111.659L107.946 6.51708L104.127 0.602083H96.6325L96.9731 1.07508L96.7343 0.975083C94.9617 0.30842 93.0787 -0.0216462 91.1832 0.00208258C88.9987 -0.0383589 86.8442 0.51087 84.9498 1.59108C83.5969 2.37792 82.4249 3.43694 81.5092 4.70008C80.5142 3.46263 79.2272 2.48755 77.7621 1.86108C75.7598 1.01848 73.6015 0.602501 71.4269 0.640083H62.6045V23.4201H71.3927C73.5701 23.4554 75.7299 23.0289 77.7278 22.1691C79.1831 21.5418 80.4674 20.5804 81.4749 19.3641C82.4056 20.6385 83.6021 21.6989 84.9831 22.4731C86.8784 23.513 89.0169 24.0377 91.1822 23.9941C93.2317 24.0304 95.2614 23.5907 97.1092 22.7101L96.6325 23.4201H103.308L107.771 16.4201L112.37 23.4201H120L111.282 11.1851ZM75.823 16.3851C75.2086 16.9675 74.4799 17.4181 73.6823 17.7088C72.8847 17.9996 72.0353 18.1243 71.1871 18.0751H68.7018V5.91308H71.1881C72.0586 5.83989 72.9347 5.95289 73.7575 6.24443C74.5802 6.53598 75.3303 6.99929 75.9571 7.60308C77.0124 8.82115 77.5605 10.3923 77.49 11.9971C77.5232 12.8031 77.3926 13.6076 77.1059 14.3625C76.8191 15.1174 76.3822 15.8073 75.821 16.3911L75.823 16.3851ZM100.243 18.0471L97.348 15.3471C96.6697 16.2198 95.8392 16.9649 94.896 17.5471C93.8875 18.0642 92.7596 18.3091 91.6256 18.2571C90.5035 18.2843 89.3955 18.0037 88.4238 17.4461C87.514 16.9085 86.7793 16.1226 86.3074 15.1821C85.7978 14.1643 85.5407 13.0404 85.5576 11.9041C85.5357 10.7926 85.781 9.69185 86.2731 8.69308C86.7394 7.7608 87.4592 6.97657 88.3512 6.42908C89.3497 5.84298 90.4953 5.54997 91.6549 5.58408C92.7289 5.56263 93.7886 5.8312 94.7207 6.36108C95.6299 6.89649 96.4188 7.61121 97.0386 8.46108L100.07 5.45308L104.499 11.7731L100.243 18.0471Z" fill="#F94A29"/>
</svg>
