<svg height="135" viewBox="0 0 95 135" width="95" xmlns="http://www.w3.org/2000/svg"><path d="m26.3717647 123.309329c-.0766471.05369-.1356059.119312-.2063529.167036-.7428824.560753-1.5329412 1.038-2.3642353 1.461529l-.0117918.005965c-1.7157059.870942-3.5905882 1.413824-5.5833529 1.610647h-.0058959c-.5011471.047725-.9905294.149136-1.509353.149136h-.3242705c-8.80823534-.178965-15.80647063-7.552353-15.63000005-16.464706.17687647-8.805294 7.28705883-15.814706 15.94235295-15.814706h.3301647c8.49.1789647 15.2229412 7.039412 15.5529412 15.504118.0117917.3281.076647.632353.0707529.960411-.0117912 1.067824-.1473941 2.105824-.3655412 3.102059-.0884353.423547-.2535176.817294-.3714353 1.228883-.1709764.548823-.3124823 1.109588-.5306235 1.628588-.2299353.548823-.5306235 1.055882-.8195294 1.568941-.1827706.3281-.3478529.674118-.5483118.990294-.4009176.608471-.8607647 1.169235-1.3324705 1.718059-.1473942.161071-.2712118.340029-.4245.495135-.5718942.620412-1.2086471 1.169236-1.869 1.688236zm30.2511765-101.3294114c-.1415-.8769411-.2299353-1.7717647-.2122471-2.6964117.0176877-.972353.1532941-1.903.3360647-2.8276471.0471665-.250547.1061236-.5011.1650824-.751647.1945647-.7814706.4362941-1.5450589.737-2.2728236.1238117-.3102058.2771059-.5965294.4186059-.8948235.2594176-.5249588.5424176-1.0439412.8548823-1.5331176.2417294-.387753.4952471-.7516471.7664706-1.11552945.1945647-.25651765.4068118-.4951353.6131765-.73970589.6485294-.76358823 1.3560588-1.46152941 2.1401764-2.08794117.1061236-.08948235.206353-.17896471.3183765-.26248235.5011471-.38178824 1.0140588-.73970589 1.5624118-1.06782353 2.3701176-1.40188236 5.094-2.26088236 8.03-2.26088236h.3301647c8.8082353.17896471 15.8005882 7.55235295 15.6241176 16.46470585-.1709764 8.7988236-7.2752941 15.8147059-15.9423529 15.8147059h-.3301647c-7.0570588-.1431706-12.882353-4.9453529-14.8517647-11.417647-.2358353-.7695295-.4362941-1.5450589-.5601059-2.3504118zm-1.4686471 32.4341177c25.4464706 7.2658823 39.6729412 16.8582353 39.2311765 39.0976471l-.0058959.3638941c-.3242706 16.5305885-8.7082353 28.1388235-22.0388235 34.0747055l.0176876.023863c-10.2058823 5.79247-34.767647 6.490588-47.5794117 6.442941 9.6041176-3.382412 16.6558823-12.557059 16.8682353-23.342941.0117917-.51303-.0294795-1.014118-.0471665-1.521177 5.0822353-.435476 10.2941176-1.282588 15.5411765-2.85147v-.017896c5.9958823-1.682236 9.5158823-5.380824 9.6217647-10.6364708l.0058958-.3638941c.1415-7.1105883-4.1152941-10.8394118-25.0811764-16.7388236-25.2694118-7.0811764-41.52411768-14.5258823-41.02294121-39.8611764l.00589589-.3638942c.30068823-14.83 8.08882353-26.26 20.40529412-32.43999996l-.0176877-.03579294c9.3270589-5.68505882 25.7882353-6.38294118 35.6164706-6.22176471-5.5185294 4.54570589-9.1205882 11.40588231-9.2741176 19.07764711-.0353753 1.8910588.1473941 3.7284117.5070412 5.5061176-4.1035294.3817882-8.0888236 1.2229412-12.9352942 3.0244706-4.2980588 1.897-6.6094117 5.2078235-6.6858823 9.0970588l-.0058959.3638941c-.1650823 8.3817647 5.1824118 11.2270589 26.8729412 17.3235294z" fill="#050708"/></svg>