<svg height="173" viewBox="0 0 194 173" width="194" xmlns="http://www.w3.org/2000/svg"><g fill="#686868"><path d="m32.988 142.745123c-.6380357.006384-1.2517643-.244546-1.7024764-.696199s-.7003611-1.065903-.6927027-1.703924v-137.945c-.0076584-.63802074.2419906-1.25227127.6927027-1.70392433.4507121-.45165305 1.0644407-.70258254 1.7024764-.69619913h98.109c.638485-.00635912 1.252708.24441508 1.704208.69591529.4515.45150022.702275 1.06572335.695792 1.70420817v27.167h26.873c.638402-.0062077 1.252465.2446548 1.703905.6960948s.702303 1.0655028.696208 1.7039052v9.888c.006095.6384024-.244768 1.2524652-.696208 1.7039052s-1.065503.7023025-1.703905.6960948c-.638567.0067579-1.252951-.2439279-1.704512-.6954884-.45156-.4515606-.702246-1.0659443-.695488-1.7045116v-7.488h-26.879c-.638238.0056592-1.251981-.2453795-1.703301-.6966995-.451319-.4513199-.702358-1.0650629-.696699-1.7033005v-27.167h-93.3v135.545c-.0224932 1.317218-1.0857552 2.379152-2.403 2.400123z"/><path d="m140.696 172.887c-5.664 0-32.926-.192-59.324-.384-26.02-.192-50.494-.384-55.582-.384-11.615 0-18.238-3.552-22.848-12.191-4.8-9.023-2.3-19.2-2.207-19.583.27490215-1.052369 1.21267722-1.796065 2.3-1.824h118.936c.66165-.008553 1.294124.271897 1.732.768.417064.518217.652451 1.159032.67 1.824-.199215 3.680266.156433 7.36956 1.055 10.944 1.346 4.32 5.857 7.1 5.953 7.2.534891.330803.916363.860645 1.06041 1.472845s.038855 1.256551-.29241 1.791155c-.329338.537127-.859623.920413-1.472948 1.064637-.613326.144223-1.258853.037429-1.793052-.296637-.291-.192-6.049-3.744-7.965-9.792-.956163-3.305022-1.409903-6.735038-1.346-10.175h-114.428c-.383 2.976-.674 9.12 2.107 14.4 3.748 7.008 8.74 9.6 18.535 9.6 5.088 0 29.563.192 55.574.384 26.4.192 53.668.384 59.332.384 9.5 0 17.662-11.424 17.662-20.831v-52.8c-.007034-.6386498.243564-1.2531944.695185-1.7048155.451621-.451621 1.066165-.7022181 1.704815-.695352.638815-.0074189 1.253682.2430007 1.705425.694743.451742.4517423.702161 1.0666094.694742 1.7054245v52.8c0 11.613-9.980167 25.628-22.458167 25.628z"/><g transform="translate(51.233 90.139)"><path d="m15.838 4.8h-13.438c-.63848482.00648258-1.25270795-.24429162-1.70420817-.69579183-.45150021-.45150022-.70227441-1.06572335-.69591446-1.70420817-.00635995-.63848482.24441425-1.25270795.69591446-1.70420817.45150022-.45150021 1.06572335-.70227441 1.70420817-.69579183h13.438c.6384848-.00648258 1.252708.24429162 1.7042082.69579183.4515002.45150022.7022744 1.06572335.6959144 1.70420817.00636.63848482-.2444142 1.25270795-.6959144 1.70420817-.4515002.45150021-1.0657234.70227441-1.7042082.69579183z"/><path d="m48.479 4.8h-24c-.6384848.00648258-1.252708-.24429162-1.7042082-.69579183-.4515002-.45150022-.7022744-1.06572335-.6959144-1.70420817-.00636-.63848482.2444142-1.25270795.6959144-1.70420817.4515002-.45150021 1.0657234-.70227441 1.7042082-.69579183h24c.6384848-.00648258 1.252708.24429162 1.7042082.69579183.4515002.45150022.7022744 1.06572335.6959144 1.70420817.00636.63848482-.2444142 1.25270795-.6959144 1.70420817-.4515002.45150021-1.0657234.70227441-1.7042082.69579183z"/></g><g transform="translate(51.233 45.022)"><path d="m22.557 4.8h-20.157c-.63848482.00648258-1.25270795-.24429162-1.70420817-.69579183-.45150021-.45150022-.70227441-1.06572335-.69591446-1.70420817-.00608506-.63840238.24477745-1.2524652.69621744-1.70390519s1.06550281-.7023025 1.70390519-.69609481h20.157c.6384848-.00648258 1.252708.24429162 1.7042082.69579183.4515002.45150022.7022744 1.06572335.6959144 1.70420817.00636.63848482-.2444142 1.25270795-.6959144 1.70420817-.4515002.45150021-1.0657234.70227441-1.7042082.69579183z"/><path d="m84.956 4.8h-49.918c-.6384848.00648258-1.252708-.24429162-1.7042082-.69579183-.4515002-.45150022-.7022744-1.06572335-.6959144-1.70420817-.0060851-.63840238.2447774-1.2524652.6962174-1.70390519s1.0655028-.7023025 1.7039052-.69609481h49.919c.6384024-.00620769 1.2524652.24465482 1.7039052.69609481s.7023025 1.06550281.6962175 1.70390519c.0063644.63866005-.2445462 1.25303837-.6962644 1.70456844s-1.066201.70218476-1.7048583.69543156z"/></g><path d="m117.943 72.381h-64.314c-.6385673.0067579-1.252951-.2439279-1.7045116-.6954884-.4515605-.4515606-.7022463-1.0659443-.6956216-1.7045116-.0063494-.6384848.2444248-1.252708.695925-1.7042082s1.0657234-.7022744 1.7042082-.6957918h64.316c.638485-.0064826 1.252708.2442916 1.704208.6957918s.702275 1.0657234.695915 1.7042082c.006369.6388353-.244678 1.253369-.696615 1.7049289-.451936.45156-1.066678.7020951-1.705508.6950711z"/><path d="m98.744 117.498h-45.115c-.6384848.006483-1.252708-.244292-1.7042082-.695792s-.7022744-1.065723-.695925-1.704208c-.0066247-.638567.2440611-1.252951.6956216-1.704512.4515606-.45156 1.0659443-.702246 1.7045116-.695488h45.117c.6387324-.00731 1.2534382.243199 1.70512.69488.451681.451682.70219 1.066388.695036 1.70512.007164.639083-.243617 1.254101-.695735 1.705842-.452118.451742-1.0673439.702011-1.706421.694158z"/><path d="m182.268 59.901c-.641886.0098849-1.262266-.2312345-1.729-.672l-11.521-11.519c-.462169-.4365634-.724078-1.0442421-.724078-1.68s.261909-1.2434366.724078-1.68c.438058-.4598324 1.045409-.720075 1.6805-.720075s1.242442.2602426 1.6805.720075l11.518 11.519c.462169.4365634.724078 1.0442421.724078 1.68s-.261909 1.2434366-.724078 1.68c-.406777.4681708-1.010446.7171983-1.629.672z"/><path d="m169.783 83.9c-.642078.0092989-1.262557-.2317195-1.73-.672-.457937-.4388929-.716867-1.0457024-.716867-1.68s.25893-1.2411071.716867-1.68l21.123-21.119c.437708-.4597222 1.04473-.719925 1.6795-.719925s1.241792.2602028 1.6795.719925c.458724.4384619.718205 1.0454323.718205 1.68s-.259481 1.2415381-.718205 1.68l-21.123 21.119c-.406492.4685664-1.010369.7176794-1.629.672z"/><path d="m112.858 118.837c-.657179-.00846-1.282136-.286058-1.729-.768-.681669-.680867-.872726-1.712319-.479-2.592l8.443-21.407c.105433-.3118594.308888-.5812624.58-.768l57.594-57.6c.955417-.8636584 2.409583-.8636584 3.365 0l12.57 12.575c.460306.4375919.720901 1.044887.720901 1.68s-.260595 1.2424081-.720901 1.68l-59.42 59.421c-.240613.255479-.536498.452508-.865.576l-19.295 7.008c-.24489.098599-.501812.164174-.764.195zm10.459-22.463-6.33 16.031 13.824-4.992 57.3-57.309-9.215-9.216z"/><path d="m160.185 33.982c-.642.0105243-1.262613-.2306856-1.729-.672l-28.8-28.8c-.462169-.43656343-.724078-1.04424211-.724078-1.68s.261909-1.24343657.724078-1.68c.436187-.45986851 1.042172-.72030695 1.676-.72030695s1.239813.26043844 1.676.72030695l28.8 28.8c.460306.4375919.720901 1.044887.720901 1.68s-.260595 1.2424081-.720901 1.68c-.405942.4657626-1.006624.7144739-1.623.672z"/></g></svg>