<svg height="74" viewBox="0 0 74 74" width="74" xmlns="http://www.w3.org/2000/svg"><path d="m73.8030303 34.2171717v4.3434344c-.0303899.1158702-.050668.234159-.0606061.3535353-.0696445 1.4040951-.2384149 2.8015143-.5050505 4.1818182-2.0909091 10.5656566-7.6632996 18.7727273-16.7171717 24.6212121-4.4835448 2.8809834-9.558816 4.7142956-14.8484848 5.3636364-.8888889.1161616-1.7777778.1969697-2.6717172.2929293h-4.3434343c-.1032761-.0255252-.2077896-.0457537-.3131314-.0606061-2.762118-.1582875-5.4953624-.6466091-8.1414141-1.4545454-8.7910387-2.6206901-16.28936187-8.4245075-21.03030303-16.2777778-.07070707-.1161616-.2020202-.2222222-.15151515-.3888889.03030303 0 .06060606-.0252525.08080808 0 .1010101.030303.2020202.0656566.3030303.1060606 1.12159133.4762193 2.28707237.841595 3.47979798 1.0909091 1.01010101.1868687 2.06060602.3737374 3.09595962.5050505 1.3388788.2065915 2.7015252.2065915 4.040404 0 1.9751282-.3791148 3.9960293-.4591336 5.9949495-.2373737l.6010101.050505c.2166633.0438051.4399024.0438051.6565657 0-.0510871-.0350077-.1051698-.0654292-.1616162-.0909091-2.114976-.7539425-4.3590914-1.078455-6.6010101-.9545454-.4269765.0329018-.8558517.0329018-1.2828283 0-1.8546197-.1692255-3.6149337-.8944749-5.050505-2.0808081-2.19073104-1.7167959-4.10376173-3.7609961-5.67171719-6.0606061-1.73737374-2.5252525-2.6969697-5.3383838-3.3989899-8.2777778-.30808081-1.2929293-.50505051-2.6060606-.71212122-3.9090909v-.5555555c.0909091.1969697.1919192.3838384.26767677.5808081.5290774 1.4239327 1.28833204 2.7513487 2.24747475 3.9292929 1.05050505 1.2424242 2.32828283 2.020202 4.04040404 1.9949495.13396931.0009278.26755435.0144554.3989899.040404 1.91825202.3090579 3.78662585.8729671 5.55555555 1.6767677.9090909.3838384 1.8030303.8030303 2.7525253 1.2272727-.1053117-.1425591-.2440663-.2570317-.4040404-.3333333-3.1363331-2.0419191-5.9921932-4.4851906-8.49494954-7.2676768-2.16514516-2.4080303-3.32231692-5.5558991-3.23232323-8.7929293.03772042-2.829756.44175397-5.6427123 1.2020202-8.3686868.01773567-.1610443.11165599-.3038031.25252525-.3838384.97474747 9.2020202 5.87878792 15.5151515 14.14141412 19.4747475-.0212133-.1371476-.0979264-.2595233-.2121212-.3383839-1.9646056-1.9105199-3.7702452-3.9779688-5.3989899-6.1818182-2.8787879-3.8989899-4.32323231-8.2222222-3.88383837-13.0959596.31995787-3.4861144 1.46422007-6.8461946 3.33838387-9.80303026.0454545-.06565657.070707-.18181819.2272727-.13131313v.35353535c-.0857669 1.85317104-.0334337 3.71015604.1565656 5.55555554.1550869 1.9800639.6684665 3.9155051 1.5151516 5.7121212 1.5203283 2.7477649 3.4440718 5.2520364 5.7070707 7.429293.0403505.0349679.0843797.0654497.1313131.090909.0353535-.1616161-.0606061-.2525252-.1161616-.3535353-1.4299147-2.5530593-2.6331773-5.2266006-3.5959596-7.989899-.7872428-2.1637442-1.030069-4.4879373-.7070707-6.7676768.5640859-3.47267962 2.0738535-6.72287378 4.3636363-9.39393936.1717172-.21717172.3585859-.41414141.5505051-.63131313.0615239.07861991.0615239.18905686 0 .26767677-.7753939 1.72933827-1.2125548 3.59112917-1.2878788 5.48484848-.1790377 3.31329604.229619 6.63213564 1.2070707 9.80303034.3733454 1.4770268 1.0625877 2.8555116 2.020202 4.040404.1040105.1751569.2669113.3076257.459596.3737374.0036641-.0639206.0036641-.1279986 0-.1919192-.491002-2.7046019-.6706236-5.456541-.5353535-8.2020202.1144189-2.4814708.6613569-4.92389092 1.6161616-7.21717173.6933966-1.73797092 1.7931177-3.28450781 3.2070707-4.51010101 1.4001111-1.20108106 3.0570802-2.06498569 4.8434343-2.52525253h.7272728c-.4857015.25811975-.9516219.55185221-1.3939394.87878788-1.6957832 1.3514487-3.0071506 3.12431981-3.8030303 5.14141414-.9012164 2.24241017-1.403721 4.62503395-1.4848485 7.04040405-.1916284 3.0414105-.0067259 6.0948462.550505 9.0909091 1.0687771 5.4388528 3.8850161 10.3796853 8.020202 14.0707071 2.5011051 2.4428694 6.0703768 3.4507085 9.479798 2.6767676 1.3475567-.2076868 2.6018951-.8146247 3.6010101-1.7424242.3181818-.3232323.6565657-.7171717.459596-1.2020202s-.7272727-.4090909-1.1616162-.469697c-.2676767-.040404-.6868687.2121212-.7676767-.030303-.0808081-.2424243.3030303-.5050505.5050505-.7020202 1.6329417-1.6400014 3.3543683-3.189454 5.1565656-4.6414142 1.0653243-.9277326 1.8989629-2.0917135 2.4343435-3.3989899.1868686-.3989899.0454545-.5858585-.3636364-.5050505-.3232323.0707071-.3383839-.0555555-.2979798-.3131313.060606-.4090909.1111111-.8181818.1515151-1.2323232.1004298-.558756.0281978-1.1348497-.2070707-1.6515152-.7542421-1.4708934-2.1726738-2.4867464-3.8080808-2.7272727-1.008635-.0979118-2.0250585-.0826655-3.030303.0454546-1.3787879.070707-2.7525253.1818181-4.1262626.2676767-.429293.0252526-.5050505-.0454545-.3787879-.4141414.4876314-1.8627248 1.4539472-3.5655298 2.8030303-4.9393939.4646465-.4444445.9141414-.9090909 1.3535353-1.3737374.2266501-.1922611.3917496-.4469359.4747475-.7323232.2743961-1.5442324 1.2399672-2.8781716 2.6212121-3.62121215 1.370165-.77259974 2.8954179-1.22983054 4.4646465-1.33838384 4.2323232-.43939394 7.6111111 1.26767677 10.520202 4.16161619 4.4688123 5.3338534 7.3276064 11.8292017 8.2424243 18.7272727.1515151.9545455.2272727 1.8888889.3333333 2.8181818z" fill="#1aa2a0"/></svg>