<svg height="116" viewBox="0 0 100 116" width="100" xmlns="http://www.w3.org/2000/svg" xmlns:xlink="http://www.w3.org/1999/xlink"><linearGradient id="a" x1="2.5809%" x2="54.775422%" y1="9.680542%" y2="81.60697%"><stop offset="0" stop-color="#8a66cc"/><stop offset=".92" stop-color="#9f83d2"/></linearGradient><linearGradient id="b" x1="0%" x2="100%" y1="49.951597%" y2="49.951597%"><stop offset="0" stop-color="#280864"/><stop offset=".84" stop-color="#4810af"/></linearGradient><linearGradient id="c" x1="47.402841%" x2="62.231782%" y1="91.771539%" y2="-5.130687%"><stop offset=".22" stop-color="#9f83d2"/><stop offset="1" stop-color="#8a66cc"/></linearGradient><linearGradient id="d" x1="12.55064%" x2="50%" y1="100%" y2="24.975799%"><stop offset=".21" stop-color="#9d80d1"/><stop offset=".95" stop-color="#8a66cc"/></linearGradient><g fill="none"><path d="m74.6111111 43.6944444.5.2777778 24.5833333-14.3333333-.0555555-.1388889z" fill="#8a66cc"/><path d="m.36111111 58.1944444 24.83333329-14.3333333v28.6666667z" fill="#4106ac"/><path d="m.38888889 86.8611111 24.83333331-14.3333333v28.6944442z" fill="#4106ac"/><path d="m25.2222222 72.5277778-24.83333331 14.3333333v-28.6666667z" fill="#521cb3"/><path d="m25.2222222 101.222222 24.8333334-14.3611109v28.6944449z" fill="#a58ad8"/><path d="m50.0555556 86.8611111-24.8333334 14.3611109v-28.6944442z" fill="url(#a)"/><path d="m25.1944444 15.1666667 24.8333334-14.33333337v28.66666667z" fill="#7045c4"/><path d="m.36111111 29.5 24.83333329-14.3333333v28.6944444z" fill="#7045c4"/><path d="m50.0277778 29.5-24.8333334 14.3611111v-28.6944444z" fill="#a678ef"/><path d="m50.0277778 29.5 24.8333333-14.3333333v28.6944444z" fill="url(#b)"/><path d="m74.8611111 15.1666667-24.8333333 14.3333333v-28.66666667z" fill="#9473d0"/><path d="m74.8888889 43.8611111 24.8333333-14.3611111v28.6944444z" fill="#8a66cc"/><path d="m99.6944444 29.5-24.8333333 14.3333333v-28.6666666z" fill="#4e18b2"/><path d="m50.0555556 86.8611111 24.8333333-14.3333333v28.6944442z" fill="url(#c)"/><path d="m99.7222222 86.8611111-24.8333333 14.3611109v-28.6944442z" fill="url(#d)"/><path d="m50.0555556 58.1944444 24.8333333-14.3333333v28.6666667z" fill="#a68ad8"/><path d="m99.7222222 58.1944444-24.8333333 14.3333334v-28.6666667z" fill="#916ecf"/><path d="m74.8888889 101.222222-24.8333333 14.333334v-28.6944449z" fill="#a88cd8"/><path d="m25.1944444 43.8611111-24.83333329 14.3333333v-28.6944444z" fill="#306"/><path d="m25.1944444 15.1666667 24.8333334-14.33333337v28.66666667z" fill="#916fcf"/><path d="m25.1944444 43.8611111-24.83333329 14.3333333v-28.6944444z" fill="#521cb3"/><path d="m50.0277778 29.5-24.8333334 14.3611111v-28.6944444z" fill="#9a7bd3"/><path d="m.36111111 29.5 24.83333329-14.3333333v28.6944444z" fill="#916fcf"/></g></svg>