<svg height="1074" viewBox="0 0 1074 1074" width="1074" xmlns="http://www.w3.org/2000/svg"><g fill="none" fill-rule="evenodd" transform="translate(25 25)"><rect height="1023.51129" rx="511.255881" stroke="#d7d7d7" stroke-width="49.927332" width="1023.51129"/><path d="m672.803745 289.861595c12.987548 0 23.526017 11.020863 23.735486 23.970377l.00318.392991v173.667075c0 .276011.223751.499762.499761.499762h36.607521c13.248506 0 23.988545 10.740037 23.988545 23.988545s-10.740039 23.988545-23.988545 23.988545h-36.607521c-.27601 0-.499761.223751-.499761.499762v172.167793c0 12.987548-9.184053 22.913746-22.096831 23.110972l-.392432.002991h-2.498806c-10.453993 0-17.881324-6.053322-25.261364-14.584725l-.351406-.408116-141.223429-180.596769c-.094718-.121126-.239922-.191908-.393684-.191908h-129.003669c-.276011 0-.499762.223751-.499762.499762v172.167793c0 12.987548-10.408592 24.138286-23.952009 24.363366h-.411358c-12.987549 0-23.526016-11.020862-23.735487-23.970376l-.003177-.39299v-172.167793c0-.276011-.223751-.499762-.499762-.499762h-36.35764c-13.248509 0-23.988546-10.740037-23.988546-23.988545s10.740037-23.988545 23.988546-23.988545h36.35764c.276011 0 .499762-.223751.499762-.499762v-172.417673c0-12.987548 11.020861-24.138286 23.970375-24.360002l.392991-.003364h6.871719c10.898642 0 17.689334 5.281649 24.353629 13.569776l.634439.798363 143.277446 182.721278c.094735.120816.239744.191384.393274.191384h121.327748c.27601 0 .499761-.223751.499761-.499762v-173.667075c0-12.98755 10.408591-24.138288 23.952008-24.363368zm-24.863127 246.507295h-82.922955c-.276011 0-.499762.223751-.499762.499762 0 .11181.037495.220392.106488.308378l82.922954 105.75155c.170313.217199.484452.255208.701651.084895.120817-.094735.191385-.239744.191385-.393274v-105.751549c0-.276011-.223751-.499762-.499761-.499762zm-273.11959-164.470382v115.99353c0 .276011.223751.499762.499762.499762h90.704974c.276011 0 .499761-.223751.499761-.499762 0-.111583-.037342-.219957-.106077-.307854l-90.704974-115.99353c-.170024-.217425-.484113-.255854-.70154-.08583-.121124.094719-.191906.239922-.191906.393684z" fill="#d2d2d2" fill-rule="nonzero"/></g></svg>