<svg height="1024" viewBox="0 0 2048 1024" width="2048" xmlns="http://www.w3.org/2000/svg"><g fill="none" fill-rule="evenodd"><path d="m0 0h2048v1024h-2048z" fill="#f0f0f0"/><g transform="translate(724 212)"><rect height="599.127987" rx="299.563993" stroke="#e1e1e1" stroke-width="29.254296" width="599.127987"/><path d="m393.835963 169.674918c7.60246 0 13.771314 6.451231 13.89393 14.031427l.001861.230043v101.658679c0 .161567.130976.292543.292543.292543h21.428772c7.755216 0 14.042062 6.286845 14.042062 14.042062s-6.286846 14.042062-14.042062 14.042062h-21.428772c-.161567 0-.292543.130976-.292543.292543v100.781051c0 7.60246-5.376026 13.412912-12.934718 13.528361l-.229716.001751h-1.462714c-6.119405 0-10.467107-3.543405-14.787126-8.537392l-.205701-.238897-82.667294-105.715081c-.055445-.070903-.140442-.112336-.230449-.112336h-75.514271c-.161567 0-.292543.130976-.292543.292543v100.781051c0 7.60246-6.092829 14.129715-14.020675 14.261469h-.240795c-7.60246 0-13.771313-6.45123-13.89393-14.031426l-.00186-.230043v-100.781051c0-.161567-.130976-.292543-.292543-.292543h-21.282501c-7.755217 0-14.042062-6.286845-14.042062-14.042062s6.286845-14.042062 14.042062-14.042062h21.282501c.161567 0 .292543-.130976.292543-.292543v-100.927322c0-7.60246 6.45123-14.129715 14.031426-14.2595l.230043-.001969h4.022466c6.379687 0 10.354722 3.091694 14.255769 7.943276l.371379.467334 83.869644 106.958695c.055455.070721.140338.112029.230209.112029h71.021053c.161567 0 .292543-.130976.292543-.292543v-101.658679c0-7.602461 6.092828-14.129716 14.020674-14.26147zm-14.554012 144.296816h-48.54022c-.161567 0-.292543.130976-.292543.292543 0 .06545.021948.12901.062334.180514l48.54022 61.903287c.099695.127141.283581.14939.410722.049695.070722-.055455.11203-.140338.11203-.230209v-61.903287c0-.161567-.130976-.292543-.292543-.292543zm-159.874729-96.275254v67.898587c0 .161567.130976.292543.292543.292543h53.095544c.161567 0 .292543-.130976.292543-.292543 0-.065317-.021859-.128755-.062094-.180207l-53.095544-67.898587c-.099526-.127273-.283383-.149768-.410657-.050242-.070902.055445-.112335.140442-.112335.230449z" fill="#d7d7d7" fill-rule="nonzero"/></g></g></svg>