<svg height="100" viewBox="0 0 98 100" width="98" xmlns="http://www.w3.org/2000/svg"><g fill="#5364c2"><path d="m80.5825 40.189625c6.1254167 8.1749583-11.8129167 23.9774583-7.7820833 17.4507917h-38.2096667c-4.13375-5.4054167-6.9752917-11.3170834-8.3415833-17.4507917z"/><path d="m69.5083333 87.2941667c-5.43 4.3291666-11.3004166 8.0745833-17.5145833 11.175l-3.0391667 1.5308333-3.0575-1.5245833c-28.746875-14.4258334-45.8970833-39.27375-45.8970833-66.5042084v-31.9712083h17.5329167v31.9712083c-.003125 2.03925.134375 4.0763334.4115416 6.0967084 2.2077917 16.5433333 13.3744584 31.8045833 30.9442917 42.0804166.0166667.0154167.0354167.02875.0558333.03875.0183334-.01.02875-.0204166.0470834-.02875l.0741666-.0470833c6.3504167 3.5516667 13.2658334 5.9816667 20.4425 7.1829167z"/><path d="m97.36625 40.189625c-.81125 6.319125-2.5445833 12.4857917-5.14375 18.3024583-4.8066667 10.8004167-12.5308333 20.6295834-22.7058333 28.8066667-7.1729167-1.2025-14.085-3.6325-20.4320834-7.1833333 2.2929167-1.3516667 4.5158334-2.8183334 6.6604167-4.395.21375-.1383334.4195833-.2879167.6170833-.4483334 11.8766667-8.5525 20.4329167-20.9458333 24.2204167-35.0824583z"/><path d="m97.9095833.00712075h-80.3767083v17.52471255h80.3767083z"/><path d="m97.9095833 17.5313333v14.4403334c0 .5967083-.0183333 1.1954583-.0370833 1.7942083h-17.5429167c.0175-.5994167.0266667-1.1975.0266667-1.7942083v-14.4403334z"/></g></svg>