<svg height="187" viewBox="0 0 188 187" width="188" xmlns="http://www.w3.org/2000/svg"><g fill="none" fill-rule="evenodd" transform="translate(2.106 2.834)"><circle cx="117.208" cy="154.76" r="29.247"/><g stroke="#686868"><circle cx="117.208" cy="154.76" r="27.247" stroke-width="4"/><path d="m117.3 136.2v26.998" stroke-width="8"/><path d="m117.3 166.572v6.749" stroke-width="8"/><path d="m136.759 120.893c7.03-5.491 10.234-12.979 11.9-21.466 1.706-8.9 2.413-17.8-1.04-26.374-1.414-3.536-3.869-6.656-5.741-10.067-.550003-.8968718-.75674-1.9625282-.582-3 2.122-7.155 1.331-14.144-1.082-21.008-.440075-.8469667-1.256918-1.43398-2.2-1.581-4.031228-.1053745-8.023645.8103426-11.606 2.662-3.37 1.747-6.614 3.786-10.026 5.491-1.112496.6224421-2.400567.8567648-3.661.666-8.776577-2.1150943-17.8320609-2.8312443-26.832-2.122-4.618.374-9.194 1.165-13.77 1.955-1.8529355.499621-3.8305345.1977197-5.45-.832-4.826-2.954-9.61-6.115-15.309-7.28-1.8887321-.3947615-3.8115608-.6037574-5.741-.624-.8936114.1157873-1.6731713.6635356-2.085 1.465-2.371 6.861-3.24 13.85-1.165 21.005.2603526 1.0259138.0790083 2.1139797-.5 3-7.738 9.443-9.443 20.259-7.7 31.824.7068751 4.9314516 1.9072317 9.779445 3.583 14.471 2.787 7.4 8.486 12.314 15.392 15.933 5.9307366 3.187755 12.4349433 5.167296 19.136 5.824.5457954.065844 1.0873552.163004 1.622.291-1.29 2.621-2.538 5.158-3.744 7.654-.1218257.253512-.2192644.518037-.291.79-1.165 4.035-1.955 4.742-6.24 5.034-2.4701309.297646-4.9591606.40896-7.446.333-5.907-.582-9.485-4.659-12.813-9.069-1.6635342-2.285045-3.5142474-4.427765-5.533-6.406-2.8961697-2.712349-6.9312603-3.845353-10.816-3.037-.79.125-1.872.749-2.038 1.331-.166.624.5 1.581 1 2.288.4266466.550765.9655733 1.004473 1.581 1.331 5.491 3.162 8.278 8.362 10.733 13.894 2.954 6.614 7.946 10.65 15.226 11.232 4.451.333 8.986-.083 13.478-.125h1.914v9.4c0 2-.125 4.035.042 6.032.291 3.7-2.5 6.157-6.7 4.659-25.876-9.439-44.761-26.62-54.661-52.37-11.814-30.826-7.946-60.237 11.19-87.4 10.315-14.603 24.293-24.629 40.849-30.869 13.728-5.2 28.039-6.614 42.723-5.075 17.291874 1.72044452 33.682539 8.54040369 47.091 19.594 14.477522 11.5669765 24.859806 27.4756825 29.619 45.385 3.619 13.478 4.618 27 2.08 40.726-3.567086 20.395062-14.056407 38.93679-29.7 52.5" stroke-linecap="round" stroke-width="5"/></g></g></svg>