<svg height="205" viewBox="0 0 213 205" width="213" xmlns="http://www.w3.org/2000/svg"><g fill="none" fill-rule="evenodd"><g stroke="#686868" stroke-linecap="round" stroke-width="6"><g transform="translate(3 3.072)"><path d="m38.607 19.123 21.621 9.528s3.3 9.894 5.13 13.925c1.6619953 3.3903738 3.4977677 6.6927614 5.5 9.894"/><path d="m48.199 0c17.956.733 37.377 8.795 39.576 10.261s7.7 13.924 7.7 13.924"/><path d="m0 88.681 35.544 3.664 13.559-17.222h16.124"/><path d="m11.786 181.046 38.294-15.391v-20.521l16.074-11.361"/><path d="m106.829 69.258s-20.155-.367-29.316 1.832-10.627 6.6-10.627 6.6v92.706c0 16.127 24.93 28.532 39.943 27.85"/><path d="m105.363 21.986s-7.328-2.565-15.757 6.6-21.254 22.353-18.689 28.949 8.429 12.825 8.429 12.825"/></g><g transform="translate(103.04 3.072)"><path d="m68.224 19.123-21.621 9.528s-3.3 9.894-5.129 13.925c-1.6622232 3.3902547-3.4979891 6.6926307-5.5 9.894"/><path d="m58.632 0c-17.956.733-37.378 8.795-39.576 10.261s-7.7 13.924-7.7 13.924"/><path d="m106.832 88.681-35.546 3.664-13.559-17.222h-16.124"/><path d="m0 69.258s20.155-.367 29.316 1.832 10.628 6.6 10.628 6.6v4.108"/><path d="m1.466 21.986s7.329-2.565 15.758 6.6 21.254 22.353 18.689 28.949-8.428 12.825-8.428 12.825"/></g></g><circle cx="133.391" cy="139.959" r="51.82"/><g stroke="#686868" transform="translate(3 3)"><circle cx="130.391" cy="136.959" r="44.32" stroke-width="7"/><path d="m161.893 171.401 20.154 19.953" stroke-linecap="round" stroke-width="7"/><path d="m134.236 183.645c-8 9.079-23.6 15.156-34.228 14.674" stroke-linecap="round" stroke-width="6"/><g stroke-linejoin="round" stroke-width="4"><path d="m114.339 120.42h40.816"/><path d="m101.971 135.439h53.185"/><path d="m121.935 150.658h13.959"/><path d="m141.26 150.658h13.959"/><path d="m102.61 150.658h13.959"/></g></g></g></svg>