<svg height="1024" viewBox="0 0 966 1024" width="966" xmlns="http://www.w3.org/2000/svg" xmlns:xlink="http://www.w3.org/1999/xlink"><linearGradient id="a" x1="76.976119%" x2="23.493911%" y1="17.743928%" y2="81.97411%"><stop offset="0" stop-color="#0a87f5"/><stop offset="1" stop-color="#dc1eb9"/></linearGradient><g fill="none"><path d="m351.336988 506.587082c43.519859-168.666518 89.854435-336.683486 131.425644-505.78303817 46.190232 171.76992417 89.132713 344.47808817 135.467289 516.17584017 7.650257 29.01324 35.003535 53.046595 66.181942 48.932777 58.964718-4.330334 109.629628-39.117352 159.933677-66.903664-107.608805 108.907906-215.939333 217.382779-324.702895 325.208101-6.423329-175.017675-15.80572-349.963178-21.796015-525.053026-6.062468-92.019602-5.557263-184.472238-14.578792-276.3474958-9.67108 125.4353478-11.403214 251.4480748-18.403921 377.0999398-5.196401 141.457585-13.496208 282.842997-18.476093 424.300582-108.907905-107.608806-216.877572-216.228023-323.909-325.641134 51.964011 28.652378 104.505399 65.676736 165.923973 67.264525 33.343574 1.371272 56.871723-29.229756 62.934191-59.253407z" fill="url(#a)"/><path d="m103.569698 244.313172c79.028599-102.556749 201.360542-169.4604128 330.04364-182.8122767-7.43374 27.6419669-15.083997 55.2839337-21.435154 83.2145897-99.66986 19.630848-192.26684 75.49216-252.169797 158.057199-60.0473012 80.688562-88.0501292 184.760928-75.5643322 284.647304 13.063175 115.331235 79.4616332 223.084385 176.2446032 287.028987 95.123009 64.666325 218.681879 84.080657 329.321919 53.118767 102.340232-27.930656 191.905978-98.587276 243.436956-191.256429 52.830077-93.318702 65.82108-208.361249 34.065296-310.917998-41.066003-142.107135-167.006557-253.613241-312.289271-280.02828-7.000707-28.002828-14.50662-55.9334839-21.507327-83.9363119 108.04184 11.5475579 211.969861 59.9029569 288.905466 136.7663899 77.7295 76.286054 128.105721 179.853215 139.653279 288.111571 14.001414 115.83644-16.599615 236.364076-83.936312 331.63143-72.172237 103.278471-186.060027 176.677636-310.484964 197.824106-130.054372 23.09511-269.274617-9.02153-374.429567-89.349234-123.7032145-91.081363-195.44241834-244.230851-193.34942346-396.947305 5.41291779-102.412404 39.47821376-204.319603 103.49498846-285.152509z" fill="#e6e6e6"/></g></svg>