<svg height="1070" viewBox="0 0 1068 1070" width="1068" xmlns="http://www.w3.org/2000/svg"><g fill="none" fill-rule="evenodd" transform="translate(22 23)"><path d="m512 0c282.769792 0 512 229.230208 512 512s-229.230208 512-512 512-512-229.230208-512-512 229.230208-512 512-512z" stroke="#414141" stroke-dasharray="0 70" stroke-linecap="round" stroke-linejoin="round" stroke-width="45"/><path d="m673.125 290c12.99375 0 23.53725 11.026125 23.746821 23.981822l.003179.393178v173.75c0 .276142.223858.5.5.5h36.625c13.254834 0 24 10.745166 24 24s-10.745166 24-24 24h-36.625c-.276142 0-.5.223858-.5.5v172.25c0 12.99375-9.188438 22.924688-22.107381 23.122007l-.392619.002993h-2.5c-10.458984 0-17.889862-6.056213-25.273426-14.591689l-.351574-.408311-141.29086-180.683001c-.094764-.121184-.240036-.191999-.393873-.191999h-129.065267c-.276142 0-.5.223858-.5.5v172.25c0 12.99375-10.413563 24.149813-23.963445 24.375h-.411555c-12.99375 0-23.53725-11.026125-23.746821-23.981822l-.003179-.393178v-172.25c0-.276142-.223858-.5-.5-.5h-36.375c-13.254834 0-24-10.745166-24-24s10.745166-24 24-24h36.375c.276142 0 .5-.223858.5-.5v-172.5c0-12.99375 11.026125-24.149812 23.981822-24.371634l.393178-.003366h6.875c10.903846 0 17.697781 5.284172 24.365257 13.576256l.634743.798744 143.345859 182.808525c.09478.120874.239859.191475.393461.191475h121.38568c.276142 0 .5-.223858.5-.5v-173.75c0-12.99375 10.413562-24.149812 23.963445-24.375zm-24.875 246.625h-82.962549c-.276143 0-.5.223858-.5.5 0 .111864.037512.220497.106538.308525l82.962549 105.802044c.170394.217303.484684.255331.701987.084937.120874-.094781.191475-.239859.191475-.393462v-105.802044c0-.276142-.223858-.5-.5-.5zm-273.25-164.548915v116.048915c0 .276142.223858.5.5.5h90.748285c.276142 0 .5-.223858.5-.5 0-.111636-.03736-.220061-.106128-.308001l-90.748285-116.048915c-.170104-.21753-.484344-.255976-.701873-.085871-.121184.094763-.191999.240036-.191999.393872z" fill="#414141" fill-rule="nonzero"/><g stroke="#414141" stroke-linecap="round" stroke-linejoin="round"><rect height="924" opacity=".95" rx="462" stroke-width="21.488372" width="924" x="51" y="50"/><rect height="849" opacity=".9" rx="424.5" stroke-width="19.744186" width="849" x="89" y="88"/></g></g></svg>