<svg height="1024" viewBox="0 0 1017 1024" width="1017" xmlns="http://www.w3.org/2000/svg" xmlns:xlink="http://www.w3.org/1999/xlink"><linearGradient id="a" x1="85.0995%" x2="15.512071%" y1="23.76691%" y2="76.003778%"><stop offset="0" stop-color="#0a87f5"/><stop offset="1" stop-color="#dc1eb9"/></linearGradient><g fill="none"><path d="m252.338688 82.516294h673.669852v405.723925h-673.669852z" fill="#0a87f5" transform="matrix(-.97175567 .23598924 -.23598924 -.97175567 1229.05261 423.657563)"/><path d="m72.244007 105.939916h664.085079v408.598974h-664.085079z" fill="#9b3fcc" transform="matrix(-.93318572 .3593945 -.3593945 -.93318572 893.059314 454.452022)"/><path d="m787.302843 380.836518-147.035158-380.836518-130.166325 49.9990037v437.3186723z" fill="#7154d8"/><path d="m896.757114 1023.51422h-777.10879c-65.8051889 0-119.648324-53.80944-119.648324-119.579612v-625.355001c0-65.767396 53.8403581-119.579607 119.648324-119.579607h777.10879c65.80519 0 119.648326 53.809436 119.648326 119.579607v625.355001c0 65.767396-53.843136 119.579612-119.648326 119.579612z" fill="#ebebeb"/><path d="m688.119411 343c14.525533 0 26.311966 12.324413 26.546242 26.805597l.003554.439473v194.208452c0 .308656.250248.558872.558944.558872h40.942581c14.817396 0 26.829268 12.010372 26.829268 26.825916s-12.011872 26.825915-26.829268 26.825915h-40.942581c-.308696 0-.558944.250217-.558944.558874v192.531831c0 14.523718-10.271627 25.623989-24.713536 25.844542l-.438903.003345h-2.794715c-11.691954 0-19.99883-6.76931-28.252814-16.309809l-.393019-.456389-157.947101-201.957788c-.105934-.135453-.268332-.214606-.440304-.214606h-144.280279c-.308695 0-.558943.250217-.558943.558874v192.531831c0 14.523718-11.641177 26.993368-26.788404 27.24507h-.460071c-14.525534 0-26.311967-12.324413-26.546243-26.805597l-.003554-.439473v-192.531831c0-.308657-.250248-.558874-.558943-.558874h-40.66311c-14.817396 0-26.829268-12.010371-26.829268-26.825915s12.011872-26.825916 26.829268-26.825916h40.66311c.308695 0 .558943-.250216.558943-.558872v-192.811269c0-14.523718 12.325952-26.993367 26.808948-27.241308l.439528-.003762h7.685468c12.189258 0 19.784104 5.906365 27.237583 15.174812l.709571.892794 160.244355 204.333585c.105952.135106.268135.21402.439844.21402h135.695374c.308695 0 .558943-.250216.558943-.558872v-194.208452c0-14.523718 11.641177-26.993367 26.788404-27.24507zm-27.807419 275.664225h-92.742687c-.308696 0-.558943.250217-.558943.558874 0 .125035.041934.24646.119097.344852l92.742687 118.259863c.190482.242889.541821.285395.784742.094937.135123-.105941.214047-.268101.214047-.439791v-118.259861c0-.308657-.250248-.558874-.558943-.558874zm-305.462399-183.92397v129.713267c0 .308656.250248.558872.558943.558872h101.446254c.308695 0 .558943-.250216.558943-.558872 0-.124781-.041764-.245974-.118638-.344268l-101.446254-129.713266c-.190157-.243143-.541442-.286116-.784615-.095982-.135469.105921-.214633.2683-.214633.440249z" fill="url(#a)"/></g></svg>