<svg height="1024" viewBox="0 0 1024 1024" width="1024" xmlns="http://www.w3.org/2000/svg"><g fill="none" fill-rule="evenodd" transform="translate(24 24)"><rect fill="#fff" fill-rule="nonzero" height="975.419535" rx="487.709767" width="975.419535"/><rect height="975.419535" rx="487.709767" stroke="#5f48ad" stroke-width="47.627907" width="975.419535"/><path d="m641.190698 276.24186c12.377302 0 22.420599 10.503026 22.620227 22.84408l.003028.374525v165.506977c0 .263041.213238.476279.47628.476279h34.887441c12.626 0 22.861396 10.235395 22.861396 22.861395s-10.235396 22.861396-22.861396 22.861396h-34.887441c-.263042 0-.47628.213237-.47628.476279v164.078139c0 12.377303-8.752521 21.837098-21.058565 22.025056l-.373993.002851h-2.381395c-9.96279 0-17.041134-5.768895-24.074408-13.899432l-.334894-.38894-134.587759-172.111063c-.090268-.115435-.228648-.18289-.375187-.18289h-122.942171c-.263041 0-.476279.213237-.476279.476279v164.078139c0 12.377303-9.919524 23.004101-22.826574 23.218605h-.39203c-12.377303 0-22.420599-10.503025-22.620228-22.84408l-.003028-.374525v-164.078139c0-.263042-.213238-.476279-.476279-.476279h-34.649303c-12.626 0-22.861395-10.235396-22.861395-22.861396s10.235395-22.861395 22.861395-22.861395h34.649303c.263041 0 .476279-.213238.476279-.476279v-164.316279c0-12.377303 10.503025-23.0041 22.84408-23.215399l.374525-.003206h6.548837c10.386547 0 16.858165 5.033481 23.209324 12.932173l.604629.76085 136.545265 174.135749c.090283.115139.22848.182391.374794.182391h115.626918c.263041 0 .476279-.213238.476279-.476279v-165.506977c0-12.377302 9.919523-23.0041 22.826575-23.218605zm-23.694884 234.924652h-79.026651c-.263043 0-.476279.213237-.476279.476279 0 .106557.035732.210036.101483.293888l79.026652 100.782598c.16231.206994.461689.243218.668683.080907.115139-.090284.182391-.228479.182391-.374795v-100.782598c0-.263042-.213238-.476279-.476279-.476279zm-260.286512-156.742409v110.543339c0 .263041.213238.476279.476279.476279h86.443018c.263041 0 .476279-.213238.476279-.476279 0-.10634-.035588-.209621-.101093-.293389l-86.443018-110.543339c-.162034-.20721-.461365-.243832-.668574-.081797-.115435.090268-.182891.228649-.182891.375186z" fill="#5f48ad" fill-rule="nonzero"/><rect height="880.163721" opacity=".95" rx="440.08186" stroke="#5f48ad" stroke-linecap="round" stroke-linejoin="round" stroke-width="20.468924" width="880.163721" x="47.627907" y="47.627907"/><path d="m842.41716 796.869523h123.832555v153.36186c0 34.195419-27.720859 61.916277-61.916276 61.916277s-61.916279-27.720858-61.916279-61.916277z" fill="#5f48ad" fill-rule="nonzero" transform="matrix(.7193398 -.69465837 .69465837 .7193398 -374.514062 882.062355)"/></g></svg>