<svg height="1024" viewBox="0 0 1024 1024" width="1024" xmlns="http://www.w3.org/2000/svg" xmlns:xlink="http://www.w3.org/1999/xlink"><linearGradient id="a" x1="85.0995%" x2="15.512071%" y1="17.743928%" y2="81.97411%"><stop offset="0" stop-color="#0a87f5"/><stop offset="1" stop-color="#dc1eb9"/></linearGradient><g fill="none" fill-rule="evenodd"><path d="m0 0h1024v1024h-1024z"/><path d="m803.666595 744.856249c8.84169 0 16.009295 7.167605 16.009295 16.009295v42.801051c0 8.84169-7.167605 16.009295-16.009295 16.009295h-43.892149c-8.84169 0-16.009295-7.167605-16.009295-16.009295v-42.801051c0-8.84169 7.167605-16.009295 16.009295-16.009295zm-586.006892-223.390072c44.208447 0 80.046474 35.838027 80.046474 80.046474v136.847504c0 44.208446-35.838027 80.046473-80.046474 80.046473h-137.6132294c-44.2084466 0-80.0464736-35.838027-80.0464736-80.046473v-136.847504c0-44.208447 35.838027-80.046474 80.0464736-80.046474zm214.65796-372.96255c8.841689 0 16.009295 7.167605 16.009295 16.009295v190.10222c0 8.841689 7.167605 16.009295 16.009294 16.009295h41.490756c8.841689 0 16.009295 7.167605 16.009295 16.009294v42.801052c0 8.841689 7.167605 16.009295 16.009294 16.009295h40.290059c8.841689 0 16.009295-7.167606 16.009295-16.009295v-42.801052c0-8.841689 7.167605-16.009294 16.009294-16.009294h43.89215c8.841689 0 16.009295 7.167605 16.009295 16.009294v42.801052c0 8.841689-7.167606 16.009295-16.009295 16.009295h-40.156648c-8.841689 0-16.009294 7.167605-16.009294 16.009295v42.801051c0 8.84169-7.167606 16.009295-16.009295 16.009295h-43.89215c-8.841689 0-16.009294 7.167605-16.009294 16.009295v115.282579c0 8.841689-7.167606 16.009294-16.009295 16.009294h-41.557461c-8.841689 0-16.009295 7.167606-16.009295 16.009295v116.485038c0 8.841689-7.167605 16.009295-16.009295 16.009295h-43.892149c-8.84169 0-16.009295-7.167606-16.009295-16.009295v-188.899762c0-8.841689 7.167605-16.009295 16.009295-16.009295h41.490755c8.84169 0 16.009295-7.167605 16.009295-16.009294v-42.801052c0-8.841689-7.167605-16.009295-16.009295-16.009295h-39.089361c-8.841689 0-16.009295-7.167605-16.009295-16.009295v-42.801051c0-8.84169 7.167606-16.009295 16.009295-16.009295h39.089361c8.84169 0 16.009295-7.167605 16.009295-16.009295v-42.801051c0-8.84169-7.167605-16.009295-16.009295-16.009295h-40.290058c-8.84169 0-16.009295 7.167605-16.009295 16.009295v42.801051c0 8.84169-7.167605 16.009295-16.009295 16.009295h-43.958855c-8.841689 0-16.009294-7.167605-16.009294-16.009295v-42.801051c0-8.84169 7.167605-16.009295 16.009294-16.009295h42.691453c8.841689 0 16.009295-7.167605 16.009295-16.009295v-190.169023c0-8.84169 7.167605-16.009295 16.009294-16.009295zm297.839587 300.547826c8.84169 0 16.009295 7.167606 16.009295 16.009295v40.396135c0 8.841689 7.167605 16.009294 16.009295 16.009294h40.290058c8.84169 0 16.009295 7.167606 16.009295 16.009295v42.801052c0 8.841689-7.167605 16.009295-16.009295 16.009295h-40.290058c-8.84169 0-16.009295 7.167605-16.009295 16.009294v42.801052c0 8.841689-7.167605 16.009295-16.009295 16.009295h-116.267503c-8.841689 0-16.009294 7.167605-16.009294 16.009295v41.598593c0 8.841689 7.167605 16.009294 16.009294 16.009294h43.89215c8.841689 0 16.009295 7.167606 16.009295 16.009295v39.26048c0 8.841689-7.167606 16.009294-16.009295 16.009294h-119.802889c-8.841689 0-16.009294-7.167605-16.009294-16.009294v-113.746105c0-8.841689 7.167605-16.009294 16.009294-16.009294h41.490756c8.841689 0 16.009294-7.167606 16.009294-16.009295v-41.865806c0-8.84169 7.167606-16.009295 16.009295-16.009295h42.758158c8.84169 0 16.009295-7.167606 16.009295-16.009295v-115.282579c0-8.841689 7.167605-16.009295 16.009295-16.009295zm-504.759721 144.562236h-153.0888811v152.712231h153.0888811zm577.001664-222.989252c8.841689 0 16.009295 7.167605 16.009295 16.009294v42.801052c0 8.841689-7.167606 16.009295-16.009295 16.009295h-43.89215c-8.841689 0-16.009295-7.167606-16.009295-16.009295v-42.801052c0-8.841689 7.167606-16.009294 16.009295-16.009294zm-593.010959 0c8.841689 0 16.009295 7.167605 16.009295 16.009294v42.801052c0 8.841689-7.167606 16.009295-16.009295 16.009295h-43.89215c-8.841689 0-16.009294-7.167606-16.009294-16.009295v-42.801052c0-8.841689 7.167605-16.009294 16.009294-16.009294zm-148.2860925 0c8.8416894 0 16.0092948 7.167605 16.0092948 16.009294v42.801052c0 8.841689-7.1676054 16.009295-16.0092948 16.009295h-43.8921497c-8.8416893 0-16.0092947-7.167606-16.0092947-16.009295v-42.801052c0-8.841689 7.1676054-16.009294 16.0092947-16.009294zm157.7582585-370.624437c44.208447 0 80.046474 35.838027 80.046474 80.0464736v136.8475034c0 44.208447-35.838027 80.046474-80.046474 80.046474h-137.6132293c-44.2084466 0-80.0464736-35.838027-80.0464736-80.046474v-136.8475034c0-44.2084466 35.838027-80.0464736 80.0464736-80.0464736zm519.501614 0c44.208447 0 80.046474 35.838027 80.046474 80.0464736v136.8475034c0 44.208447-35.838027 80.046474-80.046474 80.046474h-137.613229c-44.208447 0-80.046474-35.838027-80.046474-80.046474v-136.8475034c0-44.2084466 35.838027-80.0464736 80.046474-80.0464736zm-511.763788 72.1475111h-153.088881v152.7122319h153.088881zm519.568319 0h-153.088881v152.7122319h153.088881zm-313.782177-72.1475111c8.84169 0 16.009295 7.16760539 16.009295 16.0092947v42.8010517c0 8.8416894-7.167605 16.0092947-16.009295 16.0092947h-43.892149c-8.84169 0-16.009295-7.1676053-16.009295-16.0092947v-42.8010517c0-8.84168931 7.167605-16.0092947 16.009295-16.0092947z" fill="url(#a)" fill-rule="nonzero" transform="translate(102 102)"/></g></svg>