<svg height="1073" viewBox="0 0 1073 1073" width="1073" xmlns="http://www.w3.org/2000/svg" xmlns:xlink="http://www.w3.org/1999/xlink"><linearGradient id="a" x1="85.0995%" x2="15.512071%" y1="23.760352%" y2="76.010278%"><stop offset="0" stop-color="#0a87f5"/><stop offset="1" stop-color="#dc1eb9"/></linearGradient><g fill="none" fill-rule="evenodd" transform="translate(24 25)"><rect fill="#fff" fill-rule="nonzero" height="1023.00098" rx="511.500488" width="1023.00098" x=".999024"/><path d="m.98052526 511.875122 18.05371754 10.91727c21.5087307 13.013172 48.9849824 10.502932 67.7795363-6.192363l.6413094-.569679c18.3946335-16.340045 45.3101585-18.73217 66.2981685-5.892269l10.17173 6.222791c15.909451 9.732975 35.370614 11.73802 52.930337 5.453307l11.444939-4.096202c10.802684-3.866335 22.190669-5.842855 33.664402-5.842855h492.640167c13.864495 0 27.577208-2.885847 40.265687-8.473933l7.270934-3.202165c16.334319-7.193736 35.2973-4.857061 49.39665 6.086803l4.962987 3.852254c17.068596 13.248582 40.155009 15.723548 59.644069 6.39411l7.395903-3.54043c18.885543-9.040534 40.134218-11.91888 60.7443-8.228423l39.717158 7.111784c-33.763939 236.007477-165.065866 406.382762-393.905783 511.125858-385.471321 2.99707-118.096737-7.77541-441.011505-89.695407-126.2794249-189.896256-188.97793244-330.373073-188.10470674-421.430451z" fill="#0a87f5" fill-opacity=".35" fill-rule="nonzero"/><rect height="1023.00098" rx="511.500488" stroke="#e6e6e6" stroke-width="49.95122" width="1023.00098" x=".999024"/><path d="m673.467317 289.717073c12.981073 0 23.514287 11.015368 23.723653 23.958425l.003176.392795v173.580487c0 .275873.22364.499513.499513.499513h36.589268c13.241902 0 23.976585 10.734683 23.976585 23.976585 0 13.241903-10.734683 23.976585-23.976585 23.976585h-36.589268c-.275873 0-.499513.22364-.499513.499513v172.081951c0 12.981073-9.179473 22.902322-22.085812 23.099449l-.392236.00299h-2.497561c-10.448781 0-17.872409-6.050305-25.248769-14.577453l-.351231-.407913-141.153016-180.506725c-.094671-.121066-.239801-.191812-.393488-.191812h-128.93935c-.275873 0-.499512.22364-.499512.499513v172.081951c0 12.981073-10.403404 24.126252-23.940066 24.351219h-.411154c-12.981073 0-23.514287-11.015367-23.723653-23.958425l-.003176-.392794v-172.081951c0-.275873-.22364-.499513-.499512-.499513h-36.339512c-13.241903 0-23.976586-10.734682-23.976586-23.976585 0-13.241902 10.734683-23.976585 23.976586-23.976585h36.339512c.275872 0 .499512-.22364.499512-.499513v-172.331707c0-12.981073 11.015368-24.126251 23.958425-24.347857l.392794-.003362h6.868293c10.893208 0 17.680515 5.279016 24.341486 13.563011l.634124.797964 143.206009 182.630175c.094688.120757.239625.191289.393077.191289h121.267255c.275873 0 .499513-.22364.499513-.499513v-173.580487c0-12.981073 10.403402-24.126252 23.940066-24.35122zm-24.850732 246.38439h-82.88161c-.275873 0-.499512.22364-.499512.499513 0 .111754.037476.220281.106434.308224l82.88161 105.698822c.170228.217091.484211.255082.701302.084854.120756-.094688.191289-.239625.191289-.393078v-105.698822c0-.275873-.22364-.499513-.499513-.499513zm-272.983414-164.388379v115.935696c0 .275873.223639.499513.499512.499513h90.65975c.275873 0 .499512-.22364.499512-.499513 0-.111527-.037323-.219846-.106024-.3077l-90.65975-115.935697c-.169938-.217317-.483872-.255726-.701189-.085787-.121065.094671-.191811.239802-.191811.393488z" fill="url(#a)" fill-rule="nonzero"/></g></svg>