<svg height="100" viewBox="0 0 100 100" width="100" xmlns="http://www.w3.org/2000/svg"><g fill="none" fill-rule="evenodd"><path d="m17.8125 15.625c-1.5625-8.125 4.6875-15.625 12.8125-15.625 7.1875 0 13.125 5.9375 13.125 13.125v16.25c1.875 0 3.75-.3125 5.625-.3125s3.4375 0 5.3125.3125v-16.25c0-7.1875 5.9375-13.125 13.125-13.125 8.125 0 14.375 7.5 13.125 15.625l-3.4375 19.0625c12.1875 5.3125 21.5625 14.6875 21.5625 26.25v7.1875c0 9.6875-6.25 17.8125-15.3125 23.125-9.0625 5.625-20.9375 8.75-34.375 8.75s-25.3125-3.125-34.375-8.75c-8.75-5.3125-15-13.4375-15-23.125v-7.1875c0-11.5625 9.0625-20.9375 21.25-26.25zm55 21.5625 4.0625-22.5c.9375-5.625-3.125-10.9375-9.0625-10.9375-5 0-9.0625 4.0625-9.0625 9.0625v20.625c-1.25-.3125-2.8125-.3125-4.0625-.3125-1.875 0-3.4375-.3125-5.3125-.3125s-3.75 0-5.625.3125c-1.25 0-2.8125.3125-4.0625.3125v-20.3125c0-5-4.0625-9.0625-9.0625-9.0625-5.625 0-10 5.3125-8.75 10.9375l4.0625 22.5c-13.125 5-21.875 13.75-21.875 23.75v7.1875c0 15.3125 20.3125 27.8125 45.3125 27.8125s45.3125-12.5 45.3125-27.8125v-7.1875c.3125-10.3125-8.4375-19.0625-21.875-24.0625z" fill="#633001"/><path d="m95 68.125c0 15.3125-20.3125 27.8125-45.3125 27.8125s-45.3125-12.5-45.3125-27.8125v-7.1875h90.9375v7.1875z" fill="#fedc90" fill-rule="nonzero"/><path d="m21.875 15c-1.25-5.625 3.125-10.9375 8.75-10.9375 5 0 9.0625 4.0625 9.0625 9.0625v20.625c3.125-.3125 6.25-.625 9.6875-.625 3.125 0 6.25.3125 9.375.625v-20.625c0-5 4.0625-9.0625 9.0625-9.0625 5.625 0 10 5.3125 9.0625 10.9375l-4.0625 22.5c13.125 5 22.1875 13.75 22.1875 23.75 0 15.3125-20.3125 27.8125-45.3125 27.8125s-45.3125-12.5-45.3125-27.8125c0-10 8.75-18.75 21.875-23.75z" fill="#d1884f"/><g fill="#633001" fill-rule="nonzero"><path d="m36.875 59.0625c0 4.0625-2.1875 7.5-5 7.5s-5-3.4375-5-7.5 2.1875-7.5 5-7.5 5 3.4375 5 7.5z"/><path d="m71.5625 59.0625c0 4.0625-2.1875 7.5-5 7.5s-5-3.4375-5-7.5 2.1875-7.5 5-7.5 5 3.4375 5 7.5z"/></g></g></svg>