<svg height="200" viewBox="0 0 187 200" width="187" xmlns="http://www.w3.org/2000/svg"><g fill="none" fill-rule="evenodd" stroke="#686868" stroke-width="4"><g stroke-linecap="round" transform="translate(36.957 116.93)"><path d="m.27 13.475c0 3.773 3.5 6.737 7.546 6.737h99.443c4.311 0 7.546-2.964 7.546-6.737v-13.475h-114.805v13.475z"/><path d="m7.81337103 20.212v53.9c-.01691661 1.7920847.6872368 3.5158802 1.95449277 4.7831362 1.267256 1.267256 2.9910515 1.9714094 4.7831362 1.9544928h86.776c1.792085.0169166 3.51588-.6872368 4.783136-1.9544928s1.97141-2.9910515 1.954493-4.7831362v-53.9z"/></g><path d="m57.168 147.382v17.247"/><path d="m57.168 172.445v6.468"/><g stroke-linecap="round" transform="translate(60.132 4.013)"><path d="m34.5 0s-77.614 95.67 0 95.67 0-95.67 0-95.67z"/><path d="m34.495 0v112.647"/><path d="m8.085 42.041 26.41 16.439 26.68-16.439"/><path d="m.809 63.33 33.687 17.517 33.956-17.517"/><path d="m19.942 20.751 14.553 9.7 14.822-9.7"/></g><g transform="translate(126.427 23.955)"><path d="m0 76c46.622 31.8 57.941-76 57.941-76s-31.53 3.234-55.515 13.744"/><path d="m57.941.27-46.892 46.892"/><path d="m9.432 11.319 7.007 30.183 30.453 7.276" stroke-linecap="round"/><path d="m11.319 60.636 25.602 8.354"/><path d="m32.878 4.581 3.5 17.247 17.247 3.234" stroke-linecap="round"/></g><g transform="translate(3 23.955)"><path d="m57.94 76c-46.622 31.8-57.94-76-57.94-76s31.53 3.234 55.515 13.744"/><path d="m0 .27 46.892 46.892"/><path d="m48.778 11.319-7.276 30.183-30.453 7.276" stroke-linecap="round"/><path d="m46.891 60.636-25.871 8.354"/><path d="m25.063 4.581-3.234 17.247-17.517 3.234" stroke-linecap="round"/></g></g></svg>