<svg height="96" viewBox="0 0 95 96" width="95" xmlns="http://www.w3.org/2000/svg"><g fill="#686868" transform="translate(-.226 .348)"><path d="m25.77 34.668h-16.504c-2.40975196.1046329-4.75377019-.8015263-6.46652721-2.4998537-1.71275701-1.6983274-2.63871473-4.0345954-2.55447279-6.4451463-.025-5.519-.025-11.114 0-16.631-.03445652-2.37012354.87671394-4.65632652 2.532-6.353 1.71430745-1.64812398 4.01022-2.55240012 6.388-2.516 2.761-.013 5.561-.019 8.315-.019s5.556.006 8.315.019c2.3769142-.03601417 4.6705288.87495557 6.375 2.532 1.6505171 1.71306551 2.5564193 4.0094555 2.52 6.388.025 5.517.025 11.112 0 16.63.071703 2.3847372-.8458823 4.6929788-2.535274 6.3776356-1.6893916 1.6846568-4.0001995 2.5957602-6.384726 2.5173644zm-16.476-30.878c-3.03596723.0038566-5.4961434 2.46403277-5.5 5.5v16.554c.0033068 3.0361953 2.46380465 5.4966932 5.5 5.5h16.554c3.0361953-.0033068 5.4966932-2.4638047 5.5-5.5v-16.553c-.0038566-3.03596723-2.4640328-5.4961434-5.5-5.5z"/><path d="m25.77 94.784h-16.504c-2.40975196.1046329-4.75377019-.8015263-6.46652721-2.4998537-1.71275701-1.6983274-2.63871473-4.0345954-2.55447279-6.4451463-.025-5.519-.025-11.114 0-16.631-.03445652-2.3701235.87671394-4.6563265 2.532-6.353 1.71430745-1.648124 4.01022-2.5524001 6.388-2.516 2.761-.013 5.561-.019 8.315-.019s5.556.006 8.315.019c2.3769142-.0360142 4.6705288.8749556 6.375 2.532 1.6505171 1.7130655 2.5564193 4.0094555 2.52 6.388.025 5.517.025 11.112 0 16.63.071703 2.3847372-.8458823 4.6929788-2.535274 6.3776356-1.6893916 1.6846568-4.0001995 2.5957602-6.384726 2.5173644zm-16.476-30.878c-3.03596723.0038566-5.4961434 2.4640328-5.5 5.5v16.554c.0033068 3.0361953 2.46380465 5.4966932 5.5 5.5h16.554c3.0361953-.0033068 5.4966932-2.4638047 5.5-5.5v-16.553c-.0038566-3.0359672-2.4640328-5.4961434-5.5-5.5z"/><path d="m85.887 34.668h-16.504c-2.409752.1046329-4.7537702-.8015263-6.4665272-2.4998537s-2.6387147-4.0345954-2.5544728-6.4451463c-.025-5.519-.025-11.114 0-16.631-.0344565-2.37012354.8767139-4.65632652 2.532-6.353 1.7143075-1.64812398 4.01022-2.55240012 6.388-2.516 2.761-.013 5.561-.019 8.315-.019s5.556.006 8.315.019c2.3769142-.03601417 4.6705288.87495557 6.375 2.532 1.6505171 1.71306551 2.5564193 4.0094555 2.52 6.388.025 5.517.025 11.112 0 16.63.071703 2.3847372-.8458823 4.6929788-2.535274 6.3776356-1.6893916 1.6846568-4.0001995 2.5957602-6.384726 2.5173644zm-16.476-30.878c-3.0359672.0038566-5.4961434 2.46403277-5.5 5.5v16.554c.0033068 3.0361953 2.4638047 5.4966932 5.5 5.5h16.554c3.0361953-.0033068 5.4966932-2.4638047 5.5-5.5v-16.553c-.0038566-3.03596723-2.4640328-5.4961434-5.5-5.5z"/><path d="m86.269 77.755c0 2.671.025 5.266-.025 7.862-.0609913.2862916-.2734715.5164144-.554.6-2.621.05-5.266.025-7.962.025v-8.487z"/><path d="m51.773 17.357h-8.441v-8.441h8.441z"/><path d="m77.55 51.826v-8.491h8.794v8.492l.025-.025h-8.869z"/><path d="m51.875 86.322h-8.492v-8.794h8.492l-.025-.025v8.869z"/><path d="m51.875 68.936h-8.492v-8.517h8.492l-.025-.025v8.592z"/><path d="m26.173 43.31h8.416v8.416h-8.416z"/><path d="m60.441 51.826v-8.491h8.517v8.492l.05-.025h-8.592z"/><path d="m13.222 21.741v-8.542h8.542v3.452c0 1.386.05 2.772-.025 4.158-.025.328-.4.907-.655.907-2.571.05-5.162.025-7.862.025z"/><path d="m81.909 13.224v8.517c-2.7 0-5.317.025-7.962-.025-.2 0-.554-.4-.554-.6-.05-2.6-.025-5.191-.025-7.862 2.872-.03 5.643-.03 8.541-.03z"/><path d="m13.222 81.837v-8.517h6.929c1.638 0 1.638 0 1.638 1.613v6.9z"/><path d="m60.391 60.369h8.592v8.592h-8.592z"/></g></svg>