<svg height="100" viewBox="0 0 100 100" width="100" xmlns="http://www.w3.org/2000/svg"><g fill="none" fill-rule="evenodd"><path d="m0 0h100v100h-100z" fill="#fde937" fill-rule="nonzero"/><g transform="translate(18 34)"><path d="m63.1837867 14.9087289-11.0264889-14.23985779c-.2872889-.38215111-.8618667-.66887111-1.3411556-.66887111h-50.8161422v31.8139733h51.39072c.4792889 0 .8632889-.1911466 1.1505778-.57344l10.7377778-13.7514666c.4792888-.7645867.4807111-1.8157511-.0952889-2.5803378zm-39.1182223 11.2770844h-17.25809773v-20.73841774h16.87452443v5.25624884h-9.9713422v2.3893334h8.8207644v5.0651022h-8.8207644v2.6759111h10.3549155zm16.6826667 0-3.5470222-5.5429689-3.5484445 5.5429689h-7.9573333l7.4780445-10.4169244-7.2863289-10.22592001h7.8623289l3.5470222 5.25624891 3.4517333-5.25624891h7.5747556l-7.1907556 10.03477331 7.6700445 10.7036445h-8.0540445z" fill="#000" fill-rule="nonzero"/><path d="m6.77973333 26.1853867h17.25809777v-5.3518223h-10.3547733v-2.6760533h8.8207644v-5.0651022h-8.8207644v-2.3891911h9.9713422v-5.25639113h-16.87466667zm30.39303107-5.5429689 3.5484445 5.5429689v.0955733h8.0526222l-7.6700444-10.7037867 7.1907555-10.0347733h-7.5733333l-3.4517333 5.2563911-3.5484445-5.2563911h-7.8614755l7.2868977 10.22592-7.4786133 10.4170667h7.9579022z" fill="#fff"/></g></g></svg>