<svg height="99" viewBox="0 0 100 99" width="100" xmlns="http://www.w3.org/2000/svg"><g fill="#f24405"><path d="m25.4945055 49.5604396h.1098901l-12.5274725-12.4175825-12.41758244 12.4175825 12.41758244 12.5274725 12.5274725-12.5274725z"/><path d="m72.1978022 59.2307692-3.6263736-3.5164835-1.0989011-1.2087912-23.4065934-23.4065934 1.0989011-1.2087912 4.8351648-4.8351648.1098901-.1098902 19.6703297 19.6703297 12.4175824-12.4175824-32.0879121-32.08791209-30.989011 30.98901099 12.4175824 12.4175824 24.6153847 24.6153846-1.2087913 1.0989011-4.8351648 4.945055-19.6703297-19.7802198-12.5274725 12.5274725 32.1978022 32.0879121 30.8791209-30.8791209z"/><path d="m76.249743 45.393546h8.351568v8.351568h-8.351568z" transform="matrix(.70710678 -.70710678 .70710678 .70710678 -11.494718 71.387956)"/><path d="m82.89348 38.820688h8.351568v8.351568h-8.351568z" transform="matrix(.70710678 -.70710678 .70710678 .70710678 -4.901101 74.160642)"/><path d="m82.826117 52.026952h8.351568v8.351568h-8.351568z" transform="matrix(.70710678 -.70710678 .70710678 .70710678 -14.259069 77.981034)"/><path d="m89.549644 45.379359h8.351568v8.351568h-8.351568z" transform="matrix(.70710678 -.70710678 .70710678 .70710678 -7.589235 80.788252)"/></g></svg>