<svg height="99" viewBox="0 0 100 99" width="100" xmlns="http://www.w3.org/2000/svg"><g fill="#25b7eb"><path d="m99.0525771 24.4203574c0-13.4465164-11.0569801-24.4203574-24.6058017-24.4203574-7.008029 0-13.3931623 2.93654494-17.7536907 7.57342657l-55.5969956 34.77596473c-1.09013209.6182337-1.40145041 2.1639472-.77855478 3.2457913.46723647.7728568 1.24579124 1.0818441 2.02460502 1.0818441.46697747 0 .77855478-.1546232 1.24579125-.3089873l47.49883451-29.8300959c-.9344729 2.4729345-1.4017094 5.1004921-1.4017094 8.0370371 0 6.1823362 2.3359233 11.7466977 6.0735561 16.074333l-37.3760684 36.939653c-.934473.9274799-.934473 2.3185703 0 3.2457912.4672364.4636105 1.0901321.6182337 1.7130277.6182337.6231546 0 1.2460502-.1546232 1.7132867-.6182337l37.3760684-36.9396529c4.2046102 3.2455322 9.4996115 5.2548562 15.1061901 5.2548562 3.2703963 0 6.3848744-.6182336 9.1882932-1.7000777l-29.7451438 47.913494c-.6231546 1.081844-.3115773 2.4729344.7785548 3.2457912.3115773.3089873.7785548.3089873 1.2457913.3089873.7788137 0 1.5573685-.4636104 2.024605-1.0818441l35.8186998-57.9598549c3.4263144-4.3276354 5.4506605-9.5827506 5.4506605-15.4560995zm-36.4415955 16.0743331 10.9013209-10.6645947c.9344729-.9274799.9344729-2.3185703 0-3.2457912-.9344729-.9274799-2.3359233-.9274799-3.2703963 0l-11.05698 10.8192178c-2.959078-3.4004144-4.8277648-7.8826729-4.8277648-12.8285418.1556591-10.973841 9.032375-19.93809896 20.089614-19.93809896 11.0569801 0 19.933955 8.96425796 19.933955 19.78347576 0 10.973841-9.0326341 19.7837348-19.933955 19.7837348-4.3605283.1546232-8.5653975-1.3910904-11.8357938-3.7094017z"/><path d="m74.4467754 8.34628335c-9.032375 0-16.3519813 7.26418025-16.3519813 16.22869725 0 1.2364672 1.0901321 2.3183113 2.3361823 2.3183113 1.2457913 0 2.3359234-1.0818441 2.3359234-2.3183113 0-6.3369594 5.1390831-11.5920746 11.6798756-11.5920746 1.2460503 0 2.3361824-1.0818441 2.3361824-2.3183113 0-1.23646727-1.0901321-2.31831135-2.3361824-2.31831135z"/></g></svg>