<svg height="94" viewBox="0 0 94 94" width="94" xmlns="http://www.w3.org/2000/svg"><path d="m93.4908696 46.5669565c0 25.6856522-20.9243479 46.5082609-46.7365218 46.5082609-25.8117391 0-46.73608693-20.8226087-46.73608693-46.5082609 0-25.6860869 20.92434783-46.50826085 46.73608693-46.50826085 25.8121739 0 46.7365218 20.82217395 46.7365218 46.50826085zm-18.6943479-18.9034782c0 3.3143478-2.7 6.0013043-6.0304347 6.0013043-3.3308696 0-6.0308696-2.6869565-6.0308696-6.0013043 0-3.3143479 2.7-6.0008696 6.0308696-6.0008696 3.3304347 0 6.0304347 2.6865217 6.0304347 6.0008696zm-28.3434782-.0004348c5.9952174 0 10.8547826-3.2239131 10.8547826-7.2013044 0-3.9769565-4.8595652-7.2008695-10.8547826-7.2008695-5.9947826 0-10.8547826 3.223913-10.8547826 7.2008695 0 3.9773913 4.86 7.2013044 10.8547826 7.2013044z" fill="#e35760" fill-rule="evenodd"/></svg>