<?xml version="1.0" encoding="UTF-8"?>
<svg width="100px" height="99px" viewBox="0 0 100 99" version="1.1" xmlns="http://www.w3.org/2000/svg" xmlns:xlink="http://www.w3.org/1999/xlink">
    <!-- Generator: Sketch 63.1 (92452) - https://sketch.com -->
    <title>swap4me-logo</title>
    <desc>Created with Sketch.</desc>
    <g id="Page-1" stroke="none" stroke-width="1" fill="none" fill-rule="evenodd">
        <g id="swap4me-logo" fill="#F24405" fill-rule="nonzero">
            <g id="Group">
                <polygon id="Path" points="25.4945055 49.5604396 25.6043956 49.5604396 13.0769231 37.1428571 0.659340659 49.5604396 13.0769231 62.0879121 25.6043956 49.5604396"></polygon>
                <polygon id="Path" points="72.1978022 59.2307692 68.5714286 55.7142857 67.4725275 54.5054945 44.0659341 31.0989011 45.1648352 29.8901099 50 25.0549451 50.1098901 24.9450549 69.7802198 44.6153846 82.1978022 32.1978022 50.1098901 0.10989011 19.1208791 31.0989011 31.5384615 43.5164835 31.5384615 43.5164835 56.1538462 68.1318681 54.9450549 69.2307692 50.1098901 74.1758242 30.4395604 54.3956044 17.9120879 66.9230769 50.1098901 99.010989 80.989011 68.1318681"></polygon>
                <rect id="Rectangle" transform="translate(80.425527, 49.569330) rotate(-45.000000) translate(-80.425527, -49.569330) " x="76.2497433" y="45.3935455" width="8.35156826" height="8.35156826"></rect>
                <rect id="Rectangle" transform="translate(87.069264, 42.996473) rotate(-45.000000) translate(-87.069264, -42.996473) " x="82.8934796" y="38.8206884" width="8.35156826" height="8.35156826"></rect>
                <rect id="Rectangle" transform="translate(87.001901, 56.202736) rotate(-45.000000) translate(-87.001901, -56.202736) " x="82.826117" y="52.0269521" width="8.35156826" height="8.35156826"></rect>
                <rect id="Rectangle" transform="translate(93.725429, 49.555143) rotate(-45.000000) translate(-93.725429, -49.555143) " x="89.5496444" y="45.3793587" width="8.35156826" height="8.35156826"></rect>
            </g>
        </g>
    </g>
</svg>