<svg height="100" viewBox="0 0 100 100" width="100" xmlns="http://www.w3.org/2000/svg"><path d="m57.6923077 30.7692308c6.1449265 0 11.1679265 4.8035383 11.5188742 10.8604892l.0195873.6779723v9.6153846h-11.5384615v-9.6153846h-46.1538462v46.1538462h46.1538462v-13.4615385h11.5384615v13.4615385c0 6.1449265-4.8035384 11.1679265-10.8604892 11.5188742l-.6779723.0195873h-46.1538462c-6.14492642 0-11.16792642-4.8035385-11.51887422-10.8604892l-.01958728-.6779723v-46.1538462c0-6.1449265 4.80353831-11.1679265 10.8604893-11.5188743l.6779722-.0195872zm-15.3846154 38.4615384c-6.1449265 0-11.1679265-4.8035384-11.5188743-10.8604892l-.0195872-.6779723v-9.6153846h11.5384615v9.6153846h46.1538462v-46.1538462h-46.1538462v13.4615385h-11.5384615v-13.4615385c0-6.14492642 4.8035383-11.16792642 10.8604892-11.51887422l.6779723-.01958728h46.1538462c6.1449265 0 11.1679265 4.80353831 11.5188742 10.8604893l.0195873.6779722v46.1538462c0 6.1449265-4.8035385 11.1679265-10.8604892 11.5188742l-.6779723.0195873z" fill="#6555fa"/></svg>