<svg height="100" viewBox="0 0 103 100" width="103" xmlns="http://www.w3.org/2000/svg"><g fill="none" fill-rule="evenodd"><circle cx="88.018" cy="50.16" r="14.834"/><circle cx="88.018" cy="50.16" r="13.334" stroke="#686868" stroke-width="3"/><circle cx="88.018" cy="50.16" r="9.674"/><circle cx="88.018" cy="50.16" r="8.924" stroke="#686868" stroke-width="1.5"/><circle cx="14.886" cy="50.16" r="14.834"/><circle cx="14.886" cy="50.16" r="13.334" stroke="#686868" stroke-width="3"/><circle cx="14.886" cy="50.16" r="9.674"/><g stroke="#686868" transform="translate(0 1)"><circle cx="14.886" cy="49.16" r="8.924" stroke-width="1.5"/><g stroke-linejoin="round" stroke-width="2.5"><g stroke-linecap="round" transform="matrix(0 1 -1 0 84.44 .535)"><path d="m12.3 0c-14.6159392 19.4270824-16.33479296 45.6672813-4.378 66.835" transform="translate(.699)"/><path d="m19.659 11.014-6.135-11.014-13.524.976"/></g><g stroke-linecap="round" transform="matrix(0 -1 1 0 17.606 97.692)"><path d="m12.3 0c-14.6159392 19.4270824-16.33479296 45.6672813-4.378 66.835" transform="translate(.699)"/><path d="m19.659 11.014-6.135-11.014-13.524.976"/></g><g><g transform="translate(40.624 30.513)"><path d="m21.166 8.263h-19.466c-.92976885.02164968-1.67835032.77023115-1.7 1.7v18.563c.02164968.9297689.77023115 1.6783503 1.7 1.7h19.581c.9297689-.0216497 1.6783503-.7702311 1.7-1.7v-18.563c-.1079045-.93424941-.8756954-1.65339241-1.815-1.7z"/><path d="m18.336 1.471c0-.792-.453-1.471-1.019-1.471h-12c-.566 0-1.019.679-1.019 1.471v6.791h14.035z"/></g><g stroke-linecap="round"><path d="m48.661 45.793h7.7"/><path d="m52.509 53.603v-7.81"/></g></g></g><path d="m27.829 49.062h12.671" stroke-width="3"/><path d="m63.5 49.062h10.174" stroke-width="3"/></g></g></svg>