<svg height="83" viewBox="0 0 114 83" width="114" xmlns="http://www.w3.org/2000/svg"><g fill="none" fill-rule="evenodd"><g stroke="#686868" stroke-linecap="round" stroke-linejoin="round" stroke-width="2" transform="translate(1 1)"><path d="m49.638 37.43c.0185409-2.8775835 2.3464201-5.2059083 5.224-5.225h15.8702345v-18.925c.006245-.6554583-.2512731-1.2859581-.7147747-1.7494598-.4635017-.4635016-1.0940015-.7210197-1.7494598-.7147943h-54.8c-.6556308-.0064958-1.2863902.2509028-1.7501098.7144342-.4637196.4635315-.7213741 1.0941864-.7151249 1.7498199v35.88c-.0062492.6556335.2514053 1.2862884.7151249 1.7498199.4637196.4635314 1.094479.72093 1.7501098.7144342h54.8c.6554583.0062254 1.2859581-.2512927 1.7494598-.7147943.4635016-.4635017.7210197-1.0940015.7147747-1.7494598v-6.7h-15.8702345c-1.3671681.0522035-2.6966532-.4545395-3.6822186-1.4035046-.9855653-.9489651-1.5422339-2.2583311-1.5417814-3.6264954z"/><path d="m111.342 18.604-20.6-6.506c-3.943-12.028-17.743-11.82841373-17.743-11.82841373h-23.559c-9.364 0-10.941 10.54741373-10.941 10.54741373h29.768c.6556335-.0064839 1.2862884.2511706 1.7498199.7148902.4635314.4637196.72093 1.094479.7141801 1.7501098v18.925h-15.87c-2.8854117 0-5.2245 2.3390883-5.2245 5.2245s2.3390883 5.2245 5.2245 5.2245h21.588c4.928 0 6.012-3.647 7-6.407l19.911 6.407z"/><path d="m5.872 42.556h-5.224v38.429h82.306"/><path d="m6.365 51.723h83.39"/></g><g fill="#686868" fill-rule="nonzero"><g transform="translate(10.653 60.912)"><path d="m14.064 7.194c-.016-2.39.578-4.374 2.39-5.827 3.515-2.828 9.342-1.047 10.5 3.3.7534495 2.3176462.4143096 4.85199935-.922 6.89-1.469 2.14-3.671 2.7-6.109 2.5-4.172-.379-5.953-3.55-5.859-6.863zm6.593 4.7c1.6796449.0767109 3.1731393-1.0604676 3.546-2.7.2628246-1.21098933.3155925-2.45813785.156-3.687-.2078079-1.79791972-1.6838585-3.18275293-3.4913645-3.27560427-1.807506-.09285133-3.4176898 1.13344244-3.8086355 2.90060427-.4339827 1.42452868-.3790702 2.95327958.156 4.343.4741101 1.4880525 1.8812561 2.4782057 3.442 2.422z"/><path d="m43.529 2.398v3.39h3.218c.906 0 1.828-.016 2.734.016.2398697-.01785714.4759627.06747984.6489798.23457691s.2665187.40007726.2570202.64042309c.031.562-.172.984-.781 1.047-.594.062-1.187.078-1.781.094-1.406.016-2.812 0-4.265 0v3.859c.25.016.531.031.812.031 1.875 0 3.75 0 5.624.016.562 0 1.047.172 1.156.8.1018491.3054894.0442643.6416692-.1534509.8958457-.1977151.2541766-.5093914.3927074-.8305491.3691543-2.7.031-5.421.016-8.124 0-.3342922.0190705-.6604526-.1076167-.8942261-.3473351-.2337734-.2397185-.3522316-.5689569-.3247739-.9026649-.016-3.64-.016-7.3 0-10.936-.0245051-.34960177.1081901-.69191646.3619251-.93366099.2537351-.24174453.6020677-.35772613.9500749-.31633901 2.578-.031 5.156-.016 7.733 0 .2903219-.03801174.5824767.05537647.7969213.25473842s.328854.48394279.3120787.77626158c.002915.2915568-.121564.56986528-.340839.76204318-.219275.19217791-.5115046.27908296-.800161.23795682-1.8.016-3.593 0-5.39 0-.309.012-.59.012-.919.012z"/><path d="m7.034 10.757c1.04666667-3.10866667 2.09866667-6.21766667 3.156-9.327.062-.172.109-.344.187-.516.2067402-.62227132.8746946-.96337334 1.5-.766.3376919.07328141.6274033.28857888.7949741.59078086s.1967345.66197291.0800259.98721914c-.5 1.484-1.047 2.968-1.594 4.453-.781 2.14-1.562 4.281-2.375 6.405-.5 1.312-1.656 1.89-2.687 1.281-.52333422-.3632925-.92594629-.8749163-1.156-1.469-.812-2-1.515-4.031-2.25-6.046-.53-1.447-1.077-2.92-1.593-4.389-.18297322-.39756863-.15749395-.85989747.06805907-1.23495193.22555303-.37505446.62198865-.61429483 1.05894093-.63904807.8-.047 1.17.453 1.4 1.109.687 2.015 1.375 4.015 2.062 6.03.391 1.172.8 2.343 1.187 3.515.0523818.0143667.10681517.0197763.161.016z"/><path d="m32.046 2.536h-2.984c-.937 0-1.375-.359-1.39-1.094 0-.734.422-1.109 1.375-1.109h8.671c.937 0 1.406.375 1.406 1.094 0 .7-.484 1.109-1.39 1.109-.953.016-1.922 0-2.984 0v9.561c.0101844.2334301.0048392.467279-.016.7-.0587154.7368181-.6830719 1.2992658-1.422 1.281-.3599103-.011741-.6983797-.1739615-.9329812-.4471563-.2346016-.2731948-.3438059-.632293-.3010188-.9898437-.016-3.015-.016-6.046-.016-9.061-.016-.291-.016-.604-.016-1.044z"/></g><g transform="translate(21.489 22.399)"><path d="m0 11.15v-7.28c-.03356836-.37965161.103527-.75455507.37408939-1.02299161s.6465356-.4025704 1.02591061-.36600839h9.162c.224 0 .443-.00591901.667 0 .5636579.02547896 1.0320898.44297612 1.122 1 .1409918.58682151-.195638 1.18280027-.771 1.365-.2293636.07453851-.4688344.11332604-.71.115-2.63333333.012-5.26266667.016-7.888.012-.449 0-.485.03-.485.485v11.408c0 .479.012.485.5.485h11.403c.467 0 .467 0 .473-.467 0-2.287.006-4.569 0-6.856-.0150048-.37711772.1303172-.74296576.4-1.007.3582676-.35395109.9016901-.44150918 1.353-.218.4380099.17496063.7276385.59638211.734 1.068.03.473.012.953.012 1.426v7.1c.0172939.367287-.1016465.7280252-.334 1.013-.2766217.3039538-.675703.4667467-1.086.443-3.1853333.006-6.37066667.008-9.556.006-1.62 0-3.234-.012-4.854 0-.59838338.0542684-1.17217712-.2506822-1.462-.777-.06767989-.1574528-.09483982-.3293511-.079-.5-.00066667-2.4806667-.001-4.958-.001-7.432z"/><path d="m8.962 11.265c.425-.516.819-1 1.213-1.48.91-1.12866667 1.816-2.262 2.718-3.4 1.05-1.317 2.093-2.633 3.143-3.95.528-.663 1.056-1.32 1.608-1.963.2506884-.32264208.6463473-.49823312 1.0537883-.46766499s.7724708.26322959.9722117.61966499c.2321051.51574137.1447817 1.11920867-.224 1.548-1.42 1.766-2.846 3.531-4.259 5.3-1.547 1.929-3.082 3.859-4.629 5.782-.3696194.4885588-.77293555.950685-1.207 1.383-.53904933.3705672-1.27557871.2411408-1.656-.291-.34-.595-.643-1.207-.953-1.814-.43666667-.8613333-.86733333-1.725-1.292-2.591-.158-.328-.315-.655-.443-1-.1157632-.53690795.12989153-1.08689934.607-1.359.34164462-.17163262.74131056-.18506478 1.09370786-.03675784.35239729.14830694.62218618.44348019.73829214.80775784.437.928.922 1.832 1.389 2.742.024.055.06.085.127.17z"/></g></g></g></svg>