<svg height="76" viewBox="0 0 97 76" width="97" xmlns="http://www.w3.org/2000/svg"><g fill="none" fill-rule="evenodd" transform="translate(1 1)"><g fill="#fff"><circle cx="76.231" cy="12.231" r="12.231"/><circle cx="76.231" cy="12.231" r="11.331" stroke="#686868" stroke-width="2"/><circle cx="76.231" cy="12.231" r="7.9767"/><circle cx="76.231" cy="12.231" r="7.5267" stroke="#686868" stroke-width="2"/></g><g fill="#f8f8fa"><circle cx="67.231" cy="14.231" r="12.231"/><circle cx="67.231" cy="14.231" r="11.331" stroke="#686868" stroke-width="2"/><circle cx="67.231" cy="14.231" r="7.9767"/><circle cx="67.231" cy="14.231" r="7.5267" stroke="#686868" stroke-width="2"/></g><g stroke="#686868" stroke-width="2" transform="translate(.2 5.309)"><path d="m.119 14.677v-8.233s0-6.443 6.444-6.443h48.8s6.921-.12 6.921 6.443v5.728" fill="#f8f8fa" stroke-linecap="square" stroke-linejoin="bevel"/><g stroke-linecap="round" stroke-linejoin="round"><g fill="#f8f8fa" transform="translate(0 12.29)"><path d="m91.522 18.972h-25.058c-1.3161557.0038444-2.3821556 1.0698443-2.386 2.386v13.126c.0038444 1.3161557 1.0698443 2.3821556 2.386 2.386h25.058c1.3161557-.0038444 2.3821556-1.0698443 2.386-2.386v-13.126c-.0038444-1.3161557-1.0698443-2.3821556-2.386-2.386z"/><path d="m64.077 34.485v-13.126c.0038416-1.3163192 1.0696825-2.3826069 2.386-2.387h20.047v-15.392c.0175428-.95474494-.3539986-1.87556025-1.0292192-2.55078082-.6752206-.67522058-1.5960359-1.04676202-2.5507808-1.02921918h-79.35c-.95474494-.01754284-1.87556025.3539986-2.55078082 1.02921918-.67522058.67522057-1.04676202 1.59603588-1.03036883 2.55078082v48.684c-.01611831.9545731.35554454 1.8751265 1.03073437 2.5501277.67518983.6750013 1.59584705 1.0464069 2.55041528 1.0288723h79.351c.9545682.0175346 1.8752255-.353871 2.5504153-1.0288723.6751898-.6750012 1.0468527-1.5955546 1.0306995-2.5501277v-15.393h-20.0481148c-1.3163192-.0038416-2.3826069-1.0696825-2.387-2.386z"/></g><path d="m81.38 39.973c.0004045 1.8344182-1.1043646 3.4884139-2.7990686 4.1906022-1.6947041.7021883-3.6455309.3142565-4.9426605-.9828731s-1.6850614-3.2479564-.9828731-4.9426605c.7021883-1.694704 2.356184-2.7994731 4.1906022-2.7990686 1.2087447-.0207885 2.3741032.4502209 3.2289412 1.3050588.8548379.854838 1.3258473 2.0201965 1.3050588 3.2289412z"/></g></g><path d="m24.2398374 48c.422561 0 .765439.3727141.7722543.8106531l.0001034.0132906v5.8732031c0 .0093545.0075833.0169377.0169377.0169377h1.1903794c.4310515 0 .7804878.3632169.7804878.8112676s-.3494363.8112676-.7804878.8112676h-1.1903794c-.0093544 0-.0169377.0075833-.0169377.0169377v5.8224989c0 .4392254-.298811.7749191-.7189392.781589l-.0127681.0001012h-.0813008c-.3401296 0-.5817841-.2047171-.8219-.4932402l-.0114333-.0138021-4.5946255-6.1073294c-.0031997-.0042533-.0082126-.0067551-.013535-.0067551h-4.1960401c-.0093544 0-.0169377.0075833-.0169377.0169377v5.8224989c0 .4392254-.3386524.8163317-.779299.8239437h-.0133839c-.422561 0-.765439-.3727141-.7722543-.8106531l-.0001034-.0132906v-5.8224989c0-.0093544-.0075833-.0169377-.0169377-.0169377h-1.1822493c-.4310515 0-.7804878-.3632169-.7804878-.8112676s.3494363-.8112676.7804878-.8112676h1.1822493c.0093544 0 .0169377-.0075832.0169377-.0169377v-5.8309496c0-.4392254.3585732-.8163317.7798966-.8238299l.0127863-.0001138h.2235773c.3545966 0 .5755376.1786199.792366.4589157l.0206421.0269998 4.6614542 6.1791783c.0032006.0042427.008207.0067372.0135216.0067372h3.9462979c.0093544 0 .0169377-.0075832.0169377-.0169377v-5.8732031c0-.4392254.3386524-.8163317.779299-.8239437zm-.8096206 8.3366197h-2.6967105c-.0093544 0-.0169377.0075833-.0169377.0169377 0 .003681.0011992.0072618.0034161.0102005l2.6967104 3.5747387c.0056336.0074678.0162544.0089547.0237222.0033212.0042427-.0032006.0067372-.0082071.0067372-.0135217v-3.5747387c0-.0093544-.0075833-.0169377-.0169377-.0169377zm-8.8855014-5.5605796v3.9211067c0 .0093545.0075833.0169377.0169377.0169377h2.9499048c.0093544 0 .0169376-.0075832.0169376-.0169377 0-.0036733-.0011942-.0072472-.0034026-.0101826l-2.9499047-3.9211067c-.0056237-.0074753-.0162425-.0089762-.0237177-.0033525-.0042532.0031998-.0067551.0082127-.0067551.0135351z" fill="#686868" fill-rule="nonzero"/></g></svg>