<svg height="1024" viewBox="0 0 2048 1024" width="2048" xmlns="http://www.w3.org/2000/svg"><g fill="none" fill-rule="evenodd"><path d="m0 0h2048v1024h-2048z" fill="#f0f0f0"/><g transform="translate(724 212)"><rect fill="#fff" height="600" rx="300" stroke="#b4b4b4" stroke-width="29.296875" width="600"/><path d="m300 48.046875c139.149869 0 251.953125 112.803256 251.953125 251.953125s-112.803256 251.953125-251.953125 251.953125-251.953125-112.803256-251.953125-251.953125 112.803256-251.953125 251.953125-251.953125z" fill="#fff" stroke="#c8c8c8" stroke-dasharray="292.96875 58.59375" stroke-linecap="round" stroke-width="24.902344"/><path d="m394.40918 169.921875c7.613525 0 13.791357 6.46062 13.914152 14.051849l.001863.230378v101.80664c0 .161802.131167.292969.292969.292969h21.459961c7.766504 0 14.0625 6.295996 14.0625 14.0625s-6.295996 14.0625-14.0625 14.0625h-21.459961c-.161802 0-.292969.131167-.292969.292969v100.927734c0 7.613525-5.38385 13.432434-12.953543 13.548051l-.23005.001754h-1.464844c-6.128311 0-10.482341-3.548563-14.808648-8.549818l-.206001-.239245-82.787613-105.868946c-.055526-.071006-.140646-.112499-.230785-.112499h-75.62418c-.161802 0-.292968.131167-.292969.292969v100.927734c0 7.613525-6.101696 14.150281-14.041081 14.282227h-.241145c-7.613525 0-13.791357-6.46062-13.914153-14.051849l-.001863-.230378v-100.927734c0-.161802-.131166-.292969-.292968-.292969h-21.313477c-7.766504 0-14.0625-6.295996-14.0625-14.0625s6.295996-14.0625 14.0625-14.0625h21.313477c.161802 0 .292968-.131167.292968-.292969v-101.074219c0-7.613525 6.46062-14.15028 14.051849-14.280254l.230378-.001972h4.02832c6.388973 0 10.369794 3.096194 14.276518 7.954838l.37192.468013 83.991714 107.114371c.055535.070824.140542.112192.230544.112192h71.124421c.161803 0 .292969-.131167.292969-.292969v-101.80664c0-7.613526 6.101697-14.150281 14.041081-14.282227zm-14.575196 144.506836h-48.610868c-.161803 0-.292969.131167-.292969.292969 0 .065545.02198.129197.062425.180776l48.610868 61.993385c.09984.127326.283995.149608.411321.049768.070824-.055536.112192-.140543.112192-.230544v-61.993385c0-.161802-.131166-.292969-.292969-.292969zm-160.107422-96.41538v67.997411c0 .161802.131167.292969.292969.292969h53.172823c.161802 0 .292969-.131167.292969-.292969 0-.065411-.021891-.128942-.062184-.180469l-53.172823-67.997411c-.099671-.127459-.283796-.149986-.411254-.050315-.071006.055525-.1125.140646-.1125.230784z" fill="#414141" fill-rule="nonzero"/></g></g></svg>