<svg height="1024" viewBox="0 0 1024 1024" width="1024" xmlns="http://www.w3.org/2000/svg"><g fill="none" fill-rule="evenodd"><rect fill="#0a0a0a" height="974" rx="487" stroke="#282828" stroke-width="50" width="974" x="25" y="25"/><path d="m383.04059 558.463356v140.549502c0 12.405509-10.0369 23.038803-23.02583 23.038803-12.274539 0-22.23445-10.421691-22.432421-22.667178l-.003003-.371625v-140.549502c0-12.553778 10.176848-22.730627 22.730627-22.730627s22.730627 10.176849 22.730627 22.730627zm-15.940959-254.654573c10.300312 0 16.718199 4.994502 23.016627 12.832029l.599609.754957 250.078422 319.103216c.160907.205319.457791.241322.66311.080416.114243-.089532.180977-.226618.180977-.371763v-77.744282c0-12.553778 10.176849-22.730627 22.730628-22.730627s22.730627 10.176849 22.730627 22.730627v140.549502c0 12.281454-8.679852 21.667994-20.883725 21.857325h-.370888-2.361623c-9.880074 0-16.899648-5.724221-23.874528-13.791796l-.332114-.385928-255.391687-326.779358c-.160633-.205533-.457469-.241932-.663002-.081299-.114536.089515-.181474.226784-.181474.372151v87.42943c0 12.553779-10.176848 22.730627-22.730627 22.730627s-22.730627-10.176848-22.730627-22.730627v-140.785797c0-12.281454 10.415823-22.82596 22.654415-23.038803h.371415zm297.564576-1.181477c12.274538 0 22.23445 10.421691 22.432421 22.667178l.003003.371625v141.967274c0 12.553779-10.176848 22.730627-22.730627 22.730627s-22.730628-10.176848-22.730628-22.730627v-141.967274c0-12.281454 9.837166-22.82596 22.637055-23.035622z" fill="#fff" fill-rule="nonzero"/></g></svg>