<svg height="1024" viewBox="0 0 2048 1024" width="2048" xmlns="http://www.w3.org/2000/svg"><g fill="none" fill-rule="evenodd"><path d="m0 0h2048v1024h-2048z" fill="#f0f0f0"/><g transform="translate(724 212)"><rect fill="#0a0a0a" height="570.703125" rx="285.351562" stroke="#282828" stroke-width="29.296875" width="570.703125" x="14.648438" y="14.648438"/><path d="m224.437846 327.224623v82.353223c0 7.268853-5.880996 13.499299-13.491697 13.499299-7.192113 0-13.027999-6.10646-13.143997-13.28155l-.00176-.217749v-82.353223c0-7.35573 5.962997-13.318727 13.318727-13.318727s13.318727 5.962997 13.318727 13.318727zm-9.340406-149.211664c6.035339 0 9.79582 2.926466 13.486305 7.518767l.351333.442358 146.530326 186.97454c.094281.120304.268237.1414.388541.047118.066939-.052459.106041-.132783.106041-.217829v-45.55329c0-7.35573 5.962997-13.318727 13.318727-13.318727s13.318727 5.962997 13.318727 13.318727v82.353223c0 7.196165-5.085851 12.696091-12.236558 12.807027h-.217317-1.383763c-5.789106 0-9.902138-3.354036-13.988981-8.081131l-.194599-.226129-149.643566-191.47228c-.094121-.12043-.268048-.141757-.388478-.047637-.067111.052451-.106332.132882-.106332.218058v51.228181c0 7.35573-5.962997 13.318727-13.318727 13.318727s-13.318727-5.962997-13.318727-13.318727v-82.491678c0-7.196164 6.103021-13.374585 13.274071-13.499298h.217626zm174.354244-.692272c7.192112 0 13.027998 6.10646 13.143996 13.28155l.00176.217749v83.183949c0 7.35573-5.962997 13.318727-13.318727 13.318727s-13.318727-5.962997-13.318727-13.318727v-83.183949c0-7.196165 5.763965-13.374586 13.2639-13.497435z" fill="#fff" fill-rule="nonzero"/></g></g></svg>