<svg xmlns="http://www.w3.org/2000/svg" xmlns:xlink="http://www.w3.org/1999/xlink" viewBox="0 0 130 130">
  <defs>
    <style>
      .cls-1 {
        fill: none;
      }

      .cls-2 {
        opacity: 0.12;
        fill: url(#linear-gradient);
      }

      .cls-3 {
        fill: #fff;
      }
    </style>
    <linearGradient id="linear-gradient" x1="0.5" x2="0.5" y2="1" gradientUnits="objectBoundingBox">
      <stop offset="0" stop-color="#fff" stop-opacity="0"/>
      <stop offset="1" stop-color="#fff"/>
    </linearGradient>
  </defs>
  <g id="gov-content-manifesto" transform="translate(-1835 -4687)">
    <rect id="Rectangle_283" data-name="Rectangle 283" class="cls-1" width="130" height="130" transform="translate(1835 4687)"/>
    <circle id="Ellipse_118" data-name="Ellipse 118" class="cls-2" cx="46.5" cy="46.5" r="46.5" transform="translate(1872 4706)"/>
    <g id="temp_1_" transform="translate(18963.766 4218.245)">
      <path id="Path_15856" data-name="Path 15856" class="cls-3" d="M-17095.568,565.3a1.318,1.318,0,0,1-1.332-1.333V487.333a1.318,1.318,0,0,1,1.332-1.333h54.5a1.32,1.32,0,0,1,1.334,1.333v15.093h14.93a1.32,1.32,0,0,1,1.336,1.333v5.493a1.32,1.32,0,0,1-1.336,1.333,1.318,1.318,0,0,1-1.33-1.333v-4.16h-14.934a1.321,1.321,0,0,1-1.334-1.333V488.667h-51.836v75.3A1.356,1.356,0,0,1-17095.568,565.3Z" transform="translate(-14.871 0)"/>
      <path id="Path_15857" data-name="Path 15857" class="cls-3" d="M-17050.6,626.8c-3.148,0-18.293-.107-32.959-.213-14.455-.107-28.053-.213-30.879-.213-6.453,0-10.133-1.973-12.693-6.773-2.668-5.013-1.279-10.666-1.227-10.88a1.358,1.358,0,0,1,1.279-1.013H-17061a1.257,1.257,0,0,1,.961.427,1.686,1.686,0,0,1,.373,1.013,20.4,20.4,0,0,0,.586,6.08,8.59,8.59,0,0,0,3.307,4,1.316,1.316,0,0,1,.428,1.813,1.313,1.313,0,0,1-1.814.427,11.114,11.114,0,0,1-4.426-5.44,19.1,19.1,0,0,1-.748-5.653h-63.57a14.047,14.047,0,0,0,1.172,8c2.082,3.893,4.855,5.333,10.3,5.333,2.826,0,16.424.107,30.875.213,14.668.107,29.814.213,32.963.213,5.277,0,9.811-6.346,9.811-11.573V583.233a1.32,1.32,0,0,1,1.332-1.333,1.319,1.319,0,0,1,1.334,1.333v29.332C-17038.123,619.018-17043.668,626.8-17050.6,626.8Z" transform="translate(0 -44.756)"/>
      <g id="Group_3544_1_" transform="translate(-17100.303 536.077)">
        <path id="Path_15858" data-name="Path 15858" class="cls-3" d="M-16212.6,413.066h-7.466a1.32,1.32,0,0,1-1.333-1.333,1.32,1.32,0,0,1,1.333-1.333h7.466a1.32,1.32,0,0,1,1.333,1.333A1.32,1.32,0,0,1-16212.6,413.066Z" transform="translate(16221.4 -410.4)"/>
        <path id="Path_15859" data-name="Path 15859" class="cls-3" d="M-16183.734,413.066h-13.333a1.32,1.32,0,0,1-1.333-1.333,1.32,1.32,0,0,1,1.333-1.333h13.333a1.32,1.32,0,0,1,1.333,1.333A1.32,1.32,0,0,1-16183.734,413.066Z" transform="translate(16210.666 -410.4)"/>
      </g>
      <g id="Group_3545_1_" transform="translate(-17100.303 511.012)">
        <path id="Path_15860" data-name="Path 15860" class="cls-3" d="M-16208.869,366.067h-11.2a1.32,1.32,0,0,1-1.333-1.333,1.32,1.32,0,0,1,1.333-1.333h11.2a1.32,1.32,0,0,1,1.335,1.333A1.32,1.32,0,0,1-16208.869,366.067Z" transform="translate(16221.4 -363.4)"/>
        <path id="Path_15861" data-name="Path 15861" class="cls-3" d="M-16158.335,366.067h-27.733a1.32,1.32,0,0,1-1.333-1.333,1.32,1.32,0,0,1,1.333-1.333h27.733a1.32,1.32,0,0,1,1.333,1.333A1.32,1.32,0,0,1-16158.335,366.067Z" transform="translate(16205.533 -363.4)"/>
      </g>
      <path id="Path_15862" data-name="Path 15862" class="cls-3" d="M-17038.336,559.067h-35.732a1.32,1.32,0,0,1-1.332-1.333,1.32,1.32,0,0,1,1.332-1.333h35.732a1.32,1.32,0,0,1,1.334,1.333A1.32,1.32,0,0,1-17038.336,559.067Z" transform="translate(-24.905 -32.855)"/>
      <path id="Path_15863" data-name="Path 15863" class="cls-3" d="M-17049,606.067h-25.066a1.32,1.32,0,0,1-1.332-1.333,1.32,1.32,0,0,1,1.332-1.333H-17049a1.318,1.318,0,0,1,1.332,1.333A1.318,1.318,0,0,1-17049,606.067Z" transform="translate(-24.905 -54.79)"/>
      <path id="Path_15864" data-name="Path 15864" class="cls-3" d="M-16945.691,540.49a1.372,1.372,0,0,1-.961-.373l-6.4-6.4a1.285,1.285,0,0,1,0-1.867,1.289,1.289,0,0,1,1.867,0l6.4,6.4a1.285,1.285,0,0,1,0,1.867A1.091,1.091,0,0,1-16945.691,540.49Z" transform="translate(-81.816 -21.211)"/>
      <path id="Path_15865" data-name="Path 15865" class="cls-3" d="M-16953.09,560.823a1.369,1.369,0,0,1-.961-.373,1.292,1.292,0,0,1,0-1.867l11.734-11.733a1.287,1.287,0,0,1,1.865,0,1.289,1.289,0,0,1,0,1.867l-11.734,11.733A1.091,1.091,0,0,1-16953.09,560.823Z" transform="translate(-81.353 -28.212)"/>
      <path id="Path_15866" data-name="Path 15866" class="cls-3" d="M-17012.367,569.069a1.336,1.336,0,0,1-.961-.427,1.294,1.294,0,0,1-.266-1.44l4.691-11.893a.84.84,0,0,1,.322-.427l32-32a1.393,1.393,0,0,1,1.869,0l6.984,6.986a1.289,1.289,0,0,1,0,1.867l-33.012,33.012a1.274,1.274,0,0,1-.48.32l-10.719,3.893A1.658,1.658,0,0,1-17012.367,569.069Zm5.811-12.479-3.518,8.906,7.68-2.773,31.838-31.838-5.119-5.12Z" transform="translate(-53.699 -17.046)"/>
      <path id="Path_15867" data-name="Path 15867" class="cls-3" d="M-16977.092,505.089a1.369,1.369,0,0,1-.961-.373l-16-16a1.285,1.285,0,0,1,0-1.867,1.285,1.285,0,0,1,1.863,0l16,16a1.289,1.289,0,0,1,0,1.867A1.1,1.1,0,0,1-16977.092,505.089Z" transform="translate(-62.682 -0.21)"/>
    </g>
  </g>
</svg>
