<svg xmlns="http://www.w3.org/2000/svg" xmlns:xlink="http://www.w3.org/1999/xlink" viewBox="0 0 234 234">
  <defs>
    <style>
      .cls-1, .cls-3, .cls-4 {
        fill: none;
      }

      .cls-2 {
        opacity: 0.12;
        fill: url(#linear-gradient);
      }

      .cls-3, .cls-4 {
        stroke: #fff;
        stroke-linejoin: round;
        stroke-miterlimit: 10;
        stroke-width: 5px;
      }

      .cls-3 {
        stroke-linecap: round;
      }
    </style>
    <linearGradient id="linear-gradient" x1="0.5" x2="0.5" y2="1" gradientUnits="objectBoundingBox">
      <stop offset="0" stop-color="#fff" stop-opacity="0"/>
      <stop offset="1" stop-color="#fff"/>
    </linearGradient>
  </defs>
  <g id="gov-world" transform="translate(-2092 -2961)">
    <rect id="Rectangle_1048" data-name="Rectangle 1048" class="cls-1" width="234" height="234" transform="translate(2092 2961)"/>
    <circle id="Ellipse_218" data-name="Ellipse 218" class="cls-2" cx="88.335" cy="88.335" r="88.335" transform="translate(2149 2990)"/>
    <g id="Group_3538" data-name="Group 3538" transform="translate(798.301 2969.175)">
      <g id="Group_756" data-name="Group 756" transform="translate(1296.4 1.318)">
        <path id="Path_992" data-name="Path 992" class="cls-3" d="M1296.4,2.466s36.4,74.9,59.559,32.186S1296.4,2.466,1296.4,2.466Z" transform="translate(-1296.4 -1.318)"/>
        <path id="Path_993" data-name="Path 993" class="cls-3" d="M1387.848,4.83s-83.021-6.317-57.754,35.194C1355.362,81.835,1387.848,4.83,1387.848,4.83Z" transform="translate(-1238.35 5.042)"/>
        <path id="Path_994" data-name="Path 994" class="cls-3" d="M1303.8,5.4s57.754,18.65,57.754,81.517" transform="translate(-1281.541 6.878)"/>
        <path id="Path_995" data-name="Path 995" class="cls-3" d="M1372.835,9S1327.715,32.162,1322,55.925" transform="translate(-1244.994 14.106)"/>
      </g>
      <g id="Group_757" data-name="Group 757" transform="translate(1316.12 71.35)">
        <path id="Path_996" data-name="Path 996" class="cls-4" d="M1338.686,31.218A72.919,72.919,0,0,0,1306.2,60.4c1.5,1.8,2.708,3.91,4.211,5.715,3.61,5.114,5.716,6.618,12.033,6.918,3.609,0,10.227-3.309,13.235-.9,3.309,2.406.3,9.926,4.512,12.935,4.512,3.008,9.024-1.5,13.536-2.106,13.837-1.5,6.618,16.544,18.951,18.349,9.024,1.2,21.959-8.422,18.349-17.447-2.407-5.715-15.642-8.422-11.431-16.845,2.407-5.114,8.423-2.707,12.935-2.707,13.235-.6,15.04-11.731,13.837-22.259a24.361,24.361,0,0,1,0-6.618,69.338,69.338,0,0,0-37.3-10.829" transform="translate(-1296.441 -24.6)"/>
        <path id="Path_997" data-name="Path 997" class="cls-4" d="M1446.872,80.239a72.978,72.978,0,0,0-33.69-52.039,24.379,24.379,0,0,0,0,6.618c1.2,10.528-.6,21.658-13.837,22.259-4.512.3-10.528-2.106-12.935,2.707-4.211,8.122,9.024,11.13,11.431,16.845,3.61,9.024-9.325,18.65-18.349,17.447-12.333-1.8-5.114-19.853-18.951-18.349-4.512.6-9.025,5.114-13.537,2.106-4.211-3.008-1.5-10.528-4.512-12.935s-9.625.9-13.235.9c-6.317-.3-8.423-1.8-12.032-6.918a69.513,69.513,0,0,0-4.211-5.715,70.717,70.717,0,0,0-9.325,46.624,72.775,72.775,0,0,0,34.292,52.34c3.609-1.2,7.219-2.106,11.13-3.309,16.845-4.813,1.8-7.219,3.91-19.251.6-3.61,6.618-12.634,9.927-14.439,6.618-3.309,14.439,3.61,20.455,4.211,16.844,1.5,16.544-15.943,28.576-20.455s9.927,7.52,7.52,15.04c-2.707,9.926-12.032,17.747-2.707,27.373a22.517,22.517,0,0,0,5.414,3.91A71.882,71.882,0,0,0,1446.872,80.239Z" transform="translate(-1302.956 -17.371)"/>
        <path id="Path_998" data-name="Path 998" class="cls-4" d="M1393.41,94.771c-9.325-9.325-.3-17.447,2.707-27.373,2.106-7.52,4.211-19.552-7.52-15.04-12.032,4.512-12.032,21.959-28.576,20.455-6.016-.6-13.837-7.52-20.455-4.211-3.609,1.8-9.325,10.829-9.927,14.439-1.8,12.032,12.935,14.439-3.911,19.251-3.91,1.2-7.52,2.106-11.129,3.309a70.929,70.929,0,0,0,47.226,9.926,71.637,71.637,0,0,0,37.3-16.544A16.646,16.646,0,0,1,1393.41,94.771Z" transform="translate(-1279.574 29.16)"/>
      </g>
    </g>
  </g>
</svg>
