<svg xmlns="http://www.w3.org/2000/svg" xmlns:xlink="http://www.w3.org/1999/xlink" viewBox="0 0 234 234">
  <defs>
    <style>
      .cls-1 {
        fill: none;
      }

      .cls-2 {
        opacity: 0.12;
        fill: url(#linear-gradient);
      }

      .cls-3 {
        fill: #fff;
        stroke: #fff;
      }
    </style>
    <linearGradient id="linear-gradient" x1="0.5" x2="0.5" y2="1" gradientUnits="objectBoundingBox">
      <stop offset="0" stop-color="#fff" stop-opacity="0"/>
      <stop offset="1" stop-color="#fff"/>
    </linearGradient>
  </defs>
  <g id="con-resolve" transform="translate(2161 -2065)">
    <rect id="Rectangle_283" data-name="Rectangle 283" class="cls-1" width="234" height="234" transform="translate(-2161 2065)"/>
    <circle id="Ellipse_2053" data-name="Ellipse 2053" class="cls-2" cx="88.335" cy="88.335" r="88.335" transform="translate(-2104 2094)"/>
    <path id="Path_15910" data-name="Path 15910" class="cls-3" d="M102,195.2h-1.2c-1.1,0-2.7-2-3.2-4.6-.6-3.2-1.3-6.3-2.2-9.4a5.55,5.55,0,0,0-5.3-4h-.4a27.122,27.122,0,0,1-7.5-1,13.941,13.941,0,0,0-3.2-.5c-3.6,0-5.4,2.4-6.6,4.8a59.11,59.11,0,0,1-5.7,8.4,1.838,1.838,0,0,1-1.4.8,2.735,2.735,0,0,1-1.4-.4c-3.9-2-8-3.6-12.2-5.3-.2-.1-.3-.1-.4-.2-.2-.2-.1-1.1-.1-1.7v-.2a1.863,1.863,0,0,1,.9-1.2h.6a8.082,8.082,0,0,1,2.7.5h.1c.9.3,1.7.6,2.7,1,1.2.5,2.4,1,3.7,1.4l.2.1h.3a5.167,5.167,0,0,0,4.2-2c.9-1.3,1.7-2.6,2.4-3.8.7-1.1,1.3-2.1,2-3.1.9-1.2,1.9-2.4,2.9-3.5.6-.7,1-.8,1.4-.8a3.453,3.453,0,0,1,1.3.3,69.072,69.072,0,0,0,9.9,1.9c1.5.2,3.2.4,4.8.5,1.8.2,3.7.4,5.6.6a1.387,1.387,0,0,1,.8.7q1.2,3.6,2.1,7.2c.4,1.4.8,2.9,1.2,4.3.6,2,1.8,4.8,5.5,4.8a9.15,9.15,0,0,0,1.6-.1,69.378,69.378,0,0,0,11-2.3c2.1-.6,2.9-3.9,2.9-5.3,0-3.4-.2-7.1-.5-11.2-.1-1.5.1-2,1.7-2.8,3.8-1.8,7.6-3.8,11.3-5.8,2.2-1.2,4.4-2.3,6.6-3.4a1.8,1.8,0,0,1,1-.2,5.328,5.328,0,0,1,3,1.3,72.237,72.237,0,0,1,6,5c.6.5,1.2,1,1.7,1.5a5.3,5.3,0,0,0,3.3,1.4,4.587,4.587,0,0,0,3.3-1.5c.9-.9,1.8-1.8,2.7-2.6,1.8-1.7,3.6-3.6,5.4-5.4,2.4-2.5,2.4-5.2-.1-7.8-2-2.1-3.7-4.3-5.6-6.7l-2.1-2.7c-.2-.2-.3-.4.3-1.2,3.6-5.6,7.2-11.7,9.3-18.7.1-.5.4-1.3,2.7-1.3h.3l1.8.1c2.6.1,5.1.2,7.7.2h.8c5.4,0,6.5-2.2,7-7,.3-2.4.5-4.8.8-7,.6-4.2-1-6.4-5.4-7.2-2.5-.5-4.9-1.2-7.3-1.8-1-.3-2-.6-3-.8-.8-.2-1.3-.5-1.5-2.5-.3-3.6-.8-7.3-1.3-10.9a3.024,3.024,0,0,1,1.7-3h.3a1.761,1.761,0,0,1,1.6,1.1v.1a20.21,20.21,0,0,1,1.4,6c.3,4.6,3.1,7.2,8.5,7.8a56.179,56.179,0,0,1,7.9,1.8c1.7.5,1.8,2.2,1.7,3.2l-.3,3.9c-.3,3.7-.6,7.6-1.1,11.3a37.975,37.975,0,0,1-1.8,7c-.2.7-.5,1.4-.7,2.2a25.008,25.008,0,0,1-3.8.6c-1.6,0-3.3-.1-4.8-.2-1.8-.1-3.7-.2-5.6-.2H176c-2.2.1-4,2.5-4.4,3l-.1.1a60.227,60.227,0,0,0-3,5.6c-.2.5-.5,1-.8,1.6a17.066,17.066,0,0,1-1.4,2.7,5.173,5.173,0,0,0,.6,6.7c2.3,2.6,4.4,5.2,6.7,7.9l.4.5c1.8,2.1,1.5,2.8.3,4.1-6,6.4-11.1,11.6-16,16.2a3.5,3.5,0,0,1-1.9,1.2c-.7,0-1.8-.9-2.8-1.6-3.3-2.6-6.8-5-10.2-7.2l-.1-.1-.2-.1a4.477,4.477,0,0,0-2-.4,5.932,5.932,0,0,0-2.3.5c-1.3.6-2.6,1.3-3.9,2-1.4.8-2.9,1.5-4.3,2.2-4.3,1.9-5.3,3.7-4.9,8.2a21.053,21.053,0,0,1,.2,2.5c.2,2.1.4,4.3.5,6.4.2,2.4-1.6,4.4-4.3,4.8-1.7.3-3.3.6-4.9,1-2.3.5-4.6,1-7,1.3C107.8,195,104.9,195.2,102,195.2Zm-80.2-4.7a8.082,8.082,0,0,1-1.6-.1,16.3,16.3,0,0,1-10.4-4.6,18.409,18.409,0,0,1-4.1-6.5A15.99,15.99,0,0,1,9.5,162c8.7-8.8,17.5-17.6,26.1-26.2l8.7-8.7c6.5-6.6,13.2-13.3,19.6-19.8,18-18,36-35.9,53.9-53.9,2.7-2.7,3.6-5.6,2.8-9.7a32.379,32.379,0,0,1,0-8.8c.1-.9.1-1.7.2-2.6.2-3.8,1.7-7.8,4.7-12.5a42.586,42.586,0,0,1,9.2-10.2,33.426,33.426,0,0,1,20.5-7.4h.3a58.244,58.244,0,0,1,9.3.7,5.141,5.141,0,0,1,2.8,1.5l.1.1c.5.4.7.7.7.9s-.1.4-.4.7c-.6.7-1.3,1.4-1.9,2.1-1.4,1.5-2.8,3.1-4.3,4.5-2.7,2.8-5.3,5.4-8,8-2.7,2.5-3.4,5.3-2.2,8.5a32.808,32.808,0,0,1,1.8,6.1c.9,4.9,4.8,6,7.7,6.8l.7.2a16.248,16.248,0,0,0,1.9.4,5.3,5.3,0,0,1,1.9.5,5.644,5.644,0,0,0,3,.8,6.872,6.872,0,0,0,5-2.6l4.2-4.2c2.9-2.9,5.9-5.9,8.9-8.8a2.652,2.652,0,0,0,.5-.6c.8-.8,1.1-1.2,1.6-1.2a1.087,1.087,0,0,1,.5.1h.1a3.091,3.091,0,0,1,2.4,2.8v.1a21.659,21.659,0,0,0,.4,2.5,47.727,47.727,0,0,1,.7,9.1A48.6,48.6,0,0,1,190,52.4c-2.1,5.9-6.5,10.2-10.8,14.2a31.08,31.08,0,0,1-13.3,7,37.6,37.6,0,0,1-9.3,1.3,21.205,21.205,0,0,1-5.7-.7,10.039,10.039,0,0,0-2.4-.4,8.034,8.034,0,0,0-6,2.7c-36.2,36.5-72.4,72.7-108.6,109a16.5,16.5,0,0,1-11.8,5ZM153.3,6.7a4.1,4.1,0,0,0-1.1.1,52.662,52.662,0,0,0-5.6,1.9c-1.1.4-2.3.8-3.4,1.2A22.543,22.543,0,0,0,132.1,18a34.6,34.6,0,0,0-6.8,15.4,29.381,29.381,0,0,0,.5,13.5c.8,2.6.4,4.1-1.4,5.9Q70.1,106.95,16,161.2a40.087,40.087,0,0,0-5.4,6.9c-2.5,3.9-1.4,10.3,1.2,13.6a11.831,11.831,0,0,0,9.5,4.2,14.812,14.812,0,0,0,10.6-4.4c34.4-34.6,69.4-69.6,103.9-104.1l2.1-2.1a60.786,60.786,0,0,1,5.2-5,8.59,8.59,0,0,1,3.8-1.6h.3a12.034,12.034,0,0,1,2.3.5c.4.1.7.2,1,.3a24.668,24.668,0,0,0,6.7,1,31.963,31.963,0,0,0,12.5-2.8c10.4-4.4,16.7-12.8,18.7-25v-.4a8.075,8.075,0,0,0-.8-3.4l-.7-1.6-1.7.4a11.4,11.4,0,0,0-3.4,1.5l-.1.1-.1.1c-1.4,1.3-2.8,2.7-4.1,4-1.5,1.5-3,3-4.5,4.4a3.69,3.69,0,0,1-2.4,1,46.069,46.069,0,0,1-6.4-1.6c-3-.9-6-1.7-9-2.3h-.1c-2.8-.4-4.4-1.7-4.9-4.1-.8-3.6-1.8-7.8-3.1-12-1.2-3.9-1.3-6.2,1.7-8.6a51.256,51.256,0,0,0,6.3-6c.8-.9,1.6-1.7,2.4-2.5l.8-.8-.7-3.3-1.2-.3a14.961,14.961,0,0,0-2.9-.6h-.2ZM97.9,155.5a102.367,102.367,0,0,1-12.2-1.1,6.191,6.191,0,0,1-1.9-.7l-.1-.1a6.015,6.015,0,0,1-1.3-.9l-.1-.1a1.6,1.6,0,0,1-.5-1.9,3.59,3.59,0,0,1,2.7-1.1,2.768,2.768,0,0,1,.9.1,44.591,44.591,0,0,0,12,1.7,40.324,40.324,0,0,0,6-.4c16-1.8,29.1-9.5,38.8-23a39.417,39.417,0,0,0,7-16.1,26.155,26.155,0,0,1,.9-3.8,45.226,45.226,0,0,0,1.1-5.3,34.781,34.781,0,0,0,0-7.9c-.1-1.5-.3-3-.5-4.4-.2-1.3-.3-2.5-.4-3.7-.1-.9.1-2.4,1-2.5h0a4.268,4.268,0,0,1,2.4,1.4,14.032,14.032,0,0,1,1.3,4.5l.1.9a49.039,49.039,0,0,1,.4,5.4,10.868,10.868,0,0,0,.1,1.8,50.442,50.442,0,0,1,0,5.5,28.159,28.159,0,0,1-1,5.8c-1.3,4.1-2.7,8.5-4.5,12.7-2.4,5.9-6.3,10.5-11.4,16.4-5.4,4.6-11.3,9.2-18.5,12.1a60.457,60.457,0,0,1-21.8,4.7ZM13.8,144.4h-.5a6.356,6.356,0,0,0-1.8-.6l-.4-.8c-1-2-2-3.9-2.9-5.8a55.414,55.414,0,0,1-2.5-6.8c-.2-.6-.5-1.8,2.3-3.2a75.822,75.822,0,0,0,6.8-4c.8-.5,1.6-1,2.3-1.4,2.1-1.3,3-3.4,2.4-6.3-.3-1.6-.5-3.3-.8-4.9-.3-2-.6-4-1-6v-.1a5.96,5.96,0,0,0-3.3-3.8h-.2C12.1,100,10,99.5,7.9,99c-1.7-.4-3.4-.9-5.1-1.4C.3,96.8-.4,95.7.1,92.7c.2-1.1.2-2.1.3-3.1.1-.9.1-1.8.2-2.7.8-5,1.6-10.3,2.6-15.5.1-.5.4-1.9,2.9-1.9h.3c2.2.1,4.5.1,7.2.1,2.1,0,4.1,0,6.2-.1H20a4.593,4.593,0,0,0,3.2-2v-.2c2-3.6,3.8-7.2,5.5-10.5,1.1-2.1.8-4.1-.9-6.2-2-2.6-4-5.4-5.9-8l-2.1-3-.1-.1a.642.642,0,0,1,.1-.9l.1-.1.1-.1c4-5.2,9.6-11.8,16.7-16.9a5.6,5.6,0,0,1,2.4-1.2c.3,0,.9.1,2.3,1.3.8.7,1.7,1.4,2.6,2.1a41.49,41.49,0,0,1,4.4,3.8,6.838,6.838,0,0,0,4.9,2.3,8.638,8.638,0,0,0,4.1-1.2l1-.5c2.7-1.4,5.5-2.9,8.2-4.5h.1l.1-.1a6.08,6.08,0,0,0,2.4-4.3V19c0-3.4-.2-7.1-.6-11.7-.1-1.7.8-3.4,1.8-3.7l1.7-.4C78.9,1.6,85.9,0,92.9,0h1.6c1.7.1,1.8.1,2.4,2.6a98.032,98.032,0,0,0,3.7,12c1.1,3,3.9,3.2,5.6,3.4.4,0,.9.1,1.2.1.9.2,1.8.3,2.8.5a21.243,21.243,0,0,1,3.8.8,3.708,3.708,0,0,1,.4,1.4,3.022,3.022,0,0,1-1.4,1.9,6.268,6.268,0,0,1-1.1.1,7.569,7.569,0,0,1-1.5-.1h-.5c-1-.1-2-.2-3.1-.4-1.6-.2-3.3-.4-5-.5-3.5,0-4.9-1-5.5-4.2-.3-1.5-.7-3-1-4.4-.1-.6-.3-1.1-.4-1.7a16.248,16.248,0,0,1-.4-1.9c-.3-3.2-1.9-4.9-4.8-4.9a7.084,7.084,0,0,0-1.4.1c-1.5.2-2.9.4-4.4.6-1.7.2-3.5.4-5.2.7-4.2.7-5.4,2.3-5.2,6.5v.2c.2,3.5.5,7.1.6,10.6,0,.9-.3,2.1-2.8,3.3-2,1-3.9,2-5.9,3-3.3,1.7-6.6,3.3-9.8,5a6.405,6.405,0,0,1-2.7,1c-.4,0-1-.2-2.5-1.5-.6-.6-1.2-1.1-1.8-1.7-1.4-1.3-2.9-2.7-4.5-4a7.537,7.537,0,0,0-4.8-2.1,7.177,7.177,0,0,0-4.9,2.4c-1,1-2,2-2.9,3-1.2,1.2-2.4,2.5-3.7,3.6-2.2,2.1-2.4,4.4-.5,7,1.1,1.4,2.2,2.9,3.2,4.3,1.4,1.9,2.8,3.9,4.3,5.8.7.8.8,1.4-.1,3-2.2,3.9-4.5,7.9-6.5,12a11.275,11.275,0,0,0-.8,2.4,5.271,5.271,0,0,1-.5,1.5c-1.4,2.7-2.4,3.2-4.4,3.2a22.286,22.286,0,0,1-3.2-.3,44.03,44.03,0,0,0-7.3-.6h-.3a5.7,5.7,0,0,0-5.6,4.9A74.667,74.667,0,0,0,5,89.2v.2a6.422,6.422,0,0,0,2.9,4.7h.2a26.4,26.4,0,0,0,4.5,1.5l2.1.6c.7.2,1.4.4,2.2.6a9.869,9.869,0,0,1,3.7,1.4c.9.8,1.3,3,1.7,4.7v.1c.2,1.3.3,2.6.4,4.1.1,1.4.2,2.9.4,4.4a54.5,54.5,0,0,0,1.4,5.8,21.718,21.718,0,0,0,.7,2.4c.3,1.1-.6,2.5-2.1,3.6-2.7,1.9-5.6,3.8-8.3,5.7-3.9,2.8-3.6,5.3-1.8,8.6.3.5.5.9.8,1.4,1,1.6,1.6,2.7,1.4,4.1C14.6,144.4,14.1,144.4,13.8,144.4Zm30.6-30.8a2.842,2.842,0,0,1-1.9-.9,3.97,3.97,0,0,1-1.1-2,96.412,96.412,0,0,1-1.5-14.1c-.3-6.9,1.6-13.6,3.6-19.8A24.084,24.084,0,0,1,45,73.5a23.94,23.94,0,0,0,1.3-2.8c2.1-5.1,5.9-9.2,10.3-13.8l.9-1c2.7-2.5,5.5-5,8.4-7.2a37.3,37.3,0,0,1,6.9-3.5H73a92.391,92.391,0,0,1,9.9-3.9,40.016,40.016,0,0,1,8.4-1.5c2.4-.2,4.8-.2,7.1-.2,2.2,0,4.4.1,6.5.2a14.285,14.285,0,0,1,5.6,2.2l.1.1a1.287,1.287,0,0,1,.7.9h0l-.1.1a6.531,6.531,0,0,1-2.9,1.8,59.885,59.885,0,0,0-10.3-1,56.343,56.343,0,0,0-10,.9C73.2,47.4,61.5,54.9,53.3,67.2c-2.8,4.1-5.5,8.6-6.5,14-.3,1.6-.8,3.2-1.3,4.9-.4,1.3-.8,2.7-1.1,4.1a20.712,20.712,0,0,0-.5,6.1c.3,4.3.8,8.5,1.5,12.7.5,2.7-.1,4.4-.8,4.6Z" transform="translate(-2160.449 2084.5)"/>
  </g>
</svg>
