<svg xmlns="http://www.w3.org/2000/svg" xmlns:xlink="http://www.w3.org/1999/xlink" viewBox="0 0 234 234">
  <defs>
    <style>
      .cls-1, .cls-4 {
        fill: none;
      }

      .cls-2 {
        opacity: 0.12;
        fill: url(#linear-gradient);
      }

      .cls-3 {
        fill: #815fb7;
      }

      .cls-4 {
        stroke: #815fb7;
        stroke-linecap: round;
        stroke-linejoin: round;
        stroke-miterlimit: 10;
        stroke-width: 5px;
      }
    </style>
    <linearGradient id="linear-gradient" x1="0.5" x2="0.5" y2="1" gradientUnits="objectBoundingBox">
      <stop offset="0" stop-color="#004aff" stop-opacity="0"/>
      <stop offset="1" stop-color="#002580"/>
    </linearGradient>
  </defs>
  <g id="con-translate" transform="translate(2176 -972)">
    <rect id="Rectangle_4533" data-name="Rectangle 4533" class="cls-1" width="234" height="234" transform="translate(-2176 972)"/>
    <circle id="Ellipse_2035" data-name="Ellipse 2035" class="cls-2" cx="88.335" cy="88.335" r="88.335" transform="translate(-2119 1001)"/>
    <g id="Group_3587" data-name="Group 3587" transform="translate(-17.148 -226.56)">
      <g id="Group_3586" data-name="Group 3586" transform="translate(-2158.852 1218.686)">
        <path id="Path_15904" data-name="Path 15904" class="cls-3" d="M198.44,289.337c-11.83,0-20.977-7.432-23.308-18.954a10.656,10.656,0,0,1-.132-2.067V191.84c0-11.478,9.5-21.593,20.669-22.032,7.564-.308,15.3-.308,21.988-.308h53.3c13.457,0,23.572,10.115,23.572,23.484v73.177c0,11.478-6.86,20.053-17.9,22.472a39.564,39.564,0,0,1-8.356.616H214.007c-5.145.088-10.335.088-15.568.088Zm14.073-110.865c-5.981,0-10.906,0-15.48.044-8.18.044-13.237,5.189-13.237,13.5v75.156c0,7.74,5.321,13.193,12.929,13.237,2.683,0,5.5.044,8.663.044,3.782,0,7.564,0,11.346-.044,3.122,0,6.289-.044,9.411-.044h34.39c3.518,0,8.136,0,12.885-.088a12.382,12.382,0,0,0,12.357-12.138c.044-24.8.044-50.133,0-77.4a12.322,12.322,0,0,0-12.226-12.269c-4.793-.044-9.983-.044-16.315-.044h-21.5l-.836-.044h-11.17C219.944,178.515,216.25,178.471,212.512,178.471Z" transform="translate(-98.041 -94.959)"/>
        <path id="Path_15905" data-name="Path 15905" class="cls-3" d="M67.68,119.837H65.7c-3.606,0-7.168-.044-11.478-.044h-4.53c-10.159,0-20.1-.044-29.86-.352C9.279,119.133,0,109.238,0,98.244V22.208C0,11.258,9.191,1.1,19.614.484c6.421-.4,12.841-.44,20.493-.44H51.585C57.17,0,63.107,0,70.275,0H95.781C107.3,0,116.186,6.9,119,17.943a17.746,17.746,0,0,1,.616,4.09c.044,13.5.044,27.222.044,40.5v8.927h-8.839V22.428c0-8.18-5.409-13.457-13.765-13.457H33.95c-4.4,0-9.147.044-13.941.22C13.941,9.455,8.8,14.952,8.8,21.241V98.816c0,6.2,5.277,11.786,11.3,11.918,5.717.132,11.39.132,16.623.132H69.4v8.927Z"/>
        <path id="Path_15906" data-name="Path 15906" class="cls-3" d="M122.755,63.722v6.728H108.33c-1.8,10.642-4.793,20.977-12.489,29.552a49.068,49.068,0,0,0,28.849,9.411c-1.935,2.507-3.782,4.925-5.893,7.7a66.87,66.87,0,0,1-27.969-12.533,86.416,86.416,0,0,1-25.419,12.445c-1.627-2.375-3.21-4.574-4.837-6.948,9.059-1.319,17.811-4.09,25.067-9.411-2.815-5.321-5.8-10.247-8.048-15.48-1.8-4.222-2.771-8.839-4-13.325-.352-1.319-.748-1.935-2.287-1.891-3.694.132-7.432.044-11.3.044V63.942H90.168c-1.143-2.99-2.287-5.937-3.518-8.971,2.507-.572,4.969-1.1,7.564-1.671.66,3.122,1.275,6.025,1.847,8.927.308,1.539,1.055,2.111,2.683,2.067,6.64-.264,13.325-.4,19.965-.572ZM91,95.957c6.289-5.013,10.247-17.855,10.115-25.99H79.306C81.153,79.642,84.143,88.569,91,95.957Z" transform="translate(-33.614 -29.86)"/>
        <path id="Path_15907" data-name="Path 15907" class="cls-3" d="M305.8,297.656c-2.639,0-5.057.088-7.476-.088-.528-.044-1.231-.836-1.451-1.451-1.539-4.705-3.034-9.411-4.442-14.16-.44-1.407-.967-2.111-2.683-2.067-6.816.132-13.633.044-20.449-.044-1.407-.044-1.891.528-2.287,1.715q-2.507,7.982-5.145,15.964H253.6c1.891-5.673,3.738-11.258,5.585-16.8q7.388-22.032,14.688-44.109c.528-1.583,1.275-2.287,2.946-2.067a20.65,20.65,0,0,0,3.3.044c4.661-.044,4.618-.044,6.157,4.486q9.3,27.9,18.69,55.806A23.515,23.515,0,0,1,305.8,297.656Zm-25.858-54.135c-.176,0-.308-.044-.484-.044-3.122,9.675-6.245,19.35-9.411,29.2H289.4C286.187,262.783,283.064,253.152,279.942,243.521Z" transform="translate(-142.075 -131.38)"/>
      </g>
      <g id="Group_1011" data-name="Group 1011" transform="translate(-2034.161 1247.397) rotate(-45)">
        <g id="Group_1010" data-name="Group 1010" transform="translate(10.11 0)">
          <path id="Path_1264" data-name="Path 1264" class="cls-4" d="M0,61.783A56.525,56.525,0,0,0,4.044,0"/>
        </g>
        <path id="Path_1265" data-name="Path 1265" class="cls-4" d="M0,0,10.11,17.749l21.793-1.8" transform="translate(0 44.034)"/>
      </g>
      <g id="Group_1013" data-name="Group 1013" transform="translate(-2146.883 1366.038) rotate(-45)">
        <g id="Group_1012" data-name="Group 1012" transform="translate(10.426 0)">
          <path id="Path_1266" data-name="Path 1266" class="cls-4" d="M11.367,0A56.525,56.525,0,0,0,7.323,61.783" transform="translate(0)"/>
        </g>
        <path id="Path_1267" data-name="Path 1267" class="cls-4" d="M31.678,17.749,21.792,0,0,1.573"/>
      </g>
    </g>
  </g>
</svg>
