<svg xmlns="http://www.w3.org/2000/svg" xmlns:xlink="http://www.w3.org/1999/xlink" viewBox="0 0 423 299.195">
  <defs>
    <style>
      .cls-1, .cls-5 {
        fill: #fff;
      }

      .cls-1, .cls-2 {
        stroke: #fff;
        opacity: 0.15;
      }

      .cls-2, .cls-3 {
        fill: none;
      }

      .cls-2 {
        stroke-linecap: round;
        stroke-width: 6px;
      }

      .cls-4 {
        opacity: 0.18;
        fill: url(#linear-gradient);
      }

      .cls-6 {
        stroke: none;
      }
    </style>
    <linearGradient id="linear-gradient" x1="0.5" x2="0.5" y2="1" gradientUnits="objectBoundingBox">
      <stop offset="0" stop-color="#fff" stop-opacity="0"/>
      <stop offset="1" stop-color="#fff"/>
    </linearGradient>
  </defs>
  <g id="news-hero" transform="translate(-7068 621)">
    <g id="Group_3608" data-name="Group 3608" transform="translate(-928 -9)">
      <g id="Group_3574" data-name="Group 3574" transform="translate(8615.275 -727.17)">
        <g id="Ellipse_93" data-name="Ellipse 93" class="cls-1" transform="translate(-389.749 168.141)">
          <circle class="cls-6" cx="5.588" cy="5.588" r="5.588"/>
          <circle class="cls-3" cx="5.588" cy="5.588" r="5.088"/>
        </g>
        <g id="Ellipse_219" data-name="Ellipse 219" class="cls-1" transform="translate(-461.749 130.141)">
          <circle class="cls-6" cx="3.588" cy="3.588" r="3.588"/>
          <circle class="cls-3" cx="3.588" cy="3.588" r="3.088"/>
        </g>
        <g id="Ellipse_97" data-name="Ellipse 97" class="cls-1" transform="translate(-538.053 294.349)">
          <circle class="cls-6" cx="5.588" cy="5.588" r="5.588"/>
          <circle class="cls-3" cx="5.588" cy="5.588" r="5.088"/>
        </g>
        <g id="Ellipse_98" data-name="Ellipse 98" class="cls-1" transform="translate(-311.257 390.654)">
          <circle class="cls-6" cx="5.588" cy="5.588" r="5.588"/>
          <circle class="cls-3" cx="5.588" cy="5.588" r="5.088"/>
        </g>
        <g id="Ellipse_94" data-name="Ellipse 94" class="cls-1" transform="translate(-553.72 190.229)">
          <ellipse class="cls-6" cx="3.726" cy="3.726" rx="3.726" ry="3.726"/>
          <ellipse class="cls-3" cx="3.726" cy="3.726" rx="3.226" ry="3.226"/>
        </g>
        <g id="Ellipse_96" data-name="Ellipse 96" class="cls-1" transform="translate(-400.091 115.17)">
          <ellipse class="cls-6" cx="3.726" cy="3.726" rx="3.726" ry="3.726"/>
          <ellipse class="cls-3" cx="3.726" cy="3.726" rx="3.226" ry="3.226"/>
        </g>
        <line id="Line_161" data-name="Line 161" class="cls-2" x2="86.619" transform="translate(-526.862 387.011)"/>
        <line id="Line_2516" data-name="Line 2516" class="cls-2" x2="51.362" transform="translate(-510.862 155.011)"/>
        <line id="Line_174" data-name="Line 174" class="cls-2" x2="147.159" transform="translate(-616.275 356.276)"/>
        <line id="Line_164" data-name="Line 164" class="cls-2" x2="92.07" transform="translate(-558.775 251.647)"/>
        <line id="Line_165" data-name="Line 165" class="cls-2" x2="46.313" transform="translate(-596.088 226.019)"/>
        <line id="Line_169" data-name="Line 169" class="cls-2" x2="8.382" transform="translate(-401.125 411.364)"/>
        <line id="Line_162" data-name="Line 162" class="cls-2" x2="16.825" transform="translate(-496.126 182.107)"/>
        <line id="Line_173" data-name="Line 173" class="cls-2" x2="16.825" transform="translate(-405.341 373.188)"/>
        <line id="Line_166" data-name="Line 166" class="cls-2" x2="16.825" transform="translate(-502.459 287.723) rotate(-45)"/>
        <line id="Line_171" data-name="Line 171" class="cls-2" x2="16.825" transform="translate(-315.407 145.632) rotate(-45)"/>
        <line id="Line_163" data-name="Line 163" class="cls-2" x2="16.825" transform="translate(-487.744 173.724) rotate(90)"/>
        <line id="Line_172" data-name="Line 172" class="cls-2" x2="16.825" transform="translate(-396.959 364.805) rotate(90)"/>
        <line id="Line_167" data-name="Line 167" class="cls-2" x2="16.825" transform="translate(-502.459 275.867) rotate(45)"/>
        <line id="Line_170" data-name="Line 170" class="cls-2" x2="16.825" transform="translate(-315.407 133.777) rotate(45)"/>
      </g>
      <rect id="Rectangle_4555" data-name="Rectangle 4555" class="cls-3" width="241" height="241" transform="translate(8178 -584)"/>
      <circle id="Ellipse_2052" data-name="Ellipse 2052" class="cls-4" cx="105" cy="105" r="105" transform="translate(8209 -569)"/>
    </g>
    <g id="Group_3607" data-name="Group 3607" transform="translate(-459 66.796)">
      <g id="Group_3606" data-name="Group 3606" transform="translate(7710.436 -627.796)">
        <path id="Path_15940" data-name="Path 15940" class="cls-5" d="M170.4,88.1V41.35c0-8.673.169-17.346-.085-26.019a22.677,22.677,0,0,0-1.861-8.715c-2.242-4.823-6.684-6.6-11.846-6.642-10.7-.042-21.45,0-32.153,0H67.131c-7.192,0-14.384-.042-21.576.042C40.1.1,35.951,2.555,33.539,7.547a7.522,7.522,0,0,0-.8,2.792c-.169,2.454-.254,4.908-.254,7.4,0,4.273.042,4.273-4.315,4.273-4.781,0-9.6-.085-14.384-.042A13.3,13.3,0,0,0,6.124,23.92C1.47,26.966.074,31.535.074,36.654c-.042,15.654,0,31.307.042,46.961,0,2.2-.085,4.358,0,6.558a5.932,5.932,0,0,0,.677,3A3.008,3.008,0,0,0,3.163,94.4a2.907,2.907,0,0,0,1.9-1.819,12.4,12.4,0,0,0,.169-3.554Q5.3,62.5,5.32,35.935c0-4.992,2.411-8.715,8.588-8.673,5.2.042,10.45-.042,15.654-.042,2.581,0,2.961.381,2.961,2.919q0,44.93-.042,89.9c0,12.057.085,24.115-.042,36.172-.042,3.977-.931,7.742-3.681,10.957C24.866,171.7,17.039,172.756,12,169.54c-4.569-2.919-6.388-7.234-6.558-12.269-.254-7.954-.085-15.95-.085-23.9-.042-9.392-.042-18.742-.085-28.134,0-1.692-.3-3.173-2.454-3.173-2.115,0-2.581,1.608-2.623,3.173-.127,4.865-.127,9.731-.127,14.6,0,12.354-.042,24.665,0,37.019.042,6.6,2.327,12.269,7.7,16.373a17.783,17.783,0,0,0,9.1,3.554,59.408,59.408,0,0,0,6.134.169H155.637c3.554,0,6.9-.508,9.731-2.835,2.115-1.692,3.935-3.808,4.146-6.6.423-5.838.719-11.634.846-17.473.127-6.008.042-11.973.042-17.98Zm-5.288.254h-.042V146.1c0,5.838.085,11.719-.042,17.557-.085,4.315-2.792,8.123-8,7.911-.931-.042-1.819,0-2.75,0q-46.326,0-92.652.042-13.327,0-26.653-.042a10.106,10.106,0,0,1-2.158-.55,8.8,8.8,0,0,1,.8-1.819c2.919-3.681,3.808-8,3.85-12.481.127-16.5.127-33,.127-49.5q0-46.009,0-92.017a23.022,23.022,0,0,1,.381-4.188,6.439,6.439,0,0,1,6.177-5.585c1.946-.169,3.935-.127,5.923-.127h72.768c11.3,0,22.55-.042,33.845.042a10.077,10.077,0,0,1,4.611,1.015c3.3,1.735,3.85,4.908,3.85,8.334Q165.092,51.568,165.113,88.353Z" transform="translate(-0.056 0.044)"/>
        <path id="Path_15941" data-name="Path 15941" class="cls-5" d="M259.93,166.526h21.788c3.6,0,4.485-.931,4.527-4.527V122.654c0-3.385-1.185-4.611-4.611-4.611-14.469-.042-28.9-.042-43.365-.042-3.638,0-4.569.888-4.569,4.485,0,13.242,0,26.526.042,39.768,0,3.511.719,4.231,4.188,4.273,7.319.042,14.68,0,22,0Zm.127-43.111v-.042H278.63c1.438,0,2.242.381,2.242,1.988-.042,11.211-.042,22.38-.042,33.592,0,1.735-.719,2.369-2.411,2.369-12.311,0-24.665,0-36.976.085-1.819,0-2.538-.8-2.5-2.581.042-10.915.085-21.83.042-32.746,0-2.031.719-2.708,2.708-2.708C247.788,123.458,253.923,123.415,260.057,123.415Z" transform="translate(-134.852 -68.059)"/>
        <path id="Path_15942" data-name="Path 15942" class="cls-5" d="M172.432,361.87h44.38a6.016,6.016,0,0,0,2.5-.127c1.015-.55,2.411-1.481,2.454-2.369.042-.846-1.185-1.988-2.115-2.665-.592-.423-1.65-.254-2.454-.254H127.544a6.321,6.321,0,0,0-3.258.508,3.431,3.431,0,0,0-1.4,2.665c.085.762,1.142,1.608,1.988,2.073a6.031,6.031,0,0,0,2.5.169Z" transform="translate(-70.919 -205.612)"/>
        <path id="Path_15943" data-name="Path 15943" class="cls-5" d="M172.371,254.677H126.3c-1.692,0-3.342.127-3.511,2.369-.127,1.65,1.1,2.75,3.469,2.835,3.6.127,7.192.127,10.788.127q39.853,0,79.706-.085a6.885,6.885,0,0,0,3.258-.55c.846-.465,1.9-1.819,1.692-2.454-.254-.888-1.481-1.608-2.454-2.158a4.79,4.79,0,0,0-2.073-.127Q194.773,254.7,172.371,254.677Z" transform="translate(-70.858 -146.86)"/>
        <path id="Path_15944" data-name="Path 15944" class="cls-5" d="M172.194,322.968H128.449a12.291,12.291,0,0,0-3.554.212,3.155,3.155,0,0,0-1.9,1.988,2.986,2.986,0,0,0,1.438,2.327,7,7,0,0,0,3.258.592q26.526.063,53.053.042,17.959,0,35.919-.042a10.1,10.1,0,0,0,3.892-.719,2.635,2.635,0,0,0,1.354-2.073,3.141,3.141,0,0,0-1.777-2.031,9.585,9.585,0,0,0-3.342-.3Z" transform="translate(-70.978 -186.298)"/>
        <path id="Path_15945" data-name="Path 15945" class="cls-5" d="M171.945,293.621h44.591c.762,0,1.565,0,2.327-.042a2.643,2.643,0,0,0,2.835-2.327c.212-1.65-1.1-2.369-2.411-2.75a11.194,11.194,0,0,0-2.919-.212q-37.124,0-74.206.042c-4.95,0-9.857-.042-14.807-.042a11.653,11.653,0,0,0-2.115.085c-1.523.338-2.877.931-2.75,2.877.127,1.819,1.354,2.327,2.919,2.327h46.5Z" transform="translate(-70.686 -166.301)"/>
        <path id="Path_15946" data-name="Path 15946" class="cls-5" d="M134.681,123.373c-2.972,0-5.944.042-8.915,0-1.943-.042-3.048-1.058-2.972-2.708A2.543,2.543,0,0,1,125.651,118c6.134,0,12.268,0,18.4.085a2.424,2.424,0,0,1,2.705,2.538c.076,1.608-.991,2.665-2.781,2.708-3.086.042-6.21,0-9.3,0Z" transform="translate(-59.166 -68.059)"/>
        <path id="Path_15947" data-name="Path 15947" class="cls-5" d="M134.685,191.747c-2.972,0-5.944.042-8.915,0a2.7,2.7,0,0,1-3.01-2.285c-.343-1.735.762-3.046,2.705-3.088,4.8-.042,9.6,0,14.44,0,1.41,0,2.781,0,4.191.042,1.524.042,2.629.719,2.591,2.623a2.44,2.44,0,0,1-2.705,2.581c-3.086.085-6.21.042-9.3.042Z" transform="translate(-59.056 -107.496)"/>
        <path id="Path_15948" data-name="Path 15948" class="cls-5" d="M134.23,225.5h-8.953c-1.486,0-2.9-.3-2.9-2.412s1.448-2.538,2.9-2.581c4.991-.127,10.02-.127,15.05-.127a20.59,20.59,0,0,1,3.62.127c1.372.212,2.629.762,2.515,2.75-.114,1.862-1.3,2.285-2.667,2.285-3.2,0-6.363,0-9.563-.042Z" transform="translate(-58.715 -127.114)"/>
        <path id="Path_15949" data-name="Path 15949" class="cls-5" d="M134.675,157.419h-8a13.926,13.926,0,0,1-2.286-.212c-1.219-.169-1.753-1.015-1.791-2.327a2.023,2.023,0,0,1,1.791-2.285c.572-.085,1.143-.169,1.714-.212,5.563-.042,11.163-.085,16.726-.085,2.857,0,3.848.719,3.81,2.581,0,1.862-.952,2.5-3.848,2.538-2.743.042-5.448,0-8.191,0C134.675,157.461,134.675,157.461,134.675,157.419Z" transform="translate(-58.97 -87.848)"/>
        <path id="Path_15950" data-name="Path 15950" class="cls-5" d="M204.882,225.635c-1.075-.085-2.082-.677-2.082-2.581a2.489,2.489,0,0,1,2.485-2.454,2.6,2.6,0,0,1,2.451,2.581A2.451,2.451,0,0,1,204.882,225.635Z" transform="translate(-150.624 -127.252)"/>
        <path id="Path_15951" data-name="Path 15951" class="cls-5" d="M205.219,157.592c-1.108-.212-2.283-.465-2.351-2.454a2.469,2.469,0,1,1,4.936,0A2.412,2.412,0,0,1,205.219,157.592Z" transform="translate(-150.726 -88.021)"/>
        <path id="Path_15952" data-name="Path 15952" class="cls-5" d="M205.616,118.3a2.61,2.61,0,1,1-2.418,2.581A2.551,2.551,0,0,1,205.616,118.3Z" transform="translate(-151.022 -68.232)"/>
        <path id="Path_15953" data-name="Path 15953" class="cls-5" d="M205.682,186.5a2.444,2.444,0,0,1,2.283,2.665c-.067,1.354-1.31,2.665-2.485,2.5a2.591,2.591,0,0,1,.2-5.161Z" transform="translate(-150.987 -107.577)"/>
      </g>
      <path id="Path_15954" data-name="Path 15954" class="cls-5" d="M28.716,1,22.869,12.93,16.114,1H8.351L0,20.34H7.8L12.77,8.78l5.485,9.8.967,1.728h7.813L36.462,1ZM21.844,14.913l1.109,1.26S21.861,14.946,21.844,14.913Z" transform="translate(7816.89 -565.63)"/>
      <path id="Path_15955" data-name="Path 15955" class="cls-5" d="M50.1-.014H94.076c.85,0,1.7-.042,2.549.042,2.592.17,3.569,1.19,3.612,3.739q.064,6.055,0,12.11c-.042,2.847-1.19,3.994-4.079,3.994-12.407.042-44.891,0-57.3.042-1.785,0-3.314-.34-3.569-2.422-.212-1.615,1.4-2.847,3.739-2.847,10.325-.042,40.812,0,51.137-.042,5.056,0,4.717.51,4.674-4.674,0-4.717-.042-4.717-4.759-4.717H9.136c-3.739,0-3.952.212-4.037,3.952-.17,5.481-.17,5.481,5.354,5.481,10.92,0,1.679-.042,12.6-.042a7.019,7.019,0,0,1,3.4.765,2.924,2.924,0,0,1,1.1,2.422c-.127.765-1.062,1.53-1.827,2A4.165,4.165,0,0,1,23.647,20c-13.045,0-5.928,0-18.973-.042-3.909,0-4.589-.68-4.632-4.589C0,11.713,0,8.1,0,4.49,0,.665.637.028,4.462.028Q27.279-.036,50.1-.014Z" transform="translate(7762.182 -609.865)"/>
    </g>
  </g>
</svg>
