<svg xmlns="http://www.w3.org/2000/svg" xmlns:xlink="http://www.w3.org/1999/xlink" viewBox="0 0 100 100">
  <defs>
    <style>
      .cls-1 {
        fill: none;
      }

      .cls-2 {
        opacity: 0.12;
        fill: url(#linear-gradient);
      }

      .cls-3 {
        fill: #009bff;
      }

      .cls-4 {
        fill: #7d5ab5;
      }
    </style>
    <linearGradient id="linear-gradient" x1="0.5" x2="0.5" y2="1" gradientUnits="objectBoundingBox">
      <stop offset="0" stop-color="#004aff" stop-opacity="0"/>
      <stop offset="1" stop-color="#004aff"/>
    </linearGradient>
  </defs>
  <g id="hom-oa" transform="translate(-1321 -2461)">
    <rect id="Rectangle_1044" data-name="Rectangle 1044" class="cls-1" width="100" height="100" transform="translate(1321 2461)"/>
    <circle id="Ellipse_215" data-name="Ellipse 215" class="cls-2" cx="35.769" cy="35.769" r="35.769" transform="translate(1349.462 2475)"/>
    <g id="Group_3575" data-name="Group 3575" transform="translate(1321.017 2468.176)">
      <path id="Path_15890" data-name="Path 15890" class="cls-3" d="M83.635,38.37a1.649,1.649,0,0,0-3.291.219c.548,5.485-.878,10.421-3.839,13.6a9.879,9.879,0,0,1-7.35,3.4,7.276,7.276,0,0,1-6.143-3.4c-2.084-3.839-1.645-9.872-1.645-9.872v-.11c0-.439.11-.878.11-1.426V24.22a1.922,1.922,0,0,0-1.865-1.865h0a1.922,1.922,0,0,0-1.865,1.865v4.936A20.1,20.1,0,0,0,41.293,20.6,20.294,20.294,0,1,0,58.954,50.766a17.177,17.177,0,0,0,1.316,3.291,10.538,10.538,0,0,0,8.885,4.936,13.042,13.042,0,0,0,9.872-4.5C82.539,50.656,84.184,44.733,83.635,38.37ZM41.184,56.689A15.906,15.906,0,1,1,57.089,40.784,15.917,15.917,0,0,1,41.184,56.689Z" transform="translate(2.037 1.994)"/>
      <path id="Path_15891" data-name="Path 15891" class="cls-4" d="M42.892,85.778a42.886,42.886,0,1,1,42.671-46.4,26.469,26.469,0,0,1,.11,4.168,1.645,1.645,0,1,1-3.291,0c0-1.316,0-2.523-.11-3.839A39,39,0,0,0,69.987,14.257,38.171,38.171,0,0,0,41.8,3.287a39.5,39.5,0,0,0-27.643,12.4,38.931,38.931,0,0,0-10.86,28.3,39.576,39.576,0,0,0,68.34,26,1.631,1.631,0,0,1,2.413,2.194A42.658,42.658,0,0,1,44.1,85.558,2.572,2.572,0,0,1,42.892,85.778Z" transform="translate(0 0)"/>
    </g>
  </g>
</svg>
