<svg viewBox="0 0 159.224 52.77" xmlns="http://www.w3.org/2000/svg" xmlns:xlink="http://www.w3.org/1999/xlink"><linearGradient id="a" gradientUnits="objectBoundingBox" x1=".108" x2=".871" y1=".5" y2=".5"><stop offset="0" stop-color="#c629b4"/><stop offset=".327" stop-color="#9a57c5"/><stop offset="1" stop-color="#36bfed"/></linearGradient><linearGradient id="b" gradientUnits="objectBoundingBox" x1=".155" x2=".914" y1=".451" y2=".708"><stop offset="0" stop-color="#c047c1"/><stop offset=".939" stop-color="#4783d9"/></linearGradient><linearGradient id="c" x1="-.239" x2=".829" xlink:href="#b" y1=".606" y2=".407"/><path d="m49.62 1-10.1 20.614-11.676-20.614h-13.414l-14.43 33.418h13.472l8.594-19.976 9.478 16.931 1.672 2.986h13.5l16.284-33.359zm-11.875 24.04 1.916 2.178s-1.887-2.118-1.916-2.178z" fill="url(#a)" transform="translate(0 -.971)"/><path d="m497 1 5.342 9.523 2.294 3.92 1.771-4.036 4.007-9.407z" fill="#664cb2" opacity=".53" transform="translate(-482.57 -.971)"/><path d="m681 252.294 1.916-2.294 2.148 2.178-1.771 4.036z" fill="#2f225e" opacity=".53" transform="translate(-661.228 -242.741)"/><path d="m497 0 7.258 7.23-1.916 2.294z" fill="#6d47af" opacity=".47" transform="translate(-482.57)"/><path d="m0 352.9h13.472l8.594-19.976-2.294-3.924z" fill="#6a187c" opacity=".29" transform="translate(0 -319.448)"/><path d="m747 8.23 6.155-7.23-4.007 9.407z" fill="#3f3377" opacity=".44" transform="translate(-725.311 -.971)"/><path d="m760 329.036 1.771-4.036 7.026 7.607 2.352 16.346z" fill="#7f76d2" opacity=".68" transform="translate(-737.934 -315.564)"/><path d="m825.007 1-4.007 9.407 7.026 7.607z" fill="#abaad6" opacity=".28" transform="translate(-797.163 -.971)"/><path d="m1063 587 2.352 16.346 4.53-9.32z" fill="#2c45af" opacity=".33" transform="translate(-1032.137 -569.957)"/><path d="m1150.445 904-6.445 7.142h13.5z" fill="#0f3b93" opacity=".94" transform="translate(-1110.785 -877.753)"/><path d="m1148.529 829c.029.058 1.916 2.177 1.916 2.177l-6.445 7.143z" fill="#2d55c2" opacity=".85" transform="translate(-1110.785 -804.93)"/><path d="m1301.771 711-1.771 3.426 1.916 2.178 1.858-2.178z" fill="#406aca" opacity=".94" transform="translate(-1262.255 -690.357)"/><path d="m1366 831.177 1.858-2.177 5.2 9.32z" fill="#1157bc" opacity=".86" transform="translate(-1326.339 -804.93)"/><path d="m1430 580.433 6.591-7.433-1.394 16.753z" fill="#2a97e2" opacity=".76" transform="translate(-1388.481 -556.363)"/><path d="m1610.393 17.608 14.895-16.608-16.288 33.36z" fill="#33abe7" opacity=".88" transform="translate(-1562.284 -.971)"/><path d="m1361 21.614 2 3.426 6.591-7.433 1.509-16.607z" fill="#007ec4" opacity=".33" transform="translate(-1321.484 -.971)"/><path d="m14.43 0 5.342 9.523-19.772 23.895z" fill="#b34fc5" opacity=".11"/><path d="m2197.9 1h-13.384l-14.516 33.418h13.385l8.651-20.121 11.15 19.888h13.356z" fill="url(#b)" transform="translate(-2106.996 -.971)"/><path d="m2670 1 5.284 9.465 2.235 3.833 1.8-3.629 4.066-9.669z" fill="#664cb2" opacity=".53" transform="translate(-2592.479 -.971)"/><path d="m2670 1 7.055 7.462-1.771 2z" fill="#6d47af" opacity=".47" transform="translate(-2592.479 -.971)"/><path d="m2852 260 1.771-2 2.264 2.207-1.8 3.629z" fill="#2f225e" opacity=".53" transform="translate(-2769.194 -250.509)"/><path d="m2913 8.462 6.329-7.462-4.064 9.668z" fill="#3f3377" opacity=".44" transform="translate(-2828.423 -.971)"/><path d="m2170 34.418 19.8-23.953-5.282-9.465z" fill="#b34fc5" opacity=".25" transform="translate(-2106.996 -.971)"/><path d="m2170 350.953h13.385l8.651-20.121-2.236-3.832z" fill="#6a187c" opacity=".29" transform="translate(-2106.996 -317.506)"/><path d="m2929 337.629 1.8-3.629 6.765 6.91 2.584 16.608z" fill="#7f76d2" opacity=".68" transform="translate(-2843.959 -324.303)"/><path d="m2991 10.668 4.065-9.668 2.7 16.579z" fill="#abaad6" opacity=".28" transform="translate(-2904.158 -.971)"/><path d="m3224 572 2.585 16.608h13.355z" fill="#2c45af" opacity=".33" transform="translate(-3130.392 -555.392)"/><path d="m3846.13 6-10.249 20.614-11.7-20.614h-13.181l18.581 33.273h13.355l16.638-33.273z" fill="url(#c)" transform="translate(-3700.35 -5.826)"/><path d="m3811 6h13.181l2.99 17.246z" fill="#967dd3" opacity=".71" transform="translate(-3700.35 -5.826)"/><path d="m4927.636 6-16.636 33.273 1.625-16.462z" fill="#37a9e7" opacity=".51" transform="translate(-4768.413 -5.826)"/><path d="m4368 600 6.881 6.939-4.472 9.088z" fill="#4c5da5" opacity=".25" transform="translate(-4241.177 -582.579)"/><path d="m4744.648 585-6.648 7.317 5.023 9.146z" fill="#2688c4" opacity=".61" transform="translate(-4600.436 -568.015)"/><path d="m4265 6 11.7 20.614-1.829 3.571-6.881-6.939z" fill="#6e81d9" opacity=".31" transform="translate(-4141.168 -5.826)"/><path d="m4451 848.088 6.272-7.114-1.8-1.974z" fill="#2d55c2" opacity=".82" transform="translate(-4321.768 -814.64)"/><path d="m4674.084 846.146-7.084-7.114 2.062-2.032z" fill="#2d55c2" opacity=".82" transform="translate(-4531.498 -812.698)"/><path d="m4606.828 716 2.033 3.513-2.062 2.032-1.8-1.974z" fill="#3b69c1" transform="translate(-4471.297 -695.211)"/><path d="m4457.271 907-6.271 7.113h13.356z" fill="#0f3b93" opacity=".94" transform="translate(-4321.768 -880.666)"/><path d="m4668 26.614 10.249-20.614-1.568 16.811-6.649 7.317z" fill="#007ec4" opacity=".33" transform="translate(-4532.468 -5.826)"/><path d="m4968.567 6h13.443l-15.01 16.811z" fill="#3dbbee" opacity=".62" transform="translate(-4822.787 -5.826)"/><g fill="#2666c9"><path d="m1582.48 1451.27a.25.25 0 0 1 -.2-.1l-6.985-9.66v9.515a.247.247 0 0 1 -.493 0v-10.278a.247.247 0 0 1 .447-.145l6.986 9.659v-9.514a.247.247 0 1 1 .493 0v10.278a.246.246 0 0 1 -.171.235.227.227 0 0 1 -.077.01z" transform="translate(-1529.077 -1398.674)"/><path d="m3643.979 1451.77a.252.252 0 0 1 -.2-.1l-6.984-9.66v9.514a.247.247 0 1 1 -.494 0v-10.278a.247.247 0 0 1 .447-.145l6.986 9.659v-9.514a.246.246 0 0 1 .493 0v10.278a.247.247 0 0 1 -.171.235.237.237 0 0 1 -.077.011z" transform="translate(-3530.722 -1399.16)"/><path d="m1965.971 1458.942a.237.237 0 0 1 -.087-.017.247.247 0 0 1 -.142-.319l3.862-10.046a.251.251 0 0 1 .229-.16.245.245 0 0 1 .229.157l3.949 10.046a.246.246 0 1 1 -.459.18l-3.716-9.453-3.632 9.453a.248.248 0 0 1 -.233.159z" transform="translate(-1908.652 -1406.347)"/><path d="m2274.221 1459.021a.248.248 0 0 1 -.226-.151l-4.236-10.046a.246.246 0 1 1 .452-.192l4.01 9.512 4.1-9.515a.247.247 0 1 1 .452.2l-4.329 10.046a.244.244 0 0 1 -.223.146z" transform="translate(-2203.839 -1406.425)"/><path d="m2007.223 1698.994h-5.676a.247.247 0 1 1 0-.494h5.676a.247.247 0 1 1 0 .494z" transform="translate(-1943.193 -1649.185)"/><path d="m3031.5 1453.394a5.2 5.2 0 1 1 5.2-5.2 5.2 5.2 0 0 1 -5.2 5.2zm0-9.9a4.7 4.7 0 1 0 4.7 4.7 4.71 4.71 0 0 0 -4.7-4.7z" transform="translate(-2938.433 -1401.104)"/><path d="m2633.5 1453.394a5.2 5.2 0 1 1 3.508-9.032.246.246 0 0 1 -.334.363 4.7 4.7 0 1 0 .078 6.872.247.247 0 1 1 .34.357 5.177 5.177 0 0 1 -3.592 1.44z" transform="translate(-2551.99 -1401.104)"/><path d="m3479.047 1447.562a.247.247 0 0 1 -.247-.247v-10.568a.247.247 0 0 1 .494 0v10.568a.249.249 0 0 1 -.247.247z" transform="translate(-3377.795 -1394.792)"/></g></svg>