<svg xmlns="http://www.w3.org/2000/svg" xmlns:xlink="http://www.w3.org/1999/xlink" viewBox="0 0 100.05 100"><defs><style>.a,.c,.d,.e,.f,.g,.i{fill:none;}.b{opacity:0.12;fill:url(#a);}.c,.d,.e{stroke:#7d5ab5;}.c{stroke-linecap:square;stroke-linejoin:bevel;}.c,.d,.e,.i{stroke-miterlimit:10;}.c,.d{stroke-width:2.5px;}.d,.e{stroke-linecap:round;}.d,.e,.i{stroke-linejoin:round;}.e,.f,.i{stroke-width:2px;}.f,.g,.i{stroke:#009bff;}.h{fill:#009bff;}.j{stroke:none;}</style><linearGradient id="a" x1="0.5" x2="0.5" y2="1" gradientUnits="objectBoundingBox"><stop offset="0" stop-color="#004aff" stop-opacity="0"/><stop offset="1" stop-color="#004aff"/></linearGradient></defs><g transform="translate(-12220.95 -1918)"><rect class="a" width="100" height="100" transform="translate(12221 1918)"/><circle class="b" cx="35.769" cy="35.769" r="35.769" transform="translate(12249.462 1932)"/><g transform="translate(0 -1.829)"><g transform="translate(10016.7 -306.877)"><path class="c" d="M2205.6,2268.62v-6.967s0-5.452,5.452-5.452h41.3s5.856-.1,5.856,5.452v4.847" transform="translate(0.001)"/><g transform="translate(2205.5 2266.6)"><path class="d" d="M2282.424,2282.4h-21.2a2.025,2.025,0,0,0-2.019,2.02v11.107a2.025,2.025,0,0,0,2.019,2.02h21.2a2.025,2.025,0,0,0,2.02-2.02v-11.107A2.026,2.026,0,0,0,2282.424,2282.4Z" transform="translate(-2204.978 -2266.345)"/><path class="d" d="M2259.722,2295.681v-11.107a2.025,2.025,0,0,1,2.019-2.02H2278.7v-13.025a2.975,2.975,0,0,0-3.029-3.029h-67.146a2.975,2.975,0,0,0-3.029,3.029v41.2a2.975,2.975,0,0,0,3.029,3.029h67.146a2.975,2.975,0,0,0,3.029-3.029V2297.7h-16.963A2.026,2.026,0,0,1,2259.722,2295.681Z" transform="translate(-2205.5 -2266.5)"/></g><path class="e" d="M2273.774,2289.737a3.837,3.837,0,1,1-3.837-3.837A3.772,3.772,0,0,1,2273.774,2289.737Z" transform="translate(0.589 0.288)"/></g><g transform="translate(5 9)"><g class="f" transform="translate(12267 1925)"><circle class="j" cx="11.5" cy="11.5" r="11.5"/><circle class="a" cx="11.5" cy="11.5" r="10.5"/></g><g class="g" transform="translate(12271 1929)"><circle class="j" cx="7.5" cy="7.5" r="7.5"/><circle class="a" cx="7.5" cy="7.5" r="7"/></g></g><path class="h" d="M13.282,1l-2.7,5.518L7.453,1H3.863L0,9.945H3.606L5.907,4.6,8.443,9.13l.447.8H12.5L16.865,1ZM10.1,7.435l.513.583S10.111,7.451,10.1,7.435Z" transform="translate(12229.971 1986.7)"/><line class="i" x2="11.772" transform="translate(12273.678 1936.601) rotate(-90)"/><line class="i" x1="5.886" transform="translate(12279.895 1928.715) rotate(-90)"/><line class="i" x1="2.572" transform="translate(12279.895 1934.373) rotate(-90)"/><line class="i" x2="8.972" transform="translate(12285.802 1931.802) rotate(-90)"/></g></g></svg>