<svg viewBox="0 0 70 70" xmlns="http://www.w3.org/2000/svg" xmlns:xlink="http://www.w3.org/1999/xlink"><linearGradient id="a" gradientUnits="objectBoundingBox" x1=".5" x2=".5" y2="1"><stop offset="0" stop-color="#004aff" stop-opacity="0"/><stop offset="1" stop-color="#004aff"/></linearGradient><path d="m0 0h70v70h-70z" fill="none"/><path d="m23.333 0a23.333 23.333 0 1 1 -23.333 23.333 23.333 23.333 0 0 1 23.333-23.333z" fill="url(#a)" opacity=".12" transform="translate(23.333 12)"/><g stroke-width=".5" transform="translate(.692 8.001)"><path d="m28.084 0c10.665.427 18.882 5.029 24.266 14.367a26.456 26.456 0 0 1 3.334 16.226 27.579 27.579 0 0 1 -11.521 19.944c-.575.428-.856.266-1.21-.266-.339-.5-.472-.856.118-1.269a25.726 25.726 0 0 0 9.1-11.58 25.093 25.093 0 0 0 1.729-11.24 25.958 25.958 0 0 0 -15.018-21.935 24.985 24.985 0 0 0 -14.854-2.124 25.7 25.7 0 0 0 -17.528 11.064 24.617 24.617 0 0 0 -3.747 8.231 23.952 23.952 0 0 0 -.6 9.279 29.663 29.663 0 0 0 1.577 6.403 25.3 25.3 0 0 0 8.275 11.122 41.888 41.888 0 0 0 3.747 2.449c.767.472.929.428 1.269-.369.826-1.932 1.608-3.894 2.419-5.827q1.35-3.3 2.729-6.564c.044-.1.177-.266.221-.251a4.283 4.283 0 0 1 1.224.413c.148.089.192.546.1.767-.679 1.726-1.4 3.437-2.109 5.163-1.092 2.64-2.213 5.281-3.275 7.936-.561 1.416-.988 1.652-2.36.974a27.776 27.776 0 0 1 -12.137-11.492 26.144 26.144 0 0 1 -2.98-8.01 28.45 28.45 0 0 1 -.221-9.811 27.382 27.382 0 0 1 6.609-14.1 27 27 0 0 1 9.721-7.1 26.886 26.886 0 0 1 11.122-2.4z" fill="#7b47b4" stroke="#7b47b4"/><path d="m128.542 143.829c-.9-2.154-1.785-4.234-2.64-6.343q-1.637-3.961-3.26-7.936c-.354-.856-.221-1.224.6-1.667a10.128 10.128 0 0 0 3.806-3.6 10.274 10.274 0 1 0 -17.908-10.046c-1.932 3.747-1.446 7.39.944 10.813a1.015 1.015 0 0 1 -.679 1.637.657.657 0 0 1 -.516-.28 38.242 38.242 0 0 1 -2.154-4.057 9.97 9.97 0 0 1 -.487-4.425 11.287 11.287 0 0 1 4.411-8.467 12.119 12.119 0 0 1 18.871 4.942 11.977 11.977 0 0 1 -4.411 14.442.769.769 0 0 0 -.325 1.106c1.637 3.983 3.275 7.951 4.912 11.934a2.681 2.681 0 0 0 .236.457.7.7 0 0 1 -.384 1.077c-.338.118-.633.251-1.016.413z" fill="#009bff" stroke="#009bff" transform="translate(-90.279 -90.991)"/><path d="m59.743 49.248c1.033-.074 1.047-.03 1.106.62.044.516-.133.649-.575.693-5 .428-8.836 2.995-11.4 7.862a15.172 15.172 0 0 0 -1.77 7.036c0 .752-.457.472-.8.531-.428.074-.546-.192-.487-.59.221-1.431.384-2.876.708-4.293a15.7 15.7 0 0 1 3.375-6.593 14.613 14.613 0 0 1 6.019-4.381 13.473 13.473 0 0 1 3.824-.885z" fill="#7b47b4" stroke="#7b47b4" transform="translate(-38.784 -41.962)"/></g></svg>