<svg viewBox="0 0 339.5 353.099" xmlns="http://www.w3.org/2000/svg" xmlns:xlink="http://www.w3.org/1999/xlink"><linearGradient id="a" gradientUnits="objectBoundingBox" x2="1.107" y1=".5" y2=".192"><stop offset="0" stop-color="#a34bc1"/><stop offset="1" stop-color="#4aa9e4"/></linearGradient><linearGradient id="b" gradientUnits="objectBoundingBox" x1="-1.224" x2=".83" y1=".955" y2=".176"><stop offset="0" stop-color="#a34bc1"/><stop offset="1" stop-color="#25a4f2"/></linearGradient><filter id="c" filterUnits="userSpaceOnUse" height="291.697" width="235.916" x="0" y="61.402"><feOffset dx="1" dy="13"/><feGaussianBlur result="e" stdDeviation="17.5"/><feFlood flood-color="#9c4ec3" flood-opacity=".349"/><feComposite in2="e" operator="in"/><feComposite in="SourceGraphic"/></filter><linearGradient id="d" x1=".5" x2=".5" xlink:href="#a" y1="0" y2="1"/><linearGradient id="e" gradientUnits="objectBoundingBox" x1=".5" x2=".5" y2="1"><stop offset="0" stop-color="#fff" stop-opacity="0"/><stop offset="1" stop-color="#fff"/></linearGradient><path d="m0 0h326v326h-326z" fill="none" opacity=".5" transform="translate(13.5)"/><path d="m244.785 62.434s-33.249 11.123-43.893 14.591-8.492 14.232-5.2 16.8 13.754 5.86 14.173 14.89c.418 9.09-6.817 16.146-14.352 15.727-7.535-.478-14.651-5.8-13.814-13.993s-.718-12.438-6.937-15.129-12.02 4.485-16.146 8.073c-3.887 3.349-20.811 17.641-22.963 19.495.06-.06-31.036-10.465-36.3-12.319s-4.007-7.953-.658-10.585 14.472-5.561 13.814-19.375-17.583-20.926-28.049-13.989-7.415 15.608-7.535 20.332c-.06 4.724-5.023 8.731-9.867 5.2-4.843-3.466-36.358-32.23-36.358-32.23s35.581-62.969 109.255-59.8 104.83 62.312 104.83 62.312z" fill="url(#a)" opacity=".1" transform="translate(39.19 37.993)"/><path d="m188.547 293.925s7-34.325 9.329-45.329-8.073-14.472-11.96-12.917-11.96 8.97-19.973 4.784c-8.073-4.186-10.585-13.993-6.458-20.272s12.379-9.807 19.016-4.964c6.7 4.844 11.123 5.621 16.565 1.555s2.093-12.678 1.076-18c-.957-5.023-4.844-26.85-5.382-29.6 0 .06 24.638-21.648 28.824-25.3 4.186-3.588 8.85.478 9.448 4.724s-2.452 15.309 9.867 21.648c12.259 6.339 26.97-4.784 26.193-17.282-.778-12.558-9.807-14.232-13.874-16.684s-5.023-8.671.419-11.123 46.046-15.365 46.046-15.365 36.9 62.252-2.751 124.5-106.385 59.625-106.385 59.625z" fill="url(#a)" opacity=".1" transform="translate(-11.796 -6.145)"/><g filter="url(#c)" transform=""><path d="m16.3 105.2s26.252 23.2 34.565 30.737 16.565.239 17.163-3.887-1.794-14.831 5.86-19.734 17.4-2.213 20.751 4.545 2.272 15.608-5.262 18.957-10.405 6.817-9.628 13.575 9.927 8.133 15.07 9.927c4.844 1.674 25.654 9.209 28.345 10.166-.06 0 6.458 32.173 7.475 37.614s-4.844 7.415-8.851 5.86-12.08-9.807-23.681-2.272-9.329 25.714 1.914 31.335 17.222-1.375 21.349-3.648 10.046 0 9.448 5.92-9.688 47.6-9.688 47.6-72.358.777-106.445-64.644 1.615-122.051 1.615-122.051z" fill="url(#b)" transform="translate(51.55 -4.3)"/></g><path d="m33.338 54.676h-9.919v-9.919h4.451v-3.387l-11.322-6.629-3.338 1.936h-3.291v4.016h-9.919v-9.871h9.919v4.451h2.9l2.9-1.694v-13.111l-2.9-1.694h-2.9v4.451h-9.919v-9.919h9.919v4.016h3.291l3.629 2.129 11.031-6.483v-3.048h-4.451v-9.92h9.968v9.92h-4.016v3.048l10.645 6.484 3.677-2.178h3.581v-4.064h9.919v9.919h-9.92v-4.452h-3.193l-3.049 1.791v12.822l3.242 1.936h2.9v-4.452h9.927v9.919h-9.924v-4.016h-3.29l-3.486-2.033-11.08 6.677v3.436h4.016v9.918zm-8.344-8.341v6.936h6.936v-6.935zm14.538-25-10.258 6v12.29l10.258-6.193zm-22.4-.1v12.2l10.693 6.193v-12.145zm-15.614 11.229v6.936h6.936v-6.936zm47.484 0v6.4h6.4v-6.4zm-20.454-18.287-10.307 6.049 10.159 5.951 10.161-5.951zm-27.03.68v6.936h6.936v-6.935zm47.484 0v6.4h6.4v-6.4zm-24.008-13.338v6.936h6.936v-6.936zm20.006 47.254h-1.79v-1.79h1.79zm-31.064 0h-1.79v-1.79h1.79zm31.064-41.418h-1.79v-1.79h1.79zm-31.064 0h-1.79v-1.79h1.79z" fill="url(#d)" opacity=".4" transform="translate(205.146 181.923)"/><path d="m218.207 56.741v-9.883l-8.739-5.306v-7.438l-11.184-6.814-11.548 6.762v7.907l-8.271 4.838v9.883l-6.865 4.005v12.8l11.548 6.71 7.022-4.213 8.479 4.942 7.958-4.786 7.022 4.057 11.184-6.762v-12.696zm-14.513 15.866v-10.407l9.155 5.358v10.458l-7.282-4.265zm9.779-6.502-8.739-5.15 3.069-1.821 5.826-3.381 8.583 5.2zm-5.618-25.489v5.41l-8.791 5.15v-10.4l8.843-5.15-.052 4.994zm-.988-6.242-8.739 5.1-8.739-5.15 8.843-5.2zm-18.622 1.144 9.207 5.41v10.456l-8.791-5.1-.416-.26v-4.94zm-1.352 22.575 4.838 2.965-8.687 5.1-8.739-5.15 6.5-3.8 2.341-1.352zm-13.783 4.058 9.207 5.41v10.455l-9.207-5.358zm10.82 15.813v-10.564l8.635-5.046.208 6.97v3.329l-.416.26-3.852 2.187.1.052zm21.119-2.653-6.45 3.9-6.97-4.057 1.456-.884 1.3-.728-.1-4.213v-8.582l-6.658-4.057-4.473-2.757-3.121 1.821v-8.063l6.71-3.953v3.172l1.352.78 10.2 5.93 10.767-6.5.364-.208v-3.487l7.178 4.369v7.906l-2.913-1.665-.052.052-.052-.052-6.606 3.8-4.838 2.809v.052l-.1.052v12.8l2.653 1.561zm9.363 2.653v-10.564l8.843-5.15v10.4z" fill="url(#d)" opacity=".4" transform="translate(-13.47 31.036)"/><path d="m82.921 223.9-22.121 12.977-.179-.12-.179.3-1.136.658v26.192l23.615 13.873 22.9-13.814v-26.192zm0 2.093 21.169 12.857v22.664l-5.741-3.349v-16.146l-15.488-9.389-14.651 8.612-5.561-3.289zm-21.887 13.156 5.741 3.349v16.086l-5.741 3.169zm20.87 35.94-20.092-11.721 5.8-3.169 14.288 8.312zm0-8.611-13.276-7.714v-15.19l13.272 7.774v15.129zm.718-16.266.06-.119.06.119zm0-.538-12.678-7.415 12.856-7.535 12.5 7.595zm13.933-6.04v15.129l-12.855 7.715v-15.309zm-12.855 24.937 14.232-8.552 5.621 3.289-19.853 11.96z" fill="#fff" transform="translate(24.104 -57.924)"/><circle cx="19.756" cy="19.756" fill="url(#e)" opacity=".12" r="19.756" transform="translate(102.283 173.377)"/></svg>