<svg xmlns="http://www.w3.org/2000/svg" xmlns:xlink="http://www.w3.org/1999/xlink" viewBox="0 0 71.156 70"><defs><style>.a,.c,.d,.e{fill:none}.b{opacity:.12;fill:url(#a)}.c{stroke:#009bff}.c,.d,.e{stroke-linecap:round;stroke-linejoin:round;stroke-miterlimit:10}.c,.e{stroke-width:2px}.d,.e{stroke:#7d5ab5}</style><linearGradient id="a" x1=".5" x2=".5" y2="1" gradientUnits="objectBoundingBox"><stop offset="0" stop-color="#004aff" stop-opacity="0"/><stop offset="1" stop-color="#004aff"/></linearGradient></defs><g transform="translate(-1002.844 -3182)"><rect class="a" width="70" height="70" transform="translate(1004 3182)"/><path class="b" d="M23.333,0A23.333,23.333,0,1,1,0,23.333,23.333,23.333,0,0,1,23.333,0Z" transform="translate(1027.333 3194)"/><g transform="translate(354.107 301.376)"><circle class="c" cx="12.91" cy="12.91" r="12.91" transform="translate(661.272 2906.713) rotate(-11.362)"/><path class="d" d="M696.291,2961.975a8.72,8.72,0,0,1-3.939-.9,9.076,9.076,0,0,1-4.651-5.174" transform="translate(-19.862 -36.007)"/><path class="e" d="M768.044,2940.025a3.206,3.206,0,1,1-1.519-4.272A3.2,3.2,0,0,1,768.044,2940.025Z" transform="translate(-58.864 -25.258)"/><path class="e" d="M669.344,2932.534a3.206,3.206,0,0,1-5.791-2.753,3.244,3.244,0,0,1,4.272-1.519A3.189,3.189,0,0,1,669.344,2932.534Z" transform="translate(-7.012 -21.326)"/><path class="e" d="M698.736,2990.488a6.114,6.114,0,1,1-2.848-8.164A6.115,6.115,0,0,1,698.736,2990.488Z" transform="translate(-19.554 -49.568)"/><circle class="e" cx="7.832" cy="7.832" r="7.832" transform="translate(649.893 2890.046) rotate(-9.864)"/><path class="e" d="M746.887,2955.041a4.193,4.193,0,1,1-1.946-5.6A4.195,4.195,0,0,1,746.887,2955.041Z" transform="translate(-46.773 -32.394)"/><path class="e" d="M693.3,2904.844a21.482,21.482,0,0,1,26.722,14.809" transform="translate(-22.804 -8.731)"/><path class="e" d="M667.422,2963.642a21.156,21.156,0,0,1-6.36-10.157,20.831,20.831,0,0,1-.759-7.784" transform="translate(-5.422 -30.648)"/><path class="e" d="M733.076,2975.9a21.558,21.558,0,0,1-8.876,7.262" transform="translate(-39.038 -46.514)"/></g></g></svg>