<svg viewBox="0 0 70 70" xmlns="http://www.w3.org/2000/svg" xmlns:xlink="http://www.w3.org/1999/xlink"><linearGradient id="a" gradientUnits="objectBoundingBox" x1=".5" x2=".5" y2="1"><stop offset="0" stop-color="#004aff" stop-opacity="0"/><stop offset="1" stop-color="#004aff"/></linearGradient><path d="m0 0h70v70h-70z" fill="none"/><path d="m23.333 0a23.333 23.333 0 1 1 -23.333 23.333 23.333 23.333 0 0 1 23.333-23.333z" fill="url(#a)" opacity=".12" transform="translate(23.333 11.667)"/><g fill="none" stroke-linejoin="round" stroke-miterlimit="10" stroke-width="2.25"><path d="m4646.038 2449.777c0 6.421-4.738 11.576-10.419 11.576-5.784 0-10.418-5.155-10.418-11.576s4.737-11.576 10.418-11.576 10.419 5.156 10.419 11.576z" stroke="#7d5ab5" transform="translate(-4604.934 -2422.676)"/><path d="m4648.148 2463.468c0-1.895-1.052-3.368-2.314-3.368h-20.421c-1.261 0-2.312 1.474-2.312 3.368v15.365h24.939v-15.365z" stroke="#7d5ab5" transform="translate(-4605.048 -2421.528)"/><path d="m4643.7 2438.672a10.06 10.06 0 0 1 7.472-3.473c5.789 0 10.417 5.158 10.417 11.576s-4.732 11.578-10.417 11.578" stroke="#009bff" transform="translate(-4603.968 -2422.832)"/><path d="m4650.782 2475.832h12.839v-15.365c0-1.894-1.051-3.368-2.316-3.368h-16.205" stroke="#009bff" transform="translate(-4603.892 -2421.685)"/><path d="m4626.994 2438.672a10.064 10.064 0 0 0 -7.472-3.473c-5.789 0-10.419 5.158-10.419 11.576s4.733 11.578 10.419 11.578" stroke="#009bff" transform="translate(-4605.779 -2422.832)"/><path d="m4619.937 2475.933h-12.837v-15.365c0-1.9 1.054-3.369 2.316-3.369h16.2" stroke="#009bff" transform="translate(-4605.883 -2421.679)"/></g></svg>