<svg viewBox="0 0 100.5 100" xmlns="http://www.w3.org/2000/svg" xmlns:xlink="http://www.w3.org/1999/xlink"><linearGradient id="a" gradientUnits="objectBoundingBox" x1=".5" x2=".5" y2="1"><stop offset="0" stop-color="#004aff" stop-opacity="0"/><stop offset="1" stop-color="#004aff"/></linearGradient><path d="m.5 0h100v100h-100z" fill="none"/><circle cx="35.769" cy="35.769" fill="url(#a)" opacity=".12" r="35.769" transform="translate(28.962 14)"/><g fill="none"><path d="m45.894.859a37.529 37.529 0 1 1 -21.025 1.256 35.423 35.423 0 0 1 3.486-1.072" stroke="#7d5ab5" stroke-linecap="round" stroke-width="3" transform="translate(1.5 17.774)"/><path d="m2727.939 3241.091v-9.612c0-2.85 1.535-5.261 3.509-5.261h16c-8.99 0-16.443-8.113-16.443-17.978 0-10.085 7.235-17.978 16.443-17.978 8.989 0 16.443 8.112 16.443 17.978 0 10.085-7.235 17.978-16.443 17.978h16c1.974 0 3.509 2.411 3.509 5.261v9.612" stroke="#7d5ab5" stroke-linecap="round" stroke-linejoin="round" stroke-miterlimit="10" stroke-width="2.5" transform="translate(-2708.419 -3154.57)"/><path d="m2742.486 3175.878c0-10.086-7.235-17.978-16.443-17.978-8.989 0-16.443 8.112-16.443 17.978 0 10.085 7.235 17.977 16.443 17.977 8.989 0 16.443-8.111 16.443-17.977z" stroke="#7d5ab5" stroke-linejoin="round" stroke-miterlimit="10" stroke-width="2.5" transform="translate(-2687.011 -3122.428)"/><path d="m30.9 4188.068h-11.073a1.328 1.328 0 0 1 -1.327-1.327v-7.916a1.328 1.328 0 0 1 1.327-1.327h11.087a1.328 1.328 0 0 1 1.327 1.327v7.916a1.331 1.331 0 0 1 -1.341 1.327z" stroke="#009bff" stroke-linecap="round" stroke-linejoin="round" stroke-miterlimit="10" stroke-width="2" transform="translate(13.426 -4161.753)"/><path d="m38.781 4131.99h2.41v-3.29a4.9 4.9 0 1 0 -9.791 0v3.294h2.41" stroke="#009bff" stroke-linecap="round" stroke-linejoin="round" stroke-miterlimit="10" stroke-width="2" transform="translate(2.493 -4116.243)"/></g></svg>