<svg viewBox="0 0 100.141 100" xmlns="http://www.w3.org/2000/svg" xmlns:xlink="http://www.w3.org/1999/xlink"><linearGradient id="a" gradientUnits="objectBoundingBox" x1=".5" x2=".5" y2="1"><stop offset="0" stop-color="#004aff" stop-opacity="0"/><stop offset="1" stop-color="#004aff"/></linearGradient><path d="m.141 0h100v100h-100z" fill="none"/><circle cx="35.769" cy="35.769" fill="url(#a)" opacity=".12" r="35.769" transform="translate(28.603 14)"/><g fill="none" stroke="#7d5ab5" stroke-miterlimit="10" stroke-width="2.5" transform="matrix(0 1 -1 0 77.784 13.222)"><path d="m74.226 38.9a34.148 34.148 0 0 0 .345-4.833c.001-18.877-16.686-34.067-37.285-34.067s-37.286 15.305-37.286 34.063c0 1.266.115 2.531.23 3.8"/><path d="m0 0c2.071 17.032 17.837 30.381 37.056 30.381 18.758 0 34.408-12.774 36.944-29.345" transform="translate(.23 37.746)"/></g><g fill="none" stroke="#7d5ab5" stroke-miterlimit="10" stroke-width="2.2" transform="matrix(0 1 -1 0 40.037 13.107)"><path d="m.345 0a34.143 34.143 0 0 0 -.345 4.833 32.847 32.847 0 0 0 10.472 23.707v-8.631a33.279 33.279 0 0 1 -10.127-19.909z"/><path d="m9.091 8.4v-8.4a37.714 37.714 0 0 1 -9.091 5.984v8.516a38.114 38.114 0 0 0 9.091-6.1z" transform="translate(54.318 20.714)"/><path d="m8.631 8.516v-8.516a42.235 42.235 0 0 1 -8.631 2.877v8.516a36.244 36.244 0 0 0 8.631-2.877z" transform="translate(45.687 26.583)"/><path d="m11.163 3.682c0-1.266-.115-2.532-.23-3.683a33.186 33.186 0 0 1 -10.933 19.564v8.4a32.486 32.486 0 0 0 11.163-24.281z" transform="translate(63.409 1.151)"/><path d="m8.631 11.968v-8.516a40.976 40.976 0 0 1 -8.631-3.452v8.631a46.191 46.191 0 0 0 8.631 3.337z" transform="translate(18.068 25.548)"/><path d="m1.5 9.437a39.975 39.975 0 0 0 8.4-.921v-8.516a38.9 38.9 0 0 1 -8.289.921h-1.611v8.516z" transform="translate(35.79 29.46)"/><path d="m7.71 14.27v-8.631a37.969 37.969 0 0 1 -7.71-5.639v8.631a36.843 36.843 0 0 0 7.71 5.639z" transform="translate(10.357 19.794)"/><path d="m9.091 9.9v-8.519a39.433 39.433 0 0 1 -9.091-1.381v8.516a38.5 38.5 0 0 0 9.091 1.384z" transform="translate(26.814 29)"/></g><path d="m28.292 1-5.761 11.754-6.655-11.754h-7.648l-8.228 19.054h7.681l4.9-11.39 5.4 9.654.953 1.7h7.7l9.29-19.018zm-6.771 13.707 1.093 1.242s-1.076-1.209-1.093-1.242z" fill="#009bff" transform="translate(27.084 39.052)"/></svg>