<svg viewBox="0 0 100 100" xmlns="http://www.w3.org/2000/svg" xmlns:xlink="http://www.w3.org/1999/xlink"><linearGradient id="a" gradientUnits="objectBoundingBox" x1=".5" x2=".5" y2="1"><stop offset="0" stop-color="#004aff" stop-opacity="0"/><stop offset="1" stop-color="#004aff"/></linearGradient><path d="m0 0h100v100h-100z" fill="none"/><circle cx="35.769" cy="35.769" fill="url(#a)" opacity=".12" r="35.769" transform="translate(28.462 14)"/><g stroke-width="1.75"><path d="m35.109 97.085c7.523-7.485 15.157-15.064 22.772-22.661-.019-.093-.019-.2-.037-.3a11.878 11.878 0 0 0 -2.094-.389c-3.15-.037-6.3 0-9.45-.037a1.4 1.4 0 0 1 -1.075-.556c-.3-.574.167-.982 1.019-.982 2.279-.019 4.577 0 6.856 0 .982 0 1.983.019 2.965 0a5.288 5.288 0 0 1 5.207 5.244c-.019 3.335 0 6.67 0 10.006 0 .574-.111 1.13-.76 1.167-.741.037-.834-.556-.834-1.167 0-3.335.019-6.652-.037-9.987a9.883 9.883 0 0 0 -.482-2l-23.068 23.015c1.038 2.112.5 4.521.519 6.856.074 8.116.019 16.231.019 24.365a3.663 3.663 0 0 1 -3.91 3.928h-26.496c-.834 0-1.668.019-2.5 0a3.8 3.8 0 0 1 -3.91-4.317c0-.093.019-.185.019-.278q0-13.118-.019-26.218c0-.889-.037-1.779.037-2.668a3.712 3.712 0 0 1 3.835-3.354h22.957c1.89 0 3.761-.037 5.651.019a16.8 16.8 0 0 1 2.816.314zm-16.824 1.279h-14.601a2.111 2.111 0 0 0 -2.223 2.186c0 6.541-.019 13.081 0 19.622 0 3.113.019 6.226.093 9.339.037 1.816.76 2.446 2.576 2.446h24.717c1.353 0 2.724.019 4.076-.019a2.02 2.02 0 0 0 2.112-1.89 7.472 7.472 0 0 0 .074-1.112v-27.036a11.6 11.6 0 0 0 -.037-1.39 2.1 2.1 0 0 0 -2.353-2.149z" fill="#009bff" stroke="#009bff" transform="translate(1.208 -46.609)"/><path d="m.264 6.16c0-.778-.019-1.538 0-2.316a3.6 3.6 0 0 1 3.483-3.78c1.76-.092 3.521-.037 5.262-.037.537 0 .926.241.926.8s-.352.778-.926.778c-1.538-.019-3.076-.019-4.632 0a2.285 2.285 0 0 0 -2.538 2.554c0 1.519-.019 3.02 0 4.54 0 .574-.13 1.019-.76 1.038-.611.019-.834-.408-.815-.982 0-.871 0-1.742 0-2.595z" fill="#7d5ab5" stroke="#7d5ab5" transform="translate(.83 12.168)"/><path d="m354.759 1.692a22.538 22.538 0 0 1 -2.5-.037c-.3-.037-.778-.482-.76-.649.074-.334.445-.834.686-.852 2.038-.037 4.076-.074 6.1.074a3.291 3.291 0 0 1 2.742 2.965c.111 1.89.074 3.8.074 5.707 0 .519-.259 1-.815.871a1.289 1.289 0 0 1 -.76-.926c-.074-1.593-.037-3.205-.037-4.818a2.149 2.149 0 0 0 -2.335-2.353c-.778 0-1.575.019-2.39.019z" fill="#7d5ab5" stroke="#7d5ab5" transform="translate(-285.33 12.078)"/><path d="m361.051 354.721c0 .8.019 1.594 0 2.409a3.639 3.639 0 0 1 -3.817 3.743c-1.575.019-3.15 0-4.706 0-.537 0-1.112 0-1.13-.741-.019-.778.537-.852 1.149-.852 1.5 0 3.02.019 4.521 0 1.649-.019 2.39-.815 2.39-2.483 0-1.482 0-2.965-.019-4.428 0-.593.093-1.167.852-1.167.723 0 .778.574.778 1.13 0 .8 0 1.593-.019 2.39z" fill="#7d5ab5" stroke="#7d5ab5" transform="translate(-285.249 -273.95)"/><path d="m103.6.007h11.747c.278 0 .611-.074.815.056.259.185.593.537.574.8a1.066 1.066 0 0 1 -.667.686 8.334 8.334 0 0 1 -1.668.037h-8.709c-1.758-.004-1.758-.004-2.092-1.579z" fill="#7d5ab5" stroke="#7d5ab5" transform="translate(-83.366 12.188)"/><path d="m232.048 1.675c-1.816 0-3.632-.019-5.447 0-.574 0-1-.148-1-.778s.463-.8 1.019-.8h11.1c.574 0 1 .241.964.834-.037.537-.426.741-.982.741-1.893-.016-3.783.003-5.654.003z" fill="#7d5ab5" stroke="#7d5ab5" transform="translate(-182.76 12.095)"/><path d="m396.412 113.841v5.359c0 .519.019 1.112-.76 1.13-.8.019-.852-.556-.852-1.13v-10.71c0-.593.056-1.186.815-1.186s.815.611.815 1.2c0 1.76 0 3.558-.018 5.336z" fill="#7d5ab5" stroke="#7d5ab5" transform="translate(-320.61 -75.242)"/><path d="m396.394 235.139c0 1.779.037 3.576-.019 5.355a1.456 1.456 0 0 1 -.574 1.093c-.556.315-1.019-.2-1.038-1.075-.018-2.928 0-5.855 0-8.783 0-.593-.018-1.167 0-1.76s-.111-1.353.8-1.371c.945-.019.815.76.815 1.334.016 1.742.016 3.468.016 5.207z" fill="#7d5ab5" stroke="#7d5ab5" transform="translate(-320.573 -174.065)"/><path d="m1.956 113.759v5.466c0 .537-.093 1-.76 1.019-.7.019-.8-.463-.8-.982v-11.024c0-.537.111-1.038.778-1.038.7 0 .815.5.8 1.093-.036 1.816-.018 3.65-.018 5.466z" fill="#7d5ab5" stroke="#7d5ab5" transform="translate(.713 -75.16)"/><path d="m232.094 394.9h5.355c.574 0 1.13.13 1.13.778s-.519.815-1.112.815h-10.9c-.574 0-1.093-.13-1.075-.834.019-.649.519-.76 1.056-.76z" fill="#7d5ab5" stroke="#7d5ab5" transform="translate(-182.677 -309.553)"/></g></svg>