<svg viewBox="0 0 70 70" xmlns="http://www.w3.org/2000/svg" xmlns:xlink="http://www.w3.org/1999/xlink"><linearGradient id="a" gradientUnits="objectBoundingBox" x1=".5" x2=".5" y2="1"><stop offset="0" stop-color="#004aff" stop-opacity="0"/><stop offset="1" stop-color="#004aff"/></linearGradient><path d="m0 0h70v70h-70z" fill="none"/><path d="m23.333 0a23.333 23.333 0 1 1 -23.333 23.333 23.333 23.333 0 0 1 23.333-23.333z" fill="url(#a)" opacity=".12" transform="translate(23.333 11.667)"/><g transform="translate(0 3.566)"><path d="m50.905 20.171c0 3.141-.01 6.282 0 9.433a31.261 31.261 0 0 1 -.835 6.989 33.755 33.755 0 0 1 -4.67 11.087 34.277 34.277 0 0 1 -11.47 10.929 34.5 34.5 0 0 1 -7.93 3.43 1.991 1.991 0 0 1 -1.044.019 34.67 34.67 0 0 1 -15.847-9.758 33.7 33.7 0 0 1 -7.448-12.743 37.13 37.13 0 0 1 -1.532-7.249 20.647 20.647 0 0 1 -.119-2.221c0-6.821.02-13.633-.01-20.446 0-.929.527-1.31 1.412-1.341 1.352-.037 2.715-.074 4.067-.186a36.018 36.018 0 0 0 13.564-3.742 21.339 21.339 0 0 0 5.549-3.931 1.124 1.124 0 0 1 1.76.019 21.3 21.3 0 0 0 5.092 3.662 32.891 32.891 0 0 0 8.572 3.151 41.306 41.306 0 0 0 9.129 1.022 5.711 5.711 0 0 1 .8.046.992.992 0 0 1 .965 1.087q-.005 5.381-.005 10.743zm-25.487-17.528c-.557.437-1.114.883-1.681 1.3a31.638 31.638 0 0 1 -8.224 4.2 35.955 35.955 0 0 1 -7.806 1.814c-1.641.186-3.292.316-4.932.418-.5.028-.587.2-.587.613.01 5.065-.02 10.13.02 15.186.02 2.361.08 4.74.3 7.091a27.368 27.368 0 0 0 1.621 6.794 31.674 31.674 0 0 0 4.694 8.578 32.293 32.293 0 0 0 5.827 5.809 32.574 32.574 0 0 0 10.2 5.39 1.961 1.961 0 0 0 1.243-.009 33.144 33.144 0 0 0 16.3-11.589 31.291 31.291 0 0 0 5.569-12.351 35.6 35.6 0 0 0 .746-6.952c.02-2.23 0-4.461 0-6.691q0-5.674.01-11.338c0-.362-.1-.52-.517-.53-.806-.019-1.621-.093-2.426-.149a40.038 40.038 0 0 1 -8.065-1.385 32.944 32.944 0 0 1 -9.358-4.117c-.995-.651-1.94-1.375-2.934-2.082z" fill="#7b47b4"/><path d="m66.26 103.278v-7.342c0-1.115.209-1.366 1.382-1.515a46.209 46.209 0 0 0 8.035-1.738 34.254 34.254 0 0 0 8.174-3.7 2 2 0 0 1 2.456 0 33.459 33.459 0 0 0 9.875 4.173c2.148.53 4.346.883 6.523 1.283.865.158 1.173.446 1.173 1.273 0 4.879.02 9.758-.03 14.637a26.306 26.306 0 0 1 -2.019 9.572 27.854 27.854 0 0 1 -6.613 9.814 28.193 28.193 0 0 1 -9.507 6 1.7 1.7 0 0 1 -1.283 0 28.252 28.252 0 0 1 -9.815-6.31 27.9 27.9 0 0 1 -6.711-10.59 23.6 23.6 0 0 1 -1.5-7.054c-.1-2.835-.139-5.66-.2-8.494a.134.134 0 0 1 .06-.009zm2.218.92h.09c0 2.193-.05 4.4.01 6.589a24.283 24.283 0 0 0 2.088 9.1 25.217 25.217 0 0 0 7.637 9.907 24.8 24.8 0 0 0 6.364 3.727 1.286 1.286 0 0 0 .835-.009 26.075 26.075 0 0 0 13.992-13.643 26.285 26.285 0 0 0 2.168-10.353c.05-4.229.01-8.457.02-12.676 0-.316-.109-.418-.438-.465a48.075 48.075 0 0 1 -7.259-1.636 39.593 39.593 0 0 1 -8.542-3.764.6.6 0 0 0 -.716.009c-.487.3-.994.558-1.492.827a44 44 0 0 1 -14.22 4.554c-.428.065-.537.2-.537.586.009 2.414-.001 4.83-.001 7.249z" fill="#009bff" transform="translate(-59.617 -80.309)"/><path d="m143.013 249.816c.676-.725 1.342-1.431 2-2.138q6.28-6.705 12.56-13.4a1.194 1.194 0 0 1 1.691-.242 1.057 1.057 0 0 1 .02 1.645l-14.648 15.641-.656.7a1.183 1.183 0 0 1 -1.81.074c-1.651-1.524-3.282-3.058-4.922-4.591l-3.689-3.448c-.537-.5-.656-.883-.418-1.357a1.176 1.176 0 0 1 1.9-.26q2.745 2.551 5.489 5.121c.736.688 1.472 1.385 2.208 2.072.062.053.156.1.275.183z" fill="#7b47b4" transform="translate(-119.793 -212.034)"/></g></svg>