<svg viewBox="0 0 70 70" xmlns="http://www.w3.org/2000/svg" xmlns:xlink="http://www.w3.org/1999/xlink"><linearGradient id="a" gradientUnits="objectBoundingBox" x1=".5" x2=".5" y2="1"><stop offset="0" stop-color="#004aff" stop-opacity="0"/><stop offset="1" stop-color="#004aff"/></linearGradient><path d="m0 0h70v70h-70z" fill="none"/><path d="m23.333 0a23.333 23.333 0 1 1 -23.333 23.333 23.333 23.333 0 0 1 23.333-23.333z" fill="url(#a)" opacity=".12" transform="translate(23.333 11.667)"/><path d="m82.509 62.742c-8.23.328-14.224 3.9-18.041 10.914a18.549 18.549 0 0 0 -2.088 10.994 19.694 19.694 0 0 0 6.411 12.733c.626.586 1.322 1.1 2 1.63a7.35 7.35 0 0 1 2.982 5.944 1.1 1.1 0 0 1 -1.073 1.233 1.082 1.082 0 0 1 -1.115-1.19c0-2.157-1.173-3.569-2.813-4.8a21.475 21.475 0 0 1 -7.952-11.9 20.517 20.517 0 0 1 -.606-8.111 21.935 21.935 0 0 1 8.081-14.652 21.229 21.229 0 0 1 10.675-4.694 22 22 0 0 1 16.918 4.374 22 22 0 0 1 4.312 30.447 22.144 22.144 0 0 1 -7.724 6.421 1.1 1.1 0 1 1 -.994-1.948 21.286 21.286 0 0 0 6.242-4.91 18.458 18.458 0 0 0 4.115-8.409 20.1 20.1 0 0 0 .278-6.809 19.312 19.312 0 0 0 -2.952-8.032 20.045 20.045 0 0 0 -5.457-5.636 18.789 18.789 0 0 0 -7.624-3.181c-1.249-.21-2.531-.299-3.575-.418z" fill="#7d5ab5" transform="translate(-54.079 -51.882)"/><path d="m169.31 164.832v-6.66a1.043 1.043 0 0 1 1.143-1.193c1.491-.03 2.982-.01 4.473 0a.96.96 0 0 1 .567.129c.368.318.567.089.825-.149a6.871 6.871 0 0 0 2.346-3.986 7.778 7.778 0 0 0 .1-1.73c-.149-1.809 1.044-3.141 3.32-2.445a3.313 3.313 0 0 1 2.366 3.111 34.342 34.342 0 0 1 -.239 3.906c-.08.785-.08.855.716.855 1.312 0 2.614-.03 3.926-.01a3.078 3.078 0 0 1 2.952 4.354.918.918 0 0 0 .02.835 3.108 3.108 0 0 1 -.239 2.9 1.174 1.174 0 0 0 -.139.686 3.33 3.33 0 0 1 -.9 2.962 1.879 1.879 0 0 0 -.427.8 2.875 2.875 0 0 1 -2.624 2.147c-.716.04-1.421.03-2.137.03-2.207 0-4.4 0-6.61-.01a1.059 1.059 0 0 1 -1.1-1.481 1.1 1.1 0 0 1 1.123-.666c1.074 0 2.157.01 3.231.01 1.69 0 3.38 0 5.07-.01.736-.01.944-.209.964-.944a1.286 1.286 0 0 1 .547-1.054c.885-.706.944-.914.557-1.938a1.067 1.067 0 0 1 .338-1.412c.567-.517.6-.895.09-1.481a1.142 1.142 0 0 1 0-1.789 1.087 1.087 0 0 0 .258-1.233 1.008 1.008 0 0 0 -1.044-.527c-1.918 0-3.847.01-5.765 0-1.014-.01-1.4-.5-1.213-1.491a23.459 23.459 0 0 0 .487-5.278 1.243 1.243 0 0 0 -.825-1.183c-.378-.159-.477-.05-.517.348a21.245 21.245 0 0 1 -.4 3.081 8.057 8.057 0 0 1 -2.356 3.847c-.557.547-1.093 1.1-1.67 1.63a1.2 1.2 0 0 0 -.408.954c.01 3.549 0 7.087 0 10.636 0 1.044-.368 1.412-1.392 1.412-1.322-.01-2.654 0-3.976 0-1.153 0-1.441-.288-1.441-1.421.003-2.208.003-4.374.003-6.542zm4.652.1c0-1.769-.01-3.539 0-5.308 0-.4-.139-.527-.517-.507a13.953 13.953 0 0 1 -1.441.01c-.408-.02-.557.119-.547.537.02 1.1 0 2.217 0 3.32q0 3.549-.01 7.1c0 .4.129.577.547.557.477-.02.964-.01 1.441.01.408.02.547-.139.547-.547-.03-1.733-.02-3.453-.02-5.173z" fill="#009bff" transform="translate(-152.47 -131.14)"/><path d="m178.487 503.631a2.012 2.012 0 0 0 1.968 1.968q4.92-.015 9.841-.01c1.044 0 2.087.01 3.131 0a1.994 1.994 0 0 0 2.038-2c.03-1.242 0-2.485.02-3.728.01-.408-.169-.507-.537-.507-3.946.01-7.883.01-11.829.01a2.533 2.533 0 0 1 -.547-.04 1.029 1.029 0 0 1 -.805-1.1.962.962 0 0 1 .924-.984c.825-.04 1.66-.03 2.485-.04h11.034c1.074 0 1.431.348 1.441 1.422 0 1.61-.05 3.211.01 4.821a4.273 4.273 0 0 1 -4.264 4.314.9.9 0 0 0 -1.014.745 5.516 5.516 0 0 1 -4.383 3.798 5.716 5.716 0 0 1 -6.561-4.066c-.109-.4-.288-.467-.656-.467a4.349 4.349 0 0 1 -3.728-1.809 5.093 5.093 0 0 1 -.746-3.708c.06-.547.527-.855 1.173-.855 1.958-.01 3.906-.01 5.865-.01q3.8 0 7.6.01a1.072 1.072 0 0 1 1.133 1.471 1.09 1.09 0 0 1 -1.153.686c-1.392.01-2.783.01-4.175.01h-7.6c-.228.03-.436.059-.665.069zm5.119 4.195a3.457 3.457 0 0 0 3.767 2.406 3.331 3.331 0 0 0 2.9-2.406z" fill="#7d5ab5" transform="translate(-158.735 -445.079)"/><g fill="#009bff"><path d="m1.843 269.555c-.268 0-.527.02-.8 0a1.079 1.079 0 0 1 -1.054-1.044 1.1 1.1 0 0 1 1.054-1.163 9.342 9.342 0 0 1 1.491.03 1.074 1.074 0 0 1 1.054 1.193 1.056 1.056 0 0 1 -1.183.994c-.2 0-.378 0-.567-.01z" transform="translate(.007 -238.059)"/><path d="m274.679 1.784c0 .249.01.5 0 .746a1.143 1.143 0 0 1 -1.054 1.113 1.1 1.1 0 0 1 -1.163-1.043 11.264 11.264 0 0 1 0-1.531 1.159 1.159 0 0 1 1.123-1.074 1.184 1.184 0 0 1 1.093 1.093c.011.229.001.457.001.696z" transform="translate(-245.354 2.704)"/><path d="m83.6 76.9a2.973 2.973 0 0 1 2.2 2.157.993.993 0 0 1 -.626.934.973.973 0 0 1 -1.113-.129 13.509 13.509 0 0 1 -1.183-1.2.973.973 0 0 1 -.139-1.153 1.031 1.031 0 0 1 .861-.609z" transform="translate(-74.395 -66.557)"/><path d="m78.018 454.158a1.09 1.09 0 0 1 -.9-1.779 13.4 13.4 0 0 1 1.213-1.163 1.043 1.043 0 0 1 1.362.05.96.96 0 0 1 .219 1.332 11.949 11.949 0 0 1 -1.481 1.441c-.115.1-.331.1-.413.119z" transform="translate(-69.22 -403.459)"/><path d="m456.032 458.706a1.111 1.111 0 0 1 -.646 1.064.975.975 0 0 1 -1.153-.139 12.573 12.573 0 0 1 -1.143-1.163 1.073 1.073 0 0 1 .02-1.411 1.04 1.04 0 0 1 1.392-.189 15 15 0 0 1 1.4 1.461.75.75 0 0 1 .13.377z" transform="translate(-407.821 -408.583)"/><path d="m533.263 278.084c-.249 0-.5.01-.745 0a1.048 1.048 0 0 1 -1.044-.994 1.036 1.036 0 0 1 .915-1.153 8.862 8.862 0 0 1 1.779.01 1 1 0 0 1 .895 1.113 1.068 1.068 0 0 1 -1.014 1.024c-.258.02-.527 0-.785 0z" transform="translate(-478.64 -245.774)"/><path d="m459.554 86.017a1.045 1.045 0 0 1 -1.074-.606.994.994 0 0 1 .169-1.153 14.829 14.829 0 0 1 1.133-1.1 1.086 1.086 0 0 1 1.412-.04 1.023 1.023 0 0 1 .268 1.342 13.951 13.951 0 0 1 -1.561 1.5c-.089.067-.278.047-.347.057z" transform="translate(-412.804 -71.936)"/><path d="m378.411 33.2a1.108 1.108 0 0 1 1.123 1.083 1.406 1.406 0 0 1 -1.2 1.412 1.073 1.073 0 0 1 -1.134-1.055 1.364 1.364 0 0 1 1.211-1.44z" transform="translate(-339.703 -27.2)"/><path d="m512.792 175.323c-.03-.815.716-1.193 1.382-1.262a1.121 1.121 0 0 1 1.133 1.083 1.447 1.447 0 0 1 -1.432 1.252 1.1 1.1 0 0 1 -1.083-1.073z" transform="translate(-461.818 -154.056)"/><path d="m32.115 369.592a1.309 1.309 0 0 1 -1.441 1.183 1.08 1.08 0 0 1 -1.074-1.064 1.409 1.409 0 0 1 1.441-1.213 1.028 1.028 0 0 1 1.074 1.094z" transform="translate(-26.657 -329.17)"/><path d="m510.91 377.925a1.38 1.38 0 0 1 -1.411-1.252 1.127 1.127 0 0 1 1.123-1.083 1.41 1.41 0 0 1 1.378 1.242 1.09 1.09 0 0 1 -1.09 1.093z" transform="translate(-458.853 -335.555)"/><path d="m172.082 31.7a1.355 1.355 0 0 1 1.223 1.431 1.069 1.069 0 0 1 -1.093 1.054 1.3 1.3 0 0 1 -1.212-1.421 1.051 1.051 0 0 1 1.082-1.064z" transform="translate(-154 -25.85)"/><path d="m34.4 169.185a1.351 1.351 0 0 1 -1.4-1.2 1.055 1.055 0 0 1 1.1-1.083 1.3 1.3 0 0 1 1.392 1.252 1.053 1.053 0 0 1 -1.092 1.031z" transform="translate(-29.717 -147.61)"/></g></svg>