<svg viewBox="0 0 70 70" xmlns="http://www.w3.org/2000/svg" xmlns:xlink="http://www.w3.org/1999/xlink"><linearGradient id="a" gradientUnits="objectBoundingBox" x1=".5" x2=".5" y2="1"><stop offset="0" stop-color="#004aff" stop-opacity="0"/><stop offset="1" stop-color="#004aff"/></linearGradient><path d="m0 0h70v70h-70z" fill="none"/><path d="m23.333 0a23.333 23.333 0 1 1 -23.333 23.333 23.333 23.333 0 0 1 23.333-23.333z" fill="url(#a)" opacity=".12" transform="translate(23.333 11.667)"/><g fill="none" stroke-linecap="round" stroke-linejoin="round" stroke-miterlimit="10" stroke-width="2"><path d="m54.49 28.549h-19.874" stroke="#7d5ab5"/><path d="m946.6 3139.7a9.962 9.962 0 0 0 19.918 0" stroke="#7d5ab5" transform="translate(-911.984 -3111.151)"/><path d="m966.474 3118.508-9.959-16.308-9.915 16.308" stroke="#7d5ab5" transform="translate(-911.984 -3089.959)"/><path d="m44.575 12.24h-13.09" stroke="#7d5ab5"/><path d="m889.218 3139.7a9.962 9.962 0 0 1 -19.918 0" stroke="#7d5ab5" transform="translate(-868.3 -3111.151)"/><path d="m1 28.549h19.918" stroke="#7d5ab5"/><path d="m869.3 3118.508 9.959-16.308 9.959 16.308" stroke="#7d5ab5" transform="translate(-868.3 -3089.959)"/><path d="m10.915 12.24h13.09" stroke="#7d5ab5"/><path d="m27.658 16.111v33.356" stroke="#009bff"/><path d="m17.699 49.466h19.961v5.958h-19.961z" stroke="#7d5ab5"/><path d="m13.046 55.424h29.268v6.48h-29.268z" stroke="#7d5ab5"/><ellipse cx="27.658" cy="12.24" rx="3.827" ry="3.87" stroke="#009bff"/></g></svg>