<svg viewBox="0 0 182.163 32.645" xmlns="http://www.w3.org/2000/svg" xmlns:xlink="http://www.w3.org/1999/xlink"><linearGradient id="a" gradientUnits="objectBoundingBox" x1=".108" x2=".871" y1=".5" y2=".5"><stop offset="0" stop-color="#c629b4"/><stop offset=".327" stop-color="#9a57c5"/><stop offset="1" stop-color="#36bfed"/></linearGradient><path d="m48.429 1-9.861 20.12-11.392-20.12h-13.092l-14.084 32.617h13.149l8.388-19.5 9.25 16.525 1.632 2.915h13.181l15.893-32.557zm-11.59 23.464 1.87 2.125s-1.841-2.069-1.87-2.125z" fill="url(#a)" transform="translate(0 -.972)"/><path d="m497 1 5.214 9.295 2.239 3.826 1.729-3.939 3.91-9.182z" fill="#664cb2" opacity=".53" transform="translate(-482.916 -.972)"/><path d="m681 252.239 1.87-2.239 2.1 2.125-1.729 3.939z" fill="#2f225e" opacity=".53" transform="translate(-661.702 -242.916)"/><path d="m497 0 7.084 7.056-1.87 2.239z" fill="#6d47af" opacity=".47" transform="translate(-482.916 0)"/><path d="m0 352.322h13.149l8.388-19.5-2.237-3.822z" fill="#6a187c" opacity=".29" transform="translate(0 -319.677)"/><path d="m747 8.056 6.008-7.056-3.908 9.181z" fill="#3f3377" opacity=".44" transform="translate(-725.831 -.972)"/><path d="m760 328.939 1.729-3.939 6.858 7.424 2.3 15.954z" fill="#7f76d2" opacity=".68" transform="translate(-738.463 -315.79)"/><path d="m824.911 1-3.911 9.181 6.858 7.425z" fill="#abaad6" opacity=".28" transform="translate(-797.734 -.972)"/><path d="m1063 587 2.3 15.954 4.421-9.1z" fill="#2c45af" opacity=".33" transform="translate(-1032.877 -570.366)"/><path d="m1150.291 904-6.291 6.971h13.177z" fill="#0f3b93" opacity=".94" transform="translate(-1111.581 -878.383)"/><path d="m1148.421 829c.029.057 1.87 2.125 1.87 2.125l-6.291 6.975z" fill="#2d55c2" opacity=".85" transform="translate(-1111.581 -805.508)"/><path d="m1301.729 711-1.729 3.344 1.87 2.125 1.813-2.125z" fill="#406aca" opacity=".94" transform="translate(-1263.161 -690.852)"/><path d="m1366 831.125 1.814-2.125 5.073 9.1z" fill="#1157bc" opacity=".86" transform="translate(-1327.29 -805.508)"/><path d="m1430 580.254 6.433-7.254-1.36 16.351z" fill="#2a97e2" opacity=".76" transform="translate(-1389.477 -556.763)"/><path d="m1610.36 17.209 14.54-16.209-15.9 32.56z" fill="#33abe7" opacity=".88" transform="translate(-1563.404 -.972)"/><path d="m1361 21.12 1.955 3.344 6.433-7.254 1.473-16.21z" fill="#007ec4" opacity=".33" transform="translate(-1322.432 -.972)"/><path d="m14.084 0 5.216 9.295-19.3 23.322z" fill="#b34fc5" opacity=".11" transform="translate(0 0)"/><g fill="#2666c9"><path d="m1587.725 1458.627a.42.42 0 0 1 -.338-.171l-11.757-16.256v16.012a.415.415 0 0 1 -.831 0v-17.3a.416.416 0 0 1 .753-.244l11.757 16.256v-16.012a.415.415 0 1 1 .831 0v17.3a.415.415 0 0 1 -.288.4.387.387 0 0 1 -.127.015z" transform="translate(-1506.709 -1433.303)"/><path d="m3649.225 1459.127a.425.425 0 0 1 -.339-.171l-11.754-16.257v16.012a.416.416 0 1 1 -.832 0v-17.3a.416.416 0 0 1 .752-.244l11.757 16.256v-16.012a.415.415 0 1 1 .83 0v17.3a.416.416 0 0 1 -.288.4.4.4 0 0 1 -.126.016z" transform="translate(-3467.477 -1433.779)"/><path d="m1966.139 1466.142a.4.4 0 0 1 -.146-.029.415.415 0 0 1 -.239-.537l6.5-16.907a.424.424 0 0 1 .385-.269.413.413 0 0 1 .386.264l6.646 16.906a.415.415 0 0 1 -.772.3l-6.254-15.91-6.113 15.91a.416.416 0 0 1 -.393.272z" transform="translate(-1878.532 -1440.819)"/><path d="m2277.281 1466.219a.418.418 0 0 1 -.381-.254l-7.128-16.906a.413.413 0 1 1 .761-.323l6.748 16.008 6.906-16.013a.415.415 0 1 1 .761.333l-7.285 16.906a.411.411 0 0 1 -.382.249z" transform="translate(-2167.691 -1440.896)"/><path d="m2011.268 1699.331h-9.552a.415.415 0 1 1 0-.831h9.552a.415.415 0 1 1 0 .831z" transform="translate(-1912.368 -1678.698)"/><path d="m3035.047 1460.493a8.746 8.746 0 1 1 8.747-8.746 8.757 8.757 0 0 1 -8.747 8.746zm0-16.662a7.916 7.916 0 1 0 7.916 7.916 7.927 7.927 0 0 0 -7.916-7.916z" transform="translate(-2887.284 -1435.683)"/><path d="m2637.046 1460.493a8.746 8.746 0 1 1 5.9-15.2.415.415 0 0 1 -.562.611 7.915 7.915 0 1 0 .131 11.566.415.415 0 0 1 .572.6 8.713 8.713 0 0 1 -6.041 2.423z" transform="translate(-2508.732 -1435.683)"/><path d="m3479.216 1455.117a.416.416 0 0 1 -.416-.416v-17.786a.415.415 0 1 1 .83 0v17.785a.418.418 0 0 1 -.414.417z" transform="translate(-3317.672 -1429.5)"/></g></svg>