<svg viewBox="0 0 355 354.797" xmlns="http://www.w3.org/2000/svg" xmlns:xlink="http://www.w3.org/1999/xlink"><linearGradient id="a" gradientUnits="objectBoundingBox" x1="-.284" x2=".911" y1="1" y2=".141"><stop offset="0" stop-color="#a34bc1"/><stop offset="1" stop-color="#25a4f2"/></linearGradient><filter id="b" filterUnits="userSpaceOnUse" height="354.797" width="355" x="0" y="0"><feOffset dx="1" dy="13"/><feGaussianBlur result="c" stdDeviation="17.5"/><feFlood flood-color="#9c4ec3" flood-opacity=".349"/><feComposite in2="c" operator="in"/><feComposite in="SourceGraphic"/></filter><linearGradient id="c" gradientUnits="objectBoundingBox" x1=".5" x2=".5" y2="1"><stop offset="0" stop-color="#fff" stop-opacity="0"/><stop offset="1" stop-color="#fff"/></linearGradient><path d="m13.5 1.5h326v326h-326z" fill="none" opacity=".5"/><g filter="url(#b)" transform=""><path d="m125.252 249.781s7-34.325 9.329-45.329-8.073-14.472-11.96-12.917-11.96 8.97-19.973 4.784c-8.073-4.186-10.584-13.993-6.458-20.272s12.379-9.808 19.017-4.964c6.7 4.844 11.123 5.621 16.564 1.555s2.093-12.677 1.076-18c-.956-5.024-4.844-26.85-5.382-29.6 0 .06 24.638-21.647 28.824-25.3 4.186-3.588 8.85.479 9.448 4.724s-2.451 15.309 9.867 21.648c12.259 6.339 26.97-4.784 26.192-17.282-.777-12.558-9.807-14.233-13.873-16.684s-5.024-8.671.418-11.123 46.046-15.369 46.046-15.369 36.9 62.252-2.751 124.5c-36.557 57.408-96.146 59.648-105.212 59.648-.767 0-1.172-.019-1.172-.019zm-110.51-64.824c-34.086-65.421 1.615-122.052 1.615-122.052s26.252 23.2 34.564 30.737 16.565.24 17.163-3.887-1.794-14.83 5.86-19.734 17.4-2.213 20.75 4.545 2.273 15.608-5.262 18.956-10.406 6.818-9.632 13.578 9.927 8.133 15.07 9.927c4.844 1.674 25.654 9.209 28.345 10.166-.06 0 6.458 32.173 7.475 37.614s-4.844 7.415-8.85 5.86-12.08-9.808-23.681-2.273-9.329 25.714 1.913 31.336 17.222-1.376 21.349-3.648 10.047 0 9.449 5.92-9.687 47.6-9.687 47.6h-.116c-3.217-.002-73.03-.741-106.325-64.645zm168.458-60.517c-7.535-.479-14.651-5.8-13.814-13.993s-.717-12.438-6.937-15.129-12.021 4.482-16.149 8.072c-3.887 3.349-20.81 17.641-22.963 19.495.06-.06-31.036-10.465-36.3-12.319s-4.006-7.954-.658-10.585 14.475-5.561 13.821-19.375-17.585-20.93-28.05-13.993-7.415 15.608-7.535 20.332c-.06 4.724-5.023 8.731-9.867 5.2-4.848-3.466-36.358-32.229-36.358-32.229s35.581-62.97 109.254-59.8 104.829 62.311 104.829 62.311-33.248 11.123-43.893 14.592-8.492 14.232-5.2 16.8 13.754 5.86 14.173 14.89c.406 8.832-6.415 15.745-13.714 15.745-.215.004-.427-.002-.639-.014z" fill="url(#a)" transform="translate(51.5 39.5)"/></g><g fill="#fff"><path d="m33.338 54.676h-9.919v-9.919h4.451v-3.387l-11.322-6.629-3.338 1.936h-3.291v4.016h-9.919v-9.87h9.919v4.451h2.9l2.9-1.694v-13.113l-2.9-1.694h-2.9v4.451h-9.919v-9.918h9.919v4.016h3.291l3.629 2.129 11.031-6.483v-3.049h-4.451v-9.919h9.967v9.919h-4.016v3.048l10.645 6.484 3.677-2.178h3.581v-4.063h9.919v9.919h-9.919v-4.452h-3.193l-3.049 1.791v12.822l3.242 1.936h2.9v-4.453h9.927v9.919h-9.924v-4.015h-3.29l-3.486-2.033-11.08 6.677v3.436h4.016v9.918zm-8.344-8.341v6.936h6.936v-6.936zm14.538-25-10.258 6v12.29l10.258-6.193zm-22.4-.1v12.2l10.693 6.193v-12.145zm-15.614 11.229v6.936h6.936v-6.936zm47.484 0v6.4h6.4v-6.4zm-20.454-18.287-10.307 6.048 10.159 5.952 10.161-5.951zm-27.03.68v6.936h6.936v-6.935zm47.484 0v6.4h6.4v-6.4zm-24.008-13.338v6.936h6.936v-6.936zm20.006 47.254h-1.79v-1.79h1.79zm-31.063 0h-1.79v-1.79h1.79zm31.063-41.418h-1.79v-1.79h1.79zm-31.063 0h-1.79v-1.79h1.79z" transform="translate(205.146 183.421)"/><path d="m218.207 56.741v-9.883l-8.739-5.306v-7.438l-11.184-6.814-11.548 6.762v7.906l-8.271 4.838v9.883l-6.865 4.006v12.8l11.548 6.71 7.022-4.213 8.479 4.942 7.958-4.785 7.022 4.057 11.183-6.762v-12.697zm-14.513 15.865v-10.406l9.155 5.358v10.458l-7.282-4.265zm9.779-6.502-8.739-5.15 3.069-1.821 5.826-3.381 8.583 5.2zm-5.618-25.488v5.41l-8.791 5.15v-10.4l8.843-5.15-.052 4.994zm-.988-6.242-8.739 5.1-8.739-5.15 8.843-5.2zm-18.622 1.144 9.207 5.41v10.456l-8.791-5.1-.416-.26v-4.94zm-1.352 22.575 4.838 2.965-8.687 5.1-8.739-5.15 6.5-3.8 2.341-1.352zm-13.783 4.058 9.207 5.41v10.455l-9.207-5.358zm10.819 15.813v-10.564l8.635-5.046.208 6.97v3.329l-.416.26-3.851 2.187.1.052zm21.119-2.653-6.45 3.9-6.97-4.057 1.457-.884 1.3-.728-.1-4.213v-8.582l-6.658-4.057-4.473-2.757-3.121 1.821v-8.064l6.71-3.953v3.173l1.352.78 10.2 5.93 10.767-6.5.364-.208v-3.487l7.178 4.369v7.906l-2.913-1.665-.052.052-.052-.052-6.606 3.8-4.837 2.809v.052l-.1.052v12.8l2.653 1.56zm9.363 2.653v-10.564l8.843-5.15v10.4z" transform="translate(-13.471 32.536)"/><path d="m82.921 223.9-22.121 12.977-.179-.12-.179.3-1.136.658v26.192l23.615 13.873 22.9-13.814v-26.192zm0 2.093 21.169 12.857v22.664l-5.741-3.349v-16.146l-15.488-9.389-14.651 8.612-5.561-3.289zm-21.887 13.156 5.741 3.349v16.086l-5.741 3.169zm20.87 35.94-20.092-11.721 5.8-3.169 14.288 8.312zm0-8.611-13.276-7.714v-15.19l13.272 7.774zm.718-16.266.06-.119.06.119zm0-.538-12.678-7.415 12.856-7.535 12.5 7.595zm13.933-6.04v15.129l-12.855 7.714v-15.308zm-12.855 24.937 14.232-8.552 5.621 3.289-19.853 11.96z" transform="translate(24.105 -56.423)"/></g><circle cx="19.756" cy="19.756" fill="url(#c)" opacity=".12" r="19.756" transform="translate(102.283 174.878)"/><circle cx="19.756" cy="19.756" fill="url(#c)" opacity=".12" r="19.756" transform="translate(185.405 65.443)"/><circle cx="19.756" cy="19.756" fill="url(#c)" opacity=".12" r="19.756" transform="translate(233.843 183.236)"/></svg>