<svg viewBox="0 0 100 100" xmlns="http://www.w3.org/2000/svg" xmlns:xlink="http://www.w3.org/1999/xlink"><linearGradient id="a" gradientUnits="objectBoundingBox" x1=".5" x2=".5" y2="1"><stop offset="0" stop-color="#004aff" stop-opacity="0"/><stop offset="1" stop-color="#004aff"/></linearGradient><path d="m0 0h100v100h-100z" fill="none"/><circle cx="35.769" cy="35.769" fill="url(#a)" opacity=".12" r="35.769" transform="translate(28.462 14.615)"/><g fill="none" stroke-linejoin="round" stroke-miterlimit="10" stroke-width="2.5"><path d="m1.3 1.7s15.24 31.362 24.939 13.476c9.572-17.885-24.939-13.476-24.939-13.476z" stroke="#009bff" stroke-linecap="round" transform="translate(.239 3.397)"/><path d="m56.3 4.63s-34.767-2.645-24.187 14.736c10.706 17.382 24.187-14.736 24.187-14.736z" stroke="#009bff" stroke-linecap="round" transform="translate(7.716 4.245)"/><path d="m8.7 5.4s24.183 7.809 24.183 34.134" stroke="#009bff" stroke-linecap="round" transform="translate(2.16 4.482)"/><path d="m48.186 9s-18.893 9.7-21.286 19.649" stroke="#009bff" stroke-linecap="round" transform="translate(6.883 5.416)"/><path d="m24.6 27.371a30.532 30.532 0 0 0 -13.6 12.218c.63.756 1.134 1.637 1.763 2.393 1.511 2.141 2.393 2.771 5.038 2.9 1.511 0 4.282-1.385 5.542-.378 1.385 1.008.126 4.156 1.889 5.416 1.889 1.26 3.779-.63 5.668-.882 5.794-.63 2.771 6.927 7.935 7.683 3.779.5 9.195-3.527 7.683-7.305-1.008-2.393-6.55-3.527-4.786-7.053 1.008-2.141 3.527-1.134 5.416-1.134 5.542-.252 6.3-4.912 5.794-9.321a10.2 10.2 0 0 1 0-2.771 29.034 29.034 0 0 0 -15.618-4.537" stroke="#7d5ab5" transform="translate(2.757 9.465)"/><path d="m68.157 49.99a30.558 30.558 0 0 0 -14.107-21.79 10.208 10.208 0 0 0 0 2.771c.5 4.408-.252 9.069-5.794 9.321-1.889.126-4.408-.882-5.416 1.134-1.763 3.4 3.779 4.66 4.786 7.053 1.511 3.779-3.9 7.809-7.683 7.305-5.164-.756-2.141-8.313-7.935-7.683-1.889.252-3.779 2.141-5.668.882-1.763-1.26-.63-4.408-1.889-5.416s-4.031.378-5.542.378c-2.645-.126-3.527-.756-5.038-2.9a29.057 29.057 0 0 0 -1.763-2.393 29.529 29.529 0 0 0 -4.156 19.4 30.473 30.473 0 0 0 14.357 21.915c1.511-.5 3.023-.882 4.66-1.385 7.053-2.015.756-3.023 1.637-8.061.252-1.511 2.771-5.29 4.156-6.046 2.771-1.385 6.046 1.511 8.565 1.763 7.053.63 6.927-6.676 11.966-8.565s4.156 3.149 3.149 6.3c-1.132 4.155-5.042 7.427-1.132 11.46a9.43 9.43 0 0 0 2.267 1.637 30.029 30.029 0 0 0 10.58-27.08z" stroke="#7d5ab5" transform="translate(1.901 10.399)"/><path d="m52.4 69.545c-3.9-3.9-.126-7.305 1.134-11.462.882-3.149 1.763-8.187-3.149-6.3-5.038 1.889-5.038 9.195-11.966 8.565-2.519-.248-5.794-3.148-8.565-1.761-1.511.756-3.9 4.534-4.156 6.046-.756 5.038 5.416 6.046-1.637 8.061-1.637.5-3.149.882-4.66 1.385a30.353 30.353 0 0 0 35.393-2.771 19.689 19.689 0 0 1 -2.394-1.763z" stroke="#7d5ab5" transform="translate(4.937 16.414)"/></g></svg>