<svg viewBox="0 0 71.061 70" xmlns="http://www.w3.org/2000/svg" xmlns:xlink="http://www.w3.org/1999/xlink"><linearGradient id="a" gradientUnits="objectBoundingBox" x1=".5" x2=".5" y2="1"><stop offset="0" stop-color="#004aff" stop-opacity="0"/><stop offset="1" stop-color="#004aff"/></linearGradient><g transform="translate(1.061)"><path d="m0 0h70v70h-70z" fill="none"/><path d="m23.333 0a23.333 23.333 0 1 1 -23.333 23.333 23.333 23.333 0 0 1 23.333-23.333z" fill="url(#a)" opacity=".12" transform="translate(23.333 11.667)"/><g fill="none" stroke-linecap="round" stroke-linejoin="round" stroke-miterlimit="10" stroke-width="1.5"><path d="m2351.6 2266.141v-3.241h3.76" stroke="#7d5ab5" transform="translate(-2343.822 -2241.508)"/><path d="m2407.859 2266.141v-3.241h-3.76" stroke="#7d5ab5" transform="translate(-2362.294 -2241.508)"/><path d="m2407.859 2281.6v3.241h-3.76" stroke="#7d5ab5" transform="translate(-2362.294 -2248.09)"/><path d="m2351.6 2281.6v3.241h3.76" stroke="#7d5ab5" transform="translate(-2343.822 -2248.09)"/><path d="m2383.856 2271.427a6.028 6.028 0 1 1 -6.03-6.028 6.019 6.019 0 0 1 6.03 6.028z" stroke="#009bff" transform="translate(-2350.929 -2242.388)"/><path d="m2391.825 2268.191v-11.991h-46.925v23.983h46.926z" stroke="#7d5ab5" transform="translate(-2341.464 -2239.152)"/><path d="m2397.983 2274.7v11.991h-35.583v11.99h46.861v-23.981z" stroke="#7d5ab5" transform="translate(-2347.622 -2245.662)"/><path d="m2425.659 2300.1v3.242h-3.76" stroke="#7d5ab5" transform="translate(-2368.556 -2254.599)"/><path d="m2369.4 2300.1v3.242h3.76" stroke="#7d5ab5" transform="translate(-2350.086 -2254.599)"/><path d="m2389.6 2293.2a6.028 6.028 0 0 0 12.056 0z" stroke="#009bff" transform="translate(-2357.194 -2252.172)"/><path d="m2425.659 2284.141v-3.241h-3.76" stroke="#7d5ab5" transform="translate(-2368.558 -2247.843)"/><g stroke="#009bff" transform="translate(0 45.501)"><path d="m0 0 8.361 8.296"/><path d="m2339.6 2306.452v-6.352h6.093" transform="translate(-2339.6 -2300.1)"/></g><g stroke="#009bff" transform="translate(55.222 15.556)"><path d="m8.296 8.361-8.296-8.361"/><path d="m2434.327 2257v6.351h-6.027" transform="translate(-2426.031 -2254.989)"/></g></g></g></svg>