<svg viewBox="0 0 100 100" xmlns="http://www.w3.org/2000/svg" xmlns:xlink="http://www.w3.org/1999/xlink"><linearGradient id="a" gradientUnits="objectBoundingBox" x1=".5" x2=".5" y2="1"><stop offset="0" stop-color="#004aff" stop-opacity="0"/><stop offset="1" stop-color="#004aff"/></linearGradient><path d="m0 0h100v100h-100z" fill="none"/><circle cx="35.769" cy="35.769" fill="url(#a)" opacity=".12" r="35.769" transform="translate(28.462 14)"/><path d="m36.353 67.891c-7.832 0-13.866-1.258-19-3.98-9.653-5.111-15.353-13.018-16.953-23.546a34.4 34.4 0 0 1 5.7-25.036 35.307 35.307 0 0 1 21.7-14.122 52.782 52.782 0 0 1 10.915-1.207 42.385 42.385 0 0 1 15.073 2.722c8.551 3.261 13.943 8.936 16.048 16.921 2.927 11.041-.257 21.595-8.525 28.194a15.057 15.057 0 0 1 -9.629 3.441 17.3 17.3 0 0 1 -1.977-.1c-3.775-.437-5.829-2.927-6.086-7.446l-.1-1.566-1.209 1.845c-.18.282-.334.514-.488.77a13.107 13.107 0 0 1 -14.687 6.086c-3.929-1-6.5-3.7-7.857-8.191-2.927-9.6 3.03-22.262 12.248-26.037a13.05 13.05 0 0 1 4.9-.976 9.778 9.778 0 0 1 8.73 4.7 13.089 13.089 0 0 1 .9 2c.128.359.282.745.437 1.13l.565 1.335.411-1.387c.154-.539.334-1.078.488-1.592.385-1.284.77-2.491 1.053-3.749.205-.8.437-.95 1.053-.95h.18c.616.026 1.284.051 2.106.051h2.516c-.205.693-.411 1.387-.616 2.054-.591 1.951-1.155 3.8-1.695 5.675-.334 1.078-.642 2.183-.976 3.261-1.13 3.775-2.26 7.652-3.312 11.478-.514 1.874-.9 3.98.9 5.572a4.845 4.845 0 0 0 3.287 1.233 8.566 8.566 0 0 0 3.03-.642 13.915 13.915 0 0 0 7.986-7.96c3.389-7.857 3.235-15.3-.488-22.185-2.8-5.187-7.626-8.628-14.328-10.22a45.083 45.083 0 0 0 -10.453-1.282 38.452 38.452 0 0 0 -15.122 3.056c-9.167 3.877-14.867 10.939-16.978 21.004a30.684 30.684 0 0 0 .668 16.588 25.616 25.616 0 0 0 17.769 17.05 44.245 44.245 0 0 0 12.685 1.926 41.494 41.494 0 0 0 23.983-7.883q.462-.308 1-.693l2.414 3.415c-.18.154-.359.282-.539.437a20.311 20.311 0 0 1 -1.977 1.438 48.825 48.825 0 0 1 -25.369 7.344l-.385.026zm1.464-48.428a3.441 3.441 0 0 0 -.514.026 7.866 7.866 0 0 0 -5.187 2.211c-5.521 5.495-7.806 11.94-6.8 19.1a6.938 6.938 0 0 0 6.959 6.291 4.947 4.947 0 0 0 .616-.026 8.651 8.651 0 0 0 6.309-3.336 29.538 29.538 0 0 0 5.854-15.15c.026-3.133-.822-5.623-2.388-7.215a6.723 6.723 0 0 0 -4.849-1.901z" fill="#7d5ab5" transform="translate(.009 15.797)"/></svg>