<svg viewBox="0 0 70.102 70" xmlns="http://www.w3.org/2000/svg" xmlns:xlink="http://www.w3.org/1999/xlink"><linearGradient id="a" gradientUnits="objectBoundingBox" x1=".5" x2=".5" y2="1"><stop offset="0" stop-color="#004aff" stop-opacity="0"/><stop offset="1" stop-color="#004aff"/></linearGradient><path d="m.102 0h70v70h-70z" fill="none"/><path d="m23.333 0a23.333 23.333 0 1 1 -23.333 23.333 23.333 23.333 0 0 1 23.333-23.333z" fill="url(#a)" opacity=".12" transform="translate(23.435 11.667)"/><g style="fill:none;stroke:#7d5ab5;stroke-linecap:round;stroke-linejoin:round;stroke-miterlimit:10;stroke-width:1.5"><path d="m1934.975 2423.5a2.746 2.746 0 0 1 2.728-2.728h8.286v-9.882a1.274 1.274 0 0 0 -1.287-1.287h-28.616a1.274 1.274 0 0 0 -1.287 1.287v18.734a1.274 1.274 0 0 0 1.287 1.287h28.614a1.274 1.274 0 0 0 1.287-1.287v-3.5h-8.287a2.627 2.627 0 0 1 -2.725-2.624z" transform="translate(-1908.646 -2390.482)"/><path d="m1980.734 2408.473-10.757-3.4c-2.059-6.279-9.264-6.176-9.264-6.176h-12.3c-4.889 0-5.713 5.507-5.713 5.507h15.543a1.274 1.274 0 0 1 1.287 1.287v9.882h-8.286a2.728 2.728 0 0 0 0 5.456h11.272c2.573 0 3.139-1.9 3.654-3.345l10.4 3.345z" transform="translate(-1922.187 -2385.289)"/><path d="m1907.028 2441.8h-2.728v20.065h42.975" transform="translate(-1903.55 -2406.109)"/><path d="m3.735 40.477h43.541"/></g><path d="m83.579 3.8a3.572 3.572 0 0 1 1.248-3.038 3.531 3.531 0 0 1 5.482 1.721 4.2 4.2 0 0 1 -.481 3.6 3.238 3.238 0 0 1 -3.189 1.305 3.25 3.25 0 0 1 -3.06-3.588zm3.443 2.46a1.814 1.814 0 0 0 1.852-1.411 5.648 5.648 0 0 0 .082-1.925 1.935 1.935 0 0 0 -3.809-.2 3.485 3.485 0 0 0 .08 2.276 1.817 1.817 0 0 0 1.795 1.26z" fill="#7d5ab5" transform="translate(-70.784 44.705)"/><path d="m256.242 3.263v1.77h1.68c.473 0 .954-.008 1.428.008a.441.441 0 0 1 .473.457c.016.294-.09.514-.408.547s-.62.041-.93.049c-.734.008-1.468 0-2.227 0v2.014c.13.008.277.016.424.016.979 0 1.958 0 2.937.008.294 0 .547.09.6.416a.5.5 0 0 1 -.514.661c-1.411.016-2.831.008-4.242 0a.6.6 0 0 1 -.636-.653c-.008-1.9-.008-3.809 0-5.71a.614.614 0 0 1 .685-.653c1.346-.016 2.692-.008 4.038 0a.513.513 0 0 1 .579.538.521.521 0 0 1 -.6.522c-.938.008-1.876 0-2.814 0-.155.01-.301.01-.473.01z" fill="#7d5ab5" transform="translate(-228.062 42.743)"/><path d="m3.127 6.154q.82-2.435 1.648-4.87c.033-.09.057-.179.1-.269a.628.628 0 0 1 .783-.4.624.624 0 0 1 .457.824c-.261.775-.547 1.55-.832 2.325-.411 1.117-.819 2.236-1.243 3.344-.261.685-.865.987-1.4.669a1.666 1.666 0 0 1 -.6-.767c-.424-1.044-.791-2.1-1.175-3.157-.283-.758-.565-1.525-.838-2.292a.691.691 0 0 1 .587-.979c.416-.024.612.237.734.579.359 1.052.718 2.1 1.077 3.149.2.612.416 1.224.62 1.835a.251.251 0 0 0 .082.009z" fill="#7d5ab5" transform="translate(5.998 44.216)"/><path d="m172.984 3.35h-1.558c-.489 0-.718-.188-.726-.571s.22-.579.718-.579h4.527c.489 0 .734.2.734.571s-.253.579-.726.579c-.5.008-1 0-1.558 0v4.992a2.754 2.754 0 0 1 -.008.367.727.727 0 0 1 -.742.669.671.671 0 0 1 -.644-.75c-.008-1.574-.008-3.157-.008-4.731-.009-.155-.009-.318-.009-.547z" fill="#7d5ab5" transform="translate(-150.8 42.729)"/><path d="m0 45.384v-3.8a.67.67 0 0 1 .732-.725h4.783.348a.622.622 0 0 1 .586.523.6.6 0 0 1 -.4.713 1.227 1.227 0 0 1 -.371.06q-2.062.009-4.118.006c-.234 0-.253.016-.253.253v5.956c0 .25.006.253.26.253h5.954c.244 0 .244 0 .247-.244 0-1.194 0-2.385 0-3.58a.7.7 0 0 1 .209-.526.616.616 0 0 1 .706-.114.609.609 0 0 1 .383.558c.016.247.006.5.006.744v3.707a.779.779 0 0 1 -.172.532.711.711 0 0 1 -.567.231q-2.495 0-4.99 0c-.846 0-1.689-.006-2.534 0a.79.79 0 0 1 -.763-.405.536.536 0 0 1 -.046-.261q0-1.944 0-3.881z" fill="#009bff" transform="translate(11.109 -14.918)"/><path d="m83.846 5.91c.222-.269.428-.52.634-.773q.713-.884 1.419-1.774c.548-.687 1.093-1.375 1.641-2.062.276-.345.551-.691.84-1.026a.637.637 0 0 1 1.058.079.761.761 0 0 1 -.117.811c-.741.922-1.486 1.844-2.224 2.769-.808 1.007-1.609 2.015-2.417 3.019a6.864 6.864 0 0 1 -.63.722.626.626 0 0 1 -.865-.152c-.177-.31-.336-.63-.5-.947q-.342-.675-.675-1.353c-.082-.171-.165-.342-.231-.52a.658.658 0 0 1 .317-.71.683.683 0 0 1 .957.4c.228.485.482.957.725 1.432.014.025.033.041.068.085z" fill="#009bff" transform="translate(-68.058 24.616)"/></svg>