<svg viewBox="0 0 155.85 100.1" xmlns="http://www.w3.org/2000/svg"><g transform="translate(-.025 2.4)"><path d="m131.2 18.9h-9.3a.472.472 0 0 1 -.5-.5v-9.3a.472.472 0 0 1 .5-.5h9.3a.472.472 0 0 1 .5.5v9.3a.472.472 0 0 1 -.5.5z" fill="none" stroke="#f5be64" stroke-linecap="round" stroke-miterlimit="10" stroke-width=".35"/><text fill="#fff" font-family="Roboto-Black, Roboto" font-size="61.74" font-weight="800" transform="translate(25.082 56.6)"><tspan x="0" y="0">250</tspan></text><text fill="#fff" font-family="Raleway-Bold, Raleway" font-size="21.84" font-weight="700" transform="translate(131.261 28.288)"><tspan x="0" y="0">k</tspan></text><text fill="#f5be64" font-family="Raleway-Black, Raleway" font-size="17.84" font-weight="800" transform="translate(23.714 76.725)"><tspan x="0" y="0">NavCoin P.A.</tspan></text><text fill="#f5be64" font-family="Raleway-Black, Raleway" font-size="13.05" font-weight="800" transform="translate(22.503 93.7)"><tspan x="0" y="0">Community Fund</tspan></text><g fill="none" stroke="#f5be64" stroke-linecap="round" stroke-miterlimit="10" stroke-width=".35"><path d="m122.7 1.4h24.6"/><path d="m.2 63h24.6" opacity=".76"/><path d="m33.4 3.4h36.9"/><path d="m102.7 2.9v-2.7"/><path d="m104 1.6h-2.7"/><path d="m8.6 19.1v-1.6"/><path d="m8.6 24.9v-1.5"/><path d="m6.3 21.3h-1.5"/><path d="m12.5 21.3h-1.6"/><path d="m154.3 16.9v-2.8"/><path d="m155.7 15.5h-2.7"/><path d="m119 1.3h1"/><path d="m115.6 1.3h1.2"/><path d="m105.7 81.2h24.6"/><path d="m103 81h1.1"/><path d="m100.7 81h1.2"/><path d="m34.7 52.2h30.2"/><path d="m32 52.2h1.1"/><path d="m28.6 52.2h1.3"/><path d="m61.8 30.2h1"/><path d="m62.8 30.2h1.1" stroke-dasharray="0 2.052 0 0"/><path d="m64.9 30.2h20.5" stroke-dasharray="2.052 0 0 2.052 0 0"/><path d="m85.4 30.2h1"/><path d="m9.5 46h24.6"/><path d="m126 36.1h1.1"/><path d="m122.7 36.1h1.2"/><circle cx="114.5" cy="10.1" r="1.5"/><circle cx="153.7" cy="59.5" r="1.5"/><path d="m86.4 11.9a5.4 5.4 0 1 1 -5.4-5.4 5.378 5.378 0 0 1 5.4 5.4z" stroke-dasharray="1.003 0 0 1.003 0 0"/><path d="m26.6 83.9a5.4 5.4 0 1 1 -5.4-5.4 5.378 5.378 0 0 1 5.4 5.4z" stroke-dasharray="2.842 0 0 2.842 0 0"/><path d="m130.4 42.8a16.6 16.6 0 1 1 -16.6 16.6 16.559 16.559 0 0 1 16.6-16.6z" stroke-dasharray="1.003 0 0 1.003 0 0"/><path d="m130.4 42.8a16.6 16.6 0 1 1 -16.6 16.6 16.559 16.559 0 0 1 16.6-16.6z" stroke-dasharray="52.159 0 0 52.159 0 0"/><path d="m24.5 24.1-8.1 14h16z" opacity=".99"/><path d="m123 64.7a.845.845 0 0 1 .2-.6c.2-.3.5-.6.7-.9.1-.1.1-.1 0-.2a4.179 4.179 0 0 1 -.4-1c0-.1-.1-.1-.2-.1-.4 0-.8-.1-1.2-.1a.752.752 0 0 1 -.7-.5 3.178 3.178 0 0 1 -.3-.9 5.7 5.7 0 0 1 .1-1.3 1.053 1.053 0 0 1 1-.8c.4 0 .7-.1 1.1-.1.1 0 .1 0 .2-.1.1-.4.3-.7.4-1.1v-.2c-.2-.3-.5-.6-.7-.9a.913.913 0 0 1 -.2-1.1 2.7 2.7 0 0 1 1.7-1.6 1.02 1.02 0 0 1 .9.2c.3.2.6.5.9.7.1.1.1.1.2 0a4.875 4.875 0 0 1 1.1-.4c.1 0 .1-.1.1-.2 0-.4.1-.7.1-1.1a.891.891 0 0 1 .5-.8 3.178 3.178 0 0 1 .9-.3 5.7 5.7 0 0 1 1.3.1 1.053 1.053 0 0 1 .8 1c0 .4.1.7.1 1.1 0 .1 0 .1.1.2.4.1.7.3 1.1.4h.2c.3-.2.6-.5.9-.7a1.163 1.163 0 0 1 1-.2 2.857 2.857 0 0 1 1.7 1.7 1.02 1.02 0 0 1 -.2.9c-.2.3-.5.6-.7.9-.1.1-.1.1 0 .2a4.179 4.179 0 0 1 .4 1c0 .1.1.1.2.1.4 0 .7.1 1.1.1a1.149 1.149 0 0 1 .9.6 3.4 3.4 0 0 1 .2 1.4 1.884 1.884 0 0 1 -.2.8 1.555 1.555 0 0 1 -.8.6c-.4 0-.7.1-1.1.1-.1 0-.1 0-.2.1-.1.4-.3.7-.4 1.1v.2c.2.3.5.6.7.9a1.163 1.163 0 0 1 .2 1 2.857 2.857 0 0 1 -1.7 1.7 1.02 1.02 0 0 1 -.9-.2c-.3-.2-.6-.5-.9-.7-.1-.1-.1-.1-.2 0a4.874 4.874 0 0 1 -1.1.4c-.1 0-.1.1-.1.2 0 .4-.1.7-.1 1.1a1.149 1.149 0 0 1 -.6.9 3.4 3.4 0 0 1 -1.4.2 2.354 2.354 0 0 1 -.8-.2.961.961 0 0 1 -.6-.9c0-.4-.1-.7-.1-1.1 0-.1 0-.1-.1-.2-.4-.1-.7-.3-1.1-.4h-.2c-.3.2-.6.5-.9.7a.955.955 0 0 1 -1 .2 2.8 2.8 0 0 1 -1.6-1.6v-.2c-.3 0-.3 0-.3-.1zm3.7-4.7a3.183 3.183 0 0 0 3.1 3.1 3.24 3.24 0 0 0 3.1-3 3.116 3.116 0 0 0 -3.1-3.1 2.97 2.97 0 0 0 -3.1 3z" stroke-dasharray="54 0 0"/></g></g></svg>