<?xml version="1.0" encoding="utf-8"?>
<!-- Generator: Adobe Illustrator 22.1.0, SVG Export Plug-In . SVG Version: 6.00 Build 0)  -->
<svg version="1.1" id="Layer_1" xmlns="http://www.w3.org/2000/svg" xmlns:xlink="http://www.w3.org/1999/xlink" x="0px" y="0px"
	 viewBox="0 0 800 800" style="enable-background:new 0 0 800 800;" xml:space="preserve">
<style type="text/css">
	.st0{fill:url(#SVGID_1_);}
	.st1{fill:#FFFFFF;}
	.st2{fill:#589BE0;}
</style>
<linearGradient id="SVGID_1_" gradientUnits="userSpaceOnUse" x1="133.2203" y1="399" x2="684.9095" y2="399">
	<stop  offset="0" style="stop-color:#BD30B6"/>
	<stop  offset="1" style="stop-color:#4CA9E5"/>
</linearGradient>
<path class="st0" d="M593.2,276.7c30.9,0,61.2,0,91.7,0c0,118,0,235.7,0,353.9c-1.6,0-3,0-4.5,0c-160.3,0-320.5,0-480.8,0
	c-33.5,0-60.8-23.3-65.9-56.4c-0.4-2.9-0.4-5.8-0.4-8.7c0-110.9,0-221.9,0-332.8c0-31.4,21.9-58,52.7-63.8c4.9-0.9,10-1.4,15.1-1.4
	c129-0.1,258.1-0.1,387.1-0.1c1.6,0,3.2,0,5.2,0C593.2,203.9,593.2,240,593.2,276.7z M665.2,611.1c0-105.1,0-209.9,0-314.9
	c-1.9,0-3.5,0-5.2,0c-152.7,0-305.3,0-458,0c-17.9,0-33.8-5.2-47.4-17.1c-0.4-0.4-1-0.6-2-1.1c0,1.9,0,3.3,0,4.6
	c0,94.1,0,188.2,0,282.3c0,3,0.2,6.1,0.7,9c4.3,21.7,23.6,37,46.4,37c153.7,0,307.4,0,461,0C662.3,611.1,663.7,611.1,665.2,611.1z
	 M573.5,187c-2.1,0-3.7,0-5.3,0c-122.4,0-244.9,0-367.3,0c-3.3,0-6.6,0.3-9.8,0.8c-28.1,4.4-45.6,33.6-35.5,59.4
	c7,18.2,24.6,29.4,46.2,29.4c122.6,0,245.1,0,367.7,0c1.3,0,2.7,0,4.1,0C573.5,246.6,573.5,217,573.5,187z"/>
<path class="st1" d="M480.8,382.4c0,7.6,0,15,0,22.6c-7.6,0-15,0-22.6,0c0-7.6,0-14.9,0-22.6C465.5,382.4,473,382.4,480.8,382.4z"/>
<path class="st1" d="M364.3,382.3c0,7.6,0,14.9,0,22.5c-7.6,0-15.1,0-22.8,0c0-7.5,0-14.9,0-22.5C349,382.3,356.5,382.3,364.3,382.3
	z"/>
<path class="st1" d="M341.6,499.1c7.7,0,15.1,0,22.6,0c0,7.6,0,15,0,22.6c-7.6,0-15,0-22.6,0C341.6,514.4,341.6,506.9,341.6,499.1z"
	/>
<g>
	<g>
		<path class="st2" d="M482.6,476.3c0,8.1,0,16.1,0,24.2l0.1-0.1c-7.6,0-15.1,0-23.1,0c0-8,0-15.5,0-23.5c-15.6,0-30.9,0-46.6,0
			c0-7.9,0-15.4,0-23.3c-8,0-15.5,0-23.5,0c0-8,0-15.5,0-23.2c-7.7,0-15,0-22.7,0c0,7.5,0,15,0,22.8c-8.1,0-15.7,0-23.7,0
			c0-7.5,0-15,0-22.8c-7.8,0-15.3,0-23.1,0c0-23.6,0-46.8,0-70.3c30.7,0,61.6,0,92.8,0c0,7.5,0,15.2,0,23.1c-7.6,0-15.1,0-22.9,0
			c0,15.6,0,30.8,0,46.4c7.5,0,15,0,22.9,0c0-7.6,0-15.1,0-23.2c7.9,0,15.4,0,23.3,0c0-15.7,0-31,0-46.5c23.5,0,46.6,0,69.9,0
			c0,23.3,0,46.5,0,70.1c-30.9,0-61.7,0-92.7,0c0,7.8,0,15.2,0,23.1c15.3,0,30.6,0,46.3,0c0,8,0,15.5,0,23.3
			C467.6,476.4,475.2,476.4,482.6,476.3L482.6,476.3z M482.7,383.6c-7.8,0-15.2,0-22.6,0c0,7.7,0,15.1,0,22.6c7.7,0,15.1,0,22.6,0
			C482.7,398.6,482.7,391.2,482.7,383.6z M366.2,383.6c-7.8,0-15.3,0-22.8,0c0,7.7,0,15.1,0,22.5c7.7,0,15.2,0,22.8,0
			C366.2,398.5,366.2,391.2,366.2,383.6z"/>
		<path class="st2" d="M436.3,523.3c8,0,15.4,0,23,0c0,7.8,0,15.4,0,23.3c-7.6,0-15.1,0-23.1,0c0-7.6,0-15.1,0-22.8
			c-15.7,0-31,0-46.5,0c0,7.6,0,15,0,22.7c-23.4,0-46.5,0-69.8,0c0-23.2,0-46.4,0-69.7c23.2,0,46.3,0,69.7,0c0,7.7,0,15.2,0,23.1
			c15.7,0,30.9,0,46.7,0C436.3,507.8,436.3,515.3,436.3,523.3z M343.5,500.4c0,7.7,0,15.2,0,22.6c7.7,0,15.1,0,22.6,0
			c0-7.7,0-15.1,0-22.6C358.6,500.4,351.2,500.4,343.5,500.4z"/>
		<path class="st2" d="M482.6,500.5c7.8,0,15.5,0,23.5,0c0,15.2,0,30.4,0,46c-7.6,0-15.2,0-23.4,0c0-15.4,0-30.8,0-46.1
			C482.7,500.4,482.6,500.5,482.6,500.5z"/>
		<path class="st2" d="M482.7,476.4c0-7.6,0-15.1,0-22.9c8,0,15.5,0,23.3,0c0,7.6,0,15.2,0,22.8
			C498.1,476.3,490.4,476.3,482.7,476.4C482.6,476.3,482.7,476.4,482.7,476.4z"/>
	</g>
</g>
</svg>
