<?xml version="1.0" encoding="utf-8"?>
<!-- Generator: Adobe Illustrator 22.1.0, SVG Export Plug-In . SVG Version: 6.00 Build 0)  -->
<svg version="1.1" id="Layer_1" xmlns="http://www.w3.org/2000/svg" xmlns:xlink="http://www.w3.org/1999/xlink" x="0px" y="0px"
	 viewBox="0 0 800 800" style="enable-background:new 0 0 800 800;" xml:space="preserve">
<style type="text/css">
	.st0{fill:#7935BA;}
</style>
<g>
	<g>
		<path class="st0" d="M300.7,351.8c0,32.2,0,64.3,0,96.5c0.9,0,1.6,0,2.4,0c28.8,0,57.6,0,86.4,0c4.6,0,6.2,1.6,6.2,6.3
			c0,2.2,0,4.3,0,6.5c-0.1,2.8-2,4.7-4.8,4.7c-35.1,0-70.1,0-105.2,0c-2.7,0-4.6-1.9-4.7-4.6c0-0.5,0-1,0-1.4
			c0-39.7,0-79.4-0.1-119.1c0-4.6,2.3-6.5,6.5-6.5c33.7,0.1,67.4,0,101,0.1c1.3,0,2.8,0.3,4,0.8c1.4,0.7,2.2,2.2,2.2,3.9
			c0,2.5,0,5.1,0,7.6c0,3.4-1.8,5.2-5.2,5.2c-28.8,0-57.6,0-86.4,0C302.3,351.8,301.5,351.8,300.7,351.8z"/>
		<path class="st0" d="M201.2,441.6c0-0.7,0-1.4,0-2.2c0-32.9,0-65.8,0-98.7c0-4.9,1.6-6.5,6.4-6.5c2.2,0,4.3,0,6.5,0
			c3.4,0.1,5.2,1.9,5.3,5.3c0,1.4,0,2.8,0,4.1c0,38.4,0,76.9,0,115.3c0,0.8,0,1.6,0,2.3c-0.1,2.7-1.7,4.4-4.4,4.5
			c-3.5,0.1-7.1,0.2-10.6,0c-3.3-0.2-5.9-2.3-8-4.8c-3.5-3.9-6.9-7.9-10.3-11.8c-22.8-26.2-45.6-52.5-68.4-78.7
			c-9.1-10.4-18.1-20.9-27.2-31.3c-0.3-0.3-0.6-0.6-0.8-1c-0.4-1-0.7-2-1.1-3.1c0.9-0.3,1.8-0.8,2.8-0.8c4.1-0.1,8.3,0.1,12.4-0.1
			c2.8-0.1,4.8,1,6.6,3c7.2,8.4,14.5,16.7,21.7,25.1c22.6,26.1,45.3,52.3,67.9,78.4c0.3,0.4,0.5,0.8,0.7,1.2
			C200.8,441.8,201,441.7,201.2,441.6z"/>
		<path class="st0" d="M495.1,410.3c-2.6,3.2-5.2,6.3-7.7,9.4c-11.8,14.5-23.5,28.9-35.3,43.4c-1.5,1.8-3.3,2.8-5.7,2.8
			c-5.2-0.1-10.5,0-15.7-0.1c-0.8,0-2.2-0.4-2.3-0.7c-0.1-0.9,0.1-2.1,0.6-2.8c2.3-3,4.7-5.8,7.1-8.7
			c31.8-38.3,63.7-76.5,95.4-114.9c2.7-3.3,5.4-5,9.7-4.6c4.3,0.4,8.7,0,13,0.1c0.8,0,2,0.3,2.3,0.9c0.3,0.6-0.1,1.8-0.6,2.4
			c-3.7,4.7-7.5,9.3-11.2,13.9c-12.1,14.7-24.3,29.4-36.4,44.1c-0.3,0.4-0.6,0.8-0.9,1.2c4.3,4.8,8.6,9.6,12.9,14.3
			c14.9,16.6,29.9,33.1,44.8,49.7c0.8,0.8,1.5,1.8,2,2.8c0.6,1.2,0.2,2.2-1.4,2.2c-6.7,0-13.4,0.2-20-0.1c-1.3-0.1-2.9-1.4-3.9-2.6
			c-7.5-8.3-14.8-16.8-22.2-25.2c-7.6-8.7-15.3-17.3-22.9-26C496.2,411.5,495.7,410.9,495.1,410.3z"/>
		<path class="st0" d="M647.2,351.8c-19.6,0-39.2,0-58.8,0c-3.5,0-5.2-1.7-5.2-5.2c0-2.5,0-4.9,0-7.4c0-3,1.8-4.8,4.8-5
			c0.5,0,1.1,0,1.6,0c38.5,0,77,0,115.5,0c5,0,6.4,1.4,6.4,6.4c0,2.3,0.1,4.6-0.1,6.9c-0.2,3-1.6,4.3-4.6,4.3
			C686.9,351.8,667,351.8,647.2,351.8z"/>
		<path class="st0" d="M656.8,415.9c0,14.7,0,29.5,0,44.2c0,4.5-1.3,5.7-5.8,5.7c-2.9,0-5.8,0-8.7,0c-3.3-0.1-5-1.7-5-5
			c0-29.9,0-59.9,0-89.8c0-3.2,1.8-5,5-5c3.1-0.1,6.1,0,9.2,0c3.7,0,5.3,1.6,5.3,5.2C656.8,386.1,656.8,401,656.8,415.9z"/>
		<path class="st0" d="M88.7,411.3c0-16.2,0-32.5,0-48.7c0-0.6,0-1.2,0-1.8c0.1-1.3,0.8-1.5,1.8-1c0.6,0.3,1.2,0.9,1.6,1.4
			c4.1,4.8,8.2,9.6,12.3,14.4c1.3,1.6,1.9,3.3,1.9,5.4c0,26.4,0,52.8,0,79.2c0,4.3-1.3,5.6-5.6,5.6c-2.3,0-4.7,0-7,0
			c-3.5,0-5-1.5-5-5.1C88.7,444.3,88.7,427.8,88.7,411.3z"/>
		<path class="st0" d="M351.1,405.6c-10.3,0-20.7,0-31,0c-3.9,0-5.4-1.5-5.4-5.5c0-2.2,0-4.4,0-6.7c0.1-3.1,1.8-4.8,4.9-4.8
			c21.1,0,42.2,0,63.3,0c3.2,0,5,1.8,5,5.1c0,2.3,0,4.6,0,6.9c0,3.3-1.7,5-5,5C372.3,405.6,361.7,405.6,351.1,405.6z"/>
		<path class="st0" d="M440.1,334.2c2.6,0,5.3,0.1,7.9,0c2.3-0.1,4,0.7,5.4,2.4c10.3,11.6,20.6,23.2,30.9,34.8
			c1.4,1.6,1.4,2.4,0,4.1c-2.5,3.2-5,6.3-7.5,9.5c-1.6,2-2.7,2-4.4,0.2c-14.1-15.6-28.2-31.2-42.3-46.9c-0.3-0.4-0.6-0.7-0.8-1.2
			c-0.9-1.8-0.4-2.8,1.6-2.8C433.9,334.2,437,334.2,440.1,334.2z"/>
	</g>
</g>
</svg>
