<svg xmlns="http://www.w3.org/2000/svg" xmlns:xlink="http://www.w3.org/1999/xlink" viewBox="0 0 108 108">
  <defs>
    <style>
      .cls-1, .cls-3, .cls-4 {
        fill: none;
      }

      .cls-2 {
        opacity: 0.12;
        fill: url(#linear-gradient);
      }

      .cls-3, .cls-4 {
        stroke: #7b47b4;
        stroke-linecap: round;
        stroke-miterlimit: 10;
        stroke-width: 2.5px;
      }

      .cls-4 {
        stroke-linejoin: round;
      }
    </style>
    <linearGradient id="linear-gradient" x1="0.5" x2="0.5" y2="1" gradientUnits="objectBoundingBox">
      <stop offset="0" stop-color="#004aff" stop-opacity="0"/>
      <stop offset="1" stop-color="#004aff"/>
    </linearGradient>
  </defs>
  <g id="map-why" transform="translate(534 -715)">
    <rect id="Rectangle_1064" data-name="Rectangle 1064" class="cls-1" width="108" height="108" transform="translate(-534 715)"/>
    <path id="Path_3393" data-name="Path 3393" class="cls-2" d="M36,0A36,36,0,1,1,0,36,36,36,0,0,1,36,0Z" transform="translate(-498 733)"/>
    <g id="Group_2999" data-name="Group 2999" transform="translate(-912 -45.023)">
      <g id="Group_2998" data-name="Group 2998" transform="translate(380 791.419)">
        <path id="Path_3402" data-name="Path 3402" class="cls-3" d="M72.272,45.8l3.984,6.734a1.408,1.408,0,0,0,1.269.705H95.19a1.45,1.45,0,0,0,1.3-.811L120.364,4.615a1.452,1.452,0,0,0-1.3-2.115h-17.17a1.45,1.45,0,0,0-1.3.811L87.01,31.094a1.465,1.465,0,0,1-2.574.106L67.9,3.205A1.408,1.408,0,0,0,66.631,2.5H49.037a1.507,1.507,0,0,0-1.34.881L39.8,21.715" transform="translate(-26.665 -2.5)"/>
        <path id="Path_3403" data-name="Path 3403" class="cls-3" d="M10.569,74.668l-7.9,18.052a1.462,1.462,0,0,0,1.34,2.045H21.252a1.431,1.431,0,0,0,1.34-.881L33.768,67.475a1.473,1.473,0,0,1,2.609-.176l6.17,10.507" transform="translate(-2.546 -43.993)"/>
        <line id="Line_2519" data-name="Line 2519" class="cls-3" y1="1.022" x2="0.423" transform="translate(9.891 25.914)"/>
        <path id="Path_3404" data-name="Path 3404" class="cls-3" d="M73.155,13H64.587a1.952,1.952,0,0,0-1.8,1.2l-3.6,8.41" transform="translate(-39.218 -9.298)"/>
        <line id="Line_2520" data-name="Line 2520" class="cls-3" x1="0.987" y1="1.375" transform="translate(42.751 38.96)"/>
      </g>
      <line id="Line_926" data-name="Line 926" class="cls-4" x2="16.398" transform="translate(463.058 803.226)"/>
      <line id="Line_927" data-name="Line 927" class="cls-4" x2="14.569" transform="translate(455.741 817.131)"/>
      <line id="Line_928" data-name="Line 928" class="cls-4" x2="2.981" transform="translate(436.768 810.084)"/>
      <line id="Line_929" data-name="Line 929" class="cls-4" x2="12.4" transform="translate(430.534 795.041)"/>
      <line id="Line_932" data-name="Line 932" class="cls-4" x2="26.431" transform="translate(404.279 785.023)"/>
    </g>
  </g>
</svg>
