<svg xmlns="http://www.w3.org/2000/svg" xmlns:xlink="http://www.w3.org/1999/xlink" viewBox="0 0 108 108">
  <defs>
    <style>
      .cls-1 {
        fill: none;
      }

      .cls-2 {
        opacity: 0.12;
        fill: url(#linear-gradient);
      }

      .cls-3 {
        fill: #7d5ab5;
      }
    </style>
    <linearGradient id="linear-gradient" x1="0.5" x2="0.5" y2="1" gradientUnits="objectBoundingBox">
      <stop offset="0" stop-color="#004aff" stop-opacity="0"/>
      <stop offset="1" stop-color="#004aff"/>
    </linearGradient>
  </defs>
  <g id="map-contribute" transform="translate(340 -746)">
    <rect id="Rectangle_1064" data-name="Rectangle 1064" class="cls-1" width="108" height="108" transform="translate(-340 746)"/>
    <path id="Path_3393" data-name="Path 3393" class="cls-2" d="M36,0A36,36,0,1,1,0,36,36,36,0,0,1,36,0Z" transform="translate(-304 764)"/>
    <g id="Group_3460" data-name="Group 3460" transform="translate(-340 760.112)">
      <path id="Path_15745" data-name="Path 15745" class="cls-3" d="M10.46,598.737a4.112,4.112,0,0,1-3.12-2.667c-.7-1.658-1.4-3.351-2.1-4.975-.394-.916-.777-1.832-1.171-2.749-.591-1.391-1.171-2.772-1.751-4.163-.533-1.276-1.079-2.551-1.612-3.827-.174-.406-.348-.8-.522-1.194-.058-.139-.128-.29-.186-.429v-1.055c.035-.081.058-.174.093-.255.093-.243.186-.51.278-.754a4.613,4.613,0,0,1,2.9-2.482c1.658-.7,3.34-1.4,4.975-2.1,1.426-.6,2.9-1.229,4.349-1.844.893-.371,1.8-.754,2.667-1.137,2.343-1,4.778-2.041,7.2-2.934A21.179,21.179,0,0,1,29.9,564.7a15.445,15.445,0,0,1,1.948.116,22.351,22.351,0,0,1,4.314,1.067c1.658.545,3.34,1.148,4.963,1.716,1.264.452,2.574.916,3.873,1.357a10.486,10.486,0,0,0,3.4.591,9.636,9.636,0,0,0,3.224-.568,5.872,5.872,0,0,1,1.995-.371,5.527,5.527,0,0,1,2.772.765A15.451,15.451,0,0,1,58.46,570.9c.151.128.313.255.464.383a1.265,1.265,0,0,0,.812.336,1.388,1.388,0,0,0,.533-.116c2.227-.962,4.5-1.925,6.7-2.853,1.1-.464,2.2-.939,3.305-1.4.533-.232,1.079-.475,1.6-.707a33.068,33.068,0,0,1,3.525-1.438,3.964,3.964,0,0,1,1.252-.162,14.867,14.867,0,0,1,1.484.1,4.66,4.66,0,0,1,3.491,1.867,6.926,6.926,0,0,1,1,2.192,6.407,6.407,0,0,1-.87,5.648,8.1,8.1,0,0,1-1.624,1.566c-5.926,4.5-12.281,9.324-18.613,14.067a43.819,43.819,0,0,1-8.153,4.813,7.881,7.881,0,0,1-3.34.708,10.843,10.843,0,0,1-2.366-.278,61.337,61.337,0,0,1-6.332-1.9c-.8-.278-1.624-.557-2.447-.823-1.542-.5-3.12-.974-4.65-1.438-.87-.267-1.774-.533-2.656-.812a14.41,14.41,0,0,1-1.461-.522,4.422,4.422,0,0,0-1.774-.371,7.486,7.486,0,0,0-2.424.487,21.813,21.813,0,0,0-4.8,2.621c-.487.325-.986.649-1.484.963-1.206.754-2.4,1.531-3.572,2.3-.951.615-1.937,1.264-2.911,1.879a6.038,6.038,0,0,1-.986.464c-.174.069-.348.139-.533.232l-1.206.023Zm-.8-23.368a1.232,1.232,0,0,0-.5.116c-1.647.707-3.178,1.333-4.685,1.937a1.149,1.149,0,0,0-.673.592,1.215,1.215,0,0,0,.058.939l.452,1.067c.6,1.415,1.194,2.829,1.786,4.244.417,1,.835,1.983,1.252,2.98.8,1.9,1.589,3.792,2.389,5.694.186.429.383.858.568,1.264.093.186.174.383.267.568l.22.475.487-.162c.046-.012.093-.023.128-.035a1.1,1.1,0,0,0,.313-.127c.5-.313.986-.638,1.473-.951.986-.626,1.995-1.287,2.992-1.913a1.132,1.132,0,0,0,.417-1.554c-1.044-2.459-2.076-4.917-3.143-7.445l-.487-1.16c-.8-1.9-1.635-3.873-2.435-5.822A.964.964,0,0,0,9.66,575.369Zm18.509,10.924a10.76,10.76,0,0,1,3.375.615c1.519.5,3.073.963,4.569,1.4,1.009.3,2.053.615,3.073.928,1.264.394,2.551.812,3.792,1.206,1.542.5,3.131,1.009,4.7,1.485a7.31,7.31,0,0,0,2.134.348,5.243,5.243,0,0,0,2.482-.615c.244-.127.487-.255.731-.394a30.2,30.2,0,0,0,3.282-1.913c3.166-2.227,6.285-4.546,9.219-6.738,2.343-1.751,4.72-3.549,7-5.288,1.148-.87,2.285-1.74,3.433-2.609l.626-.487a11.887,11.887,0,0,1,1.6-1.136,2.374,2.374,0,0,0,1.276-1.647,2.642,2.642,0,0,0-.568-2.493,2.262,2.262,0,0,0-1.612-.649,3.164,3.164,0,0,0-1.171.243l-.07.035-.487.209-1.044.452c-1.171.487-2.331.974-3.5,1.461-3.189,1.334-6.483,2.714-9.718,4.07a1.478,1.478,0,0,0-.928.858,7.886,7.886,0,0,1-3.236,4.059,21.707,21.707,0,0,1-5.2,2.783,11.441,11.441,0,0,1-4.291.916,8.639,8.639,0,0,1-1.728-.174c-2.563-.522-5.161-1.125-7.665-1.7l-.557-.128a1.691,1.691,0,0,1-1.508-1.566,1.557,1.557,0,0,1,.87-1.7,2.319,2.319,0,0,1,.754-.1,9.357,9.357,0,0,1,.974.07l.116.011a6.512,6.512,0,0,1,1.078.244c.209.058.429.116.649.174.487.116.974.232,1.461.336,1.3.313,2.644.626,3.989.858a7.119,7.119,0,0,0,1.252.1,10.929,10.929,0,0,0,1.566-.128,12.939,12.939,0,0,0,4.279-1.7l.278-.151a9.015,9.015,0,0,0,3.05-2.47,1.651,1.651,0,0,0,.186-1.45,3.728,3.728,0,0,0-3.34-2.053,2.882,2.882,0,0,0-1.009.174,11.557,11.557,0,0,1-4.036.742,12.749,12.749,0,0,1-3.873-.626c-1.658-.522-3.317-1.136-4.929-1.74-1.16-.429-2.354-.881-3.549-1.287l-.1-.035a21.8,21.8,0,0,0-4.3-1.148,15.4,15.4,0,0,0-1.8-.116,17.3,17.3,0,0,0-6.32,1.276c-1.948.765-3.9,1.6-5.787,2.4-1.079.464-2.192.939-3.293,1.392a1.35,1.35,0,0,0-.777.684,1.4,1.4,0,0,0,.081,1.055c.986,2.3,1.983,4.639,2.946,6.912l.475,1.113c.58,1.368,1.16,2.737,1.751,4.14l1.055,2.505.568-.313c.151-.081.278-.151.417-.22.278-.151.533-.29.789-.441a13.406,13.406,0,0,1,5.984-2.064A1.9,1.9,0,0,0,28.169,586.293Z" transform="translate(0 -518.232)"/>
      <path id="Path_15746" data-name="Path 15746" class="cls-3" d="M258.6,210.016a1.954,1.954,0,0,1-1.241-.417c-1.171-.974-2.377-1.937-3.549-2.864-.533-.429-1.078-.847-1.612-1.276-.951-.765-1.925-1.531-2.864-2.273-2.2-1.74-4.476-3.537-6.657-5.369a32.846,32.846,0,0,1-7.955-9.127,16.107,16.107,0,0,1-1.925-10.1,16.355,16.355,0,0,1,3.966-8.779,16.74,16.74,0,0,1,7.457-4.963A16.138,16.138,0,0,1,249.33,164h.046a16.97,16.97,0,0,1,8.292,2.192,1.677,1.677,0,0,0,.835.244,1.7,1.7,0,0,0,.812-.232,16.389,16.389,0,0,1,8.176-2.2c.406,0,.823.012,1.229.046a17.072,17.072,0,0,1,6.645,1.832,1.7,1.7,0,0,1,1.021,1.612,1.545,1.545,0,0,1-.916,1.542,1.683,1.683,0,0,1-.742.162,2.525,2.525,0,0,1-1.195-.348,12.253,12.253,0,0,0-5.9-1.484,15.3,15.3,0,0,0-2.841.278,13.2,13.2,0,0,0-5.184,2.343,1.93,1.93,0,0,1-1.137.394,1.862,1.862,0,0,1-1.136-.417,12.891,12.891,0,0,0-7.828-2.609,14.583,14.583,0,0,0-2.111.151,12.79,12.79,0,0,0-6.378,2.876,13.042,13.042,0,0,0-4.418,6.715,13.414,13.414,0,0,0,.325,8.373,19.581,19.581,0,0,0,5.59,7.758c1.844,1.693,3.827,3.282,5.74,4.824.29.232.568.464.858.684,1.589,1.287,3.224,2.574,4.813,3.827,1.218.963,2.482,1.96,3.711,2.946a1.468,1.468,0,0,0,.881.36,1.312,1.312,0,0,0,.846-.348c1.635-1.322,3.305-2.656,4.917-3.943.881-.7,1.751-1.4,2.621-2.1.533-.429,1.067-.847,1.6-1.276,1.322-1.044,2.691-2.134,4-3.247a29.538,29.538,0,0,0,6.552-7.376,14.239,14.239,0,0,0,1.89-6.958,1.7,1.7,0,0,1,1.4-1.7,2.24,2.24,0,0,1,.278-.012,1.561,1.561,0,0,1,1.647,1.218,6.224,6.224,0,0,1,.058,1.844,17.487,17.487,0,0,1-2.157,7.016,28.607,28.607,0,0,1-6.761,7.967c-2.667,2.25-5.439,4.476-8.118,6.633-1.079.87-2.192,1.763-3.282,2.644-.464.371-.939.754-1.4,1.113-.928.731-1.89,1.5-2.795,2.285A2.012,2.012,0,0,1,258.6,210.016Z" transform="translate(-205.668 -164)"/>
      <path id="Path_15752" data-name="Path 15752" class="cls-3" d="M628.776,222.465a1.618,1.618,0,0,1-1.322-.626,22.127,22.127,0,0,1-1.322-2.029,1.765,1.765,0,0,1-.011-1.774,1.648,1.648,0,0,1,1.426-.835,1.678,1.678,0,0,1,1.542.823c.162.267.336.533.5.789.22.36.452.719.673,1.067a1.753,1.753,0,0,1-.394,2.227A1.834,1.834,0,0,1,628.776,222.465Z" transform="translate(-553.304 -211.031)"/>
    </g>
  </g>
</svg>
