<svg xmlns="http://www.w3.org/2000/svg" xmlns:xlink="http://www.w3.org/1999/xlink" viewBox="0 0 130 130">
  <defs>
    <style>
      .cls-1 {
        opacity: 0.12;
        fill: url(#linear-gradient);
      }

      .cls-2, .cls-4 {
        fill: none;
      }

      .cls-3 {
        fill: #7d5ab4;
      }

      .cls-4 {
        stroke: #7d5ab4;
        stroke-linejoin: round;
        stroke-miterlimit: 10;
        stroke-width: 2.5px;
      }
    </style>
    <linearGradient id="linear-gradient" x1="0.5" x2="0.5" y2="1" gradientUnits="objectBoundingBox">
      <stop offset="0" stop-color="#004aff" stop-opacity="0"/>
      <stop offset="1" stop-color="#004aff"/>
    </linearGradient>
  </defs>
  <g id="map-beta" transform="translate(5781 -5639)">
    <circle id="Ellipse_209" data-name="Ellipse 209" class="cls-1" cx="46.5" cy="46.5" r="46.5" transform="translate(-5744 5657)"/>
    <rect id="Rectangle_1057" data-name="Rectangle 1057" class="cls-2" width="130" height="130" transform="translate(-5781 5639)"/>
    <g id="Group_2890" data-name="Group 2890" transform="translate(-102 -0.305)">
      <g id="Group_2889" data-name="Group 2889" transform="translate(-5679 5651.685)">
        <g id="Group_2888" data-name="Group 2888" transform="translate(0 0)">
          <path id="Path_3378" data-name="Path 3378" class="cls-3" d="M5.965,103.665a6.3,6.3,0,0,1-4.48-2.215A4.873,4.873,0,0,1,.1,97.751a12.111,12.111,0,0,0,0-3.02,5.563,5.563,0,0,1,1.46-4.253,5.434,5.434,0,0,1,4-1.963,5.315,5.315,0,0,1,.654.05,1.128,1.128,0,0,0,.3.025H7.45L11.4,74.42l.529-1.888c.378-1.384.78-2.844,1.208-4.253A21.743,21.743,0,0,1,26.93,53.531c.629-.252,1.384-.529,1.409-1.711a1.647,1.647,0,0,0-1.334-1.686l-.1-.025A22,22,0,0,1,12.911,34.756L10.118,24.715c-.755-2.768-1.535-5.537-2.29-8.305a4.261,4.261,0,0,0-.252-.68.894.894,0,0,0-.1-.227l-.1-.277-.3-.025c-.352-.05-.68-.076-1.007-.1a8.977,8.977,0,0,1-1.913-.277A5.856,5.856,0,0,1,.1,9.236V5.713A5.741,5.741,0,0,1,5.814,0h60A5.709,5.709,0,0,1,71.5,5.738V9.262A5.524,5.524,0,0,1,65.889,15a2,2,0,0,0-2.24,1.737c-1.812,6.77-3.5,12.861-5.21,18.674a21.762,21.762,0,0,1-13.59,14.648c-.076.025-.176.076-.277.1a1.552,1.552,0,0,0-1.309,1.636,1.7,1.7,0,0,0,1.359,1.737l.151.05a21.994,21.994,0,0,1,13.892,15.3c1.082,3.926,2.19,7.9,3.247,11.753.6,2.24,1.233,4.48,1.862,6.72a3.365,3.365,0,0,0,.226.6c.025.076.076.176.1.252l.1.252.277.05c.025,0,.076.025.1.025q.151.038.378.075c4.555.126,6.594,2.215,6.594,6.745a6.83,6.83,0,0,1-.025.73,13.011,13.011,0,0,0,.025,1.711,4.7,4.7,0,0,1-1.384,3.674,6.4,6.4,0,0,1-4.5,2.215c-9.866-.05-19.857-.076-29.723-.076-9.941-.025-20.008,0-29.975.05Zm59.295-3.02c2.567,0,3.272-.7,3.3-3.322V94.932c0-2.743-.68-3.423-3.448-3.423H6.292a2.447,2.447,0,0,0-.453.025c-1.988.151-2.743.956-2.768,2.945v2.768c0,2.693.68,3.4,3.347,3.4H35.839C35.839,100.67,60.629,100.67,65.26,100.645Zm-37.9-44.068a3.883,3.883,0,0,0-.428.126A17.767,17.767,0,0,0,16.183,68.632c-.805,2.693-1.535,5.436-2.265,8.079-.352,1.284-.7,2.567-1.057,3.876-.453,1.636-.906,3.272-1.384,4.933l-.831,2.97H60.629l.05-.453a1.09,1.09,0,0,1,.025-.126.724.724,0,0,0,0-.4c-.529-1.888-1.032-3.775-1.56-5.663-1.233-4.48-2.492-9.111-3.851-13.641A17.423,17.423,0,0,0,44.849,56.778a2.532,2.532,0,0,0-.931-.227,2.27,2.27,0,0,0-1.107.352,2.16,2.16,0,0,1-1.082.277,1.052,1.052,0,0,1-.453-.076,2.019,2.019,0,0,1-.831-1.435c-.075-3.574-.075-7.223-.05-10.747V42.86c0-1.032.529-1.586,1.46-1.586s1.46.554,1.485,1.586c.025.831,0,1.686,0,2.492v1.485l.4.076c.05.025.1.025.151.05a.9.9,0,0,0,.277.05h0a.554.554,0,0,0,.2-.025q.453-.151.982-.378A18.212,18.212,0,0,0,55.721,34.178c1.862-6.77,3.725-13.515,5.587-20.285.453-1.636.629-1.762,2.315-1.862l1.133-.076c.478-.025,1.007-.076,1.485-.076a2.221,2.221,0,0,0,2.315-2.416c.025-.73,0-1.485,0-2.19V6.443c0-2.844-.654-3.5-3.5-3.5H5.638A2.351,2.351,0,0,0,3.046,5.512C3.02,6.191,3.02,6.9,3.02,7.575v.856c0,3.02.6,3.624,3.6,3.624H41.225a3.462,3.462,0,0,1,1.258.151,1.323,1.323,0,0,1,.755,1.711c-.126.5-.453,1.082-1.711,1.082-5.159,0-10.319-.025-15.453-.025H10.747l.126.629a1.33,1.33,0,0,1,.025.3,2.161,2.161,0,0,0,.076.428l1.233,4.4c1.309,4.681,2.643,9.538,3.976,14.3a17.71,17.71,0,0,0,3.976,7.173,17.472,17.472,0,0,0,7.374,4.908l.579.2.076-.6a1.225,1.225,0,0,0,.025-.3,3.536,3.536,0,0,0,.05-.453c.1-1.46.881-1.636,1.46-1.636h.1c.906.05,1.384.6,1.384,1.686V59.723c0,.73-.252,1.611-1.435,1.636h-.05a1.371,1.371,0,0,1-1.46-1.535c-.025-.629,0-1.233,0-1.837V56.828l-.352-.1a.6.6,0,0,1-.176-.076.777.777,0,0,0-.277-.05h-.05Z" transform="translate(-0.068)"/>
          <path id="Path_3379" data-name="Path 3379" class="cls-3" d="M198.135,50.97a4.66,4.66,0,0,1-.629-.025,1.368,1.368,0,0,1-1.309-1.51,1.3,1.3,0,0,1,1.258-1.409c.528-.025,1.057-.025,1.636-.025.554,0,1.107,0,1.711.025a1.336,1.336,0,0,1,1.359,1.46,1.381,1.381,0,0,1-1.334,1.485c-.176,0-.352.025-.579.025h-1.586A3.716,3.716,0,0,0,198.135,50.97Z" transform="translate(-146.836 -35.92)"/>
        </g>
      </g>
      <line id="Line_968" data-name="Line 968" class="cls-4" x2="30.407" transform="translate(-5613.353 5686.519)"/>
      <line id="Line_969" data-name="Line 969" class="cls-4" x1="15.203" transform="translate(-5598.15 5704.015)"/>
      <line id="Line_970" data-name="Line 970" class="cls-4" x1="6.642" transform="translate(-5612.762 5704.015)"/>
      <line id="Line_974" data-name="Line 974" class="cls-4" x2="23.174" transform="translate(-5606.121 5726.269)"/>
    </g>
  </g>
</svg>
