<svg xmlns="http://www.w3.org/2000/svg" xmlns:xlink="http://www.w3.org/1999/xlink" viewBox="0 0 423 299.195">
  <defs>
    <style>
      .cls-1 {
        opacity: 0.12;
        fill: url(#linear-gradient);
      }

      .cls-2, .cls-9 {
        fill: #fff;
      }

      .cls-2, .cls-3, .cls-5, .cls-6, .cls-7, .cls-8 {
        stroke: #fff;
      }

      .cls-2, .cls-3 {
        opacity: 0.15;
      }

      .cls-3, .cls-4, .cls-5, .cls-6, .cls-7, .cls-8 {
        fill: none;
      }

      .cls-3, .cls-5, .cls-6, .cls-8 {
        stroke-linecap: round;
      }

      .cls-3 {
        stroke-width: 6px;
      }

      .cls-5, .cls-6, .cls-7, .cls-8 {
        stroke-linejoin: round;
        stroke-miterlimit: 10;
      }

      .cls-5, .cls-7 {
        stroke-width: 4.5px;
      }

      .cls-6 {
        stroke-width: 2px;
      }

      .cls-8 {
        stroke-width: 2.5px;
      }

      .cls-10 {
        stroke: none;
      }
    </style>
    <linearGradient id="linear-gradient" x1="0.5" x2="0.5" y2="1" gradientUnits="objectBoundingBox">
      <stop offset="0" stop-color="#fff" stop-opacity="0"/>
      <stop offset="1" stop-color="#fff"/>
    </linearGradient>
  </defs>
  <g id="map_hero" transform="translate(-4132 1803)">
    <path id="Path_15720" data-name="Path 15720" class="cls-1" d="M105,0A105,105,0,1,1,0,105,105,105,0,0,1,105,0Z" transform="translate(4345 -1760)"/>
    <g id="Group_3381" data-name="Group 3381" transform="translate(4751.275 -1918.17)">
      <g id="Ellipse_93" data-name="Ellipse 93" class="cls-2" transform="translate(-389.749 168.141)">
        <circle class="cls-10" cx="5.588" cy="5.588" r="5.588"/>
        <circle class="cls-4" cx="5.588" cy="5.588" r="5.088"/>
      </g>
      <g id="Ellipse_219" data-name="Ellipse 219" class="cls-2" transform="translate(-461.749 130.141)">
        <circle class="cls-10" cx="3.588" cy="3.588" r="3.588"/>
        <circle class="cls-4" cx="3.588" cy="3.588" r="3.088"/>
      </g>
      <g id="Ellipse_97" data-name="Ellipse 97" class="cls-2" transform="translate(-538.053 294.349)">
        <circle class="cls-10" cx="5.588" cy="5.588" r="5.588"/>
        <circle class="cls-4" cx="5.588" cy="5.588" r="5.088"/>
      </g>
      <g id="Ellipse_98" data-name="Ellipse 98" class="cls-2" transform="translate(-311.257 390.654)">
        <circle class="cls-10" cx="5.588" cy="5.588" r="5.588"/>
        <circle class="cls-4" cx="5.588" cy="5.588" r="5.088"/>
      </g>
      <g id="Ellipse_94" data-name="Ellipse 94" class="cls-2" transform="translate(-553.72 190.229)">
        <ellipse class="cls-10" cx="3.726" cy="3.726" rx="3.726" ry="3.726"/>
        <ellipse class="cls-4" cx="3.726" cy="3.726" rx="3.226" ry="3.226"/>
      </g>
      <g id="Ellipse_96" data-name="Ellipse 96" class="cls-2" transform="translate(-400.091 115.17)">
        <ellipse class="cls-10" cx="3.726" cy="3.726" rx="3.726" ry="3.726"/>
        <ellipse class="cls-4" cx="3.726" cy="3.726" rx="3.226" ry="3.226"/>
      </g>
      <line id="Line_161" data-name="Line 161" class="cls-3" x2="86.619" transform="translate(-526.862 387.011)"/>
      <line id="Line_2516" data-name="Line 2516" class="cls-3" x2="51.362" transform="translate(-510.862 155.011)"/>
      <line id="Line_174" data-name="Line 174" class="cls-3" x2="147.159" transform="translate(-616.275 356.276)"/>
      <line id="Line_164" data-name="Line 164" class="cls-3" x2="92.07" transform="translate(-558.775 251.647)"/>
      <line id="Line_165" data-name="Line 165" class="cls-3" x2="46.313" transform="translate(-596.088 226.019)"/>
      <line id="Line_169" data-name="Line 169" class="cls-3" x2="8.382" transform="translate(-401.125 411.364)"/>
      <line id="Line_162" data-name="Line 162" class="cls-3" x2="16.825" transform="translate(-496.126 182.107)"/>
      <line id="Line_173" data-name="Line 173" class="cls-3" x2="16.825" transform="translate(-405.341 373.188)"/>
      <line id="Line_166" data-name="Line 166" class="cls-3" x2="16.825" transform="translate(-502.459 287.723) rotate(-45)"/>
      <line id="Line_171" data-name="Line 171" class="cls-3" x2="16.825" transform="translate(-315.407 145.632) rotate(-45)"/>
      <line id="Line_163" data-name="Line 163" class="cls-3" x2="16.825" transform="translate(-487.744 173.724) rotate(90)"/>
      <line id="Line_172" data-name="Line 172" class="cls-3" x2="16.825" transform="translate(-396.959 364.805) rotate(90)"/>
      <line id="Line_167" data-name="Line 167" class="cls-3" x2="16.825" transform="translate(-502.459 275.867) rotate(45)"/>
      <line id="Line_170" data-name="Line 170" class="cls-3" x2="16.825" transform="translate(-315.407 133.777) rotate(45)"/>
    </g>
    <rect id="Rectangle_4373" data-name="Rectangle 4373" class="cls-4" width="241" height="241" transform="translate(4314 -1775)"/>
    <g id="Group_3382" data-name="Group 3382" transform="translate(3268.212 -6948)">
      <g id="Group_3216" data-name="Group 3216" transform="translate(1033.8 5209)">
        <path id="Path_1977" data-name="Path 1977" class="cls-5" d="M1623.075,2654.92V2684.8H1449.7V2510.7h30.685" transform="translate(-1449.7 -2510.7)"/>
        <line id="Line_1321" data-name="Line 1321" class="cls-6" y1="8.283" transform="translate(21.009 165.816)"/>
        <line id="Line_1322" data-name="Line 1322" class="cls-6" y1="8.283" transform="translate(59.645 165.816)"/>
        <line id="Line_1323" data-name="Line 1323" class="cls-6" y1="8.283" transform="translate(98.279 165.816)"/>
        <line id="Line_1324" data-name="Line 1324" class="cls-6" y1="8.283" transform="translate(136.915 165.816)"/>
        <rect id="Rectangle_622" data-name="Rectangle 622" class="cls-7" width="78.236" height="22.457" transform="translate(0 42.016)"/>
        <rect id="Rectangle_623" data-name="Rectangle 623" class="cls-7" width="49.018" height="22.215" transform="translate(0 86.204)"/>
        <rect id="Rectangle_624" data-name="Rectangle 624" class="cls-7" width="30.184" height="22.94" transform="translate(0 129.186)"/>
        <g id="Group_1499" data-name="Group 1499" transform="translate(78.236 42.016)">
          <path id="Path_1978" data-name="Path 1978" class="cls-7" d="M1482.1,2528.1v22.215h3.864l22.457-22.215Z" transform="translate(-1482.1 -2528.1)"/>
          <path id="Path_1979" data-name="Path 1979" class="cls-7" d="M1493.7,2550.315h24.871V2528.1h-2.415Z" transform="translate(-1465.69 -2528.1)"/>
          <path id="Path_1980" data-name="Path 1980" class="cls-7" d="M1506.157,2528.1l-22.457,22.215h24.147L1530.3,2528.1Z" transform="translate(-1479.837 -2528.1)"/>
        </g>
        <g id="Group_1500" data-name="Group 1500" transform="translate(49.018 86.204)">
          <path id="Path_1981" data-name="Path 1981" class="cls-7" d="M1470,2546.4v22.215h6.278l21.974-22.215Z" transform="translate(-1470 -2546.4)"/>
          <path id="Path_1982" data-name="Path 1982" class="cls-7" d="M1482.6,2568.615h28.976V2546.4h-6.761Z" transform="translate(-1452.175 -2546.4)"/>
          <path id="Path_1983" data-name="Path 1983" class="cls-7" d="M1494.573,2546.4l-21.974,22.215h24.147l22.215-22.215Z" transform="translate(-1466.322 -2546.4)"/>
        </g>
        <g id="Group_1501" data-name="Group 1501" transform="translate(30.425 129.186)">
          <path id="Path_1984" data-name="Path 1984" class="cls-7" d="M1462.3,2564.2v22.939h4.588l22.94-22.939Z" transform="translate(-1462.3 -2564.2)"/>
          <path id="Path_1985" data-name="Path 1985" class="cls-7" d="M1487.14,2564.2l-22.94,22.939h24.147l22.94-22.939Z" transform="translate(-1459.612 -2564.2)"/>
          <path id="Path_1986" data-name="Path 1986" class="cls-7" d="M1474.2,2587.139h27.528V2564.2h-4.588Z" transform="translate(-1445.465 -2564.2)"/>
        </g>
      </g>
      <g id="Group_3218" data-name="Group 3218" transform="matrix(0.966, -0.259, 0.259, 0.966, 1128.518, 5312.122)">
        <line id="Line_1334" data-name="Line 1334" class="cls-5" y1="39.651" x2="59.036" transform="translate(0 5.345)"/>
        <path id="Path_2006" data-name="Path 2006" class="cls-5" d="M9.277,15.533l2.8-12.514L0,0" transform="translate(49.911 0.001)"/>
      </g>
      <line id="Line_7857" data-name="Line 7857" class="cls-8" x2="12.031" transform="translate(1143.628 5220.52)"/>
      <line id="Line_7858" data-name="Line 7858" class="cls-8" x2="22.637" transform="translate(1129.705 5228.525)"/>
    </g>
    <path id="Path_15721" data-name="Path 15721" class="cls-9" d="M24.79,1,19.742,11.3,13.911,1h-6.7L0,17.7H6.731l4.294-9.98,4.735,8.459.835,1.492H23.34L31.477,1ZM18.857,13.011l.957,1.088S18.872,13.04,18.857,13.011Z" transform="translate(4424.923 -1730.607)"/>
  </g>
</svg>
