<svg xmlns="http://www.w3.org/2000/svg" viewBox="0 0 18.299 18.3">
  <defs>
    <style>
      .cls-1 {
        opacity: 0.23;
      }

      .cls-2 {
        fill: #f5f5f5;
      }
    </style>
  </defs>
  <g id="Group_3233" data-name="Group 3233" class="cls-1" transform="translate(-2.301)">
    <path id="Path_15695" data-name="Path 15695" class="cls-2" d="M7.75,37.92H2.037A1.914,1.914,0,0,1,.19,36.8,1.987,1.987,0,0,1,0,35.879V28.857C0,27.6,0,26.3,0,25.016a1.919,1.919,0,0,1,1.144-1.84A1.877,1.877,0,0,1,1.994,23H7.4a.552.552,0,0,1,.452.929.63.63,0,0,1-.448.169H2.034a.922.922,0,0,0-.685.247.944.944,0,0,0-.244.689V35.9a.849.849,0,0,0,.925.922H12.893a.922.922,0,0,0,.685-.247.945.945,0,0,0,.247-.689v-5.4a.561.561,0,0,1,.427-.556.66.66,0,0,1,.118-.011.539.539,0,0,1,.5.334.65.65,0,0,1,.047.258v.42c0,1.646.007,3.346,0,5.021a1.922,1.922,0,0,1-1.983,1.973c-.746,0-1.546,0-2.6,0Z" transform="translate(2.301 -19.62)"/>
    <path id="Path_15696" data-name="Path 15696" class="cls-2" d="M127.244,14.664a.821.821,0,0,1-.666-.366.805.805,0,0,1,.145-1.093l.915-.915.361-.361,1.037-1.037c2.877-2.877,9.169-9.273,9.169-9.273h-3.89a.8.8,0,0,1-.854-.793.807.807,0,0,1,.225-.582A.877.877,0,0,1,134.3,0h2.773c1.075,0,2.154,0,3.21,0a.791.791,0,0,1,.8.817c0,1.98,0,4,0,6a.8.8,0,0,1-.788.807h0a.791.791,0,0,1-.816-.817c0-.718,0-1.445,0-2.149V2.834l-.314.286c-.033.028-.061.056-.089.08-.052.047-.089.08-.131.122q-4.251,4.251-8.508,8.5l-1.492,1.492-.333.333c-.249.249-.5.511-.76.756A.86.86,0,0,1,127.244,14.664Z" transform="translate(-120.492)"/>
  </g>
</svg>
