<svg xmlns="http://www.w3.org/2000/svg" xmlns:xlink="http://www.w3.org/1999/xlink" viewBox="0 0 426.151 302.518"><defs><style>.a{opacity:0.12;fill:url(#a);}.b{fill:#fff;}.b,.c,.d,.e{stroke:#fff;}.b,.c{opacity:0.15;}.c,.d,.e,.g{fill:none;}.c,.e{stroke-linecap:round;}.c,.d,.e{stroke-width:6px;}.d,.e{stroke-linejoin:round;stroke-miterlimit:10;}.f{stroke:none;}</style><linearGradient id="a" x1="0.5" x2="0.5" y2="1" gradientUnits="objectBoundingBox"><stop offset="0" stop-color="#fff" stop-opacity="0"/><stop offset="1" stop-color="#fff"/></linearGradient></defs><g transform="translate(-377 -106)"><circle class="a" cx="103.537" cy="103.537" r="103.537" transform="translate(596.077 157.557)"/><g class="b" transform="translate(548.328 120.469)"><circle class="f" cx="5.788" cy="5.788" r="5.788"/><circle class="g" cx="5.788" cy="5.788" r="5.288"/></g><g class="b" transform="translate(468.264 314.36)"><circle class="f" cx="5.788" cy="5.788" r="5.788"/><circle class="g" cx="5.788" cy="5.788" r="5.288"/></g><g class="b" transform="translate(667.942 394.424)"><circle class="f" cx="5.788" cy="5.788" r="5.788"/><circle class="g" cx="5.788" cy="5.788" r="5.288"/></g><g class="b" transform="translate(435.466 175.453)"><circle class="f" cx="3.859" cy="3.859" r="3.859"/><circle class="g" cx="3.859" cy="3.859" r="3.359"/></g><g class="b" transform="translate(651.543 106)"><circle class="f" cx="3.859" cy="3.859" r="3.859"/><circle class="g" cx="3.859" cy="3.859" r="3.359"/></g><line class="c" x2="89.711" transform="translate(472.604 382.367)"/><line class="c" x2="152.412" transform="translate(380 350.534)"/><line class="c" x2="74.277" transform="translate(452.347 232.849)"/><line class="c" x2="8.682" transform="translate(419.55 213.556)"/><line class="c" x2="8.682" transform="translate(602.829 405.518)"/><line class="c" x2="17.426" transform="translate(504.437 170.148)"/><line class="c" x2="17.426" transform="translate(577.749 393.942)"/><line class="c" x2="17.426" transform="translate(461.63 279.534) rotate(-45)"/><line class="c" x2="17.426" transform="translate(699.894 126.157) rotate(-45)"/><line class="c" x2="17.426" transform="translate(513.119 161.466) rotate(90)"/><line class="c" x2="17.426" transform="translate(586.431 385.26) rotate(90)"/><line class="c" x2="17.426" transform="translate(461.63 267.255) rotate(45)"/><line class="c" x2="17.426" transform="translate(699.894 113.879) rotate(45)"/><g transform="translate(556.457 181.624)"><path class="d" d="M95.341,24.759V16.8H1.3v90.062H95.341V88.012" transform="translate(-1.091 15.664)"/><path class="e" d="M95.451,7.583A6.171,6.171,0,0,0,89.167,1.3H7.483A6.171,6.171,0,0,0,1.2,7.583V33.764H95.451Z" transform="translate(-1.2 -1.3)"/><path class="e" d="M1.3,59.8V82.839a6.171,6.171,0,0,0,6.283,6.283H89.267a6.171,6.171,0,0,0,6.283-6.283V59.8H1.3Z" transform="translate(-1.091 62.726)"/><line class="e" x2="22.411" transform="translate(37.072 16.127)"/><line class="e" x2="17.384" transform="translate(42.099 137.187)"/><line class="e" y2="34.349" transform="translate(17.593 49.22)"/><line class="e" y2="7.75" transform="translate(17.593 95.926)"/></g><g transform="translate(641.492 236.08)"><path class="e" d="M147.54,34.7H49.1L59.572,86.224h75.4Z" transform="translate(-33.81 -19.201)"/><path class="e" d="M54.1,59.3s1.047,12.567,11.31,12.567h54.875" transform="translate(-28.338 7.723)"/><path class="e" d="M57.09,42.8,53.738,27.3H41.8" transform="translate(-41.8 -27.3)"/><path class="d" d="M72.591,70.852a5.446,5.446,0,1,1-5.446-5.446A5.28,5.28,0,0,1,72.591,70.852Z" transform="translate(-20.02 14.393)"/><path class="d" d="M88.891,70.846a5.408,5.408,0,0,1-5.446,5.446A5.545,5.545,0,0,1,78,70.846a5.446,5.446,0,0,1,10.891,0Z" transform="translate(-2.18 14.399)"/></g><g transform="translate(698.043 214.088)"><path class="e" d="M76.7,16.8,89.267,28.529,76.7,41.305" transform="translate(-60.154 -16.8)"/><line class="e" x1="29.113" transform="translate(0 11.729)"/></g><g transform="translate(673.747 189.373)"><path class="e" d="M69.767,29.715,57.2,17.986,69.767,5" transform="translate(-57.2 -5)"/><line class="e" x2="29.113" transform="translate(0 12.986)"/></g></g></svg>