
<svg width="3237px" height="1074px" viewBox="175 175 3237 1074" version="1.1" xmlns="http://www.w3.org/2000/svg" xmlns:xlink="http://www.w3.org/1999/xlink">
    <!-- Generator: Sketch 42 (36781) - http://www.bohemiancoding.com/sketch -->
    <desc>Created with Sketch.</desc>
    <defs>
        <linearGradient x1="78.552718%" y1="23.7603521%" x2="21.9447826%" y2="76.010278%" id="linearGradient-1">
            <stop stop-color="#0A87F5" offset="0%"></stop>
            <stop stop-color="#DC1EB9" offset="100%"></stop>
        </linearGradient>
    </defs>
    <g id="navcoin_full" stroke="none" stroke-width="1" fill="none" fill-rule="evenodd" transform="translate(200.000000, 200.000000)">
        <g id="Web-|-Header">
            <g id="N">
                <ellipse id="Oval" fill="#FFFFFF" cx="511.5" cy="512.5" rx="495.5" ry="507.5"></ellipse>
                <rect id="Background" stroke="#F0F0F0" stroke-width="50" fill="#FFFFFF" fill-rule="nonzero" x="0" y="0" width="1024" height="1024" rx="512"></rect>
                <path d="M673.125,290 C686.11875,290 696.66225,301.026125 696.871821,313.981822 L696.875,314.375 L696.875,488.125 C696.875,488.401142 697.098858,488.625 697.375,488.625 L734,488.625 L734,488.625 C747.254834,488.625 758,499.370166 758,512.625 C758,525.879834 747.254834,536.625 734,536.625 L697.375,536.625 C697.098858,536.625 696.875,536.848858 696.875,537.125 L696.875,709.375 L696.875,709.375 C696.875,722.36875 687.686562,732.299688 674.767619,732.497007 L674.375,732.5 L671.875,732.5 C661.416016,732.5 653.985138,726.443787 646.601574,717.908311 L646.25,717.5 L504.95914,536.816999 C504.864376,536.695815 504.719104,536.625 504.565267,536.625 L375.5,536.625 C375.223858,536.625 375,536.848858 375,537.125 L375,709.375 L375,709.375 C375,722.36875 364.586437,733.524813 351.036555,733.75 L350.625,733.75 C337.63125,733.75 327.08775,722.723875 326.878179,709.768178 L326.875,709.375 L326.875,537.125 C326.875,536.848858 326.651142,536.625 326.375,536.625 L290,536.625 L290,536.625 C276.745166,536.625 266,525.879834 266,512.625 C266,499.370166 276.745166,488.625 290,488.625 L326.375,488.625 C326.651142,488.625 326.875,488.401142 326.875,488.125 L326.875,315.625 L326.875,315.625 C326.875,302.63125 337.901125,291.475188 350.856822,291.253366 L351.25,291.25 L358.125,291.25 C369.028846,291.25 375.822781,296.534172 382.490257,304.826256 L383.125,305.625 L526.470859,488.433525 C526.565639,488.554399 526.710718,488.625 526.86432,488.625 L648.25,488.625 C648.526142,488.625 648.75,488.401142 648.75,488.125 L648.75,314.375 L648.75,314.375 C648.75,301.38125 659.163562,290.225188 672.713445,290 L673.125,290 Z M648.25,536.625 L565.287451,536.625 C565.011308,536.625 564.787451,536.848858 564.787451,537.125 C564.787451,537.236864 564.824963,537.345497 564.893989,537.433525 L647.856538,643.235569 C648.026932,643.452872 648.341222,643.4909 648.558525,643.320506 C648.679399,643.225725 648.75,643.080647 648.75,642.927044 L648.75,537.125 C648.75,536.848858 648.526142,536.625 648.25,536.625 Z M375,372.076085 L375,488.125 C375,488.401142 375.223858,488.625 375.5,488.625 L466.248285,488.625 C466.524427,488.625 466.748285,488.401142 466.748285,488.125 C466.748285,488.013364 466.710925,487.904939 466.642157,487.816999 L375.893872,371.768084 C375.723768,371.550554 375.409528,371.512108 375.191999,371.682213 C375.070815,371.776976 375,371.922249 375,372.076085 Z" id="Shape" fill="url(#linearGradient-1)" fill-rule="nonzero"></path>
                <g id="Group" transform="translate(1267.000000, 281.000000)" fill-rule="nonzero">
                    <g id="navcoin">
                        <g id="path-2-link" fill="#000000">
                            <path d="M207,362.5 C217.5,362.5 226,354 226,343 L226,199.5 C226,138 189.5,96 127,96 C82.5,96 55.5,118.5 38.5,146.5 L38.5,118.5 C38.5,107.5 30,99 19,99 C8.5,99 0,108 0,118.5 L0,343 C0,354 8.5,362.5 19.5,362.5 C30.5,362.5 38.5,354 38.5,343 L38.5,212 C38.5,163.5 71.5,131 116,131 C161.5,131 187.5,161 187.5,209 L187.5,343 C187.5,354 196,362.5 207,362.5 Z M405,365.5 C450.5,365.5 480.5,344.5 498.5,321 L498.5,344.5 C498.5,354.5 506,362.5 517,362.5 C527.5,362.5 535.5,354.5 535.5,343.5 L535.5,202 C535.5,169 526.5,144 509,126.5 C490,107.5 462,98 425.5,98 C392.5,98 366.5,104.5 341,115.5 C336,117.5 330.5,123.5 330.5,131.5 C330.5,140.5 338.5,148 347.5,148 C349.5,148 352,147.5 354.5,146.5 C373.5,138 395.5,132 421.5,132 C470,132 498.5,156 498.5,202.5 L498.5,211.5 C475.5,205 452,200.5 419,200.5 C353.5,200.5 308.5,229.5 308.5,284 L308.5,285 C308.5,338 357,365.5 405,365.5 Z M412.5,335 C377.5,335 347.5,316 347.5,283.5 L347.5,282.5 C347.5,250 374.5,229 423,229 C454.5,229 480,234.5 499,240 L499,265 C499,306 460,335 412.5,335 Z M732,364 C742.5,364 749,357.5 753.5,347.5 L851,127.5 C852,125 853,121.5 853,118 C853,107.5 844.5,99 834,99 C824,99 818.5,105.5 816,113 L731,316 L647.5,114 C644.5,105.5 639,99 628,99 C617,99 608.5,108 608.5,118 C608.5,121.5 610,125 611,128.5 L708,347.5 C712.5,357.5 719.5,364 730,364 L732,364 Z M1043,366 C1086.5,366 1116,349 1140.5,324.5 C1143.5,321.5 1145.5,317 1145.5,312.5 C1145.5,303.5 1137.5,295 1128,295 C1123,295 1119.5,297.5 1117,300 C1098,318 1074.5,331.5 1045,331.5 C991,331.5 950,287 950,231 L950,230 C950,174.5 990,130 1042.5,130 C1073.5,130 1094.5,144 1113,161 C1116,163.5 1120.5,165.5 1125.5,165.5 C1135.5,165.5 1144,157.5 1144,147 C1144,141 1141,136 1138,133.5 C1115,112.5 1086,96 1043,96 C967.5,96 910.5,158 910.5,231 L910.5,232 C910.5,304.5 967.5,366 1043,366 Z M1342.5,366 C1420.5,366 1478,304 1478,231 L1478,230 C1478,157 1421,96 1343.5,96 C1265.5,96 1208.5,158 1208.5,231 L1208.5,232 C1208.5,305 1265,366 1342.5,366 Z M1343.5,331.5 C1289,331.5 1248,286.5 1248,231 L1248,230 C1248,175.5 1286.5,130 1342.5,130 C1397,130 1438.5,175.5 1438.5,231 L1438.5,232 C1438.5,286.5 1399.5,331.5 1343.5,331.5 Z M1590,47.5 C1603,47.5 1613,39 1613,27 L1613,20.5 C1613,8 1603,0 1590,0 C1577.5,0 1567.5,8 1567.5,20.5 L1567.5,27 C1567.5,39 1577.5,47.5 1590,47.5 Z M1590.5,362.5 C1601.5,362.5 1609.5,354 1609.5,343 L1609.5,118.5 C1609.5,107.5 1601,99 1590,99 C1579.5,99 1571,108 1571,118.5 L1571,343 C1571,354 1579.5,362.5 1590.5,362.5 Z M1926,362.5 C1936.5,362.5 1945,354 1945,343 L1945,199.5 C1945,138 1908.5,96 1846,96 C1801.5,96 1774.5,118.5 1757.5,146.5 L1757.5,118.5 C1757.5,107.5 1749,99 1738,99 C1727.5,99 1719,108 1719,118.5 L1719,343 C1719,354 1727.5,362.5 1738.5,362.5 C1749.5,362.5 1757.5,354 1757.5,343 L1757.5,212 C1757.5,163.5 1790.5,131 1835,131 C1880.5,131 1906.5,161 1906.5,209 L1906.5,343 C1906.5,354 1915,362.5 1926,362.5 Z" id="path-2"></path>
                        </g>
                        <g id="path-2-link" fill="#2D2D2D">
                            <path d="M207,362.5 C217.5,362.5 226,354 226,343 L226,199.5 C226,138 189.5,96 127,96 C82.5,96 55.5,118.5 38.5,146.5 L38.5,118.5 C38.5,107.5 30,99 19,99 C8.5,99 0,108 0,118.5 L0,343 C0,354 8.5,362.5 19.5,362.5 C30.5,362.5 38.5,354 38.5,343 L38.5,212 C38.5,163.5 71.5,131 116,131 C161.5,131 187.5,161 187.5,209 L187.5,343 C187.5,354 196,362.5 207,362.5 Z M405,365.5 C450.5,365.5 480.5,344.5 498.5,321 L498.5,344.5 C498.5,354.5 506,362.5 517,362.5 C527.5,362.5 535.5,354.5 535.5,343.5 L535.5,202 C535.5,169 526.5,144 509,126.5 C490,107.5 462,98 425.5,98 C392.5,98 366.5,104.5 341,115.5 C336,117.5 330.5,123.5 330.5,131.5 C330.5,140.5 338.5,148 347.5,148 C349.5,148 352,147.5 354.5,146.5 C373.5,138 395.5,132 421.5,132 C470,132 498.5,156 498.5,202.5 L498.5,211.5 C475.5,205 452,200.5 419,200.5 C353.5,200.5 308.5,229.5 308.5,284 L308.5,285 C308.5,338 357,365.5 405,365.5 Z M412.5,335 C377.5,335 347.5,316 347.5,283.5 L347.5,282.5 C347.5,250 374.5,229 423,229 C454.5,229 480,234.5 499,240 L499,265 C499,306 460,335 412.5,335 Z M732,364 C742.5,364 749,357.5 753.5,347.5 L851,127.5 C852,125 853,121.5 853,118 C853,107.5 844.5,99 834,99 C824,99 818.5,105.5 816,113 L731,316 L647.5,114 C644.5,105.5 639,99 628,99 C617,99 608.5,108 608.5,118 C608.5,121.5 610,125 611,128.5 L708,347.5 C712.5,357.5 719.5,364 730,364 L732,364 Z M1043,366 C1086.5,366 1116,349 1140.5,324.5 C1143.5,321.5 1145.5,317 1145.5,312.5 C1145.5,303.5 1137.5,295 1128,295 C1123,295 1119.5,297.5 1117,300 C1098,318 1074.5,331.5 1045,331.5 C991,331.5 950,287 950,231 L950,230 C950,174.5 990,130 1042.5,130 C1073.5,130 1094.5,144 1113,161 C1116,163.5 1120.5,165.5 1125.5,165.5 C1135.5,165.5 1144,157.5 1144,147 C1144,141 1141,136 1138,133.5 C1115,112.5 1086,96 1043,96 C967.5,96 910.5,158 910.5,231 L910.5,232 C910.5,304.5 967.5,366 1043,366 Z M1342.5,366 C1420.5,366 1478,304 1478,231 L1478,230 C1478,157 1421,96 1343.5,96 C1265.5,96 1208.5,158 1208.5,231 L1208.5,232 C1208.5,305 1265,366 1342.5,366 Z M1343.5,331.5 C1289,331.5 1248,286.5 1248,231 L1248,230 C1248,175.5 1286.5,130 1342.5,130 C1397,130 1438.5,175.5 1438.5,231 L1438.5,232 C1438.5,286.5 1399.5,331.5 1343.5,331.5 Z M1590,47.5 C1603,47.5 1613,39 1613,27 L1613,20.5 C1613,8 1603,0 1590,0 C1577.5,0 1567.5,8 1567.5,20.5 L1567.5,27 C1567.5,39 1577.5,47.5 1590,47.5 Z M1590.5,362.5 C1601.5,362.5 1609.5,354 1609.5,343 L1609.5,118.5 C1609.5,107.5 1601,99 1590,99 C1579.5,99 1571,108 1571,118.5 L1571,343 C1571,354 1579.5,362.5 1590.5,362.5 Z M1926,362.5 C1936.5,362.5 1945,354 1945,343 L1945,199.5 C1945,138 1908.5,96 1846,96 C1801.5,96 1774.5,118.5 1757.5,146.5 L1757.5,118.5 C1757.5,107.5 1749,99 1738,99 C1727.5,99 1719,108 1719,118.5 L1719,343 C1719,354 1727.5,362.5 1738.5,362.5 C1749.5,362.5 1757.5,354 1757.5,343 L1757.5,212 C1757.5,163.5 1790.5,131 1835,131 C1880.5,131 1906.5,161 1906.5,209 L1906.5,343 C1906.5,354 1915,362.5 1926,362.5 Z" id="path-2"></path>
                        </g>
                    </g>
                </g>
            </g>
        </g>
    </g>
</svg>