<svg xmlns="http://www.w3.org/2000/svg" viewBox="0 0 21.707 25.494">
  <defs>
    <style>
      .cls-1 {
        fill: #fff;
      }
    </style>
  </defs>
  <path id="android" class="cls-1" d="M7.2,24.916a2.391,2.391,0,0,1-.5-1.4v-3.2h-1a1.922,1.922,0,0,1-1.2-.4,1.712,1.712,0,0,1-.7-1.3V8.316H17.9v10.2a1.711,1.711,0,0,1-1.7,1.8,4.1,4.1,0,0,1-1.1.1v3.1a2.006,2.006,0,0,1-.4,1.3,1.4,1.4,0,0,1-2.3,0,1.918,1.918,0,0,1-.4-1.2v-3.2H9.9v3.2a2.384,2.384,0,0,1-.5,1.4,1.317,1.317,0,0,1-1.014.478A1.58,1.58,0,0,1,7.2,24.916Zm11.8-7.5a2.01,2.01,0,0,1-.4-1.3v-6.1a1.538,1.538,0,0,1,.5-1.3,1.416,1.416,0,0,1,2.2,0,2.119,2.119,0,0,1,.4,1.4v6a2.01,2.01,0,0,1-.4,1.3,1.4,1.4,0,0,1-2.3,0Zm-18.3.2a1.8,1.8,0,0,1-.7-1.5v-6.1a1.974,1.974,0,0,1,.6-1.4,1.337,1.337,0,0,1,2,0,1.763,1.763,0,0,1,.6,1.3v6.2a1.8,1.8,0,0,1-.7,1.5,1.369,1.369,0,0,1-.886.339A1.47,1.47,0,0,1,.7,17.616Zm16.8-9.7H4.1c-.3,0-.4,0-.4-.3a5.24,5.24,0,0,1,2.2-4.5c.4-.3.9-.6,1.4-.9-.3-.5-.6-1.1-.9-1.6,0-.1-.1-.2-.1-.3s0-.3.1-.3a.349.349,0,0,0,.2.1c.1,0,.1.1.1.2a15.08,15.08,0,0,0,1,1.7,8.305,8.305,0,0,1,6.2,0l.9-1.5c.1-.2.2-.6.5-.5.3.2,0,.5-.1.7-.3.5-.5,1-.8,1.5,2.6,1.6,3.8,3.6,3.4,5.7Zm-4-3.1a.6.6,0,1,0,.6-.6.6.6,0,0,0-.6.6Zm-6.5,0a.645.645,0,0,0,.6.6.646.646,0,0,0,.6-.6.646.646,0,0,0-.6-.6.577.577,0,0,0-.6.6Z" transform="translate(0.002)"/>
</svg>
