<svg xmlns="http://www.w3.org/2000/svg" viewBox="0 0 20.126 24.411">
  <defs>
    <style>
      .cls-1 {
        fill: #fff;
      }
    </style>
  </defs>
  <path id="linux" class="cls-1" d="M14.6,24.392a.8.8,0,0,1-.9-.7,5.169,5.169,0,0,1-.2-1.1c.1-.8.1-1.5.2-2.3a14.785,14.785,0,0,0,.1-2.1c0-.5.3-.7.8-.7.2,0,.4.1.4.3a.367.367,0,0,1,.1.3c.1.6.3.8.9.8a1.366,1.366,0,0,0,1.1-.4c.2-.2.3-.4.5-.5.1-.1.2-.1.3-.2.3-.2.5,0,.5.3a1.809,1.809,0,0,0,1,1.9,1.754,1.754,0,0,1,.5.4.667.667,0,0,1,0,1,1,1,0,0,1-.5.4,10.55,10.55,0,0,0-2.6,2,1.976,1.976,0,0,1-1.4.6Zm-9.4-.3a27.98,27.98,0,0,0-3.9-1c-.3-.1-.7-.3-1-.4s-.3-.3-.3-.6a17.726,17.726,0,0,0,.1-2.3v-.4a.634.634,0,0,1,.5-.6c.2,0,.4-.1.6-.1a1.515,1.515,0,0,0,1.1-.7,2.09,2.09,0,0,1,.4-.6.777.777,0,0,1,.4-.4.754.754,0,0,1,.8.1,9.015,9.015,0,0,1,.9,1,30.044,30.044,0,0,1,2.6,4,.759.759,0,0,1,.2.4.9.9,0,0,1-.1.5,1.849,1.849,0,0,1-1.751,1.187,1.735,1.735,0,0,1-.549-.087Zm2.7-2a6.879,6.879,0,0,0,5.5-1.5c-.1.9-.1,1.9-.2,2.9a14.565,14.565,0,0,0-5.1.1,1.343,1.343,0,0,0-.2-1.5Zm-1.1-2.2c-.6-.9-1.2-1.7-1.8-2.6a10.768,10.768,0,0,0-.9-1.1.751.751,0,0,0-1.2,0v.2a.973.973,0,0,1-.1-.9c.1-.1.1-.3.2-.4.4-.9.7-1.7,1.1-2.5a9.382,9.382,0,0,1,1.2-2.2c.4-.6.9-1.1,1.3-1.7a.745.745,0,0,0,.1-.5c0-1.7-.3-3.2-.2-5A3.293,3.293,0,0,1,9.3.092a3.955,3.955,0,0,1,4.8,3.2,5.7,5.7,0,0,1,.1,1.3,5.2,5.2,0,0,0,.7,3.2l2.4,3.6a8.049,8.049,0,0,1,1.4,3.3,3.727,3.727,0,0,1-.2,1.8.1.1,0,0,1-.1.1,5.54,5.54,0,0,0-.8.5,4.35,4.35,0,0,1-.7.6,1.614,1.614,0,0,1-.9.3c-.3-.1-.5-.2-.6-.5a1.794,1.794,0,0,0-.4-.9v-.2a16.7,16.7,0,0,0-.2-3.2,5.694,5.694,0,0,0-.4-1.2c-.7-1.5-1.3-3-2-4.5v-.2c0-.2.2-.5.2-.7s0-.4-.3-.5c-.2-.1-.3-.1-.5-.2a1.608,1.608,0,0,0,.4-1.6,1.363,1.363,0,0,0-1.2-1,1.27,1.27,0,0,0-1.1,1.1,1.271,1.271,0,0,0-.1.6H8.9v-.7a4.931,4.931,0,0,0-.3-.7.655.655,0,0,0-1.1,0,1.577,1.577,0,0,0-.4,1.3,1.5,1.5,0,0,0,.4,1.1l-.1.1a.8.8,0,0,0-.2,1c.4.5.2,1.1.2,1.6l-.1.1a3.686,3.686,0,0,0-1.1,1.9,9.507,9.507,0,0,1-.9,2.1,5.356,5.356,0,0,0-.7,3.3.711.711,0,0,0,.3.6c.7.6,1.5,1.2,2.2,1.8a3.053,3.053,0,0,1,.5.7.542.542,0,0,1-.4.8.148.148,0,0,1-.108.041.47.47,0,0,1-.292-.141Zm1.7-11.9-.8-.8a.667.667,0,0,1,.1-1c.1-.2.3-.3.5-.5a.1.1,0,0,0,.1-.1c-.3.1-.4,0-.5-.2a1.1,1.1,0,0,1,0-.8.385.385,0,0,1,.7,0,.8.8,0,0,1-.2,1c.1-.1.2-.1.3-.2a1.364,1.364,0,0,1,1.2-.2l.6.3a.775.775,0,0,1-.2-.8.663.663,0,0,1,.5-.4.511.511,0,0,1,.5.4c.2.5,0,.8-.5,1a6.357,6.357,0,0,0,.9.4c.3.2.3.3.3.5a.754.754,0,0,1-.4.7l-1.5.9a1.352,1.352,0,0,1-1.6-.2Zm.7-.5a5.458,5.458,0,0,0,2.4-1.2.1.1,0,0,0,.1-.1c-.2.1-.3.1-.4.2-.4.2-.8.5-1.2.7a2.258,2.258,0,0,1-1.8.1c-.2-.1-.3-.2-.5-.2a2.391,2.391,0,0,0,1.4.5Zm1.7-2.6a.519.519,0,0,1,.2.4c.2-.2.1-.5-.1-.5,0-.02,0-.028-.01-.028-.026,0-.09.128-.09.128Zm-2.8,0c.1.1.1.2.2.3h.2a.1.1,0,0,1,.1-.1,1.385,1.385,0,0,0-.4-.3H8.1Z" transform="translate(0 0.012)"/>
</svg>
