<svg xmlns="http://www.w3.org/2000/svg" viewBox="0 0 20.71 25.553">
  <defs>
    <style>
      .cls-1 {
        fill: #fff;
      }
    </style>
  </defs>
  <path id="mac" class="cls-1" d="M4.711,24.8a14.94,14.94,0,0,1-3-4.1,15.02,15.02,0,0,1-1.7-7.5,7.544,7.544,0,0,1,1.6-4.6,5.988,5.988,0,0,1,5.1-2.4,10.071,10.071,0,0,1,2.3.7,5.276,5.276,0,0,0,1.2.3,1.1,1.1,0,0,0,.8,0c.8-.2,1.6-.5,2.5-.8a6.208,6.208,0,0,1,6,1.4c.2.2.3.4.5.6,0,.1.1.2.1.3a5.649,5.649,0,0,0,.6,10c-.1.2-.1.4-.2.6a13.57,13.57,0,0,1-3.3,5.2,2.678,2.678,0,0,1-2.6,1,8.36,8.36,0,0,1-1.5-.4,5.4,5.4,0,0,0-4.8,0,8.321,8.321,0,0,1-1.5.4,1.73,1.73,0,0,1-.423.053A2.708,2.708,0,0,1,4.711,24.8Zm5.7-18.9c-.4-3,2.3-5.7,5.1-5.9a6.159,6.159,0,0,1-.2,1.9,6.214,6.214,0,0,1-2.4,3.3,3.12,3.12,0,0,1-2.064.725A3.957,3.957,0,0,1,10.41,5.9Z" transform="translate(-0.001)"/>
</svg>
