<svg xmlns="http://www.w3.org/2000/svg" viewBox="0 0 20.735 26.502">
  <defs>
    <style>
      .cls-1 {
        fill: #fff;
      }
    </style>
  </defs>
  <path id="pi" class="cls-1" d="M4.2,7.6c-.3-.2-.5-.5-.8-.7a.349.349,0,0,0-.2-.1l-.6-.6-.3-.3c-.1-.3-.3-.5-.4-.8a.349.349,0,0,0-.1-.2l-.1-.1c-.2-.5-.4-1.1-.6-1.6,0-.1-.1-.2-.1-.3V1.8c-.1-.5.1-.8.7-.9A.52.52,0,0,0,2.1.7c.1,0,.2-.1.3-.2A7.972,7.972,0,0,0,3.9.2C4.4,0,5,.3,5.5,0h.1L7.1.3h.3a.6.6,0,0,1,.4.1c.8.5,1.7.8,2.2,1.7.1.1.2.2.2.3a.1.1,0,0,1,.1.1,1.38,1.38,0,0,0,.3-.4c.3-.3.5-.7.8-1a2.614,2.614,0,0,0,.8-.3h.1c.4-.5,1-.4,1.5-.6.1-.1.3,0,.4-.1.2,0,.4-.1.6-.1h.7l.1.1c.5-.3,1,0,1.5.2.6.2,1.2.1,1.7.5.1.1.2.1.4.1a.676.676,0,0,1,.6.9v1c0,.2-.1.4-.1.6l-.6,1.5c0,.1-.1.2-.1.3v.1a4.708,4.708,0,0,1-1.3,1.5c-.1,0-.1.1-.2.1l-.7.7c-.2.1,0,.2.2.4a3.526,3.526,0,0,1,1.6,3,1.622,1.622,0,0,0,.7,1.4,4.034,4.034,0,0,1,.5,5.5l-.3.6a21.717,21.717,0,0,1-.7,2.4,4.4,4.4,0,0,1-2.4,2.6,4.348,4.348,0,0,1-.7.4c-.6.3-1.2.7-1.9,1a1.38,1.38,0,0,0-.4.3,4.406,4.406,0,0,1-6.2,0,2.186,2.186,0,0,0-.5-.3c-.3-.1-.6-.3-.9-.4-.8-.4-1.5-.9-2.3-1.4a4.425,4.425,0,0,1-1.9-2.9c-.2-.7-.4-1.3-.6-2,0-.1-.1-.2-.2-.3a4.014,4.014,0,0,1,.7-5.7.713.713,0,0,0,.3-.6,4.754,4.754,0,0,1,2.4-4ZM7.6,1c0,.2-.1.3-.1.5A4.349,4.349,0,0,1,6.8.9c-.1.1-.1.2-.2.4A5.547,5.547,0,0,1,5.8.7v.4C5.4,1,5,.8,4.6.7c.1.2.2.3.3.5C4.5,1.1,4.2,1,3.8.9c.1.2.1.3.2.4-.5,0-.9-.1-1.4-.1a1.38,1.38,0,0,0,.3.4H1.7c.1.2.2.3.3.5,0,.1.1.3.1.4H1.6l-.1.1a4.053,4.053,0,0,0,.9.5c0,.1-.1.1-.1.2a.9.9,0,0,0-.5.1,7.272,7.272,0,0,0,.8.9.9.9,0,0,0-.5.1,7.051,7.051,0,0,1,.9.7.9.9,0,0,0-.5.1c.5.3.8.5,1.2.7-.1.1-.2.1-.4.2.4.2.8.3,1.2.5-.1,0-.2.1-.3.2A5.853,5.853,0,0,0,5.5,7a.52.52,0,0,0-.2.4,3.083,3.083,0,0,0,1-.1A2.507,2.507,0,0,0,8.3,6a.471.471,0,0,0-.1-.6C7.5,4.9,6.8,4.3,6,3.8A17.394,17.394,0,0,0,4.2,2.7h.2A17.187,17.187,0,0,1,8.6,5a.375.375,0,0,0,.6,0,1.147,1.147,0,0,0,.5-1.2,3.468,3.468,0,0,0-1-2.2H8.6c-.1.1-.1.2-.2.3A6.47,6.47,0,0,0,7.6,1Zm4.5.6A3.683,3.683,0,0,0,11,3.5a1.6,1.6,0,0,0,.5,1.6.375.375,0,0,0,.6,0,17.187,17.187,0,0,1,4.2-2.3c.1,0,.1,0,.2-.1a2.092,2.092,0,0,1-.6.4c-1,.7-2.1,1.4-3.1,2.1-.7.5-.6.9,0,1.4a1.234,1.234,0,0,0,.8.4l1.8.3h0c0-.1-.1-.2-.2-.3.4-.1.8-.1,1.3-.2-.1-.1-.2-.2-.2-.3.4-.2.7-.3,1.2-.5-.3,0-.4,0-.5-.1a12.75,12.75,0,0,1,1.2-.7c-.2,0-.3-.1-.5-.1a5.5,5.5,0,0,1,.9-.7c-.2,0-.3-.1-.4-.1l.8-.8a1.268,1.268,0,0,1-.6-.1l.8-.8h-.6a9.293,9.293,0,0,0,.5-1H18c.1-.1.1-.2.2-.4-.5.1-.9.1-1.4.2.1-.2.1-.3.2-.4-.4.1-.7.2-1.1.3.1-.2.2-.3.3-.5-.4.2-.8.3-1.2.5a.9.9,0,0,1,.1-.5l-.9.6c-.2-.3-.3-.4-.3-.5-.2.2-.5.4-.7.6,0-.2-.1-.3-.1-.5a6.034,6.034,0,0,1-.8.8.215.215,0,0,1-.2-.2Zm2.2,15.3a2.423,2.423,0,0,0,2-1.3,3.509,3.509,0,0,0-.8-4.3,2.518,2.518,0,0,0-2.2-.6A2.757,2.757,0,0,0,11,13a3.371,3.371,0,0,0,3.3,3.9ZM9.6,13.6v-.3a2.67,2.67,0,0,0-3.8-2.4,3.361,3.361,0,0,0-1.6,4.6,2.549,2.549,0,0,0,3.4,1.2A3.167,3.167,0,0,0,9.6,13.6Zm.7,2.7H9.8a2.8,2.8,0,0,0-2.4,3.1,2.915,2.915,0,0,0,3.7,2.3,2.863,2.863,0,0,0,2.2-3.2,3.059,3.059,0,0,0-3-2.2Zm3.5,5.3c0,.9.4,1.3,1.3,1.2a3.542,3.542,0,0,0,3.1-4.2.968.968,0,0,0-1.2-.8,4.269,4.269,0,0,0-3.2,3.8Zm-7-.1a3.7,3.7,0,0,0-.7-1.9,4.064,4.064,0,0,0-2.5-1.7.778.778,0,0,0-1.1.7,2.045,2.045,0,0,0,0,1.1,3.721,3.721,0,0,0,3,3.1c1,.1,1.4-.3,1.3-1.3Zm3.4-10.9a4.528,4.528,0,0,0,2.3-.6c.7-.5.7-1.1.1-1.6a3.607,3.607,0,0,0-4.5-.1c-.7.5-.7,1.2.1,1.7a4.145,4.145,0,0,0,2,.6Zm.2,12.1a5.186,5.186,0,0,0-2.4.5c-.7.4-.8.7-.2,1.3a3.621,3.621,0,0,0,5.1,0c.6-.6.5-.9-.2-1.3a9.484,9.484,0,0,0-2.3-.5Zm9.4-7.6a2.8,2.8,0,0,0-1.2-2.3c-.6-.5-.9-.4-1,.4v.3a7.487,7.487,0,0,0,.2,2.1,7.494,7.494,0,0,0,.5,1.6c.2.5.5.5.9.1a3.8,3.8,0,0,0,.6-2.2Zm-16.7-1c0-.4-.1-.8-.1-1.1-.1-.5-.4-.6-.8-.3A3.175,3.175,0,0,0,1.3,17l.6.6c.2-.2.5-.4.6-.7a6.388,6.388,0,0,0,.6-2.8Zm10.4-6c.2.3.3.6.5.7.9.8,1.9,1.6,2.8,2.4l.6.3c.3.1.4.1.4-.3a3.235,3.235,0,0,0-4.3-3.1ZM7.1,8a3.324,3.324,0,0,0-4.3,3.2c0,.3.1.4.4.3.1,0,.1-.1.2-.1a14.29,14.29,0,0,0,3.5-3C7,8.4,7,8.2,7.1,8Z" transform="translate(0.08 0.027)"/>
</svg>
