<svg xmlns="http://www.w3.org/2000/svg" viewBox="0 0 22.801 22.8">
  <defs>
    <style>
      .cls-1 {
        fill: #fff;
      }
    </style>
  </defs>
  <path id="web" class="cls-1" d="M11.345,22.8H11.3q-.213,0-.424-.012A11.4,11.4,0,0,1,11.4,0,11.525,11.525,0,0,1,22.8,11.4,11.394,11.394,0,0,1,11.4,22.8ZM11.4,22q.313,0,.621-.018a5.072,5.072,0,0,0,1.448-2.444c-.665.041-1.357.063-2.069.063s-1.43-.021-2.11-.062a4.9,4.9,0,0,0,1.458,2.442Q11.072,22,11.4,22Zm1.543-.115q.495-.074.975-.194a8.369,8.369,0,0,0,3.349-2.652,24.26,24.26,0,0,1-3.011.44,8,8,0,0,1-1.313,2.406Zm-3.314-.032a8.106,8.106,0,0,1-1.29-2.386,24.155,24.155,0,0,1-2.876-.421,8.331,8.331,0,0,0,3.351,2.636Q9.216,21.782,9.629,21.853ZM16.956,20.4a10.817,10.817,0,0,0,2.33-1.961,10.039,10.039,0,0,1-.96.331,10.483,10.483,0,0,1-1.37,1.63ZM5.348,20.1a10.635,10.635,0,0,1-1.1-1.37q-.4-.124-.742-.262A10.659,10.659,0,0,0,5.348,20.1Zm6.052-.8c.748,0,1.475-.022,2.168-.063a22.063,22.063,0,0,0,.814-4.015c-.935-.079-1.94-.121-2.982-.121s-2.062.046-2.994.13a22.03,22.03,0,0,0,.786,4c.708.046,1.448.069,2.208.069Zm2.963-.121a22.615,22.615,0,0,0,3.147-.467,11.733,11.733,0,0,0,1.4-2.62,15.573,15.573,0,0,0-3.662-.785,20.4,20.4,0,0,1-.884,3.872ZM8.23,19.162a20.376,20.376,0,0,1-.87-3.819,15.179,15.179,0,0,0-3.509.8A11.389,11.389,0,0,0,5.207,18.7a22.4,22.4,0,0,0,3.023.462Zm10.326-.743a4.183,4.183,0,0,0,1.266-.628q.189-.247.363-.5A.582.582,0,0,0,20.2,17.2c0-.284-.223-.55-.628-.793a12.077,12.077,0,0,1-1.015,2.012ZM4,18.348a12.057,12.057,0,0,1-.919-1.813c-.311.212-.479.436-.479.665a.546.546,0,0,0,.015.128q.164.243.341.476A3.694,3.694,0,0,0,4,18.348Zm-1.9-1.87a2.431,2.431,0,0,1,.738-.594,13.447,13.447,0,0,1-.607-2.569,6.638,6.638,0,0,1-1.355-.671A10.548,10.548,0,0,0,2.1,16.478Zm18.592-.012a10.48,10.48,0,0,0,1.236-3.82,7.041,7.041,0,0,1-1.564.747A13.461,13.461,0,0,1,19.8,15.8a2.744,2.744,0,0,1,.893.664ZM3.631,15.513a16.364,16.364,0,0,1,3.645-.853c-.01-.091-.02-.183-.029-.275A24.228,24.228,0,0,1,3.18,13.63a13.109,13.109,0,0,0,.451,1.883ZM19.116,15.5a13.525,13.525,0,0,0,.468-1.863,24.72,24.72,0,0,1-4.234.766q-.012.117-.025.234a17.108,17.108,0,0,1,3.791.863Zm-4.662-.961.005-.057-.355.025Zm-6.118,0,.339-.03-.344-.025ZM11.4,14.2c1.075,0,2.115-.043,3.1-.122.068-.858.1-1.756.1-2.678,0-.779-.024-1.541-.071-2.276C13.54,9.044,12.488,9,11.4,9s-2.145.039-3.131.113Q8.2,10.219,8.2,11.4c0,.926.035,1.828.1,2.689C9.276,14.162,10.318,14.2,11.4,14.2Zm4.1-2.8c0,.893-.038,1.761-.11,2.6a21.576,21.576,0,0,0,4.272-.835A14.256,14.256,0,0,0,19.8,11.4q0-.678-.066-1.336a21.164,21.164,0,0,0-4.281-.852C15.5,9.92,15.512,10.652,15.5,11.4ZM7.21,13.993c-.072-.833-.11-1.7-.11-2.592,0-.749.027-1.481.078-2.189a20.4,20.4,0,0,0-4.112.8Q3,10.693,3,11.4a13.891,13.891,0,0,0,.117,1.805,20.665,20.665,0,0,0,4.093.788ZM20.5,11.4a14.3,14.3,0,0,1-.076,1.474c.874-.381,1.375-.817,1.375-1.274s-.481-.876-1.322-1.25Q20.508,10.869,20.5,11.4ZM1,11.6c0,.454.422.872,1.171,1.234A14.3,14.3,0,0,1,2.1,11.4q0-.514.037-1.017C1.409,10.741,1,11.153,1,11.6Zm20.932-1.4a10.511,10.511,0,0,0-1.26-3.937,2.749,2.749,0,0,1-.856.636A13.143,13.143,0,0,1,20.4,9.448a6.947,6.947,0,0,1,1.537.752ZM.871,10.158a6.636,6.636,0,0,1,1.361-.674,13.244,13.244,0,0,1,.65-2.652,2.574,2.574,0,0,1-.764-.59A10.569,10.569,0,0,0,.871,10.158ZM19.62,9.192A12.956,12.956,0,0,0,19.127,7.2a16.816,16.816,0,0,1-3.766.858c.012.113.022.228.033.342a24.233,24.233,0,0,1,4.225.792ZM3.175,9.172a24.221,24.221,0,0,1,4.073-.757c.013-.127.027-.254.041-.379a16.64,16.64,0,0,1-3.638-.852,13.153,13.153,0,0,0-.476,1.988Zm11.294-.854-.014-.157q-.549.052-1.128.085.581.028,1.141.072Zm-6.139,0q.563-.043,1.149-.071Q8.9,8.213,8.344,8.16c-.006.05-.011.1-.015.155ZM11.4,8c1.063,0,2.082-.044,3.026-.126a23.384,23.384,0,0,0-.727-4c-.735-.046-1.506-.071-2.3-.071s-1.576.027-2.312.076a23.28,23.28,0,0,0-.719,4C9.312,7.957,10.333,8,11.4,8Zm3.931-.219a14.422,14.422,0,0,0,3.7-.843A11.7,11.7,0,0,0,17.8,4.448a21.71,21.71,0,0,0-3.246-.512A20.751,20.751,0,0,1,15.331,7.781ZM7.32,7.771a20.982,20.982,0,0,1,.815-3.816A20.965,20.965,0,0,0,4.907,4.5,11.542,11.542,0,0,0,3.729,6.951a14.1,14.1,0,0,0,3.591.82ZM19.7,6.581a.994.994,0,0,0,.5-.681c0-.419-.487-.8-1.326-1.122a12.01,12.01,0,0,1,.831,1.8ZM2.6,5.9a.846.846,0,0,0,.391.638A12.25,12.25,0,0,1,3.785,4.87C3.03,5.18,2.6,5.535,2.6,5.9Zm.944-1.653c.249-.1.523-.2.819-.286A10.627,10.627,0,0,1,5.6,2.5,10.518,10.518,0,0,0,3.544,4.247Zm15.671-.005A10.676,10.676,0,0,0,17.145,2.5a10.348,10.348,0,0,1,1.207,1.452c.313.093.6.191.864.3ZM5.5,3.668a23.93,23.93,0,0,1,2.887-.433A7.783,7.783,0,0,1,9.68.936q-.447.071-.88.179A8.234,8.234,0,0,0,5.5,3.668Zm11.723-.007A8.39,8.39,0,0,0,13.9,1.1q-.418-.1-.847-.169a7.81,7.81,0,0,1,1.256,2.3,24.362,24.362,0,0,1,2.916.43Zm-3.749-.5A4.765,4.765,0,0,0,12.051.82Q11.728.8,11.4.8t-.656.02A4.726,4.726,0,0,0,9.313,3.163c.67-.042,1.369-.064,2.087-.064s1.407.023,2.076.066Z" transform="translate(0.001)"/>
</svg>
