<svg xmlns="http://www.w3.org/2000/svg" xmlns:xlink="http://www.w3.org/1999/xlink" viewBox="0 0 130 130">
  <defs>
    <style>
      .cls-1, .cls-3 {
        fill: none;
      }

      .cls-2 {
        opacity: 0.12;
        fill: url(#linear-gradient);
      }

      .cls-3 {
        stroke: #7d5ab5;
        stroke-linecap: round;
        stroke-linejoin: round;
        stroke-miterlimit: 10;
        stroke-width: 3px;
      }

      .cls-4 {
        fill: #7d5ab5;
      }
    </style>
    <linearGradient id="linear-gradient" x1="0.5" x2="0.5" y2="1" gradientUnits="objectBoundingBox">
      <stop offset="0" stop-color="#004aff" stop-opacity="0"/>
      <stop offset="1" stop-color="#004aff"/>
    </linearGradient>
  </defs>
  <g id="cfu-dual-vote" transform="translate(-151 -2148)">
    <rect id="Rectangle_4413" data-name="Rectangle 4413" class="cls-1" width="130" height="130" transform="translate(151 2148)"/>
    <path id="Path_3274" data-name="Path 3274" class="cls-2" d="M46.5,0A46.5,46.5,0,1,1,0,46.5,46.5,46.5,0,0,1,46.5,0Z" transform="translate(188 2167)"/>
    <g id="Group_3445" data-name="Group 3445">
      <rect id="Rectangle_1039" data-name="Rectangle 1039" class="cls-1" width="70" height="70" transform="translate(192 2178)"/>
      <g id="Group_3109" data-name="Group 3109" transform="translate(152.648 2172.269)">
        <g id="Group_2964" data-name="Group 2964" transform="translate(0 0)">
          <path id="Path_1424" data-name="Path 1424" class="cls-3" d="M1953.44,2436.214a5.259,5.259,0,0,1,5.224-5.225h15.87v-18.925a2.44,2.44,0,0,0-2.464-2.464h-54.8a2.44,2.44,0,0,0-2.465,2.464v35.88a2.44,2.44,0,0,0,2.465,2.464h54.8a2.44,2.44,0,0,0,2.464-2.464v-6.7h-15.87A5.032,5.032,0,0,1,1953.44,2436.214Z" transform="translate(-1904.45 -2399.053)"/>
          <path id="Path_1427" data-name="Path 1427" class="cls-3" d="M2015.543,2417.234l-20.6-6.506C1991,2398.7,1977.2,2398.9,1977.2,2398.9h-23.559c-9.364,0-10.941,10.547-10.941,10.547h29.768a2.44,2.44,0,0,1,2.464,2.465v18.925h-15.87a5.224,5.224,0,0,0,0,10.449h21.588c4.928,0,6.012-3.647,7-6.407l19.911,6.407Z" transform="translate(-1904.849 -2398.899)"/>
          <path id="Path_1428" data-name="Path 1428" class="cls-3" d="M1909.524,2441.8H1904.3v38.429h82.306" transform="translate(-1904.3 -2399.513)"/>
          <line id="Line_859" data-name="Line 859" class="cls-3" x2="83.39" transform="translate(5.717 51.454)"/>
          <g id="Group_2962" data-name="Group 2962" transform="translate(10.005 59.643)">
            <path id="Path_3386" data-name="Path 3386" class="cls-4" d="M83.581,7.242c-.016-2.39.578-4.374,2.39-5.827,3.515-2.828,9.342-1.047,10.5,3.3a8.035,8.035,0,0,1-.922,6.89c-1.469,2.14-3.671,2.7-6.109,2.5C85.268,13.726,83.487,10.555,83.581,7.242Zm6.593,4.7a3.474,3.474,0,0,0,3.546-2.7,10.816,10.816,0,0,0,.156-3.687,3.706,3.706,0,0,0-7.3-.375,6.674,6.674,0,0,0,.156,4.343A3.481,3.481,0,0,0,90.174,11.945Z" transform="translate(-70.517 -0.048)"/>
            <path id="Path_3387" data-name="Path 3387" class="cls-4" d="M257.539,4.249v3.39h3.218c.906,0,1.828-.016,2.734.016a.844.844,0,0,1,.906.875c.031.562-.172.984-.781,1.047-.594.062-1.187.078-1.781.094-1.406.016-2.812,0-4.265,0v3.859c.25.016.531.031.812.031,1.875,0,3.75,0,5.624.016.562,0,1.047.172,1.156.8a.963.963,0,0,1-.984,1.265c-2.7.031-5.421.016-8.124,0a1.157,1.157,0,0,1-1.219-1.25c-.016-3.64-.016-7.3,0-10.936a1.176,1.176,0,0,1,1.312-1.25c2.578-.031,5.156-.016,7.733,0a.983.983,0,0,1,1.109,1.031,1,1,0,0,1-1.141,1c-1.8.016-3.593,0-5.39,0C258.149,4.249,257.868,4.249,257.539,4.249Z" transform="translate(-215.01 -1.851)"/>
            <path id="Path_3388" data-name="Path 3388" class="cls-4" d="M6.01,11.254Q7.58,6.591,9.166,1.927c.062-.172.109-.344.187-.516a1.2,1.2,0,0,1,1.5-.766,1.2,1.2,0,0,1,.875,1.578c-.5,1.484-1.047,2.968-1.594,4.453-.781,2.14-1.562,4.281-2.375,6.405-.5,1.312-1.656,1.89-2.687,1.281a3.191,3.191,0,0,1-1.156-1.469c-.812-2-1.515-4.031-2.25-6.046C1.136,5.4.589,3.927.073,2.458A1.323,1.323,0,0,1,1.2.584C2,.537,2.37,1.037,2.6,1.693c.687,2.015,1.375,4.015,2.062,6.03.391,1.172.8,2.343,1.187,3.515A.482.482,0,0,0,6.01,11.254Z" transform="translate(0.024 -0.497)"/>
            <path id="Path_3389" data-name="Path 3389" class="cls-4" d="M175.074,4.4H172.09c-.937,0-1.375-.359-1.39-1.094,0-.734.422-1.109,1.375-1.109h8.671c.937,0,1.406.375,1.406,1.094,0,.7-.484,1.109-1.39,1.109-.953.016-1.922,0-2.984,0v9.561a5.272,5.272,0,0,1-.016.7,1.392,1.392,0,0,1-1.422,1.281,1.285,1.285,0,0,1-1.234-1.437c-.016-3.015-.016-6.046-.016-9.061C175.074,5.153,175.074,4.84,175.074,4.4Z" transform="translate(-144.028 -1.864)"/>
          </g>
          <g id="Group_2963" data-name="Group 2963" transform="translate(19.841 21.13)">
            <path id="Path_3390" data-name="Path 3390" class="cls-4" d="M0,49.528V42.248a1.282,1.282,0,0,1,1.4-1.389h9.162c.224,0,.443-.006.667,0a1.191,1.191,0,0,1,1.122,1,1.15,1.15,0,0,1-.771,1.365,2.35,2.35,0,0,1-.71.115q-3.95.018-7.888.012c-.449,0-.485.03-.485.485V55.244c0,.479.012.485.5.485H14.4c.467,0,.467,0,.473-.467,0-2.287.006-4.569,0-6.856a1.335,1.335,0,0,1,.4-1.007,1.18,1.18,0,0,1,1.353-.218,1.167,1.167,0,0,1,.734,1.068c.03.473.012.953.012,1.426v7.1a1.492,1.492,0,0,1-.334,1.013,1.362,1.362,0,0,1-1.086.443q-4.778.009-9.556.006c-1.62,0-3.234-.012-4.854,0a1.513,1.513,0,0,1-1.462-.777,1.026,1.026,0,0,1-.079-.5Q0,53.239,0,49.528Z" transform="translate(0 -38.378)"/>
            <path id="Path_3391" data-name="Path 3391" class="cls-4" d="M85.758,11.293c.425-.516.819-1,1.213-1.48q1.365-1.693,2.718-3.4c1.05-1.317,2.093-2.633,3.143-3.95C93.36,1.8,93.888,1.143,94.44.5a1.219,1.219,0,0,1,2.026.152A1.457,1.457,0,0,1,96.242,2.2c-1.42,1.766-2.846,3.531-4.259,5.3-1.547,1.929-3.082,3.859-4.629,5.782a13.147,13.147,0,0,1-1.207,1.383,1.2,1.2,0,0,1-1.656-.291c-.34-.595-.643-1.207-.953-1.814q-.655-1.292-1.292-2.591c-.158-.328-.315-.655-.443-1a1.259,1.259,0,0,1,.607-1.359,1.307,1.307,0,0,1,1.832.771c.437.928.922,1.832,1.389,2.742C85.655,11.178,85.691,11.208,85.758,11.293Z" transform="translate(-76.796 -0.028)"/>
          </g>
        </g>
      </g>
    </g>
  </g>
</svg>
