<svg xmlns="http://www.w3.org/2000/svg" xmlns:xlink="http://www.w3.org/1999/xlink" viewBox="0 0 130 130">
  <defs>
    <style>
      .cls-1, .cls-3, .cls-5 {
        fill: none;
      }

      .cls-2 {
        opacity: 0.12;
        fill: url(#linear-gradient);
      }

      .cls-3, .cls-5 {
        stroke: #fafafa;
        stroke-linecap: round;
        stroke-width: 3px;
      }

      .cls-3 {
        stroke-linejoin: round;
        stroke-miterlimit: 10;
      }

      .cls-4 {
        fill: #fafafa;
      }
    </style>
    <linearGradient id="linear-gradient" x1="0.5" x2="0.5" y2="1" gradientUnits="objectBoundingBox">
      <stop offset="0" stop-color="#fff" stop-opacity="0"/>
      <stop offset="1" stop-color="#fff"/>
    </linearGradient>
  </defs>
  <g id="cfu-vote" transform="translate(15685 1783.022)">
    <g id="Group_3553" data-name="Group 3553" transform="translate(1094 -1231.022)">
      <rect id="Rectangle_4500" data-name="Rectangle 4500" class="cls-1" width="130" height="130" transform="translate(-16779 -552)"/>
      <g id="Group_3527" data-name="Group 3527" transform="translate(-16742 -533)">
        <ellipse id="Ellipse_106" data-name="Ellipse 106" class="cls-2" cx="46.5" cy="46.5" rx="46.5" ry="46.5" transform="translate(0 0)"/>
      </g>
      <g id="Group_3525" data-name="Group 3525" transform="translate(-16930 -2700.948)">
        <rect id="Rectangle_1039" data-name="Rectangle 1039" class="cls-1" width="72.422" height="72.422" transform="translate(193.361 2178.198)"/>
        <g id="Group_3109" data-name="Group 3109" transform="translate(152.648 2172.269)">
          <g id="Group_2964" data-name="Group 2964" transform="translate(0 0)">
            <path id="Path_1424" data-name="Path 1424" class="cls-3" d="M1954.777,2437.135a5.441,5.441,0,0,1,5.4-5.406H1976.6v-19.58a2.524,2.524,0,0,0-2.55-2.549h-56.7a2.525,2.525,0,0,0-2.55,2.549v37.121a2.525,2.525,0,0,0,2.55,2.549h56.7a2.524,2.524,0,0,0,2.55-2.549v-6.935h-16.419A5.206,5.206,0,0,1,1954.777,2437.135Z" transform="translate(-1904.092 -2398.688)"/>
            <path id="Path_1427" data-name="Path 1427" class="cls-3" d="M2018.063,2417.869l-21.314-6.731c-4.079-12.441-18.356-12.238-18.356-12.238H1954.02c-9.688,0-11.32,10.912-11.32,10.912h30.8a2.524,2.524,0,0,1,2.55,2.55v19.58h-16.419a5.405,5.405,0,0,0,0,10.811h22.334c5.1,0,6.22-3.774,7.24-6.629l20.6,6.629Z" transform="translate(-1903.54 -2398.9)"/>
            <path id="Path_1428" data-name="Path 1428" class="cls-3" d="M1909.7,2441.8h-5.4v39.758h85.153" transform="translate(-1904.3 -2398.05)"/>
            <line id="Line_859" data-name="Line 859" class="cls-3" x2="86.276" transform="translate(5.915 53.234)"/>
            <g id="Group_2963" data-name="Group 2963" transform="translate(20.527 21.861)">
              <path id="Path_3390" data-name="Path 3390" class="cls-4" d="M0,49.828V42.3a1.327,1.327,0,0,1,1.45-1.437h9.479c.232,0,.458-.006.69,0a1.232,1.232,0,0,1,1.161,1.036,1.19,1.19,0,0,1-.8,1.412,2.431,2.431,0,0,1-.734.119q-4.086.019-8.16.013c-.465,0-.5.031-.5.5v11.8c0,.5.013.5.515.5H14.9c.483,0,.483,0,.49-.483,0-2.367.006-4.727,0-7.093a1.381,1.381,0,0,1,.414-1.042,1.221,1.221,0,0,1,1.4-.226,1.207,1.207,0,0,1,.76,1.1c.031.49.013.986.013,1.475v7.344a1.544,1.544,0,0,1-.345,1.048,1.41,1.41,0,0,1-1.124.458q-4.943.009-9.887.006c-1.676,0-3.346-.013-5.022,0a1.565,1.565,0,0,1-1.513-.8,1.062,1.062,0,0,1-.082-.515Q0,53.667,0,49.828Z" transform="translate(0 -38.293)"/>
              <path id="Path_3391" data-name="Path 3391" class="cls-4" d="M85.9,11.683c.439-.534.847-1.029,1.255-1.532Q88.564,8.4,89.964,6.636c1.086-1.362,2.166-2.724,3.252-4.086.546-.684,1.092-1.368,1.663-2.034a1.262,1.262,0,0,1,2.1.157,1.508,1.508,0,0,1-.232,1.607C95.274,4.106,93.8,5.933,92.337,7.766c-1.6,2-3.189,3.992-4.79,5.982A13.6,13.6,0,0,1,86.3,15.179a1.24,1.24,0,0,1-1.714-.3c-.352-.615-.665-1.249-.986-1.877q-.678-1.337-1.337-2.68c-.163-.339-.326-.678-.458-1.029a1.3,1.3,0,0,1,.628-1.406,1.353,1.353,0,0,1,1.9.8c.452.96.954,1.9,1.437,2.837C85.789,11.564,85.827,11.6,85.9,11.683Z" transform="translate(-76.625 -0.028)"/>
            </g>
          </g>
        </g>
      </g>
    </g>
    <line id="Line_7902" data-name="Line 7902" class="cls-5" y2="12.439" transform="translate(-15673.5 -1696.229)"/>
    <line id="Line_7903" data-name="Line 7903" class="cls-5" y2="4.442" transform="translate(-15663.5 -1688.233)"/>
    <line id="Line_7904" data-name="Line 7904" class="cls-5" y2="3.554" transform="translate(-15653.5 -1687.345)"/>
    <line id="Line_7905" data-name="Line 7905" class="cls-5" y2="4.442" transform="translate(-15643.5 -1688.233)"/>
    <line id="Line_7906" data-name="Line 7906" class="cls-5" y2="6.219" transform="translate(-15633.5 -1690.01)"/>
  </g>
</svg>
