<svg xmlns="http://www.w3.org/2000/svg" xmlns:xlink="http://www.w3.org/1999/xlink" viewBox="0 0 130 130">
  <defs>
    <style>
      .cls-1 {
        fill: none;
      }

      .cls-2 {
        opacity: 0.12;
        fill: url(#linear-gradient);
      }

      .cls-3 {
        fill: #fafafa;
      }
    </style>
    <linearGradient id="linear-gradient" x1="0.5" x2="0.5" y2="1" gradientUnits="objectBoundingBox">
      <stop offset="0" stop-color="#fff" stop-opacity="0"/>
      <stop offset="1" stop-color="#fff"/>
    </linearGradient>
  </defs>
  <g id="cfu-submit" transform="translate(16945 552)">
    <rect id="Rectangle_281" data-name="Rectangle 281" class="cls-1" width="130" height="130" transform="translate(-16945 -552)"/>
    <g id="Group_525" data-name="Group 525" transform="translate(-16908 -533)">
      <ellipse id="Ellipse_106" data-name="Ellipse 106" class="cls-2" cx="46.5" cy="46.5" rx="46.5" ry="46.5" transform="translate(0 0)"/>
    </g>
    <g id="Group_3524" data-name="Group 3524" transform="translate(-16945.088 -537.319)">
      <path id="Path_15846" data-name="Path 15846" class="cls-3" d="M80.854,78.016c0,5.674-.041,3.125,0,8.84.041,4.851.123,9.662.164,14.513a6.9,6.9,0,0,1-.164,1.85c-.7,2.508-2.96,3.782-5.345,1.85-1.192-.946-2.261-2.015-3.371-3-2.426-2.179-4.851-4.4-7.318-6.578a1.983,1.983,0,0,0-1.233-.452c-2.8-.041-12.992,0-15.788,0-3.207,0-5.1-1.891-5.1-5.1V73.288a9.943,9.943,0,0,1,.164-1.932,4.528,4.528,0,0,1,4.523-3.495c3.042-.041,13.485-.041,16.528,0a2.006,2.006,0,0,0,1.48-.534c3.125-2.878,6.29-5.756,9.456-8.593A6.334,6.334,0,0,1,76.866,57.5a2.751,2.751,0,0,1,3.741,1.85,6.372,6.372,0,0,1,.288,1.973C80.9,66.833,80.854,72.424,80.854,78.016ZM77.647,60.46a14.058,14.058,0,0,0-1.151.9l-9.744,8.881a2.665,2.665,0,0,1-1.973.781c-3.166-.041-13.732-.041-16.9-.041-1.521,0-2.1.576-2.1,2.138V90.062c0,1.192.534,1.809,1.6,1.809H63.545A1.686,1.686,0,0,0,64,91.83a1.786,1.786,0,0,1,1.973.493c3.618,3.248,7.236,6.537,10.854,9.785.247.206.534.411.822.617C77.976,101.9,78.017,61.2,77.647,60.46Z" transform="translate(-25.092 -33.736)"/>
      <g id="Group_3523" data-name="Group 3523" transform="translate(63.596 22.21)">
        <path id="Path_15847" data-name="Path 15847" class="cls-3" d="M181.817,81.311c-.247,8.84-4.07,16.857-11.718,23.024-.206.164-.452.329-.658.493a1.408,1.408,0,0,1-2.056.082,1.691,1.691,0,0,1-.082-2.22,7.153,7.153,0,0,1,.576-.493c7.647-6.126,11.389-14.1,10.607-23.846-.7-9.127-5.222-16.2-13.033-21.05-.74-.452-1.4-.987-1.275-1.973a1.6,1.6,0,0,1,2.59-.987,29.866,29.866,0,0,1,9.251,8.47C179.843,68.072,181.734,73.952,181.817,81.311Z" transform="translate(-160.213 -54.019)"/>
        <path id="Path_15848" data-name="Path 15848" class="cls-3" d="M166.085,95.805a18.15,18.15,0,0,1-1.151,5.756,1.655,1.655,0,1,1-3.084-1.151,13.619,13.619,0,0,0-6.167-16.651c-1.069-.617-1.4-1.439-.9-2.3a1.594,1.594,0,0,1,2.3-.617,16.171,16.171,0,0,1,8.428,10.772C165.8,93.01,165.88,94.449,166.085,95.805Z" transform="translate(-154.554 -69.665)"/>
        <path id="Path_15849" data-name="Path 15849" class="cls-3" d="M164.387,147.243a2.378,2.378,0,0,1-2.344,2.385,2.317,2.317,0,0,1-2.344-2.344,2.344,2.344,0,1,1,4.687-.041Z" transform="translate(-157.584 -107.535)"/>
      </g>
      <path id="Path_15850" data-name="Path 15850" class="cls-3" d="M1.984,100.771a1.591,1.591,0,0,1-1.275-.534c-.617-.617-.9-1.357-.247-2.755C2.971,91.972,5.6,86.093,8.891,78.364a4.212,4.212,0,0,0-.164-3.454A47.226,47.226,0,0,1,2.642,59.163a48.386,48.386,0,0,1-.493-15.87,50.072,50.072,0,0,1,7.4-20.475A47.918,47.918,0,0,1,35.163,2.672,49.4,49.4,0,0,1,50.992,0a47.687,47.687,0,0,1,5.92.37,48.865,48.865,0,0,1,32.48,17.72A45.237,45.237,0,0,1,99.507,39.552c.411,2.385.7,4.851.9,6.619.082.617.123,1.192.206,1.645-.206,18.46-7.236,32.4-21.462,42.594a44.866,44.866,0,0,1-18.5,7.688,56.923,56.923,0,0,1-9.744.9,48.446,48.446,0,0,1-24.216-6.455,5.431,5.431,0,0,0-2.8-.822,5.727,5.727,0,0,0-2.549.658c-6.044,2.837-12.334,5.633-17.885,8.058A4.628,4.628,0,0,1,1.984,100.771ZM24.309,86.957a4.344,4.344,0,0,1,2.426.9A39.331,39.331,0,0,0,40.179,93.74,51.73,51.73,0,0,0,51.732,95.1a42.11,42.11,0,0,0,18.3-4.111c14.842-7.113,23.641-18.83,26.108-34.824a43.272,43.272,0,0,0-6.29-30.507,45.043,45.043,0,0,0-29.767-20.8A43.209,43.209,0,0,0,34.752,7.113a45.85,45.85,0,0,0-22,18.214A43.89,43.89,0,0,0,5.808,47.117a55.714,55.714,0,0,0,.987,12.046,42.443,42.443,0,0,0,6.743,15.993,1.881,1.881,0,0,1,.206,2.179c-.617,1.275-1.192,2.59-1.727,3.824-.247.617-.534,1.275-.822,1.891-.822,1.85-1.645,3.7-2.508,5.715L6.63,93.494l2.138-.411c.329-.082.617-.123.863-.164a3.862,3.862,0,0,0,1.275-.329c.863-.37,1.768-.781,2.631-1.151,2.919-1.275,5.962-2.59,8.881-3.988A4.463,4.463,0,0,1,24.309,86.957Z" transform="translate(0)"/>
    </g>
  </g>
</svg>
