<svg xmlns="http://www.w3.org/2000/svg" xmlns:xlink="http://www.w3.org/1999/xlink" viewBox="0 0 130 130">
  <defs>
    <style>
      .cls-1, .cls-3, .cls-4, .cls-5, .cls-6 {
        fill: none;
      }

      .cls-2 {
        opacity: 0.12;
        fill: url(#linear-gradient);
      }

      .cls-3, .cls-4, .cls-5, .cls-6 {
        stroke: #fff;
        stroke-linecap: round;
      }

      .cls-3, .cls-5 {
        stroke-width: 2px;
      }

      .cls-5, .cls-6 {
        stroke-linejoin: round;
      }
    </style>
    <linearGradient id="linear-gradient" x1="0.5" x2="0.5" y2="1" gradientUnits="objectBoundingBox">
      <stop offset="0" stop-color="#fff" stop-opacity="0"/>
      <stop offset="1" stop-color="#fff"/>
    </linearGradient>
  </defs>
  <g id="wal-linux" transform="translate(-1666 -3057)">
    <rect id="Rectangle_4561" data-name="Rectangle 4561" class="cls-1" width="130" height="130" transform="translate(1666 3057)"/>
    <circle id="Ellipse_2056" data-name="Ellipse 2056" class="cls-2" cx="46.5" cy="46.5" r="46.5" transform="translate(1703 3075)"/>
    <g id="Group_3599" data-name="Group 3599" transform="translate(4107.552 -201.639)">
      <path id="Path_15929" data-name="Path 15929" class="cls-3" d="M-2424.091,3350.655s-1.324,5.074-3.089,5.074-8.384-1.838-8.972,1.4,3.015,6.546,1.544,10.517-4.486,5.736-1.986,7.281,15.15,2.795,19.121,4.927,10.443,4.486,13.605,1.912,5.663-7.06,3.383-12.061-10.223-15.371-13.532-18.533-5.221-5-7.869-5-2.353-1.986-2.206-5.442,4.486-8.751,6.1-11.914,3.824-9.854,5.369-12.208,7.207-9.266,7.942-11.252.809-8.9.735-15-.882-16.032,4.928-22.357,23.9-5.442,27.431,4.56,2.427,19.121,3.53,22.578,5.663,12.355,8.825,16.032,6.4,7.134,9.266,14.341,6.178,11.62,3.457,19.269-4.927,11.472-10.811,10.59a7.492,7.492,0,0,1-6.692-8.752c.662-2.647,5-2.206,6.177-5.589s1.692-9.781-.588-14.561-3.309-6.987-6.619-10.664" transform="translate(0)"/>
      <path id="Path_15930" data-name="Path 15930" class="cls-3" d="M-2260.23,3474.336s-2.942-.809-3.824.809.295,7.869,0,15.444-2.28,16.106,3.163,18.091,8.09-1.839,14.046-6.324,15.076-4.56,15.15-8.9-5.59-3.236-7.943-6.987a9.3,9.3,0,0,1-1.1-7.428" transform="translate(-103.997 -126.402)"/>
      <path id="Path_15932" data-name="Path 15932" class="cls-3" d="M-2336.365,3517.513c6.693,4.876,17.209,4.207,25.718-3.25" transform="translate(-60.861 -150.539)"/>
      <path id="Path_15933" data-name="Path 15933" class="cls-3" d="M-2331.566,3548.74c2.39-1.052,5.545-1.721,12.62-1.625s9.178,1.625,9.178,1.625" transform="translate(-63.747 -170.293)"/>
      <path id="Path_15934" data-name="Path 15934" class="cls-4" d="M-2336.052,3356.225c5.736,3.236,9.928.809,13.679-1.324s7.208-4.265,7.208-4.265" transform="translate(-61.05 -52.121)"/>
      <path id="Path_15935" data-name="Path 15935" class="cls-5" d="M-2289.676,3356.3a33.125,33.125,0,0,1,7.258,9.51c2.574,5.442,1.383,8.369,1.383,8.369s3.691,1.559,5.53,7.957.809,14.415.809,14.415" transform="translate(-88.943 -55.528)"/>
      <path id="Path_15936" data-name="Path 15936" class="cls-5" d="M-2342.169,3347.056a65.228,65.228,0,0,0-7.965,2.485c-1.912.956-3.346,3.059-5.927,2.39s-7.84-3.92-7.84-3.92a28.754,28.754,0,0,1,0,7.361c-.574,2.964-10.995,20.842-12.142,26.292a16.956,16.956,0,0,0,.669,9.561" transform="translate(-36.768 -49.969)"/>
      <path id="Path_15937" data-name="Path 15937" class="cls-4" d="M-2345.464,3307.735s1.075-3.791,3.79-3.677,3.677,6.279,3.677,6.279" transform="translate(-55.389 -24.105)"/>
      <path id="Path_15938" data-name="Path 15938" class="cls-4" d="M-2313.1,3308.649s.114-6.676,4.866-7.354,7.637,6.223,7.184,10.918" transform="translate(-74.855 -22.416)"/>
      <path id="Path_15939" data-name="Path 15939" class="cls-6" d="M-2345.569,3325.533a19.04,19.04,0,0,0,1.762-3.75,5.3,5.3,0,0,1-1.762-4.631c.519-2.7,2.634-2.952,4.139-1.292a4.032,4.032,0,0,1,.9,3.655h8.55s.588-4.739,3.753-4.427,4.059,3.947,3.437,5.866-1.171,2.919-3.869,1.933a41.732,41.732,0,0,0-8.962-1.471c-1.68.323-4.523,2.391-5.557,3.166" transform="translate(-54.335 -30.171)"/>
    </g>
  </g>
</svg>
