<svg xmlns="http://www.w3.org/2000/svg" xmlns:xlink="http://www.w3.org/1999/xlink" viewBox="0 0 130 130">
  <defs>
    <style>
      .cls-1 {
        fill: none;
      }

      .cls-2 {
        opacity: 0.12;
        fill: url(#linear-gradient);
      }

      .cls-3 {
        fill: #fff;
        stroke: #fff;
      }
    </style>
    <linearGradient id="linear-gradient" x1="0.5" x2="0.5" y2="1" gradientUnits="objectBoundingBox">
      <stop offset="0" stop-color="#fff" stop-opacity="0"/>
      <stop offset="1" stop-color="#fff"/>
    </linearGradient>
  </defs>
  <g id="wal-mac" transform="translate(-1726 -2880)">
    <rect id="Rectangle_4561" data-name="Rectangle 4561" class="cls-1" width="130" height="130" transform="translate(1726 2880)"/>
    <circle id="Ellipse_2056" data-name="Ellipse 2056" class="cls-2" cx="46.5" cy="46.5" r="46.5" transform="translate(1763 2899)"/>
    <g id="Group_3598" data-name="Group 3598" transform="translate(1726.96 2885.806)">
      <path id="Path_15927" data-name="Path 15927" class="cls-3" d="M95.04,112.73c-18.974,10.931-16.68,36.957,2.747,44.858-.057.283-.057.595-.142.906a71.111,71.111,0,0,1-14.754,25.544c-3.766,4.333-8.439,7.051-14.414,6.343a27.014,27.014,0,0,1-6.768-1.869c-3.936-1.643-7.873-3.058-12.177-2.492a34.977,34.977,0,0,0-7.221,1.784c-3.115,1.076-6.089,2.52-9.459,2.8a13.371,13.371,0,0,1-8.949-2.435c-4.814-3.37-8.184-8.043-11.384-12.829A73.931,73.931,0,0,1,.51,143.286,48.536,48.536,0,0,1,3.2,118.96c4.5-11.356,16.312-19.6,28.093-18.974,3.087.17,6.145,1.3,9.175,2.124a46.342,46.342,0,0,1,5.437,2.011,9.758,9.758,0,0,0,7.42-.057,98.474,98.474,0,0,1,10.421-3.6A28.7,28.7,0,0,1,95.04,112.73Zm-3.6-.538a21.087,21.087,0,0,0-7.476-6.655,25.216,25.216,0,0,0-17.869-3.03c-4.163.878-8.156,2.577-12.206,4.021a10.89,10.89,0,0,1-7.448.368c-1.529-.51-3-1.133-4.531-1.614-2.917-.935-5.805-2.237-8.779-2.605-9.4-1.161-16.992,2.549-22.967,9.6-5.89,6.938-7.759,15.321-7.561,24.156a68.289,68.289,0,0,0,11.752,36.985c2.832,4.389,5.862,8.666,10.025,11.979,2.634,2.067,5.551,3.37,8.921,2.577a59.6,59.6,0,0,0,7.9-2.52c4.3-1.671,8.722-2.69,13.282-1.7a63.824,63.824,0,0,1,8.977,2.917c6.542,2.549,11.781,1.643,16.652-3.427A68.059,68.059,0,0,0,94.53,159.938c.283-.736.142-1.048-.51-1.444-1.614-.991-3.2-2.011-4.7-3.143-10.365-7.958-13-24.043-5.777-34.946A30.729,30.729,0,0,1,91.443,112.192Z" transform="translate(0 -71.355)"/>
      <path id="Path_15928" data-name="Path 15928" class="cls-3" d="M192.793,0c2.577,14.613-10.96,31.208-25.374,29.2C164.9,16.907,176.339.481,192.793,0Zm-2.237,2.719c-10.62.4-23.278,15.122-20.815,24.128C180.814,26.96,191.349,14.443,190.556,2.719Z" transform="translate(-119.729)"/>
    </g>
  </g>
</svg>
