<svg xmlns="http://www.w3.org/2000/svg" xmlns:xlink="http://www.w3.org/1999/xlink" viewBox="0 0 130 130">
  <defs>
    <style>
      .cls-1 {
        fill: none;
      }

      .cls-2 {
        opacity: 0.12;
        fill: url(#linear-gradient);
      }

      .cls-3 {
        fill: #fff;
      }
    </style>
    <linearGradient id="linear-gradient" x1="0.5" x2="0.5" y2="1" gradientUnits="objectBoundingBox">
      <stop offset="0" stop-color="#fff" stop-opacity="0"/>
      <stop offset="1" stop-color="#fff"/>
    </linearGradient>
  </defs>
  <g id="wal-windows" transform="translate(-1696 -2918)">
    <rect id="Rectangle_4561" data-name="Rectangle 4561" class="cls-1" width="130" height="130" transform="translate(1696 2918)"/>
    <circle id="Ellipse_2056" data-name="Ellipse 2056" class="cls-2" cx="46.5" cy="46.5" r="46.5" transform="translate(1733 2937)"/>
    <g id="Group_3596" data-name="Group 3596" transform="translate(1695.9 2928.555)">
      <path id="Path_15923" data-name="Path 15923" class="cls-3" d="M97.552,50.966H87.716c-3.081,0-4.216-1.135-4.216-4.108V13.944c0-3.081.649-3.891,3.621-4.486,11.026-2.216,22-4.378,33.023-6.54L132.3.486,132.9.378c.432-.108.865-.162,1.3-.27A3.861,3.861,0,0,1,135.277,0c2,0,3.3,1.405,3.3,3.621V46.859c0,2.81-1.243,4.054-4,4.054h-24.1ZM133.926,3.837A6.5,6.5,0,0,0,132.683,4L121.6,6.215C110.632,8.377,99.714,10.593,88.743,12.7A1.953,1.953,0,0,0,86.9,14.917c.108,7.4.108,14.971.108,22.267V45.4a5.873,5.873,0,0,0,.054.973,1.5,1.5,0,0,0,.054.486l.054.486h47.94V5.891C135.061,4.756,135.061,3.837,133.926,3.837Z" transform="translate(-38.325)"/>
      <path id="Path_15924" data-name="Path 15924" class="cls-3" d="M135.169,158.62a7.517,7.517,0,0,1-1.459-.162c-9.242-1.838-18.43-3.675-27.672-5.513-6.54-1.3-13.079-2.594-19.619-3.945a3.135,3.135,0,0,1-2.919-3.459V111.167c0-2.324,1.243-3.567,3.729-3.567h47.129c2.973,0,4.108,1.189,4.108,4.216v42.7c.054,2.756-1.081,4.108-3.3,4.108ZM87.067,145.6l2.973.595,13.187,2.648c9.837,1.946,19.619,3.945,29.456,5.891a6.5,6.5,0,0,0,1.243.162c1.135,0,1.135-.919,1.135-2.216V111.383H87.067Z" transform="translate(-38.325 -49.445)"/>
      <path id="Path_15925" data-name="Path 15925" class="cls-3" d="M20.043,61.49H3.667A3.294,3.294,0,0,1,.1,57.922V33.061c0-2.324.865-3.459,3.135-3.891,10.161-2.054,20.646-4.162,31.077-6.215a2.424,2.424,0,0,1,.595-.054c1.784,0,3.135,1.621,3.135,3.729V57.22c0,3.135-1.135,4.27-4.27,4.27ZM33.609,26.683h-.27L25.88,28.2C19.125,29.548,12.207,30.953,5.343,32.3c-1.351.27-1.838.865-1.838,2.162.054,5.134.054,10.323,0,15.4v6a5.874,5.874,0,0,0,.054.973v.973H34.42V26.683h-.811Z" transform="translate(0 -10.523)"/>
      <path id="Path_15926" data-name="Path 15926" class="cls-3" d="M34.636,146.281a.685.685,0,0,1-.324-.054c-8.972-1.73-18.106-3.513-26.969-5.3l-4.27-.865A3.364,3.364,0,0,1,.1,136.445V111.313A3.264,3.264,0,0,1,3.613,107.8H34.258c2.594,0,3.837,1.243,3.837,3.945.054,3.621,0,7.242,0,10.809v5.08h0v14.7c0,1.73-.378,2.648-1.243,3.243a5.6,5.6,0,0,1-2.216.7ZM3.559,115.691c0,6.432,0,13.133.054,19.673a1.925,1.925,0,0,0,1.405,1.513c6.864,1.405,13.836,2.81,20.592,4.162l1.621.324c1.459.324,2.973.594,4.486.865l2.756.54V111.421H3.559Z" transform="translate(0 -49.537)"/>
    </g>
  </g>
</svg>
