<?xml version="1.0" encoding="UTF-8"?>
<svg width="100px" height="119px" viewBox="0 0 100 119" version="1.1" xmlns="http://www.w3.org/2000/svg" xmlns:xlink="http://www.w3.org/1999/xlink">
    <!-- Generator: Sketch 63.1 (92452) - https://sketch.com -->
    <title>apple-logo</title>
    <desc>Created with Sketch.</desc>
    <g id="Page-1" stroke="none" stroke-width="1" fill="none" fill-rule="evenodd">
        <g id="apple-logo" fill="#000000" fill-rule="nonzero">
            <path d="M83.2740214,113.76038 C76.8446026,120 69.7508897,119.027284 62.9893238,116.085409 C55.8007117,113.084223 49.2289442,112.894425 41.6370107,116.085409 C32.1826809,120.166074 27.1648873,118.979834 21.4709371,113.76038 C-10.6761566,80.6642942 -5.9311981,30.2491103 30.6049822,28.3511269 C39.4661922,28.8256228 45.6702254,33.2502966 50.8896797,33.6180308 C58.6476868,32.0403321 66.0735469,27.5207592 74.3772242,28.113879 C84.3534994,28.9205219 91.8149466,32.8588375 96.797153,39.940688 C76.2752076,52.2775801 81.13879,79.3238434 99.9881376,86.915777 C96.2158956,96.8208778 91.376038,106.607355 83.262159,113.843416 L83.2740214,113.76038 Z M50.1779359,27.995255 C49.2170819,13.2858837 61.13879,1.18623962 74.85172,0 C76.737841,16.9632266 59.430605,29.6559905 50.1779359,27.995255 Z" id="Shape"></path>
        </g>
    </g>
</svg>