<?xml version="1.0" encoding="UTF-8"?>
<svg width="137px" height="173px" viewBox="0 0 137 173" version="1.1" xmlns="http://www.w3.org/2000/svg" xmlns:xlink="http://www.w3.org/1999/xlink">
    <!-- Generator: Sketch 63.1 (92452) - https://sketch.com -->
    <title>linux-tux-2-logo-svg-vector</title>
    <desc>Created with Sketch.</desc>
    <g id="Page-1" stroke="none" stroke-width="1" fill="none" fill-rule="evenodd">
        <g id="linux-tux-2-logo-svg-vector" fill-rule="nonzero">
            <path d="M76.396,0.712 C77.38,0.67 78.386,0.956 79.365,1.047 C81.002,1.398 82.666,1.866 84.215,2.53 C85.194,2.935 86.055,3.615 87.049,3.945 C88.385,4.62 89.293,5.828 90.553,6.577 C91.42,7.481 92.143,8.087 92.979,9.002 C93.409,9.534 93.788,10.013 94.192,10.555 C94.356,11.236 95.001,11.73 95.202,12.437 C95.548,13.224 95.868,14.091 96.011,15 C96.245,16.026 96.474,17.063 96.484,18.1 C96.336,26.136 96.234,34.181 96.484,42.232 C96.894,44.604 96.675,47.077 97.363,49.374 C97.709,51.091 97.963,52.852 98.707,54.229 C99.99,56.532 101,58.988 102.42,61.307 C103.201,62.153 103.807,63.099 104.574,64.003 C106.109,66.205 107.392,68.778 109.025,70.81 C110.072,72.905 111.214,74.953 112.39,77.011 C113.267,79.654 114.773,82.078 115.427,84.828 C116.292,87.924 117.251,90.965 117.718,94.4 C118.724,99.839 119.431,105.232 120.073,110.711 C120.036,113.672 119.665,116.645 119.807,119.607 C119.536,120.601 119.723,121.568 119.467,122.574 C119.153,123.967 118.35,125.244 118.053,126.621 C118.174,127.392 117.776,128.131 117.92,128.912 C118.553,130.205 118.6,131.689 118.93,133.088 C119.457,133.406 119.733,134.039 120.344,134.44 C121.387,134.247 122.391,134.743 123.446,134.573 C124.7,134.237 126.008,134.264 127.221,134.036 C128.709,133.87 130.172,134.317 131.666,134.169 C132.639,134.784 133.766,135.253 134.633,135.855 C135.41,136.318 135.735,137.312 136.522,137.876 C136.251,139.198 136.553,140.587 136.186,141.853 C134.825,143.736 133.645,145.789 132.342,147.65 C130.145,149.841 128.391,152.441 126.274,154.728 C123.7,157.38 121.424,160.253 118.797,162.884 C115.713,164.65 113.442,167.431 110.506,169.421 C109.188,169.999 108.129,171.052 106.731,171.308 C105.571,171.669 104.295,171.894 103.088,172.048 L99.924,172.048 C98.94,171.712 97.84,171.669 96.887,171.308 C96.276,170.953 95.606,170.798 95,170.501 C93.877,169.856 93.074,168.862 92.037,168.138 C91.793,167.431 91.154,166.921 90.685,166.32 C90.138,165.113 89.574,163.906 89.271,162.615 C89.265,161.986 89.042,161.439 88.935,160.859 C86.341,161.072 83.72,161.125 81.115,161.402 C78.418,161.263 75.717,161.236 73.025,161.263 C69.521,160.757 66.011,160.593 62.512,159.849 C60.017,159.279 57.55,158.742 55.098,157.96 C53.269,157.167 51.344,156.519 49.573,155.737 C49.297,155.327 48.696,155.28 48.424,154.928 C47.557,155.641 47.068,156.694 46.201,157.555 C45.595,159.166 44.542,160.58 43.707,162.076 C43.361,162.49 42.851,162.888 42.83,163.42 C42.106,164.022 41.569,164.633 40.872,165.309 C39.569,165.815 38.42,166.723 37.032,166.856 C36.681,167.297 35.772,166.825 35.415,167.266 C34.219,167.547 33.027,166.957 31.842,167.196 C30.396,166.548 28.8,166.118 27.46,165.442 C25.041,164.069 22.626,162.719 20.18,161.463 C15.2943197,157.835771 10.4859109,154.105603 5.758,150.275 C4.274,148.796 2.791,147.312 1.307,145.83 C0.903,144.648 0.488,143.506 0.233,142.324 C0.536,141.474 0.829,140.697 1.042,139.83 C1.451,139.465 1.834,138.91 2.254,138.549 C2.786,137.465 4.265,137.416 5.222,136.932 C6.318,136.561 7.37,136.586 8.455,136.391 C9.763,136.385 10.721,135.657 11.827,135.45 C11.928,135.046 12.236,134.802 12.364,134.37 C12.619,132.956 11.96,131.536 12.093,130.126 C12.417,129.323 12.657,128.536 12.97,127.696 C13.194,127.106 13.821,126.51 14.321,126.217 C14.715,126.078 14.811,125.707 15.332,125.744 C16.4072522,125.641981 17.4897478,125.641981 18.565,125.744 C19.575,126.105 20.596,126.451 21.596,126.887 C22.09,127.131 22.851,126.983 23.484,127.026 C24.101,126.622 24.425,125.68 25.037,125.34 C25.7819802,123.719332 26.7328194,122.201484 27.866,120.824 C28.19,120.681 28.26,120.345 28.61,120.283 C29.089,120.012 28.914,119.314 28.945,119.07 C28.44,115.799 28.849,112.508 28.812,109.226 C29.073,106.615 29.354,103.941 29.823,101.41 C30.28,99.043 30.919,96.691 31.37,94.332 C32.349,91.496 33.598,88.662 34.673,85.907 C39.985,75.117 46.005,64.705 51.594,54.096 C52.636,52.612 53.386,50.953 54.423,49.512 L54.423,49.241 C54.242,47.837 54.896,46.423 54.694,45.061 L54.694,33.468 C54.418,31.043 54.646,28.607 54.423,26.188 C54.38,25.917 54.327,25.651 54.29,25.38 L54.29,18.504 C54.487,18.451 54.396,18.329 54.423,18.238 C54.247,17.563 54.72,17.084 54.556,16.414 C54.917,15.643 55.082,14.745 55.231,13.92 C56.0321114,12.2278335 57.076878,10.6621997 58.332,9.273 C59.48,8.108 60.752,7.156 61.975,6.104 C63.618,4.769 65.506,3.78 67.367,2.801 C68.611,2.397 69.685,1.7 71.138,1.455 C72.834,0.914 74.648,0.68 76.396,0.712 L76.396,0.712 Z" id="Path" fill="#000000"></path>
            <path d="M83.949,26.866 C84.761,27.382 85.49,27.993 86.373,28.482 C87.049,29.993 86.348,31.625 86.506,33.199 C85.774,35.167 85.268,37.48 83.274,38.592 C82.098,38.608 80.881,38.161 79.77,37.784 C80.807,37.427 82.264,36.901 82.737,35.63 C83.327,34.747 83.63,33.704 83.678,32.662 C83.582,31.423 83.348,30.115 82.598,29.089 C81.9641038,28.3543553 81.1166922,27.83591 80.174,27.606 C78.615,27.313 77.412,28.297 76.668,29.292 C76.297,30.025 75.914,30.775 75.791,31.584 C75.482,33.313 76.127,35.126 76.934,36.573 C76.248,35.844 74.967,35.77 74.579,34.823 C73.458,32.265 73.505,29.372 74.511,26.868 C77.562,25.855 80.885,25.664 83.949,26.866 L83.949,26.866 Z M63.05,26.796 C63.688,27.275 64.672,27.142 65.209,27.806 C66.1735586,30.2515987 66.3610665,32.9350228 65.746,35.491 C65.012,35.453 64.385,36.773 63.996,36.166 C64.826,34.246 64.799,31.928 63.661,30.098 C63.071,29.332 62.263,28.524 61.3,28.481 C60.576,28.79 59.789,28.858 59.279,29.561 C58.104,30.923 57.949,32.863 58.067,34.549 C58.322,36.24 59.417,37.745 60.965,38.458 C60.253,38.857 59.583,39.197 58.806,39.399 C57.823,38.213 57.312,36.74 56.849,35.288 C56.205,33.198 56.572,31.102 56.583,29.018 C57.354,28.146 58.354,27.502 59.413,27.066 C60.242,26.467 61.938,26.791 63.05,26.796 L63.05,26.796 Z M84.486,49.78 C85.347,52.291 85.82,54.885 86.506,57.465 C87.309,60.331 88.74,62.953 89.809,65.692 C90.985,67.926 92.139,70.17 93.112,72.563 C93.155,72.659 93.208,72.738 93.251,72.834 C95.595,77.929 97.899,83.013 100.259,88.134 C101.706,91.952 103.015,95.792 104.036,99.796 C104.12,101.831 104.972,103.8 104.706,105.862 C103.62,109.739 102.823,113.727 101.472,117.524 C101.158,118.231 100.91,118.965 100.329,119.477 C100.052,119.471 100.063,119.752 99.786,119.747 C99.243,120.222 98.802,120.759 98.505,121.435 C98.0497099,122.756621 97.8231289,124.146205 97.835,125.544 C97.233,125.47 96.825,125.087 96.351,124.8 C95.357,124.544 94.406,124.204 93.384,123.991 C92.214,124.136 90.103,123.278 89.747,124.737 C89.198,125.448 88.741,125.676 88.263,126.423 C87.6502784,130.148265 87.2453192,133.904738 87.05,137.675 C87.183,140.185 86.763,142.706 86.911,145.226 C85.268,146.316 83.429,147.093 81.52,147.72 C80.045,148.183 78.622,148.736 76.801,148.8 C75.186,149.06 73.531,149.081 71.951,149.337 C69.521,149.464 67.091,149.353 64.672,149.405 C62.917,149.21 60.997,148.862 59.413,148.729 C56.015,147.959 52.664,147.04 49.575,145.358 C49.628,144.163 50.272,142.827 49.841,141.518 C48.054,136.489 45.555,131.756 43.508,126.825 C41.679,122.167 40.27,117.366 38.45,112.739 C37.329,110.35 36.297,107.93 35.483,105.458 C35.02,104.825 35.478,104.071 35.621,103.433 C36.286,100.031 37.769,96.978 38.993,93.728 C41.008,89.697 42.785,85.555 45.193,81.731 C46.379,79.758 46.331,77.466 47.012,75.328 C47.804,72.728 49.129,70.415 50.245,67.985 C51.92,65.325 53.138,62.427 54.76,59.758 C56.196,56.785 57.222,53.43 58.738,50.729 C59.674,51.585 60.69,52.271 61.636,53.154 C62.923,53.776 64.295,54.414 65.746,54.366 C67.725,54.664 69.698,54.377 71.68,54.366 C74.35,53.925 77.01,53.324 79.366,52.011 C81.036,51.165 82.63,50.054 84.284,49.379 C84.354,49.514 84.416,49.647 84.486,49.78 L84.486,49.78 Z M35.014,87.393 C35.051,87.26 35.109,87.122 35.147,86.989 C35.109,87.121 35.051,87.26 35.014,87.393 Z M34.206,89.957 L34.206,89.818 L34.206,89.957 Z" id="Shape" fill="#FFFFFF"></path>
            <path d="M70.936,33.741 C71.735,33.991 72.643,34.071 73.297,34.55 C73.5,34.923 73.979,35.162 74.106,35.56 C76.797,37.038 79.424,38.565 82.465,39.197 C83.879,39.032 85.268,39.633 86.506,40.346 C86.852,40.777 87.225,41.122 87.586,41.49 C87.75,42.464 88.4,43.239 88.061,44.388 C87.821,44.967 87.75,45.707 87.315,46.143 C86.704,46.674 86.448,47.424 85.768,47.892 C83.008,49.168 80.635,51.008 77.748,52.141 C74.732,53.454 70.93,53.758 67.096,53.959 C65.991,53.763 64.804,53.773 63.794,53.422 C63.049,53.247 62.331,52.747 61.704,52.475 C60.017,51.034 58.034,49.89 56.716,48.03 C56.641,47.45 56.279,47.328 56.11,46.817 C55.579,45.919 55.663,43.967 56.041,42.972 C56.095,42.334 56.621,41.818 56.717,41.286 C58.865,39.797 61.386,39.105 63.524,37.648 C64.577,36.233 66.561,35.867 67.571,34.548 C68.676,34.257 69.75,33.327 70.936,33.741 L70.936,33.741 Z" id="Path" fill="#E7BF5D"></path>
            <path d="M84.082,45.196 C82.736,46.606 80.85,46.946 79.094,47.557 C74.865,48.259 70.643,48.807 66.422,49.04 C64.6261138,49.1420005 62.8258862,49.1420005 61.03,49.04 C59.838,48.844 58.674,48.269 57.658,47.626 C57.153,46.999 56.382,46.418 56.313,45.6 C57.749,46.211 58.472,47.956 60.221,48.094 C63.902,48.807 67.586,48.211 71.276,47.961 C75.631,47.589 80.412,46.403 84.082,45.196 L84.082,45.196 Z" id="Path" fill="#000000"></path>
            <path d="M54.291,18.506 C54.329,18.416 54.381,18.331 54.424,18.24 C54.397,18.331 54.488,18.453 54.291,18.506 Z M82.125,22.415 C82.662,22.532 82.977,23.096 83.545,23.09 C84.15,23.738 84.693,24.43 85.295,25.111 C85.518,26.264 86.496,27.227 86.373,28.482 C85.49,27.993 84.762,27.381 83.949,26.866 C80.885,25.664 77.562,25.855 74.51,26.866 C74.6,26.116 75.285,25.531 75.455,24.845 C76.201,23.771 77.334,22.957 78.557,22.484 C79.641,21.803 80.949,22.223 82.125,22.415 L82.125,22.415 Z M61.433,23.43 C61.949,23.574 62.268,24.095 62.784,24.169 C63.428,24.925 64.193,25.589 64.672,26.461 C65.028,26.838 64.927,27.428 65.209,27.806 C64.672,27.141 63.688,27.274 63.05,26.796 C61.938,26.79 60.242,26.466 59.413,27.067 C58.354,27.503 57.354,28.147 56.583,29.019 L56.583,28.078 C56.8467426,26.9526912 57.254435,25.8660717 57.796,24.845 C58.407,24.451 58.663,23.765 59.413,23.563 C59.843,23.217 60.864,23.366 61.433,23.43 L61.433,23.43 Z M54.424,26.19 C54.291,25.919 54.291,25.653 54.291,25.382 C54.329,25.653 54.381,25.919 54.424,26.19 Z M54.424,49.514 C54.291,49.418 54.291,49.338 54.424,49.243 L54.424,49.514 Z M93.25,72.833 C93.207,72.738 93.154,72.658 93.111,72.562 C93.309,72.556 93.223,72.737 93.25,72.833 Z M36.226,84.293 C36.269,84.197 36.322,84.118 36.359,84.022 C36.322,84.118 36.269,84.197 36.226,84.293 Z M66.692,90.291 C66.825,91.025 66.777,91.902 66.963,92.514 C66.038,98.073 65.416,103.602 64.873,109.229 C64.357,113.856 64.496,118.499 63.725,123.12 C63.592,123.524 63.294,124.061 62.848,124.331 C62.465,124.423 62.252,124.204 62.108,123.991 C61.874,123.497 61.629,123.124 61.635,122.444 C61.359,121.438 61.529,120.465 61.502,119.477 C61.677,113.254 62.369,107.049 63.119,100.875 C63.619,97.572 63.832,94.248 64.874,91.031 C65.0219061,90.5957142 65.3054437,90.2192997 65.683,89.957 C65.938,89.893 65.992,89.766 66.289,89.818 C66.421,89.982 66.56,90.127 66.692,90.291 Z" id="Shape" fill="#C6C7C9"></path>
            <path d="M33.195,119.344 C33.907,119.604 34.343,120.264 35.014,120.625 C35.673,122.252 36.583,123.65 37.237,125.271 C39.21,130.41 40.848,135.63 42.496,140.912 C42.623,141.801 43.038,142.523 43.166,143.471 C43.331,147.576 44.454,151.602 44.517,155.739 C44.309,156.749 44.692,158.137 44.182,158.909 C43.772,160.552 42.953,161.907 42.156,163.423 C41.316,164.194 40.646,165.077 39.46,165.38 C38.848,165.747 38.119,166.019 37.306,166.189 C35.843,166.627 33.934,166.757 32.18,166.593 C30.941,166.136 29.622,165.775 28.409,165.312 C25.74,163.669 22.889,162.312 20.182,160.861 C15.667,157.299 10.955,153.814 6.569,150.215 C4.952,148.572 3.335,146.94 1.714,145.297 C1.506,144.356 1.15,143.397 0.773,142.531 C1.071,141.51 1.576,140.552 1.853,139.562 C2.289,139.234 2.757,138.703 3.065,138.419 C4.134,138.021 5.15,137.409 6.298,137.339 C7.505,137.009 9.09,137.196 10.206,136.663 C11.047,136.202 12.323,136.19 12.637,135.181 C12.743,134.745 12.913,134.447 13.174,134.101 C13.1,133.234 12.844,132.347 12.839,131.474 C12.775,130.943 12.626,129.974 12.972,129.587 C12.967,128.683 13.733,127.976 13.849,127.161 C14.296,126.917 14.652,126.559 15.194,126.423 C15.912,126.48 16.503,126.023 17.221,126.284 C17.933,126.401 18.667,126.278 19.374,126.688 C20.108,127.133 21.134,127.059 21.805,127.633 C22.326,127.762 22.922,127.67 23.485,127.697 C24.331,127.015 24.734,126.154 25.575,125.474 C26.144,124.394 26.681,123.298 27.399,122.304 C27.755,121.763 28.17,121.304 28.611,120.825 C29.239,120.587 29.617,120.054 30.228,119.88 C31.057,119.39 32.014,119.077 32.993,119.071 C32.993,119.248 33.158,119.178 33.195,119.344 L33.195,119.344 Z M94.596,124.938 C95.192,124.975 95.828,125.299 96.35,125.407 C96.754,125.618 96.995,126.077 97.563,126.081 C97.764,127.683 97.329,129.321 97.764,130.936 C97.918,131.674 98.301,132.399 98.643,133.026 C99.483,134.1 100.823,134.622 101.807,135.52 C103.098,136.1 104.364,136.834 105.784,137.067 C106.934,137.372 108.858,137.674 109.964,137.067 C110.3,136.792 110.816,136.663 111.114,136.462 C111.948,135.702 112.516,134.814 113.204,133.968 C114.118,131.857 115.288,129.872 116.304,127.837 C116.681,127.985 116.761,128.437 117.113,128.646 C118.16,130.257 117.693,132.431 118.861,133.968 C119.379,134.298 119.681,135.021 120.345,135.048 C121.277,135.218 122.419,134.98 123.243,135.249 C125.938,134.69 128.722,134.575 131.466,134.845 C132.337,135.058 133.146,135.724 133.958,135.925 C134.634,136.589 135.208,137.441 135.847,138.079 C135.868,139.364 135.82,140.69 135.443,141.923 C134.013,143.972 132.816,146.044 131.402,148.054 C128.945,150.38 126.892,153.208 124.797,155.74 C122.967,157.336 121.547,159.426 119.942,161.133 C119.309,161.713 118.651,162.217 118.055,162.887 C117.215,163.266 116.715,164.057 115.83,164.366 C114.15,165.925 112.23,167.095 110.641,168.817 C109.631,169.237 108.674,169.876 107.674,170.37 C105.381,171.19 102.914,171.556 100.531,171.515 C99.308,171.052 97.963,171.327 96.756,170.636 C96.113,170.249 95.33,170.074 94.735,169.626 C93.475,168.659 92.374,167.483 91.364,166.255 C90.88,165.548 90.657,164.903 90.354,164.101 C89.333,159.82 88.524,155.535 87.588,151.226 C87.656,146.265 87.418,141.048 87.789,136.331 C87.986,134.927 87.662,133.21 88.062,132.019 C88.22,130.078 88.773,128.148 88.937,126.222 C89.576,125.796 89.88,125.142 90.417,124.601 C91.809,124.709 93.59,124.32 94.596,124.938 Z M44.789,149 C45.985,150.01 47.612,150.479 48.224,152.102 C48.415,152.612 48.698,153.26 48.628,153.852 C47.373,155.51 45.384,156.745 44.991,158.977 C45.395,155.553 44.949,152.127 44.316,148.729 C44.399,148.857 44.74,148.787 44.789,149 Z" id="Shape" fill="#E7BF5D"></path>
            <path d="M35.014,87.393 C34.987,87.5 34.971,87.622 34.945,87.729 C34.971,87.621 34.987,87.5 35.014,87.393 Z M34.206,89.957 C34.164,90.047 34.11,90.127 33.865,90.35 C34.11,90.127 34.163,90.047 34.206,89.957 Z M34.875,87.797 C34.848,87.904 34.838,88.026 34.811,88.133 C34.838,88.025 34.849,87.904 34.875,87.797 Z M34.743,88.201 C34.717,88.308 34.701,88.43 34.674,88.537 C34.7,88.43 34.716,88.309 34.743,88.201 Z M34.61,88.605 C34.583,88.712 34.567,88.834 34.541,88.941 C34.567,88.834 34.583,88.713 34.61,88.605 Z" id="Shape" fill="#FFFFFF"></path>
            <path d="M33.259,97.572 C33.195,97.572 33.301,98.203 33.36,98.859 C33.429,98.816 33.462,99.433 33.429,100.091 C33.323,99.415 33.233,98.794 33.259,98.853 C33.221,98.73 33.147,98.273 33.11,97.912 C33.03,97.545 32.962,96.971 33.025,97.359 C32.898,96.773 33.062,95.933 33.078,95.236 C33.126,94.933 33.12,95.211 33.28,92.992 C33.536,91.303 34.036,89.541 36.301,84.138 C34.004,90.286 33.759,91.281 33.786,91.476 C33.632,91.839 33.525,93.083 33.451,93.923 C33.354,94.609 33.2,96.418 33.259,97.572 L33.259,97.572 Z M103.832,73.982 C103.789,74.019 103.736,74.072 103.693,74.115 C103.736,74.072 103.789,74.019 103.832,73.982 Z" id="Shape" fill="#FFFFFF"></path>
            <path d="M106.123,81.464 C106.832,83.357 106.869,85.574 106.996,87.392 C107.258,90.621 106.99,93.865 106.996,97.097 C106.48,102.495 105.746,107.925 104.572,113.275 C104.47,113.998 103.937,114.529 103.763,115.164 C103.63,115.312 103.492,115.312 103.359,115.164 C103.486,114.717 103.757,114.435 103.896,114.014 C104.591,110.924 105.146,107.762 105.72,104.651 C106.097,102.237 106.15,99.821 106.325,97.434 L106.458,97.301 C106.278,95.615 106.761,93.924 106.591,92.244 C106.788,92.111 106.702,91.883 106.73,91.707 C106.863,89.414 106.341,87.117 106.459,84.83 C106.354,82.926 105.492,81.139 105.316,79.305 C105.045,77.496 104.236,75.827 101.828,69.355 C103.789,74.184 103.869,74.248 103.885,74.264 C104.194,75.205 104.768,75.966 104.912,76.88 C105.418,78.241 105.82,79.954 106.123,81.464 L106.123,81.464 Z M34.471,89.01 C34.445,89.115 34.434,89.239 34.408,89.346 C34.434,89.238 34.445,89.115 34.471,89.01 Z" id="Shape" fill="#FFFFFF"></path>
        </g>
    </g>
</svg>