<?xml version="1.0" encoding="UTF-8"?>
<svg width="966px" height="1024px" viewBox="0 0 966 1024" version="1.1" xmlns="http://www.w3.org/2000/svg" xmlns:xlink="http://www.w3.org/1999/xlink">
    <!-- Generator: Sketch 63.1 (92452) - https://sketch.com -->
    <title>navalias-logo</title>
    <desc>Created with Sketch.</desc>
    <defs>
        <linearGradient x1="76.9761191%" y1="17.7439283%" x2="23.493911%" y2="81.9741102%" id="linearGradient-1">
            <stop stop-color="#0A87F5" offset="0%"></stop>
            <stop stop-color="#DC1EB9" offset="100%"></stop>
        </linearGradient>
    </defs>
    <g id="Page-1" stroke="none" stroke-width="1" fill="none" fill-rule="evenodd">
        <g id="Artboard" transform="translate(-50.000000, -26.000000)" fill-rule="nonzero">
            <g id="navalias-logo" transform="translate(50.000000, 26.000000)">
                <path d="M351.336988,506.587082 C394.856847,337.920564 441.191423,169.903596 482.762632,0.80404383 C528.952864,172.573968 571.895345,345.282132 618.229921,516.979884 C625.880178,545.993124 653.233456,570.026479 684.411863,565.912661 C743.376581,561.582327 794.041491,526.795309 844.34554,499.008997 C736.736735,607.916903 628.406207,716.391776 519.642645,824.217098 C513.219316,649.199423 503.836925,474.25392 497.84663,299.164072 C491.784162,207.14447 492.289367,114.691834 483.267838,22.8165762 C473.596758,148.251924 471.864624,274.264651 464.863917,399.916516 C459.667516,541.374101 451.367709,682.759513 446.387824,824.217098 C337.479919,716.608292 229.510252,607.989075 122.478824,498.575964 C174.442835,527.228342 226.984223,564.2527 288.402797,565.840489 C321.746371,567.211761 345.27452,536.610733 351.336988,506.587082 Z" id="Path" fill="url(#linearGradient-1)"></path>
                <path d="M103.569698,244.313172 C182.598297,141.756423 304.93024,74.8527592 433.613338,61.5008953 C426.179598,89.1428622 418.529341,116.784829 412.178184,144.715485 C312.508324,164.346333 219.911344,220.207645 160.008387,302.772684 C99.9610858,383.461246 71.9582578,487.533612 84.4440548,587.419988 C97.5072298,702.751223 163.905688,810.504373 260.688658,874.448975 C355.811667,939.1153 479.370537,958.529632 590.010577,927.567742 C692.350809,899.637086 781.916555,828.980466 833.447533,736.311313 C886.27761,642.992611 899.268613,527.950064 867.512829,425.393315 C826.446826,283.28618 700.506272,171.780074 555.223558,145.365035 C548.222851,117.362207 540.716938,89.4315511 533.716231,61.4287231 C641.758071,72.976281 745.686092,121.33168 822.621697,198.195113 C900.351197,274.481167 950.727418,378.048328 962.274976,486.306684 C976.27639,602.143124 945.675361,722.67076 878.338664,817.938114 C806.166427,921.216585 692.278637,994.61575 567.8537,1015.76222 C437.799328,1038.85733 298.579083,1006.74069 193.424133,926.412986 C69.7209185,835.331623 -2.01828534,682.182135 0.0747095424,529.465681 C5.48762733,427.053277 39.5529233,325.146078 103.569698,244.313172 L103.569698,244.313172 Z" id="Path" fill="#E6E6E6"></path>
            </g>
        </g>
    </g>
</svg>