<?xml version="1.0" encoding="UTF-8"?>
<svg width="187px" height="200px" viewBox="0 0 187 200" version="1.1" xmlns="http://www.w3.org/2000/svg" xmlns:xlink="http://www.w3.org/1999/xlink">
    <!-- Generator: Sketch 63.1 (92452) - https://sketch.com -->
    <title>improvement-icon</title>
    <desc>Created with Sketch.</desc>
    <g id="Page-1" stroke="none" stroke-width="1" fill="none" fill-rule="evenodd">
        <g id="improvement-icon" transform="translate(3.000000, 4.000000)" stroke="#686868" stroke-width="4">
            <g id="Group_785" transform="translate(33.957000, 112.930000)">
                <g id="Group_784" stroke-linecap="round">
                    <path d="M0.27,13.475 C0.27,17.248 3.77,20.212 7.816,20.212 L107.259,20.212 C111.57,20.212 114.805,17.248 114.805,13.475 L114.805,0 L0,0 L0,13.475 L0.27,13.475 Z" id="Path_1052"></path>
                    <path d="M7.81337103,20.212 L7.81337103,74.112 C7.79645442,75.9040847 8.50060783,77.6278802 9.7678638,78.8951362 C11.0351198,80.1623922 12.7589153,80.8665456 14.551,80.849629 L101.327,80.849629 C103.119085,80.8665456 104.84288,80.1623922 106.110136,78.8951362 C107.377392,77.6278802 108.081546,75.9040847 108.064629,74.112 L108.064629,20.212 L7.81337103,20.212 Z" id="Path_1053"></path>
                </g>
                <line x1="20.211" y1="30.452" x2="20.211" y2="47.699" id="Line_434"></line>
                <line x1="20.211" y1="55.515" x2="20.211" y2="61.983" id="Line_435"></line>
            </g>
            <g id="Group_786" stroke-linecap="round" transform="translate(57.132000, 0.013000)">
                <path d="M34.5,0 C34.5,0 -43.114,95.67 34.5,95.67 C112.114,95.67 34.5,0 34.5,0 Z" id="Path_1054"></path>
                <line x1="34.495" y1="0" x2="34.495" y2="112.647" id="Line_436"></line>
                <polyline id="Path_1055" points="8.085 42.041 34.495 58.48 61.175 42.041"></polyline>
                <polyline id="Path_1056" points="0.809 63.33 34.496 80.847 68.452 63.33"></polyline>
                <polyline id="Path_1057" points="19.942 20.751 34.495 30.451 49.317 20.751"></polyline>
            </g>
            <g id="Group_787" transform="translate(123.427000, 19.955000)">
                <path d="M0,76 C46.622,107.8 57.941,0 57.941,0 C57.941,0 26.411,3.234 2.426,13.744" id="Path_1058"></path>
                <line x1="57.941" y1="0.27" x2="11.049" y2="47.162" id="Line_437"></line>
                <polyline id="Path_1059" stroke-linecap="round" points="9.432 11.319 16.439 41.502 46.892 48.778"></polyline>
                <line x1="11.319" y1="60.636" x2="36.921" y2="68.99" id="Line_438"></line>
                <polyline id="Path_1060" stroke-linecap="round" points="32.878 4.581 36.378 21.828 53.625 25.062"></polyline>
            </g>
            <g id="Group_788" transform="translate(0.000000, 19.955000)">
                <path d="M57.94,76 C11.318,107.8 0,0 0,0 C0,0 31.53,3.234 55.515,13.744" id="Path_1061"></path>
                <line x1="0" y1="0.27" x2="46.892" y2="47.162" id="Line_439"></line>
                <polyline id="Path_1062" stroke-linecap="round" points="48.778 11.319 41.502 41.502 11.049 48.778"></polyline>
                <line x1="46.891" y1="60.636" x2="21.02" y2="68.99" id="Line_440"></line>
                <polyline id="Path_1063" stroke-linecap="round" points="25.063 4.581 21.829 21.828 4.312 25.062"></polyline>
            </g>
        </g>
    </g>
</svg>