<svg viewBox="0 0 800 800" xmlns="http://www.w3.org/2000/svg"><path d="m0 400a400 400 0 1 1 400 400c-221.4-1.86-400-180.465-400-400z" fill="#523973"/><path d="m623.854 246.84c0-11.163 0-20.465-1.86-31.628l-46.513-46.512-106.046 106.046-104.186-104.186-27.907 27.907-186.042-189.767-63.26 61.4 61.4 61.4-14.884 14.884-5.581-5.581-27.912 27.897-31.628-31.628-59.535 63.256 40.93 40.93-18.6 14.884 80 80-46.516 46.511 44.651 44.647-68.837 68.842 148.837 148.837c11.163 1.86 22.326 1.86 35.349 1.86 219.535-1.86 398.14-180.465 398.14-399.999z" fill="#231f20" opacity=".23" transform="translate(174.286 153.16)"/><g fill="#f5be64"><path d="m418.9 87.619c-13.023-11.163-27.907-13.019-42.791-14.884-42.791-7.442-85.581-13.023-128.372-22.326-68.837-13.023-137.674-31.628-206.511-37.209-7.442 0-14.884 0-22.326 1.86v1.86c16.744 0 31.628 7.442 40.93 20.465 14.884 22.326 31.628 44.651 44.651 68.837s9.3 39.07-9.3 57.674c-13.023 13.023-29.767 24.186-44.651 37.209l-5.581 5.581c11.163 3.721 18.6 9.3 27.907 13.023 31.628 13.023 61.4 27.907 93.023 40.93 22.326 9.3 46.512 11.163 70.7 5.581q19.535-2.791 5.581-16.744c-1.86-1.86-1.86-3.721-3.721-5.581-9.3-13.023-9.3-22.326 5.581-29.767 11.163-7.442 24.186-11.163 37.209-16.744 24.186-7.442 46.512-13.023 70.7-20.465q11.163-2.791 22.326-11.163c5.581-3.721 5.581-9.3 0-13.023a106.722 106.722 0 0 1 -13.023-7.442 163.606 163.606 0 0 0 18.6-11.163c13.023-7.442 26.047-14.884 39.07-24.186 11.161-5.579 11.161-11.161-.002-22.323z" transform="translate(332.728 232.381)"/><path d="m54.942 95.842c26.047 0 44.651-18.6 46.512-42.791 0-24.186-18.6-44.651-42.791-44.651s-44.652 18.6-44.652 44.651c-1.86 22.326 18.605 42.791 40.931 42.791z" transform="translate(244.593 147.879)"/><path d="m205.042 395.724v-11.162-1.862c0-13.023 0-27.907-1.86-40.93-1.86-46.512-3.721-91.163-5.581-137.674 0-5.581 1.86-7.442 5.581-11.163 18.6-14.884 39.07-29.767 55.814-46.512 16.744-14.884 18.6-24.186 7.442-44.651l-39.07-61.4c-9.3-14.884-24.186-22.326-40.93-26.046-3.721 0-7.442 0-11.163 1.86q-33.488 19.535-66.977 0c-1.86-1.86-5.581-3.721-9.3-1.86-16.744 1.86-31.628 9.3-42.791 24.186-9.307 14.89-20.467 29.773-29.769 44.656-5.581 9.3-11.163 18.6-14.884 27.907-3.721 7.442-3.721 16.744 1.86 22.326 18.6 22.326 42.791 37.209 65.116 55.814 1.86-13.023 1.86-27.907 1.86-40.93 0-3.721-3.721-9.3-5.581-13.023-5.581-5.581-11.163-11.163-16.744-14.884 7.442-11.163 14.884-20.465 22.326-31.628h3.721c1.86 18.6 3.721 37.209 5.581 57.674 0 3.721 1.86 9.3 3.721 11.163 5.581 1.86 11.163 5.581 14.884-1.86 0-1.86 3.721-1.86 5.581-1.86h13.021c7.442 0 14.884 0 14.884 11.163 9.3 0 18.6-1.86 26.046-1.86 1.86 0 5.581-1.86 7.442-3.721 5.581-3.721 9.3-9.3 14.884-13.023s7.442-9.3 7.442-14.884c0-13.023 3.721-26.047 3.721-39.07h3.721c7.442 9.3 14.884 20.465 22.326 29.767-13.023 13.023-26.047 24.186-39.07 35.349-11.163 9.3-13.023 20.465-7.442 33.488 0 1.86 1.86 3.721 1.86 5.581a1.822 1.822 0 0 0 -1.86 1.86c-3.721-5.581-7.442-13.023-11.163-18.6-5.581 0-13.023 0-20.465 1.86-3.721 0-7.442 0-11.163 5.581-3.721 7.442-27.907 7.442-29.767 0-3.721-11.163-11.163-7.442-20.465-11.163-3.721 76.279-7.442 150.7-9.3 225.116-9.3 1.86-16.744 5.581-16.744 11.163 0 7.442 13.023 11.163 29.767 11.163s29.767-5.581 29.767-11.163c0-1.86-1.86-3.721-3.721-5.581 1.86-3.721 2.832-17.131 2.832-17.131 5.581-46.512 13.912-90.776 19.494-137.288h1.86c9.3 46.512 16.744 91.163 26.046 139.535 0 0 .5 2.736 1.86 7.442-5.581 1.86-6.563 5.581-6.563 9.3 0 7.442 9.927 6.832 26.671 6.832s30.125-1.25 30.125-6.832c-.018-7.414-7.441-11.164-14.883-13.025z" transform="translate(157.748 238.694)"/></g></svg>