<svg id="Group_2" data-name="Group 2" xmlns="http://www.w3.org/2000/svg" viewBox="0 0 800 800">
  <defs>
    <style>
      .cls-1 {
        fill: #523973;
      }

      .cls-2 {
        fill: #231f20;
        opacity: 0.23;
      }

      .cls-3 {
        fill: #f5be64;
      }
    </style>
  </defs>
  <path id="Path_9" data-name="Path 9" class="cls-1" d="M0,400A400,400,0,1,1,400,800C178.6,798.14,0,619.535,0,400Z"/>
  <path id="Path_10" data-name="Path 10" class="cls-2" d="M612.191,286.988,463.353,138.151,387.074,214.43,186.144,13.5,9.4,190.244,361.028,541.872A402.65,402.65,0,0,0,612.191,286.988Z" transform="translate(165.484 237.663)"/>
  <g id="Group_1" data-name="Group 1" transform="translate(158.54 230.698)">
    <path id="Path_11" data-name="Path 11" class="cls-3" d="M153.487,180c-1.86-1.86-3.721-3.721-5.581-3.721L32.557,60.927C21.394,49.764,21.394,34.88,30.7,21.857,41.86,10.694,58.6,8.834,69.766,20h1.86L211.162,159.531c7.442,7.442,11.163,16.744,7.442,26.046-1.86,5.581-5.581,9.3-7.442,13.023-22.326,24.186-46.512,46.512-70.7,70.7L71.627,338.136c-7.442,7.442-16.744,11.163-27.907,7.442s-16.744-11.163-18.6-22.326c-1.86-9.3,1.86-16.744,7.442-24.186l59.535-59.535,57.674-57.674Z" transform="translate(262.856 -10.694)"/>
    <path id="Path_12" data-name="Path 12" class="cls-3" d="M75.1,181.7c1.86,1.86,3.721,1.86,5.581,3.721L196.028,300.772c14.884,14.884,9.3,39.07-11.163,46.512-11.163,3.721-20.465,1.86-27.907-7.442-9.3-7.442-16.744-16.744-26.046-26.046L17.423,200.307C9.981,192.865,6.26,183.563,9.981,172.4c1.86-5.581,5.581-9.3,9.3-13.023C54.632,122.167,91.842,86.819,129.051,49.609L156.958,21.7c13.023-13.023,29.767-11.163,40.93-1.86,9.3,9.3,13.023,27.907-1.86,40.93-39.07,37.209-76.279,76.279-115.349,115.349Z" transform="translate(-8.522 -12.4)"/>
  </g>
</svg>
