<svg viewBox="0 0 70.037 70" xmlns="http://www.w3.org/2000/svg" xmlns:xlink="http://www.w3.org/1999/xlink"><linearGradient id="a" gradientUnits="objectBoundingBox" x1=".5" x2=".5" y2="1"><stop offset="0" stop-color="#004aff" stop-opacity="0"/><stop offset="1" stop-color="#004aff"/></linearGradient><g transform="translate(.037)"><path d="m0 0h70v70h-70z" fill="none"/><path d="m23.333 0a23.333 23.333 0 1 1 -23.333 23.333 23.333 23.333 0 0 1 23.333-23.333z" fill="url(#a)" opacity=".12" transform="translate(23.333 11.667)"/><g fill="none" stroke="#7d5ab5" stroke-miterlimit="10" stroke-width="1.5"><path d="m1658.606 1925.039a25.6 25.6 0 0 0 .259-3.621c0-14.139-12.5-25.519-27.932-25.519s-27.933 11.467-27.933 25.519c0 .948.086 1.9.172 2.845" transform="translate(-1602.201 -1889.419)"/><path d="m1603.2 1928.7c1.552 12.759 13.363 22.76 27.76 22.76 14.052 0 25.777-9.569 27.674-21.984" transform="translate(-1602.229 -1893.942)"/><path d="m1603.159 1928.7a25.559 25.559 0 0 0 -.259 3.621 24.608 24.608 0 0 0 7.845 17.76v-6.466a24.929 24.929 0 0 1 -7.586-14.915z" transform="translate(-1602.187 -1893.942)"/><path d="m1656.911 1952.994v-6.294a28.252 28.252 0 0 1 -6.811 4.483v6.38a28.552 28.552 0 0 0 6.811-4.569z" transform="translate(-1608.695 -1896.424)"/><path d="m1649.066 1958.18v-6.38a31.631 31.631 0 0 1 -6.466 2.155v6.38a27.168 27.168 0 0 0 6.466-2.155z" transform="translate(-1607.661 -1897.127)"/><path d="m1666.362 1932.459c0-.948-.086-1.9-.172-2.759a24.861 24.861 0 0 1 -8.19 14.656v6.293a24.337 24.337 0 0 0 8.362-18.19z" transform="translate(-1609.785 -1894.08)"/><path d="m1625.066 1959.866v-6.38a30.693 30.693 0 0 1 -6.466-2.586v6.466a34.623 34.623 0 0 0 6.466 2.5z" transform="translate(-1604.352 -1897.003)"/><path d="m1635.121 1961.369a29.957 29.957 0 0 0 6.293-.69v-6.38a29.11 29.11 0 0 1 -6.207.69h-1.207v6.38z" transform="translate(-1606.475 -1897.472)"/><path d="m1617.676 1956.59v-6.466a28.428 28.428 0 0 1 -5.776-4.224v6.466a27.591 27.591 0 0 0 5.776 4.224z" transform="translate(-1603.428 -1896.314)"/><path d="m1633.011 1961.314v-6.38a29.539 29.539 0 0 1 -6.811-1.035v6.38a28.852 28.852 0 0 0 6.811 1.035z" transform="translate(-1605.4 -1897.417)"/></g><path d="m3.157 24.811h-1.51c-.879 0-1.51-.383-1.555-1.262-.045-.924.608-1.307 1.465-1.349.27-.023.518-.045.879-.068v-16.724c-.383 0-.721.023-1.037 0-.766-.09-1.307-.495-1.307-1.284a1.288 1.288 0 0 1 1.285-1.307c.586-.045 1.194 0 1.78 0 .473-1.017-.428-2.862 1.533-2.772 1.645.068.992 1.6 1.239 2.659h1.33c.023-.5.045-1.014.09-1.51a1.19 1.19 0 0 1 1.262-1.194 1.189 1.189 0 0 1 1.289 1.262 6.234 6.234 0 0 0 .023 1.127c.068.315.27.744.518.834a6 6 0 0 1 2.359 9.377c-.135.18-.248.383-.451.7a6.449 6.449 0 0 1 2.434 6.445 6.132 6.132 0 0 1 -4.777 4.935c-.361 1.059.541 2.817-1.352 2.884-1.825.068-1.1-1.668-1.442-2.7h-1.238c-.383.946.5 2.772-1.465 2.7-1.757-.026-.924-1.717-1.352-2.753zm1.87-2.659c1.51 0 2.93.09 4.327-.023a3.614 3.614 0 0 0 2.975-3.11 4.249 4.249 0 0 0 -1.555-3.628c-1.825-1.082-3.786-.586-5.746-.586zm.045-16.7v6.806c1.217 0 2.344.068 3.448-.023a3.468 3.468 0 0 0 3.088-3.335 3.312 3.312 0 0 0 -2.772-3.447c-1.217-.09-2.456 0-3.763 0z" fill="#7d5ab5" transform="translate(21.321 18.007)"/></g></svg>