<svg xmlns="http://www.w3.org/2000/svg" viewBox="0 0 13.708 18.775">
  <defs>
    <style>
      .cls-1 {
        fill: #9a54c4;
      }
    </style>
  </defs>
  <path id="Path_130" data-name="Path 130" class="cls-1" d="M138.305,132.251H121.919c-.546,0-.819-.273-.819-.546s.273-.546.819-.546h16.113l-.273-.273-4.916-4.916a.953.953,0,0,1-.273-.546c0-.273,0-.273.273-.546a.378.378,0,0,1,.546,0l2.185,2.185,4.1,4.1a.512.512,0,0,1,0,.819l-6.008,6.008-.273.273a.579.579,0,0,1-.819-.819l.273-.273,4.916-4.916C138.032,132.524,138.032,132.251,138.305,132.251Z" transform="translate(138.464 -121.1) rotate(90)"/>
</svg>
