<svg xmlns="http://www.w3.org/2000/svg" viewBox="0 0 13.794 18.894">
  <defs>
    <style>
      .cls-1 {
        fill: #fff;
      }
    </style>
  </defs>
  <path id="downward-arrow" class="cls-1" d="M138.414,132.3H121.924c-.55,0-.824-.275-.824-.55s.275-.55.824-.55h16.214l-.275-.275-4.947-4.947a.96.96,0,0,1-.275-.55c0-.275,0-.275.275-.55a.381.381,0,0,1,.55,0l2.2,2.2,4.122,4.122a.515.515,0,0,1,0,.824l-6.046,6.046-.275.275a.583.583,0,1,1-.824-.824l.275-.275,4.947-4.947C138.139,132.573,138.139,132.3,138.414,132.3Z" transform="translate(138.55 -121.1) rotate(90)"/>
</svg>
