<svg xmlns="http://www.w3.org/2000/svg" xmlns:xlink="http://www.w3.org/1999/xlink" viewBox="0 0 70.891 70"><defs><style>.a,.c{fill:none}.b{opacity:.12;fill:url(#a)}.c{stroke:#7d5ab5;stroke-linecap:round;stroke-linejoin:round;stroke-width:2px}.d{fill:#7d5ab5}</style><linearGradient id="a" x1=".5" x2=".5" y2="1" gradientUnits="objectBoundingBox"><stop offset="0" stop-color="#004aff" stop-opacity="0"/><stop offset="1" stop-color="#004aff"/></linearGradient></defs><g transform="translate(0.891)"><rect class="a" width="70" height="70" transform="translate(0)"/><path class="b" d="M23.333,0A23.333,23.333,0,1,1,0,23.333,23.333,23.333,0,0,1,23.333,0Z" transform="translate(23.333 11.667)"/><g><path class="c" d="M-3473.214,2008.385l5.921-7.742-.2-25.591-4.487-7h13.662l11.386,25.178,10.085-25.178h13.663l-5.27,5.27v30.969l4.619,4.1h-18.8l4.424-4.1V1977.22l-12.817,32.075-13.988-30.514v21.86l5.855,7.742Z" transform="translate(0.11 14.282) translate(3473.214 -1968.047)"/></g><path class="d" d="M-2950.243,1622.959l2.574,3.876-.832,22.434h-2.425Z" transform="translate(2956.807 -1602.245)"/><path class="d" d="M-2921.811,1638.327l-4.13,15.7,13.993-31.653,1.244-9.14Z" transform="translate(2948.017 -1598.822)"/></g></svg>