<svg viewBox="0 0 70 70" xmlns="http://www.w3.org/2000/svg" xmlns:xlink="http://www.w3.org/1999/xlink"><linearGradient id="a" gradientUnits="objectBoundingBox" x1=".5" x2=".5" y2="1"><stop offset="0" stop-color="#004aff" stop-opacity="0"/><stop offset="1" stop-color="#004aff"/></linearGradient><path d="m0 0h70v70h-70z" fill="none"/><path d="m23.333 0a23.333 23.333 0 1 1 -23.333 23.333 23.333 23.333 0 0 1 23.333-23.333z" fill="url(#a)" opacity=".12" transform="translate(23.333 11.667)"/><path d="m21.2 53.8a9.006 9.006 0 0 1 -7.931-4.724c-1.345-2.253-2.863-4.411-4.286-6.617-2.529-3.859-5.017-7.786-7.613-11.618a8.864 8.864 0 0 1 -1.22-6.8 8.119 8.119 0 0 1 1.72-3.368c2.19-2.769 4.536-5.444 6.82-8.15 2.6-3.082 5.178-6.194 7.79-9.26a8.931 8.931 0 0 1 6.492-3.253c2.284-.156 4.208.813 6.21 1.564q7.767 2.91 15.517 5.9a33.288 33.288 0 0 1 5.334 2.362 7.579 7.579 0 0 1 3.692 6.586 24.161 24.161 0 0 1 -.3 4.114 2.915 2.915 0 0 1 -3.325 2.359 5.045 5.045 0 0 1 -3.676-2.221 5.631 5.631 0 0 0 -4.583-2.581 4.9 4.9 0 0 0 -3.973 1.987 12.731 12.731 0 0 0 -2.691 5.788 11.088 11.088 0 0 0 1.095 7.4c1.861 3.864 8.165 4.9 10.9.7a3.07 3.07 0 0 1 4.286-1.22 2.488 2.488 0 0 1 1.158 2.331c-.063 1.815-.094 3.645-.313 5.459a8.224 8.224 0 0 1 -6.18 7.262c-2.91.766-5.819 1.549-8.744 2.284-2.628.657-5.256 1.267-7.884 1.924-2.034.516-4.051 1.111-6.085 1.6a14.448 14.448 0 0 1 -2.21.192z" fill="none" stroke="#7d5ab5" stroke-width="2" transform="translate(2.045 7.996)"/><path d="m14.564 1-2.964 6.051-3.428-6.051h-3.937l-4.235 9.809h3.954l2.523-5.863 2.781 4.969.491.877h3.963l4.78-9.792zm-3.486 7.056.562.639s-.553-.622-.562-.639z" fill="#7d5ab5" transform="translate(12.659 28.566)"/></svg>