<svg viewBox="0 0 70 70" xmlns="http://www.w3.org/2000/svg" xmlns:xlink="http://www.w3.org/1999/xlink"><linearGradient id="a" gradientUnits="objectBoundingBox" x1=".5" x2=".5" y2="1"><stop offset="0" stop-color="#004aff" stop-opacity="0"/><stop offset="1" stop-color="#004aff"/></linearGradient><path d="m0 0h70v70h-70z" fill="none"/><path d="m23.333 0a23.333 23.333 0 1 1 -23.333 23.333 23.333 23.333 0 0 1 23.333-23.333z" fill="url(#a)" opacity=".12" transform="translate(23.333 11.667)"/><g fill="#7d5ab5" stroke="#7d5ab5"><path d="m34.921 2.635c-1.248 3.637-2.5 7.23-3.7 10.716 3.013.516 6.025.8 8.887 1.571a59.231 59.231 0 0 1 7.445 2.9 1.575 1.575 0 0 0 1.571.022 7.057 7.057 0 0 1 9.276 2.027 7.184 7.184 0 0 1 -.8 9.4 1.932 1.932 0 0 0 -.538 1.27c.323 4.734-1.678 8.457-5.014 11.577a27.743 27.743 0 0 1 -14.568 6.821 37.815 37.815 0 0 1 -23.84-3.053 19.37 19.37 0 0 1 -9.081-8.521 13.206 13.206 0 0 1 -1.4-6.541 1.612 1.612 0 0 0 -.473-1.14 7 7 0 0 1 -2.386-7.532 7.072 7.072 0 0 1 5.939-5.207 6.572 6.572 0 0 1 4.712 1.033 1.194 1.194 0 0 0 1.442 0 33.846 33.846 0 0 1 16.5-4.368 1.114 1.114 0 0 0 1.27-.9c1.162-3.486 2.41-6.929 3.593-10.415.258-.8.559-1.1 1.463-.818 2.69.8 5.444 1.463 8.155 2.238.818.237 1.205.151 1.635-.689a5.453 5.453 0 0 1 5.9-2.991 5.567 5.567 0 0 1 4.5 3.959 5.428 5.428 0 0 1 -1.657 5.853 5.351 5.351 0 0 1 -5.982.968 5.353 5.353 0 0 1 -3.4-4.8c-.043-.646-.215-.9-.861-1.076-2.842-.712-5.661-1.508-8.588-2.304zm-4.734 45.919c2.561-.323 5.121-.538 7.66-.99a25.157 25.157 0 0 0 14.5-7.488 11.865 11.865 0 0 0 .065-16.913c-5.379-5.745-12.351-7.746-19.883-8.284a37.138 37.138 0 0 0 -11.508 1.011 25.545 25.545 0 0 0 -13.427 7.553 11.7 11.7 0 0 0 -.581 15.514 21.755 21.755 0 0 0 9.038 6.692 39.689 39.689 0 0 0 14.136 2.905zm15.364-42.906a4.443 4.443 0 0 0 8.887 0 4.444 4.444 0 1 0 -8.887 0zm-35.031 13.47a6.029 6.029 0 0 0 -8.392 1.851c-1.571 2.539-.947 6.176 1.377 7.639a16.847 16.847 0 0 1 7.015-9.49zm39.1-.022c3.271 2.367 5.939 5.207 7.1 9.231a5.84 5.84 0 0 0 .495-7.962 5.6 5.6 0 0 0 -7.597-1.265z" transform="translate(.651 10)"/><path d="m78.9 116.611a4.332 4.332 0 0 1 4.39-4.411 4.454 4.454 0 0 1 4.433 4.433 4.525 4.525 0 0 1 -4.39 4.39 4.408 4.408 0 0 1 -4.433-4.412zm4.239 3.142a3.113 3.113 0 0 0 3.314-3.034 3.076 3.076 0 0 0 -2.969-3.271 3.158 3.158 0 1 0 -.344 6.3z" transform="translate(-61.274 -78.069)"/><path d="m164.844 112.2a4.294 4.294 0 0 1 4.433 4.368 4.37 4.37 0 0 1 -4.261 4.454 4.412 4.412 0 1 1 -.172-8.822zm-.108 7.553a3.159 3.159 0 1 0 -3.056-3.228 3.177 3.177 0 0 0 3.057 3.228z" transform="translate(-125.313 -78.069)"/><path d="m103.47 184.132a19.121 19.121 0 0 1 -9.532-2.6c-.258-.151-.366-.581-.538-.882.409-.043.9-.258 1.183-.086a17.513 17.513 0 0 0 9.963 2.259 22.476 22.476 0 0 0 7.273-2.023c.194-.086.387-.28.559-.28a9.9 9.9 0 0 1 1.119.129c-.194.3-.3.753-.581.861-1.958.753-3.895 1.549-5.917 2.109a24.468 24.468 0 0 1 -3.529.513z" transform="translate(-72.654 -131.668)"/></g></svg>