<svg xmlns="http://www.w3.org/2000/svg" viewBox="0 0 19.741 13.794">
  <defs>
    <style>
      .cls-1 {
        fill: #fff;
      }
    </style>
  </defs>
  <path id="Path_546" data-name="Path 546" class="cls-1" d="M139.19,132.3H121.961c-.574,0-.861-.275-.861-.55s.287-.55.861-.55H138.9l-.287-.275-5.169-4.947a.948.948,0,0,1-.287-.55c0-.275,0-.275.287-.55a.41.41,0,0,1,.574,0l2.3,2.2,4.307,4.122a.5.5,0,0,1,0,.824l-6.317,6.046-.287.275a.553.553,0,0,1-.861,0,.5.5,0,0,1,0-.824l.287-.275,5.169-4.947C138.9,132.573,138.9,132.3,139.19,132.3Z" transform="translate(-121.1 -124.756)"/>
</svg>
