<svg xmlns="http://www.w3.org/2000/svg" viewBox="0 0 15.164 11.071">
  <defs>
    <style>
      .cls-1 {
        fill: #006eff;
      }
    </style>
  </defs>
  <path id="Path_546" data-name="Path 546" class="cls-1" d="M135,130.809H121.762c-.441,0-.662-.221-.662-.441s.221-.441.662-.441h13.013l-.221-.221-3.97-3.97a.77.77,0,0,1-.221-.441c0-.221,0-.221.221-.441a.305.305,0,0,1,.441,0l1.764,1.764,3.308,3.308a.414.414,0,0,1,0,.662l-4.852,4.852-.221.221a.468.468,0,1,1-.662-.662l.221-.221,3.97-3.97C134.775,131.029,134.775,130.809,135,130.809Z" transform="translate(-121.1 -124.756)"/>
</svg>
