<svg viewBox="0 0 70.186 70" xmlns="http://www.w3.org/2000/svg" xmlns:xlink="http://www.w3.org/1999/xlink"><linearGradient id="a" gradientUnits="objectBoundingBox" x1=".5" x2=".5" y2="1"><stop offset="0" stop-color="#004aff" stop-opacity="0"/><stop offset="1" stop-color="#004aff"/></linearGradient><g transform="translate(.186)"><path d="m0 0h70v70h-70z" fill="none"/><path d="m23.333 0a23.333 23.333 0 1 1 -23.333 23.333 23.333 23.333 0 0 1 23.333-23.333z" fill="url(#a)" opacity=".12" transform="translate(23.333 11.667)"/><path d="m54.077 3.841c-.325 1.079-.839 2.912-1.4 4.728-1.285 4.06-2.586 8.136-3.905 12.179q-3.16 9.738-6.355 19.459a11.162 11.162 0 0 1 -1.148 2.364 2.432 2.432 0 0 1 -3.135.993 6.223 6.223 0 0 1 -1.871-1.164q-4.754-4.4-9.421-8.841c-.394-.377-.651-.411-1.079-.069-1.627 1.336-3.289 2.655-4.95 3.957a8.022 8.022 0 0 1 -1.679 1.028c-2.09.891-3.511.086-3.768-2.141q-.694-6.115-1.25-12.23a1.948 1.948 0 0 0 -1.37-1.867c-3.346-1.337-6.665-2.723-9.988-4.111a12.718 12.718 0 0 1 -1.542-.737 2.035 2.035 0 0 1 -.154-3.648 9.2 9.2 0 0 1 2.5-1.045q12.638-3.443 25.284-6.834 10.637-2.852 21.254-5.704l.411-.1c2.127-.465 3.668.819 3.566 3.783zm-33.128 21.959a4.82 4.82 0 0 0 .445.5q7.94 7.6 15.913 15.19a3.887 3.887 0 0 0 1.062.685 1.339 1.339 0 0 0 1.9-.6 9.519 9.519 0 0 0 .856-1.85q3.726-11.459 7.434-22.936c1.353-4.2 2.724-8.376 3.991-12.59.719-2.364-.137-3.22-2.518-2.6q-10.583 2.824-21.152 5.701-8.941 2.415-17.848 4.865c-2.724.737-5.447 1.422-8.153 2.21-.548.154-.976.754-1.456 1.148a6.5 6.5 0 0 0 1.336 1.062q5.678 2.441 11.391 4.8a1.085 1.085 0 0 0 .771-.017c1.833-.891 3.666-1.816 5.481-2.741 3.923-1.97 7.845-3.923 11.768-5.892 3.563-1.8 7.109-3.614 10.671-5.378a1.211 1.211 0 0 1 1.113.1c.445.428.069.805-.325 1.1-3.272 2.484-6.526 4.985-9.8 7.468-3.015 2.3-6.047 4.556-9.061 6.852-1.284.936-2.517 1.929-3.819 2.923zm15.194-13.292a1.506 1.506 0 0 1 -.1-.171 3.475 3.475 0 0 0 -.445.188c-2.809 1.422-5.635 2.861-8.445 4.3-3.289 1.679-6.543 3.477-9.9 5-1.422.651-2.038 1.233-1.781 2.912.514 3.546.771 7.126 1.165 10.688a13.024 13.024 0 0 0 .291 1.37c.7-2.809 1.2-5.567 1.679-8.325.274-1.593.274-3.323 2.021-4.231a8.089 8.089 0 0 0 1.182-.822c2.724-2.055 5.43-4.128 8.153-6.184 2.052-1.608 4.107-3.166 6.18-4.725zm-17.729 24.82c2.6-1.559 4.556-3.563 6.612-5.036-1.627-1.7-3.186-3.323-4.83-5.019-.583 3.289-1.148 6.543-1.782 10.055z" fill="#7d5ab5" stroke="#7d5ab5" transform="translate(.315 16.956)"/></g></svg>