<svg xmlns="http://www.w3.org/2000/svg" xmlns:xlink="http://www.w3.org/1999/xlink" viewBox="0 0 234 234">
  <defs>
    <style>
      .cls-1 {
        fill: none;
      }

      .cls-2 {
        fill: #fff;
      }

      .cls-3 {
        opacity: 0.12;
        fill: url(#linear-gradient);
      }
    </style>
    <linearGradient id="linear-gradient" x1="0.5" x2="0.5" y2="1" gradientUnits="objectBoundingBox">
      <stop offset="0" stop-color="#fff" stop-opacity="0"/>
      <stop offset="1" stop-color="#fff"/>
    </linearGradient>
  </defs>
  <g id="con-doc" transform="translate(2161 -1227)">
    <rect id="Rectangle_283" data-name="Rectangle 283" class="cls-1" width="234" height="234" transform="translate(-2161 1227)"/>
    <g id="temp_1_" transform="translate(-2161 1258)">
      <path id="Path_15856" data-name="Path 15856" class="cls-2" d="M-17094.5,628.745a2.371,2.371,0,0,1-2.395-2.4V488.4a2.371,2.371,0,0,1,2.395-2.4h98.109a2.376,2.376,0,0,1,2.4,2.4v27.167h26.873a2.377,2.377,0,0,1,2.4,2.4v9.888a2.377,2.377,0,0,1-2.4,2.4,2.375,2.375,0,0,1-2.4-2.4v-7.488h-26.879a2.379,2.379,0,0,1-2.4-2.4V490.8h-93.3V626.345A2.442,2.442,0,0,1-17094.5,628.745Z" transform="translate(17127.488 -486)"/>
      <path id="Path_15857" data-name="Path 15857" class="cls-2" d="M-16988.068,662.728c-5.664,0-32.926-.192-59.324-.384-26.02-.192-50.494-.384-55.582-.384-11.615,0-18.238-3.552-22.848-12.191-4.8-9.023-2.3-19.2-2.207-19.583a2.442,2.442,0,0,1,2.3-1.824h118.936a2.271,2.271,0,0,1,1.732.768,3.037,3.037,0,0,1,.67,1.824,36.743,36.743,0,0,0,1.055,10.944c1.346,4.32,5.857,7.1,5.953,7.2a2.37,2.37,0,0,1,.768,3.264,2.362,2.362,0,0,1-3.266.768c-.291-.192-6.049-3.744-7.965-9.792a34.319,34.319,0,0,1-1.346-10.175h-114.428c-.383,2.976-.674,9.12,2.107,14.4,3.748,7.008,8.74,9.6,18.535,9.6,5.088,0,29.563.192,55.574.384,26.4.192,53.668.384,59.332.384,9.5,0,17.662-11.424,17.662-20.831V584.3a2.374,2.374,0,0,1,2.4-2.4,2.372,2.372,0,0,1,2.4,2.4v52.8C-16965.609,648.713-16975.59,662.728-16988.068,662.728Z" transform="translate(17128.764 -489.841)"/>
      <g id="Group_3544_1_" transform="translate(51.233 90.139)">
        <path id="Path_15858" data-name="Path 15858" class="cls-2" d="M-16205.562,415.2H-16219a2.376,2.376,0,0,1-2.4-2.4,2.376,2.376,0,0,1,2.4-2.4h13.438a2.376,2.376,0,0,1,2.4,2.4A2.376,2.376,0,0,1-16205.562,415.2Z" transform="translate(16221.4 -410.4)"/>
        <path id="Path_15859" data-name="Path 15859" class="cls-2" d="M-16172,415.2h-24a2.376,2.376,0,0,1-2.4-2.4,2.376,2.376,0,0,1,2.4-2.4h24a2.376,2.376,0,0,1,2.4,2.4A2.376,2.376,0,0,1-16172,415.2Z" transform="translate(16220.479 -410.4)"/>
      </g>
      <g id="Group_3545_1_" transform="translate(51.233 45.022)">
        <path id="Path_15860" data-name="Path 15860" class="cls-2" d="M-16198.843,368.2H-16219a2.376,2.376,0,0,1-2.4-2.4,2.377,2.377,0,0,1,2.4-2.4h20.157a2.376,2.376,0,0,1,2.4,2.4A2.376,2.376,0,0,1-16198.843,368.2Z" transform="translate(16221.4 -363.4)"/>
        <path id="Path_15861" data-name="Path 15861" class="cls-2" d="M-16135.082,368.2H-16185a2.376,2.376,0,0,1-2.4-2.4,2.377,2.377,0,0,1,2.4-2.4h49.919a2.377,2.377,0,0,1,2.4,2.4A2.376,2.376,0,0,1-16135.082,368.2Z" transform="translate(16220.038 -363.4)"/>
      </g>
      <path id="Path_15862" data-name="Path 15862" class="cls-2" d="M-17008.686,561.2H-17073a2.375,2.375,0,0,1-2.4-2.4,2.376,2.376,0,0,1,2.4-2.4h64.316a2.376,2.376,0,0,1,2.4,2.4A2.376,2.376,0,0,1-17008.686,561.2Z" transform="translate(17126.629 -488.819)"/>
      <path id="Path_15863" data-name="Path 15863" class="cls-2" d="M-17027.885,608.2H-17073a2.376,2.376,0,0,1-2.4-2.4,2.375,2.375,0,0,1,2.4-2.4h45.117a2.373,2.373,0,0,1,2.4,2.4A2.373,2.373,0,0,1-17027.885,608.2Z" transform="translate(17126.629 -490.702)"/>
      <path id="Path_15864" data-name="Path 15864" class="cls-2" d="M-16939.482,547.721a2.463,2.463,0,0,1-1.729-.672l-11.521-11.519a2.311,2.311,0,0,1,0-3.36,2.321,2.321,0,0,1,3.361,0l11.518,11.519a2.311,2.311,0,0,1,0,3.36A1.968,1.968,0,0,1-16939.482,547.721Z" transform="translate(17121.75 -487.82)"/>
      <path id="Path_15865" data-name="Path 15865" class="cls-2" d="M-16952,572.321a2.471,2.471,0,0,1-1.73-.672,2.327,2.327,0,0,1,0-3.36l21.123-21.119a2.319,2.319,0,0,1,3.359,0,2.324,2.324,0,0,1,0,3.36l-21.123,21.119A1.965,1.965,0,0,1-16952,572.321Z" transform="translate(17121.783 -488.421)"/>
      <path id="Path_15866" data-name="Path 15866" class="cls-2" d="M-17011.3,606.3a2.4,2.4,0,0,1-1.729-.768,2.322,2.322,0,0,1-.479-2.592l8.443-21.407a1.526,1.526,0,0,1,.58-.768l57.594-57.6a2.509,2.509,0,0,1,3.365,0l12.57,12.575a2.318,2.318,0,0,1,0,3.36l-59.42,59.421a2.3,2.3,0,0,1-.865.576l-19.295,7.008A2.976,2.976,0,0,1-17011.3,606.3Zm10.459-22.463-6.33,16.031,13.824-4.992,57.3-57.309-9.215-9.216Z" transform="translate(17124.158 -487.463)"/>
      <path id="Path_15867" data-name="Path 15867" class="cls-2" d="M-16963.2,520a2.457,2.457,0,0,1-1.729-.672l-28.8-28.8a2.311,2.311,0,0,1,0-3.36,2.31,2.31,0,0,1,3.352,0l28.8,28.8a2.318,2.318,0,0,1,0,3.36A1.973,1.973,0,0,1-16963.2,520Z" transform="translate(17123.385 -486.018)"/>
    </g>
    <circle id="Ellipse_2053" data-name="Ellipse 2053" class="cls-3" cx="88.335" cy="88.335" r="88.335" transform="translate(-2104 1256)"/>
  </g>
</svg>
