<svg xmlns="http://www.w3.org/2000/svg" xmlns:xlink="http://www.w3.org/1999/xlink" viewBox="0 0 234 234">
  <defs>
    <style>
      .cls-1, .cls-3, .cls-4, .cls-5 {
        fill: none;
      }

      .cls-2 {
        opacity: 0.12;
        fill: url(#linear-gradient);
      }

      .cls-3, .cls-4, .cls-5 {
        stroke: #815fb7;
      }

      .cls-3 {
        stroke-width: 4px;
      }

      .cls-4 {
        stroke-width: 8px;
      }

      .cls-5 {
        stroke-linecap: round;
        stroke-width: 5px;
      }

      .cls-6 {
        stroke: none;
      }
    </style>
    <linearGradient id="linear-gradient" x1="0.5" x2="0.5" y2="1" gradientUnits="objectBoundingBox">
      <stop offset="0" stop-color="#004aff" stop-opacity="0"/>
      <stop offset="1" stop-color="#002580"/>
    </linearGradient>
  </defs>
  <g id="con-issue" transform="translate(2176 -1525)">
    <rect id="Rectangle_4533" data-name="Rectangle 4533" class="cls-1" width="234" height="234" transform="translate(-2176 1525)"/>
    <path id="Path_15909" data-name="Path 15909" class="cls-2" d="M88.335,0A88.335,88.335,0,1,1,0,88.335,88.335,88.335,0,0,1,88.335,0Z" transform="translate(-2119 1554)"/>
    <g id="Group_3589" data-name="Group 3589" transform="translate(-306.894 539.834)">
      <g id="Group_3588" data-name="Group 3588" transform="translate(-1778.039 1135.513)">
        <g id="Ellipse_2054" data-name="Ellipse 2054" class="cls-3">
          <circle class="cls-6" cx="29.247" cy="29.247" r="29.247"/>
          <circle class="cls-1" cx="29.247" cy="29.247" r="27.247"/>
        </g>
        <line id="Line_7921" data-name="Line 7921" class="cls-4" y2="26.998" transform="translate(29.339 10.687)"/>
        <line id="Line_7922" data-name="Line 7922" class="cls-4" y2="6.749" transform="translate(29.339 41.059)"/>
      </g>
      <path id="Path_15908" data-name="Path 15908" class="cls-5" d="M135.865,120.715c7.03-5.491,10.234-12.979,11.9-21.466,1.706-8.9,2.413-17.8-1.04-26.374-1.414-3.536-3.869-6.656-5.741-10.067a4.355,4.355,0,0,1-.582-3c2.122-7.155,1.331-14.144-1.082-21.008a3,3,0,0,0-2.2-1.581,23.915,23.915,0,0,0-11.606,2.662c-3.37,1.747-6.614,3.786-10.026,5.491a5.739,5.739,0,0,1-3.661.666,85.767,85.767,0,0,0-26.832-2.122c-4.618.374-9.194,1.165-13.77,1.955a6.839,6.839,0,0,1-5.45-.832c-4.826-2.954-9.61-6.115-15.309-7.28a29.578,29.578,0,0,0-5.741-.624A2.74,2.74,0,0,0,42.64,38.6C40.269,45.461,39.4,52.45,41.475,59.605a3.783,3.783,0,0,1-.5,3c-7.738,9.443-9.443,20.259-7.7,31.824A74.407,74.407,0,0,0,36.858,108.9c2.787,7.4,8.486,12.314,15.392,15.933a50.906,50.906,0,0,0,19.136,5.824,14.347,14.347,0,0,1,1.622.291c-1.29,2.621-2.538,5.158-3.744,7.654a4.436,4.436,0,0,0-.291.79c-1.165,4.035-1.955,4.742-6.24,5.034a49.586,49.586,0,0,1-7.446.333c-5.907-.582-9.485-4.659-12.813-9.069a50.972,50.972,0,0,0-5.533-6.406,12.19,12.19,0,0,0-10.816-3.037c-.79.125-1.872.749-2.038,1.331-.166.624.5,1.581,1,2.288a4.912,4.912,0,0,0,1.581,1.331c5.491,3.162,8.278,8.362,10.733,13.894,2.954,6.614,7.946,10.65,15.226,11.232,4.451.333,8.986-.083,13.478-.125h1.914v9.4c0,2-.125,4.035.042,6.032.291,3.7-2.5,6.157-6.7,4.659C35.485,166.85,16.6,149.669,6.7,123.919c-11.814-30.826-7.946-60.237,11.19-87.4C28.205,21.916,42.183,11.89,58.739,5.65,72.467.45,86.778-.964,101.462.575a87.678,87.678,0,0,1,47.091,19.594,86.54,86.54,0,0,1,29.619,45.385c3.619,13.478,4.618,27,2.08,40.726a90.009,90.009,0,0,1-29.7,52.5" transform="translate(-1865.106 1010.178)"/>
    </g>
  </g>
</svg>
